<?xml version="1.0" encoding="UTF-8"?>
<svg xmlns="http://www.w3.org/2000/svg" xmlns:xlink="http://www.w3.org/1999/xlink" width="35px" height="35px" viewBox="0 0 35 35" version="1.1">
<g id="surface1">
<path style="fill-rule:nonzero;fill:rgb(88.627451%,46.27451%,10.588235%);fill-opacity:1;stroke-width:1;stroke-linecap:round;stroke-linejoin:round;stroke:rgb(88.627451%,46.27451%,10.588235%);stroke-opacity:1;stroke-miterlimit:4;" d="M 274.080637 35.486829 L 174.625066 109.411795 L 193.008523 65.817755 Z M 274.080637 35.486829 " transform="matrix(0.109856,0,0,0.109856,0,0)"/>
<path style="fill-rule:nonzero;fill:rgb(89.411765%,46.27451%,10.588235%);fill-opacity:1;stroke-width:1;stroke-linecap:round;stroke-linejoin:round;stroke:rgb(89.411765%,46.27451%,10.588235%);stroke-opacity:1;stroke-miterlimit:4;" d="M 44.411873 35.486829 L 143.085169 110.087396 L 125.59066 65.817755 Z M 44.411873 35.486829 " transform="matrix(0.109856,0,0,0.109856,0,0)"/>
<path style="fill-rule:nonzero;fill:rgb(89.411765%,46.27451%,10.588235%);fill-opacity:1;stroke-width:1;stroke-linecap:round;stroke-linejoin:round;stroke:rgb(89.411765%,46.27451%,10.588235%);stroke-opacity:1;stroke-miterlimit:4;" d="M 238.309344 206.805005 L 211.783118 247.37662 L 268.498039 262.986558 L 284.783578 207.729512 Z M 238.309344 206.805005 " transform="matrix(0.109856,0,0,0.109856,0,0)"/>
<path style="fill-rule:nonzero;fill:rgb(89.411765%,46.27451%,10.588235%);fill-opacity:1;stroke-width:1;stroke-linecap:round;stroke-linejoin:round;stroke:rgb(89.411765%,46.27451%,10.588235%);stroke-opacity:1;stroke-miterlimit:4;" d="M 33.886721 207.729512 L 50.101144 262.986558 L 106.816065 247.37662 L 80.289839 206.805005 Z M 33.886721 207.729512 " transform="matrix(0.109856,0,0,0.109856,0,0)"/>
<path style="fill-rule:nonzero;fill:rgb(89.411765%,46.27451%,10.588235%);fill-opacity:1;stroke-width:1;stroke-linecap:round;stroke-linejoin:round;stroke:rgb(89.411765%,46.27451%,10.588235%);stroke-opacity:1;stroke-miterlimit:4;" d="M 103.580292 138.178172 L 87.792565 162.073111 L 144.080791 164.597725 L 142.089546 104.078104 Z M 103.580292 138.178172 " transform="matrix(0.109856,0,0,0.109856,0,0)"/>
<path style="fill-rule:nonzero;fill:rgb(89.411765%,46.27451%,10.588235%);fill-opacity:1;stroke-width:1;stroke-linecap:round;stroke-linejoin:round;stroke:rgb(89.411765%,46.27451%,10.588235%);stroke-opacity:1;stroke-miterlimit:4;" d="M 214.912217 138.178172 L 175.905152 103.402503 L 174.625066 164.597725 L 230.806618 162.073111 Z M 214.912217 138.178172 " transform="matrix(0.109856,0,0,0.109856,0,0)"/>
<path style="fill-rule:nonzero;fill:rgb(89.411765%,46.27451%,10.588235%);fill-opacity:1;stroke-width:1;stroke-linecap:round;stroke-linejoin:round;stroke:rgb(89.411765%,46.27451%,10.588235%);stroke-opacity:1;stroke-miterlimit:4;" d="M 106.816065 247.37662 L 140.596113 230.913292 L 111.40304 208.120649 Z M 106.816065 247.37662 " transform="matrix(0.109856,0,0,0.109856,0,0)"/>
<path style="fill-rule:nonzero;fill:rgb(89.411765%,46.27451%,10.588235%);fill-opacity:1;stroke-width:1;stroke-linecap:round;stroke-linejoin:round;stroke:rgb(89.411765%,46.27451%,10.588235%);stroke-opacity:1;stroke-miterlimit:4;" d="M 177.896397 230.913292 L 211.783118 247.37662 L 207.089469 208.120649 Z M 177.896397 230.913292 " transform="matrix(0.109856,0,0,0.109856,0,0)"/>
<path style="fill-rule:nonzero;fill:rgb(84.313725%,75.686275%,70.196078%);fill-opacity:1;stroke-width:1;stroke-linecap:round;stroke-linejoin:round;stroke:rgb(84.313725%,75.686275%,70.196078%);stroke-opacity:1;stroke-miterlimit:4;" d="M 211.783118 247.37662 L 177.896397 230.913292 L 180.5988 252.994775 L 180.314337 262.310957 Z M 211.783118 247.37662 " transform="matrix(0.109856,0,0,0.109856,0,0)"/>
<path style="fill-rule:nonzero;fill:rgb(84.313725%,75.686275%,70.196078%);fill-opacity:1;stroke-width:1;stroke-linecap:round;stroke-linejoin:round;stroke:rgb(84.313725%,75.686275%,70.196078%);stroke-opacity:1;stroke-miterlimit:4;" d="M 106.816065 247.37662 L 138.284846 262.310957 L 138.107057 252.994775 L 140.596113 230.913292 Z M 106.816065 247.37662 " transform="matrix(0.109856,0,0,0.109856,0,0)"/>
<path style="fill-rule:nonzero;fill:rgb(13.72549%,20.392157%,27.843137%);fill-opacity:1;stroke-width:1;stroke-linecap:round;stroke-linejoin:round;stroke:rgb(13.72549%,20.392157%,27.843137%);stroke-opacity:1;stroke-miterlimit:4;" d="M 138.782658 193.506334 L 110.585208 185.221333 L 130.497656 176.118499 Z M 138.782658 193.506334 " transform="matrix(0.109856,0,0,0.109856,0,0)"/>
<path style="fill-rule:nonzero;fill:rgb(13.72549%,20.392157%,27.843137%);fill-opacity:1;stroke-width:1;stroke-linecap:round;stroke-linejoin:round;stroke:rgb(13.72549%,20.392157%,27.843137%);stroke-opacity:1;stroke-miterlimit:4;" d="M 179.709852 193.506334 L 187.994853 176.118499 L 208.013976 185.221333 Z M 179.709852 193.506334 " transform="matrix(0.109856,0,0,0.109856,0,0)"/>
<path style="fill-rule:nonzero;fill:rgb(80.392157%,38.039216%,8.627451%);fill-opacity:1;stroke-width:1;stroke-linecap:round;stroke-linejoin:round;stroke:rgb(80.392157%,38.039216%,8.627451%);stroke-opacity:1;stroke-miterlimit:4;" d="M 106.816065 247.37662 L 111.616388 206.805005 L 80.289839 207.729512 Z M 106.816065 247.37662 " transform="matrix(0.109856,0,0,0.109856,0,0)"/>
<path style="fill-rule:nonzero;fill:rgb(80.392157%,38.039216%,8.627451%);fill-opacity:1;stroke-width:1;stroke-linecap:round;stroke-linejoin:round;stroke:rgb(80.392157%,38.039216%,8.627451%);stroke-opacity:1;stroke-miterlimit:4;" d="M 206.982795 206.805005 L 211.783118 247.37662 L 238.309344 207.729512 Z M 206.982795 206.805005 " transform="matrix(0.109856,0,0,0.109856,0,0)"/>
<path style="fill-rule:nonzero;fill:rgb(80.392157%,38.039216%,8.627451%);fill-opacity:1;stroke-width:1;stroke-linecap:round;stroke-linejoin:round;stroke:rgb(80.392157%,38.039216%,8.627451%);stroke-opacity:1;stroke-miterlimit:4;" d="M 230.806618 162.073111 L 174.625066 164.597725 L 179.816526 193.506334 L 188.101527 176.118499 L 208.120649 185.221333 Z M 230.806618 162.073111 " transform="matrix(0.109856,0,0,0.109856,0,0)"/>
<path style="fill-rule:nonzero;fill:rgb(80.392157%,38.039216%,8.627451%);fill-opacity:1;stroke-width:1;stroke-linecap:round;stroke-linejoin:round;stroke:rgb(80.392157%,38.039216%,8.627451%);stroke-opacity:1;stroke-miterlimit:4;" d="M 110.585208 185.221333 L 130.60433 176.118499 L 138.782658 193.506334 L 144.080791 164.597725 L 87.792565 162.073111 Z M 110.585208 185.221333 " transform="matrix(0.109856,0,0,0.109856,0,0)"/>
<path style="fill-rule:nonzero;fill:rgb(89.411765%,45.882353%,12.156863%);fill-opacity:1;stroke-width:1;stroke-linecap:round;stroke-linejoin:round;stroke:rgb(89.411765%,45.882353%,12.156863%);stroke-opacity:1;stroke-miterlimit:4;" d="M 87.792565 162.073111 L 111.40304 208.120649 L 110.585208 185.221333 Z M 87.792565 162.073111 " transform="matrix(0.109856,0,0,0.109856,0,0)"/>
<path style="fill-rule:nonzero;fill:rgb(89.411765%,45.882353%,12.156863%);fill-opacity:1;stroke-width:1;stroke-linecap:round;stroke-linejoin:round;stroke:rgb(89.411765%,45.882353%,12.156863%);stroke-opacity:1;stroke-miterlimit:4;" d="M 208.120649 185.221333 L 207.089469 208.120649 L 230.806618 162.073111 Z M 208.120649 185.221333 " transform="matrix(0.109856,0,0,0.109856,0,0)"/>
<path style="fill-rule:nonzero;fill:rgb(89.411765%,45.882353%,12.156863%);fill-opacity:1;stroke-width:1;stroke-linecap:round;stroke-linejoin:round;stroke:rgb(89.411765%,45.882353%,12.156863%);stroke-opacity:1;stroke-miterlimit:4;" d="M 144.080791 164.597725 L 138.782658 193.506334 L 145.396435 227.606403 L 146.889869 182.696719 Z M 144.080791 164.597725 " transform="matrix(0.109856,0,0,0.109856,0,0)"/>
<path style="fill-rule:nonzero;fill:rgb(89.411765%,45.882353%,12.156863%);fill-opacity:1;stroke-width:1;stroke-linecap:round;stroke-linejoin:round;stroke:rgb(89.411765%,45.882353%,12.156863%);stroke-opacity:1;stroke-miterlimit:4;" d="M 174.625066 164.597725 L 171.887104 182.590045 L 173.096074 227.606403 L 179.816526 193.506334 Z M 174.625066 164.597725 " transform="matrix(0.109856,0,0,0.109856,0,0)"/>
<path style="fill-rule:nonzero;fill:rgb(96.470588%,52.156863%,10.588235%);fill-opacity:1;stroke-width:1;stroke-linecap:round;stroke-linejoin:round;stroke:rgb(96.470588%,52.156863%,10.588235%);stroke-opacity:1;stroke-miterlimit:4;" d="M 179.816526 193.506334 L 173.096074 227.606403 L 177.896397 230.913292 L 207.089469 208.120649 L 208.120649 185.221333 Z M 179.816526 193.506334 " transform="matrix(0.109856,0,0,0.109856,0,0)"/>
<path style="fill-rule:nonzero;fill:rgb(96.470588%,52.156863%,10.588235%);fill-opacity:1;stroke-width:1;stroke-linecap:round;stroke-linejoin:round;stroke:rgb(96.470588%,52.156863%,10.588235%);stroke-opacity:1;stroke-miterlimit:4;" d="M 110.585208 185.221333 L 111.40304 208.120649 L 140.596113 230.913292 L 145.396435 227.606403 L 138.782658 193.506334 Z M 110.585208 185.221333 " transform="matrix(0.109856,0,0,0.109856,0,0)"/>
<path style="fill-rule:nonzero;fill:rgb(75.294118%,67.843137%,61.960784%);fill-opacity:1;stroke-width:1;stroke-linecap:round;stroke-linejoin:round;stroke:rgb(75.294118%,67.843137%,61.960784%);stroke-opacity:1;stroke-miterlimit:4;" d="M 180.314337 262.310957 L 180.5988 252.994775 L 178.109744 250.790183 L 140.418323 250.790183 L 138.107057 252.994775 L 138.284846 262.310957 L 106.816065 247.37662 L 117.80347 256.408338 L 140.098302 271.911602 L 178.394208 271.911602 L 200.795713 256.408338 L 211.783118 247.37662 Z M 180.314337 262.310957 " transform="matrix(0.109856,0,0,0.109856,0,0)"/>
<path style="fill-rule:nonzero;fill:rgb(8.627451%,8.627451%,8.627451%);fill-opacity:1;stroke-width:1;stroke-linecap:round;stroke-linejoin:round;stroke:rgb(8.627451%,8.627451%,8.627451%);stroke-opacity:1;stroke-miterlimit:4;" d="M 177.896397 230.913292 L 173.096074 227.606403 L 145.396435 227.606403 L 140.596113 230.913292 L 138.107057 252.994775 L 140.418323 250.790183 L 178.109744 250.790183 L 180.5988 252.994775 Z M 177.896397 230.913292 " transform="matrix(0.109856,0,0,0.109856,0,0)"/>
<path style="fill-rule:nonzero;fill:rgb(46.27451%,23.921569%,8.627451%);fill-opacity:1;stroke-width:1;stroke-linecap:round;stroke-linejoin:round;stroke:rgb(46.27451%,23.921569%,8.627451%);stroke-opacity:1;stroke-miterlimit:4;" d="M 278.312032 114.212118 L 286.774823 73.391598 L 274.080637 35.486829 L 177.896397 106.922739 L 214.912217 138.178172 L 267.217953 153.503647 L 278.809843 140.027186 L 273.796173 136.400275 L 281.796711 129.110897 L 275.57407 124.310574 L 283.610166 118.194608 Z M 278.312032 114.212118 " transform="matrix(0.109856,0,0,0.109856,0,0)"/>
<path style="fill-rule:nonzero;fill:rgb(46.27451%,23.921569%,8.627451%);fill-opacity:1;stroke-width:1;stroke-linecap:round;stroke-linejoin:round;stroke:rgb(46.27451%,23.921569%,8.627451%);stroke-opacity:1;stroke-miterlimit:4;" d="M 31.82436 73.391598 L 40.287151 114.212118 L 34.882344 118.194608 L 42.918439 124.310574 L 36.802473 129.110897 L 44.80301 136.400275 L 39.78934 140.027186 L 51.310114 153.503647 L 103.580292 138.178172 L 140.596113 106.922739 L 44.411873 35.486829 Z M 31.82436 73.391598 " transform="matrix(0.109856,0,0,0.109856,0,0)"/>
<path style="fill-rule:nonzero;fill:rgb(96.470588%,52.156863%,10.588235%);fill-opacity:1;stroke-width:1;stroke-linecap:round;stroke-linejoin:round;stroke:rgb(96.470588%,52.156863%,10.588235%);stroke-opacity:1;stroke-miterlimit:4;" d="M 267.217953 153.503647 L 214.912217 138.178172 L 230.806618 162.073111 L 207.089469 208.120649 L 238.309344 207.729512 L 284.783578 207.729512 Z M 267.217953 153.503647 " transform="matrix(0.109856,0,0,0.109856,0,0)"/>
<path style="fill-rule:nonzero;fill:rgb(96.470588%,52.156863%,10.588235%);fill-opacity:1;stroke-width:1;stroke-linecap:round;stroke-linejoin:round;stroke:rgb(96.470588%,52.156863%,10.588235%);stroke-opacity:1;stroke-miterlimit:4;" d="M 103.580292 138.178172 L 51.310114 153.503647 L 33.886721 207.729512 L 80.289839 207.729512 L 111.40304 208.120649 L 87.792565 162.073111 Z M 103.580292 138.178172 " transform="matrix(0.109856,0,0,0.109856,0,0)"/>
<path style="fill-rule:nonzero;fill:rgb(96.470588%,52.156863%,10.588235%);fill-opacity:1;stroke-width:1;stroke-linecap:round;stroke-linejoin:round;stroke:rgb(96.470588%,52.156863%,10.588235%);stroke-opacity:1;stroke-miterlimit:4;" d="M 174.625066 164.597725 L 177.896397 106.922739 L 193.115197 65.817755 L 125.59066 65.817755 L 140.596113 106.922739 L 144.080791 164.597725 L 145.325319 182.803393 L 145.396435 227.606403 L 173.096074 227.606403 L 173.273864 182.803393 Z M 174.625066 164.597725 " transform="matrix(0.109856,0,0,0.109856,0,0)"/>
</g>
</svg>
