<svg width="20" height="20" viewBox="0 0 20 20" xmlns="http://www.w3.org/2000/svg" focusable="false"><path fill-rule="evenodd" clip-rule="evenodd" d="M15.8884 2H4.77734V3.71387V4.28529V4.28571H15.8884V4.28529V3.71387V2ZM18.1115 16.2853V16.8567H13.667V16.2853C13.667 15.9696 13.9156 15.7139 14.2225 15.7139H14.2227V6.57185H14.2221V11.0971C14.2221 8.88795 12.481 7.0971 10.3332 7.0971C8.20241 7.0971 6.47187 8.85978 6.44466 11.0448V15.7139C6.75155 15.7139 7.00011 15.9696 7.00011 16.2853V16.8567H2.55566L2.55566 16.2853C2.55566 15.9696 2.80428 15.7139 3.11122 15.7139H3.11133V6.57185H2.55556L2 4.28613H18.6667L18.1111 6.57185H17.556V15.7139C17.8629 15.7139 18.1115 15.9696 18.1115 16.2853ZM18.6669 17.4289C18.6669 17.1132 18.4183 16.8574 18.1113 16.8574H13.6669C13.3599 16.8574 13.1113 17.1132 13.1113 17.4289V18.0003H18.6669V17.4289ZM7 16.8574C7.30695 16.8574 7.55555 17.1132 7.55555 17.4289V18.0003H2V17.4289C2 17.1132 2.24861 16.8574 2.55556 16.8574H7Z"></path></svg>