<svg width="126" height="48" viewBox="0 0 126 48" fill="none" xmlns="http://www.w3.org/2000/svg">
<path d="M71 0.9375H24.125V8.75H71V0.9375Z" fill="currentColor"/>
<path d="M125.688 0.9375H78.8125V8.75H125.688V0.9375Z" fill="currentColor"/>
<path d="M31.9375 8.75H24.125V16.5625H31.9375V8.75Z" fill="currentColor"/>
<path d="M71 8.75H47.5625V16.5625H71V8.75Z" fill="currentColor"/>
<path d="M86.625 8.75H78.8125V16.5625H86.625V8.75Z" fill="currentColor"/>
<path d="M125.688 8.75H102.25V16.5625H125.688V8.75Z" fill="currentColor"/>
<path d="M31.9375 16.5625H0.6875V24.375H31.9375V16.5625Z" fill="currentColor"/>
<path d="M86.625 16.5625H47.5625V24.375H86.625V16.5625Z" fill="currentColor"/>
<path d="M125.688 16.5625H102.25V24.375H125.688V16.5625Z" fill="currentColor"/>
<path d="M8.5 24.375H0.6875V32.1875H8.5V24.375Z" fill="currentColor"/>
<path d="M31.9375 24.375H24.125V32.1875H31.9375V24.375Z" fill="currentColor"/>
<path d="M71 24.375H47.5625V32.1875H71V24.375Z" fill="currentColor"/>
<path d="M86.625 24.375H78.8125V32.1875H86.625V24.375Z" fill="currentColor"/>
<path d="M125.688 24.375H102.25V32.1875H125.688V24.375Z" fill="currentColor"/>
<path d="M8.5 32.1875H0.6875V40H8.5V32.1875Z" fill="currentColor"/>
<path d="M31.9375 32.1875H24.125V40H31.9375V32.1875Z" fill="currentColor"/>
<path d="M71 32.1875H47.5625V40H71V32.1875Z" fill="currentColor"/>
<path d="M86.625 32.1875H78.8125V40H86.625V32.1875Z" fill="currentColor"/>
<path d="M125.688 32.1875H102.25V40H125.688V32.1875Z" fill="currentColor"/>
<path d="M71 40H24.125V47.8125H71V40Z" fill="currentColor"/>
<path d="M125.688 40H78.8125V47.8125H125.688V40Z" fill="currentColor"/>
</svg>
