<svg width="36" height="24" viewBox="0 0 36 24" fill="none" xmlns="http://www.w3.org/2000/svg">
    <path fill-rule="evenodd" clip-rule="evenodd" d="M18 21.8171C21.3875 19.8575 23.6667 16.1949 23.6667 12C23.6667 7.80503 21.3875 4.14241 18 2.18283C19.667 1.21853 21.6024 0.666626 23.6667 0.666626C29.9259 0.666626 35 5.74073 35 12C35 18.2592 29.9259 23.3333 23.6667 23.3333C21.6024 23.3333 19.667 22.7814 18 21.8171ZM18 21.8171C16.333 22.7814 14.3976 23.3333 12.3333 23.3333C6.07411 23.3333 1 18.2592 1 12C1 5.74073 6.07411 0.666626 12.3333 0.666626C14.3976 0.666626 16.333 1.21853 18 2.18283C14.6125 4.14241 12.3333 7.80503 12.3333 12C12.3333 16.1949 14.6125 19.8575 18 21.8171Z" fill="#F0ECF8"/>
    <path d="M23.1667 12C23.1667 16.0092 20.989 19.5104 17.7496 21.3843L18.2504 22.2499C21.786 20.2046 24.1667 16.3806 24.1667 12H23.1667ZM17.7496 2.61563C20.989 4.48952 23.1667 7.99073 23.1667 12H24.1667C24.1667 7.61933 21.786 3.79531 18.2504 1.75002L17.7496 2.61563ZM18.2504 2.61563C19.8433 1.69417 21.6926 1.16663 23.6667 1.16663V0.166626C21.5121 0.166626 19.4907 0.742888 17.7496 1.75002L18.2504 2.61563ZM23.6667 1.16663C29.6498 1.16663 34.5 6.01687 34.5 12H35.5C35.5 5.46459 30.202 0.166626 23.6667 0.166626V1.16663ZM34.5 12C34.5 17.983 29.6498 22.8333 23.6667 22.8333V23.8333C30.202 23.8333 35.5 18.5353 35.5 12H34.5ZM23.6667 22.8333C21.6926 22.8333 19.8433 22.3058 18.2504 21.3843L17.7496 22.2499C19.4907 23.257 21.5121 23.8333 23.6667 23.8333V22.8333ZM17.7496 21.3843C16.1567 22.3058 14.3074 22.8333 12.3333 22.8333V23.8333C14.4879 23.8333 16.5093 23.257 18.2504 22.2499L17.7496 21.3843ZM12.3333 22.8333C6.35025 22.8333 1.5 17.983 1.5 12H0.5C0.5 18.5353 5.79796 23.8333 12.3333 23.8333V22.8333ZM1.5 12C1.5 6.01687 6.35025 1.16663 12.3333 1.16663V0.166626C5.79796 0.166626 0.5 5.46459 0.5 12H1.5ZM12.3333 1.16663C14.3074 1.16663 16.1567 1.69417 17.7496 2.61563L18.2504 1.75002C16.5093 0.742887 14.4879 0.166626 12.3333 0.166626V1.16663ZM12.8333 12C12.8333 7.99073 15.011 4.48952 18.2504 2.61563L17.7496 1.75002C14.214 3.79531 11.8333 7.61933 11.8333 12H12.8333ZM18.2504 21.3843C15.011 19.5104 12.8333 16.0092 12.8333 12H11.8333C11.8333 16.3806 14.214 20.2046 17.7496 22.2499L18.2504 21.3843Z" fill="#9E77F3"/>
    <path fill-rule="evenodd" clip-rule="evenodd" d="M18.0007 21.817C21.3882 19.8574 23.6673 16.1948 23.6673 11.9999C23.6673 7.80494 21.3882 4.14233 18.0007 2.18274C14.6131 4.14233 12.334 7.80494 12.334 11.9999C12.334 16.1948 14.6131 19.8574 18.0007 21.817Z" fill="#BFA1FF"/>
    <path d="M18.0007 21.817L17.7503 22.2498L18.0007 22.3946L18.251 22.2498L18.0007 21.817ZM18.0007 2.18274L18.251 1.74994L18.0007 1.60511L17.7503 1.74994L18.0007 2.18274ZM23.1673 11.9999C23.1673 16.0091 20.9897 19.5103 17.7503 21.3842L18.251 22.2498C21.7867 20.2045 24.1673 16.3805 24.1673 11.9999H23.1673ZM17.7503 2.61554C20.9897 4.48943 23.1673 7.99064 23.1673 11.9999H24.1673C24.1673 7.61924 21.7867 3.79522 18.251 1.74994L17.7503 2.61554ZM12.834 11.9999C12.834 7.99064 15.0116 4.48943 18.251 2.61554L17.7503 1.74994C14.2146 3.79522 11.834 7.61924 11.834 11.9999H12.834ZM18.251 21.3842C15.0116 19.5103 12.834 16.0091 12.834 11.9999H11.834C11.834 16.3805 14.2146 20.2045 17.7503 22.2498L18.251 21.3842Z" fill="#9E77F3"/>
</svg>
