<svg width="13" height="12" viewBox="0 0 13 12" fill="none" xmlns="http://www.w3.org/2000/svg">
<path d="M1.01776 9.81346C0.843257 9.81346 0.694132 9.67796 0.680632 9.50176L0.00113222 0.861879C-0.0141178 0.675509 0.126507 0.512759 0.312882 0.497509L6.62639 0.00113221C6.81276 -0.0141178 6.97539 0.126509 6.99064 0.312879L7.67014 8.95276C7.67689 9.04263 7.64814 9.13076 7.59051 9.20016C7.53289 9.26966 7.44814 9.31026 7.36001 9.31716L1.04663 9.81346C1.03638 9.81346 1.02801 9.81346 1.01776 9.81346ZM0.704382 1.14651L1.32963 9.11036L6.96864 8.66813L6.34339 0.704259L0.704382 1.14651Z" fill="#D8E1FF"/>
<path d="M10.1523 11.4565C10.1321 11.4565 10.1133 11.4548 10.0931 11.4515L3.85756 10.3399C3.76944 10.3246 3.68981 10.2739 3.63894 10.201C3.58806 10.1264 3.56781 10.0366 3.58306 9.94687L3.67456 9.43849C3.70669 9.25374 3.88294 9.13174 4.06757 9.16399C4.25232 9.19612 4.37432 9.37237 4.34207 9.55712L4.31157 9.73162L9.87957 10.7245L11.2808 2.85899L6.73807 2.04899C6.55332 2.01687 6.43132 1.84062 6.46357 1.65587C6.49569 1.47124 6.67194 1.34924 6.85669 1.38149L11.7332 2.25062C11.9179 2.28287 12.0399 2.45912 12.0077 2.64374L10.4862 11.177C10.4709 11.2651 10.4201 11.3447 10.3472 11.3955C10.2879 11.4345 10.2201 11.4565 10.1523 11.4565Z" fill="#D8E1FF"/>
</svg>
