<svg xmlns="http://www.w3.org/2000/svg" xmlns:xlink="http://www.w3.org/1999/xlink" width="1200" zoomAndPan="magnify" viewBox="0 0 900 899.99999" height="1200" preserveAspectRatio="xMidYMid meet" version="1.0"><defs><clipPath id="37258a3583"><path d="M 117.683594 117.683594 L 782.183594 117.683594 L 782.183594 782.183594 L 117.683594 782.183594 Z M 117.683594 117.683594 " clip-rule="nonzero"/></clipPath><clipPath id="2ddddcf613"><path d="M 156.851562 156.851562 L 743.351562 156.851562 L 743.351562 743.351562 L 156.851562 743.351562 Z M 156.851562 156.851562 " clip-rule="nonzero"/></clipPath><clipPath id="703242dc89"><path d="M 500 298 L 586 298 L 586 380 L 500 380 Z M 500 298 " clip-rule="nonzero"/></clipPath><clipPath id="70de664db3"><path d="M 484.359375 339.363281 L 531.550781 281.742188 L 601.777344 339.253906 L 554.585938 396.875 Z M 484.359375 339.363281 " clip-rule="nonzero"/></clipPath><clipPath id="0a34eeabae"><path d="M 507.957031 310.550781 C 494.925781 326.464844 500.0625 352.222656 519.433594 368.085938 C 538.800781 383.949219 565.070312 383.910156 578.101562 367.996094 C 591.132812 352.085938 585.992188 326.328125 566.621094 310.464844 C 547.253906 294.601562 520.988281 294.640625 507.957031 310.550781 Z M 507.957031 310.550781 " clip-rule="nonzero"/></clipPath><clipPath id="6ba122d7ce"><path d="M 118.085938 58.59375 L 217.1875 58.59375 L 217.1875 129.03125 L 118.085938 129.03125 Z M 118.085938 58.59375 " clip-rule="nonzero"/></clipPath><clipPath id="bb01140510"><path d="M 176.394531 63.097656 L 215.546875 116.902344 C 217.238281 119.226562 217.480469 122.300781 216.175781 124.859375 C 214.875 127.417969 212.246094 129.03125 209.371094 129.03125 L 125.765625 129.03125 C 122.894531 129.03125 120.265625 127.417969 118.960938 124.859375 C 117.660156 122.300781 117.902344 119.226562 119.59375 116.902344 L 158.742188 63.097656 C 160.796875 60.273438 164.078125 58.605469 167.570312 58.605469 C 171.058594 58.605469 174.339844 60.273438 176.394531 63.097656 Z M 176.394531 63.097656 " clip-rule="nonzero"/></clipPath><clipPath id="4c4aeddc61"><path d="M 422 421 L 620 421 L 620 625 L 422 625 Z M 422 421 " clip-rule="nonzero"/></clipPath><clipPath id="79bff5b1b3"><path d="M 642.722656 599.554688 L 425.214844 630.882812 L 398.808594 447.535156 L 616.316406 416.207031 Z M 642.722656 599.554688 " clip-rule="nonzero"/></clipPath><clipPath id="65644a98d2"><path d="M 642.722656 599.554688 L 425.214844 630.882812 L 398.808594 447.535156 L 616.316406 416.207031 Z M 642.722656 599.554688 " clip-rule="nonzero"/></clipPath><clipPath id="45f4d59014"><path d="M 642.722656 599.554688 L 425.214844 630.882812 L 398.808594 447.535156 L 616.316406 416.207031 Z M 642.722656 599.554688 " clip-rule="nonzero"/></clipPath><clipPath id="4f5b69ae0b"><path d="M 406 409 L 604 409 L 604 613 L 406 613 Z M 406 409 " clip-rule="nonzero"/></clipPath><clipPath id="33af914fe4"><path d="M 627.148438 587.734375 L 409.640625 619.0625 L 383.234375 435.71875 L 600.738281 404.390625 Z M 627.148438 587.734375 " clip-rule="nonzero"/></clipPath><clipPath id="60a47c6a56"><path d="M 627.148438 587.734375 L 409.640625 619.0625 L 383.234375 435.71875 L 600.738281 404.390625 Z M 627.148438 587.734375 " clip-rule="nonzero"/></clipPath><clipPath id="8f5774e073"><path d="M 627.148438 587.734375 L 409.640625 619.0625 L 383.234375 435.71875 L 600.738281 404.390625 Z M 627.148438 587.734375 " clip-rule="nonzero"/></clipPath><clipPath id="5592621770"><path d="M 564 412 L 619 412 L 619 467 L 564 467 Z M 564 412 " clip-rule="nonzero"/></clipPath><clipPath id="d133e2a6fb"><path d="M 564.960938 411.566406 L 619 413.449219 L 617.113281 467.488281 L 563.078125 465.605469 Z M 564.960938 411.566406 " clip-rule="nonzero"/></clipPath><clipPath id="d1b6d8befa"><path d="M 591.980469 412.507812 C 577.058594 411.988281 564.539062 423.664062 564.019531 438.585938 C 563.5 453.507812 575.171875 466.027344 590.097656 466.546875 C 605.019531 467.066406 617.535156 455.390625 618.058594 440.46875 C 618.578125 425.546875 606.902344 413.027344 591.980469 412.507812 Z M 591.980469 412.507812 " clip-rule="nonzero"/></clipPath><clipPath id="19a7b3b3b5"><path d="M 410 569 L 465 569 L 465 624 L 410 624 Z M 410 569 " clip-rule="nonzero"/></clipPath><clipPath id="d90bfa66dc"><path d="M 411.152344 568.574219 L 465.191406 570.457031 L 463.308594 624.496094 L 409.269531 622.613281 Z M 411.152344 568.574219 " clip-rule="nonzero"/></clipPath><clipPath id="4167f699a2"><path d="M 438.171875 569.515625 C 423.25 568.996094 410.730469 580.671875 410.210938 595.59375 C 409.691406 610.515625 421.367188 623.035156 436.289062 623.554688 C 451.210938 624.074219 463.730469 612.398438 464.25 597.476562 C 464.769531 582.554688 453.09375 570.035156 438.171875 569.515625 Z M 438.171875 569.515625 " clip-rule="nonzero"/></clipPath><clipPath id="17933e387c"><path d="M 117.683594 121.042969 L 217.453125 121.042969 L 217.453125 468.34375 L 117.683594 468.34375 Z M 117.683594 121.042969 " clip-rule="nonzero"/></clipPath><clipPath id="4efa90ad88"><path d="M 188 682 L 687 682 L 687 853 L 188 853 Z M 188 682 " clip-rule="nonzero"/></clipPath><clipPath id="09fa51b54c"><path d="M 380.503906 546.109375 L 707.488281 798.804688 L 494.691406 1074.160156 L 167.707031 821.464844 Z M 380.503906 546.109375 " clip-rule="nonzero"/></clipPath><clipPath id="9ac8d180a5"><path d="M 380.503906 546.109375 L 707.488281 798.804688 L 494.691406 1074.160156 L 167.707031 821.464844 Z M 380.503906 546.109375 " clip-rule="nonzero"/></clipPath><clipPath id="45e40015fb"><path d="M 380.503906 546.109375 L 707.488281 798.804688 L 494.691406 1074.160156 L 167.707031 821.464844 Z M 380.503906 546.109375 " clip-rule="nonzero"/></clipPath></defs><g clip-path="url(#37258a3583)"><path fill="currentColor" d="M 450.085938 117.683594 C 266.511719 117.683594 117.683594 266.511719 117.683594 450.085938 C 117.683594 633.664062 266.511719 782.484375 450.085938 782.484375 C 633.664062 782.484375 782.484375 633.664062 782.484375 450.085938 C 782.484375 266.511719 633.664062 117.683594 450.085938 117.683594 Z M 450.085938 713.238281 C 304.746094 713.238281 186.933594 595.421875 186.933594 450.089844 C 186.933594 304.75 304.746094 186.9375 450.085938 186.9375 C 595.421875 186.9375 713.234375 304.753906 713.234375 450.089844 C 713.234375 595.421875 595.421875 713.238281 450.085938 713.238281 Z M 450.085938 713.238281 " fill-opacity="1" fill-rule="nonzero"/></g><g clip-path="url(#2ddddcf613)"><path fill="currentColor" d="M 450.074219 156.851562 C 288.136719 156.851562 156.851562 288.136719 156.851562 450.074219 C 156.851562 612.015625 288.136719 743.289062 450.074219 743.289062 C 612.015625 743.289062 743.289062 612.015625 743.289062 450.074219 C 743.289062 288.136719 612.015625 156.851562 450.074219 156.851562 Z M 450.074219 682.207031 C 321.867188 682.207031 217.9375 578.277344 217.9375 450.078125 C 217.9375 321.867188 321.867188 217.941406 450.074219 217.941406 C 578.277344 217.941406 682.203125 321.871094 682.203125 450.078125 C 682.203125 578.277344 578.277344 682.207031 450.074219 682.207031 Z M 450.074219 682.207031 " fill-opacity="1" fill-rule="nonzero"/></g><g clip-path="url(#703242dc89)"><g clip-path="url(#70de664db3)"><g clip-path="url(#0a34eeabae)"><path fill="currentColor" d="M 484.359375 339.363281 L 531.550781 281.742188 L 601.777344 339.253906 L 554.585938 396.875 Z M 484.359375 339.363281 " fill-opacity="1" fill-rule="nonzero"/></g></g></g><g clip-path="url(#6ba122d7ce)"><g clip-path="url(#bb01140510)"><path fill="currentColor" d="M 110.765625 50.96875 L 224.507812 50.96875 L 224.507812 129.03125 L 110.765625 129.03125 Z M 110.765625 50.96875 " fill-opacity="1" fill-rule="nonzero"/></g></g><g clip-path="url(#4c4aeddc61)"><g clip-path="url(#79bff5b1b3)"><g clip-path="url(#65644a98d2)"><g clip-path="url(#45f4d59014)"><path fill="currentColor" d="M 435.082031 583.675781 C 449.078125 573.316406 466.742188 563.617188 480.738281 553.257812 C 494.734375 542.898438 508.5625 531.371094 520.054688 520.179688 C 526.386719 514.5 531.378906 507.820312 536.542969 502.308594 C 541.539062 495.628906 546.53125 488.949219 550.359375 482.4375 C 560.347656 469.078125 566.332031 452.71875 575.816406 435.859375 L 577.816406 433.1875 C 583.472656 422.835938 597.140625 418.480469 607.488281 424.144531 C 613.996094 427.972656 618.507812 434.476562 618.347656 441.652344 C 620.378906 464.007812 617.90625 488.207031 609.261719 510.90625 C 604.941406 522.257812 599.28125 532.609375 592.457031 543.128906 C 585.464844 552.480469 578.640625 563 568.976562 570.351562 C 552.324219 587.054688 531.660156 600.757812 510.324219 609.792969 C 488.992188 618.824219 467.152344 624.355469 443.304688 624.214844 C 431.464844 624.726562 422.949219 615.222656 422.433594 603.378906 C 422.589844 596.203125 426.417969 589.691406 431.917969 586.515625 Z M 435.082031 583.675781 " fill-opacity="1" fill-rule="nonzero"/></g></g></g></g><g clip-path="url(#4f5b69ae0b)"><g clip-path="url(#33af914fe4)"><g clip-path="url(#60a47c6a56)"><g clip-path="url(#8f5774e073)"><path fill="currentColor" d="M 419.507812 571.855469 C 433.503906 561.496094 451.167969 551.800781 465.164062 541.441406 C 479.160156 531.078125 492.984375 519.550781 504.480469 508.359375 C 510.808594 502.679688 515.804688 496 520.96875 490.488281 C 525.960938 483.808594 530.957031 477.128906 534.785156 470.617188 C 544.773438 457.257812 550.757812 440.902344 560.242188 424.039062 L 562.238281 421.367188 C 567.898438 411.015625 581.566406 406.664062 591.914062 412.324219 C 598.421875 416.15625 602.929688 422.65625 602.773438 429.832031 C 604.800781 452.1875 602.332031 476.386719 593.6875 499.085938 C 589.363281 510.4375 583.707031 520.789062 576.882812 531.308594 C 569.890625 540.660156 563.066406 551.179688 553.402344 558.53125 C 536.746094 575.234375 516.085938 588.9375 494.75 597.972656 C 473.414062 607.003906 451.578125 612.535156 427.730469 612.394531 C 415.890625 612.90625 407.371094 603.40625 406.859375 591.558594 C 407.015625 584.382812 410.84375 577.871094 416.34375 574.695312 Z M 419.507812 571.855469 " fill-opacity="1" fill-rule="nonzero"/></g></g></g></g><g clip-path="url(#5592621770)"><g clip-path="url(#d133e2a6fb)"><g clip-path="url(#d1b6d8befa)"><path fill="currentColor" d="M 564.960938 411.566406 L 619 413.449219 L 617.113281 467.488281 L 563.078125 465.605469 Z M 564.960938 411.566406 " fill-opacity="1" fill-rule="nonzero"/></g></g></g><g clip-path="url(#19a7b3b3b5)"><g clip-path="url(#d90bfa66dc)"><g clip-path="url(#4167f699a2)"><path fill="currentColor" d="M 411.152344 568.574219 L 465.191406 570.457031 L 463.308594 624.496094 L 409.269531 622.613281 Z M 411.152344 568.574219 " fill-opacity="1" fill-rule="nonzero"/></g></g></g><g clip-path="url(#17933e387c)"><path fill="currentColor" d="M 117.683594 121.042969 L 217.453125 121.042969 L 217.453125 468.292969 L 117.683594 468.292969 Z M 117.683594 121.042969 " fill-opacity="1" fill-rule="nonzero"/></g><g clip-path="url(#4efa90ad88)"><g clip-path="url(#09fa51b54c)"><g clip-path="url(#9ac8d180a5)"><g clip-path="url(#45e40015fb)"><path fill="currentColor" d="M 630.886719 847.207031 C 598.589844 841.855469 562.382812 830.683594 530.085938 825.332031 C 497.785156 819.980469 464.132812 816.382812 433.988281 815.496094 C 418.039062 814.375 402.488281 816.363281 388.292969 816.601562 C 372.742188 818.589844 357.191406 820.578125 343.394531 823.921875 C 312.296875 827.902344 282.390625 841.210938 247.226562 850.449219 L 241.003906 851.246094 C 219.632812 857.140625 195.867188 844.375 189.960938 823.003906 C 186.609375 809.207031 189.480469 794.617188 199.367188 785.449219 C 226.875 753.484375 262.753906 725.1875 304.699219 707.175781 C 325.671875 698.171875 347.042969 692.277344 370.167969 687.738281 C 391.9375 684.953125 415.0625 680.414062 437.632812 683.851562 C 481.972656 684.5 527.511719 694.480469 567.625 711.476562 C 607.742188 728.46875 643.792969 750.726562 674.820312 783.109375 C 691.007812 798.421875 689.339844 822.34375 674.03125 838.527344 C 664.144531 847.695312 650.347656 851.039062 638.863281 847.765625 Z M 630.886719 847.207031 " fill-opacity="1" fill-rule="nonzero"/></g></g></g></g></svg>