<?xml version="1.0" encoding="UTF-8"?>
<svg xmlns="http://www.w3.org/2000/svg" xmlns:xlink="http://www.w3.org/1999/xlink" width="35px" height="35px" viewBox="0 0 35 35" version="1.1">
<g id="surface1">
<path style=" stroke:none;fill-rule:nonzero;fill:rgb(34.509804%,39.607843%,94.901961%);fill-opacity:1;" d="M 29.648438 6.164062 C 27.382812 5.105469 24.960938 4.335938 22.425781 3.898438 C 22.117188 4.457031 21.753906 5.214844 21.503906 5.816406 C 18.808594 5.410156 16.144531 5.410156 13.5 5.816406 C 13.25 5.214844 12.878906 4.457031 12.5625 3.898438 C 10.027344 4.335938 7.601562 5.109375 5.335938 6.171875 C 0.769531 13.078125 -0.472656 19.8125 0.148438 26.449219 C 3.179688 28.710938 6.117188 30.085938 9.003906 30.988281 C 9.71875 30.003906 10.351562 28.960938 10.902344 27.863281 C 9.859375 27.46875 8.859375 26.976562 7.914062 26.410156 C 8.164062 26.222656 8.410156 26.03125 8.648438 25.832031 C 14.40625 28.523438 20.664062 28.523438 26.351562 25.832031 C 26.59375 26.03125 26.835938 26.222656 27.085938 26.410156 C 26.136719 26.980469 25.136719 27.46875 24.09375 27.867188 C 24.640625 28.960938 25.273438 30.007812 25.988281 30.988281 C 28.878906 30.089844 31.820312 28.714844 34.851562 26.449219 C 35.578125 18.753906 33.609375 12.082031 29.648438 6.164062 Z M 11.6875 22.367188 C 9.957031 22.367188 8.539062 20.753906 8.539062 18.789062 C 8.539062 16.820312 9.925781 15.207031 11.6875 15.207031 C 13.445312 15.207031 14.863281 16.820312 14.832031 18.789062 C 14.835938 20.753906 13.445312 22.367188 11.6875 22.367188 Z M 23.3125 22.367188 C 21.585938 22.367188 20.167969 20.753906 20.167969 18.789062 C 20.167969 16.820312 21.554688 15.207031 23.3125 15.207031 C 25.074219 15.207031 26.492188 16.820312 26.460938 18.789062 C 26.460938 20.753906 25.074219 22.367188 23.3125 22.367188 Z M 23.3125 22.367188 "/>
</g>
</svg>
