<svg xmlns="http://www.w3.org/2000/svg" xmlns:xlink="http://www.w3.org/1999/xlink" width="500" zoomAndPan="magnify" viewBox="0 0 375 374.999991" height="500" preserveAspectRatio="xMidYMid meet" version="1.0"><defs><clipPath id="918e665df4"><path d="M 18.046875 163 L 194 163 L 194 285 L 18.046875 285 Z M 18.046875 163 " clip-rule="nonzero"/></clipPath></defs><path fill="#ffffff" d="M 187.441406 224.035156 C 186.65625 224.035156 185.929688 223.914062 185.207031 223.609375 L 64.433594 175.300781 C 62.078125 174.335938 60.566406 172.101562 60.628906 169.566406 C 60.628906 167.027344 62.320312 164.855469 64.675781 164.007812 L 112.921875 147.101562 C 116.0625 146.015625 119.503906 147.644531 120.589844 150.785156 C 121.679688 153.925781 120.046875 157.367188 116.910156 158.453125 L 83.875 170.046875 L 187.441406 211.472656 L 291.003906 170.046875 L 253.199219 156.824219 C 250.058594 155.738281 248.371094 152.292969 249.515625 149.15625 C 250.605469 146.015625 254.046875 144.324219 257.1875 145.472656 L 310.207031 164.007812 C 312.558594 164.855469 314.191406 167.027344 314.25 169.566406 C 314.25 172.101562 312.800781 174.335938 310.445312 175.300781 L 189.675781 223.609375 C 188.949219 223.914062 188.164062 224.035156 187.441406 224.035156 Z M 187.441406 224.035156 " fill-opacity="1" fill-rule="nonzero"/><g clip-path="url(#918e665df4)"><path fill="#ffffff" d="M 151.207031 284.421875 C 150.363281 284.421875 149.457031 284.238281 148.609375 283.816406 L 21.800781 223.429688 C 20.109375 222.644531 18.839844 221.074219 18.476562 219.203125 C 18.117188 217.332031 18.597656 215.457031 19.867188 214.007812 L 62.136719 165.699219 C 63.828125 163.769531 66.546875 163.105469 68.902344 164.070312 L 189.675781 212.378906 C 191.304688 213.042969 192.574219 214.371094 193.175781 216.0625 C 193.71875 217.753906 193.539062 219.566406 192.632812 221.074219 L 156.402344 281.460938 C 155.253906 283.332031 153.261719 284.421875 151.207031 284.421875 Z M 34.179688 216.003906 L 148.851562 270.589844 L 178.625 221.015625 L 68.417969 176.933594 L 34.238281 216.003906 Z M 34.179688 216.003906 " fill-opacity="1" fill-rule="nonzero"/></g><path fill="#ffffff" d="M 229.710938 284.421875 C 227.777344 284.421875 225.90625 283.515625 224.757812 281.824219 L 182.488281 221.4375 C 181.460938 219.925781 181.097656 217.996094 181.640625 216.242188 C 182.1875 214.492188 183.453125 213.042969 185.207031 212.378906 L 305.976562 164.070312 C 308.332031 163.105469 311.050781 163.769531 312.742188 165.699219 L 355.011719 214.007812 C 356.21875 215.398438 356.761719 217.332031 356.402344 219.140625 C 356.039062 220.953125 354.832031 222.523438 353.199219 223.371094 L 232.425781 283.757812 C 231.582031 284.179688 230.617188 284.421875 229.710938 284.421875 Z M 196.738281 220.773438 L 231.640625 270.652344 L 340.761719 216.0625 L 306.460938 176.871094 Z M 196.738281 220.773438 " fill-opacity="1" fill-rule="nonzero"/><path fill="#ffffff" d="M 187.441406 375 C 186.535156 375 185.566406 374.757812 184.722656 374.335938 L 63.949219 313.949219 C 61.894531 312.921875 60.628906 310.808594 60.628906 308.574219 L 60.628906 261.59375 C 60.628906 258.273438 63.34375 255.554688 66.667969 255.554688 C 69.988281 255.554688 72.707031 258.273438 72.707031 261.59375 L 72.707031 304.832031 L 181.402344 359.179688 L 181.402344 217.996094 C 181.402344 214.675781 184.117188 211.957031 187.441406 211.957031 C 190.761719 211.957031 193.476562 214.675781 193.476562 217.996094 L 193.476562 368.960938 C 193.476562 371.074219 192.390625 373.007812 190.640625 374.09375 C 189.675781 374.699219 188.585938 375 187.441406 375 Z M 187.441406 375 " fill-opacity="1" fill-rule="nonzero"/><path fill="#ffffff" d="M 187.441406 375 C 186.230469 375 185.085938 374.636719 184.058594 373.972656 C 182.425781 372.824219 181.402344 370.953125 181.402344 368.960938 L 181.402344 217.996094 C 181.402344 214.675781 184.117188 211.957031 187.441406 211.957031 C 190.761719 211.957031 193.476562 214.675781 193.476562 217.996094 L 193.476562 360.023438 L 302.175781 316.546875 L 302.175781 266.605469 C 302.175781 263.285156 304.890625 260.566406 308.210938 260.566406 C 311.535156 260.566406 314.25 263.285156 314.25 266.605469 L 314.25 320.652344 C 314.25 323.128906 312.742188 325.363281 310.445312 326.269531 L 189.675781 374.578125 C 188.949219 374.878906 188.164062 375 187.441406 375 Z M 187.441406 375 " fill-opacity="1" fill-rule="nonzero"/><path fill="#ffffff" d="M 175.242188 197.402344 C 174.273438 197.402344 173.25 197.28125 172.28125 197.042969 C 167.753906 195.894531 164.3125 192.390625 163.285156 187.800781 L 157.972656 163.527344 L 134.84375 154.046875 C 130.496094 152.292969 127.597656 148.25 127.292969 143.597656 C 126.933594 138.949219 129.289062 134.542969 133.332031 132.1875 L 154.769531 119.625 L 156.640625 94.746094 C 157.003906 90.097656 159.902344 86.109375 164.191406 84.300781 C 168.539062 82.546875 173.429688 83.394531 176.871094 86.472656 L 195.472656 102.957031 L 219.746094 97.042969 C 224.335938 95.953125 228.984375 97.464844 232.003906 101.027344 C 235.023438 104.589844 235.75 109.480469 233.875 113.769531 L 223.914062 136.535156 L 237.015625 157.789062 C 239.492188 161.773438 239.492188 166.726562 237.015625 170.710938 C 234.542969 174.699219 230.132812 176.871094 225.421875 176.390625 L 200.664062 173.972656 L 184.542969 192.996094 C 182.1875 195.773438 178.804688 197.34375 175.242188 197.34375 Z M 168.78125 95.472656 L 166.847656 120.410156 C 166.546875 124.394531 164.3125 128.019531 160.871094 130.074219 L 139.433594 142.632812 L 162.5 152.234375 C 166.242188 153.742188 168.960938 157.003906 169.808594 160.929688 L 175.121094 185.207031 L 191.363281 166.242188 C 193.960938 163.164062 197.886719 161.535156 201.871094 161.957031 L 226.628906 164.371094 L 213.648438 143.054688 C 211.535156 139.613281 211.230469 135.386719 212.800781 131.703125 L 222.765625 108.9375 L 198.492188 114.734375 C 194.566406 115.699219 190.457031 114.734375 187.441406 112.015625 L 168.839844 95.53125 C 168.839844 95.53125 168.839844 95.53125 168.78125 95.53125 Z M 168.78125 95.472656 " fill-opacity="1" fill-rule="nonzero"/><path fill="#ffffff" d="M 291.0625 126.269531 C 288.164062 126.269531 285.324219 125.058594 283.210938 122.886719 L 270.351562 109.300781 L 251.871094 112.199219 C 247.765625 112.800781 243.71875 111.109375 241.304688 107.730469 C 238.890625 104.347656 238.648438 99.941406 240.640625 96.316406 L 249.578125 79.890625 L 241.125 63.226562 C 239.25 59.542969 239.613281 55.132812 242.148438 51.8125 C 244.6875 48.492188 248.730469 46.921875 252.839844 47.644531 L 271.195312 51.085938 L 284.480469 37.863281 C 287.441406 34.902344 291.726562 33.9375 295.652344 35.265625 C 299.578125 36.59375 302.355469 40.035156 302.898438 44.140625 L 305.3125 62.679688 L 321.980469 71.195312 C 325.664062 73.066406 327.957031 76.871094 327.898438 80.976562 C 327.839844 85.144531 325.484375 88.828125 321.738281 90.640625 L 304.832031 98.671875 L 301.871094 117.148438 C 301.207031 121.257812 298.308594 124.578125 294.382812 125.785156 C 293.296875 126.085938 292.210938 126.269531 291.183594 126.269531 Z M 270.832031 97.101562 C 273.792969 97.101562 276.628906 98.308594 278.742188 100.484375 L 290.339844 112.742188 L 292.996094 96.136719 C 293.539062 92.632812 295.832031 89.613281 299.035156 88.042969 L 314.25 80.796875 L 299.273438 73.128906 C 296.074219 71.496094 293.902344 68.417969 293.476562 64.855469 L 291.304688 48.128906 L 279.347656 60.023438 C 276.8125 62.558594 273.1875 63.648438 269.6875 62.984375 L 253.140625 59.902344 L 260.75 74.941406 C 262.378906 78.140625 262.320312 81.882812 260.628906 85.023438 L 252.535156 99.820312 L 269.203125 97.222656 C 269.746094 97.160156 270.289062 97.101562 270.894531 97.101562 Z M 316.484375 81.945312 Z M 290.941406 45.710938 Z M 290.941406 45.710938 Z M 290.941406 45.710938 " fill-opacity="1" fill-rule="nonzero"/><path fill="#ffffff" d="M 73.128906 130.253906 C 71.558594 130.253906 69.988281 129.890625 68.539062 129.105469 C 65.15625 127.355469 63.105469 123.914062 63.226562 120.109375 L 63.527344 105.617188 L 51.8125 97.160156 C 48.730469 94.925781 47.222656 91.242188 47.824219 87.5 C 48.429688 83.757812 51.085938 80.738281 54.769531 79.648438 L 68.597656 75.484375 L 73.007812 61.714844 C 74.15625 58.089844 77.234375 55.496094 80.976562 54.953125 C 84.722656 54.410156 88.40625 55.976562 90.578125 59.117188 L 98.851562 71.015625 L 113.34375 71.015625 C 117.210938 70.652344 120.589844 73.066406 122.28125 76.449219 C 123.972656 79.832031 123.609375 83.875 121.316406 86.894531 L 112.558594 98.429688 L 117.089844 112.199219 C 118.296875 115.820312 117.332031 119.6875 114.613281 122.402344 C 111.894531 125.058594 107.972656 125.90625 104.410156 124.699219 L 90.761719 119.925781 L 79.105469 128.503906 C 77.355469 129.769531 75.300781 130.433594 73.25 130.433594 Z M 62.378906 89.976562 L 71.496094 96.558594 C 74.15625 98.492188 75.664062 101.570312 75.605469 104.832031 L 75.363281 116.0625 L 84.421875 109.421875 C 87.078125 107.488281 90.457031 106.945312 93.539062 108.03125 L 104.167969 111.714844 L 100.664062 101.027344 C 99.636719 97.945312 100.242188 94.503906 102.175781 91.910156 L 108.9375 82.972656 L 97.707031 82.972656 C 94.6875 82.972656 91.363281 81.402344 89.492188 78.742188 L 83.09375 69.503906 L 79.648438 80.191406 C 78.625 83.273438 76.207031 85.75 73.066406 86.65625 L 62.320312 89.914062 Z M 69.625 75.179688 Z M 69.625 75.179688 " fill-opacity="1" fill-rule="nonzero"/><path fill="#ffffff" d="M 207.1875 62.378906 C 205.375 62.378906 203.625 61.835938 202.054688 60.808594 L 193.175781 54.769531 L 183.152344 58.636719 C 179.890625 59.902344 176.269531 59.179688 173.730469 56.824219 C 171.195312 54.46875 170.167969 50.90625 171.136719 47.585938 L 174.15625 37.257812 L 167.390625 28.925781 C 165.21875 26.207031 164.734375 22.585938 166.183594 19.382812 C 167.632812 16.183594 170.710938 14.191406 174.214844 14.070312 L 184.902344 13.769531 L 190.761719 4.769531 C 192.632812 1.8125 196.015625 0.242188 199.457031 0.664062 C 202.898438 1.085938 205.796875 3.382812 206.945312 6.640625 C 206.945312 6.640625 210.566406 16.726562 210.566406 16.726562 L 220.953125 19.503906 C 224.335938 20.410156 226.871094 23.066406 227.535156 26.507812 C 228.199219 29.953125 226.933594 33.394531 224.15625 35.507812 L 215.640625 42.089844 L 216.242188 52.777344 C 216.425781 56.28125 214.675781 59.480469 211.65625 61.171875 C 210.265625 61.957031 208.695312 62.378906 207.1875 62.378906 Z M 194.6875 54.167969 Z M 193.597656 42.269531 C 195.410156 42.269531 197.160156 42.8125 198.730469 43.839844 L 203.925781 47.34375 L 203.5625 41.125 C 203.382812 38.105469 204.710938 35.265625 207.066406 33.453125 L 212.015625 29.648438 L 205.976562 28.019531 C 203.078125 27.234375 200.785156 25.121094 199.757812 22.28125 L 197.644531 16.363281 L 194.261719 21.617188 C 192.632812 24.15625 189.914062 25.664062 186.894531 25.785156 L 180.617188 25.964844 L 184.542969 30.796875 C 186.414062 33.152344 187.078125 36.230469 186.230469 39.070312 L 184.480469 45.046875 L 190.339844 42.8125 C 191.363281 42.390625 192.511719 42.210938 193.597656 42.210938 Z M 211.109375 18.238281 Z M 184.117188 15.097656 Z M 184.117188 15.097656 " fill-opacity="1" fill-rule="nonzero"/></svg>