<svg xmlns="http://www.w3.org/2000/svg" fill="none" viewBox="0 0 36 36" width="145px"><path fill="#E8DDFF" d="M5.846 26.309H2.923v2.923H0v5.846h8.77v-5.846H5.846zM32.155 26.309v2.923h-2.923v-2.923h-2.923v8.77h8.77v-8.77z"></path><path fill="#8E55FF" d="M14.616 5.845v2.923h-2.923v2.923H8.77V8.769H5.846v2.923H0v-8.77h2.923v2.924H8.77V2.922h2.923v2.923zM32.154 5.845V2.922H29.23v2.923h-2.924V2.922h-2.923v2.923h-2.923v2.923h2.923v2.923h2.923V8.769h5.847v2.923h2.923V5.845z"></path><path fill="#8E55FF" d="M20.464 8.77h-5.847v2.923h5.847z"></path><path fill="#6A2DE0" d="M8.77 0v5.846H2.923V2.923H0V0zM26.309 0v5.846h2.923V2.923h2.923v2.923h2.923V0z"></path><path fill="#A577FF" d="M35.079 11.693v5.846h-2.923v-2.923h-2.924v2.923H26.31v-2.923h-2.923v2.923h-5.847v-2.923h-2.923v2.923h-2.923v-2.923H8.77v2.923H2.923v-2.923H0v-2.923h5.846V8.77H8.77v2.923h2.923V8.77h2.923v2.923h5.847V8.77h2.923v2.923h2.923V8.77h5.847v2.923z"></path><path fill="#B9F" d="M11.693 14.617H8.77v2.923h2.923zM17.542 17.54v-2.923h-2.924v2.923h-2.923v2.924h2.923v2.923h5.847v-2.923h2.923V17.54zM32.155 17.54v-2.923h-2.923v2.923h-2.923v5.847h2.923v-2.923h2.923v2.923h2.923V17.54z"></path><path fill="#B9F" d="M26.306 14.617h-2.923v2.923h2.923zM2.923 17.54v-2.923H0v8.77h5.846v-2.923H8.77V17.54z"></path><path fill="#D2BBFF" d="M32.155 23.384v-2.923h-2.923v2.923h-2.923v2.923h2.923v2.924h2.923v-2.924h2.923v-2.923zM5.846 23.384H0v5.8469999999999995h2.923v-2.924h2.923v2.924H8.77v-8.77H5.846z"></path></svg>