<?xml version="1.0" encoding="utf-8"?>
<!-- Generator: Adobe Illustrator 26.0.3, SVG Export Plug-In . SVG Version: 6.00 Build 0)  -->
<svg version="1.0" id="Layer_1" xmlns="http://www.w3.org/2000/svg" xmlns:xlink="http://www.w3.org/1999/xlink" x="0px" y="0px"
	 viewBox="0 0 1304.4 913.3" style="enable-background:new 0 0 1304.4 913.3;" xml:space="preserve">
<style type="text/css">
	.st0{fill:url(#SVGID_1_);}
	.st1{fill:#FFFFFF;}
</style>
<linearGradient id="SVGID_1_" gradientUnits="userSpaceOnUse" x1="295.9445" y1="456.1389" x2="1008.4445" y2="456.1389" gradientTransform="matrix(1 0 0 -1 0 912.7778)">
	<stop  offset="0" style="stop-color:#513EFF"/>
	<stop  offset="0.18" style="stop-color:#5157FF"/>
	<stop  offset="0.57" style="stop-color:#5298FF"/>
	<stop  offset="1" style="stop-color:#52E5FF"/>
</linearGradient>
<circle class="st0" cx="652.2" cy="456.6" r="356.2"/>
<path class="st1" d="M470.2,311.3c5.1-9.6,12.5-17.8,21.6-23.8l151.5-106.2L488.1,438.8c0,0-13.6-23-18.9-34.6
	C455.9,374.5,456.3,340.5,470.2,311.3L470.2,311.3z M407.7,488.9c3.4,49.8,28.1,95.7,67.8,125.9L643.1,732
	c0,0-104.8-151.6-193.3-302.4c-9-15.9-15-33.4-17.8-51.4c-1.2-8.2-1.2-16.5,0-24.7c-2.3,4.3-6.8,13.1-6.8,13.1
	c-9,18.4-15.1,38-18.1,58.2C405.4,446.1,405.6,467.5,407.7,488.9z M834.9,509.3c-5.4-11.6-18.9-34.6-18.9-34.6L661.1,732L812.6,626
	c9-6.1,16.4-14.2,21.6-23.8c14-29.3,14.3-63.3,1-92.9L834.9,509.3z M896.4,424.5c-3.4-49.8-28.1-95.7-67.8-125.9L661.3,181.3
	c0,0,104.8,151.6,193.2,302.4c8.9,15.9,14.9,33.4,17.7,51.4c1.2,8.2,1.2,16.5,0,24.7c2.3-4.3,6.8-13.1,6.8-13.1
	c9-18.4,15.1-38,18.1-58.2c1.8-21.4,1.6-42.8-0.5-64.2L896.4,424.5z"/>
</svg>
