<svg width="125" height="143" viewBox="0 0 125 143" fill="none" xmlns="http://www.w3.org/2000/svg">
<path d="M60.3684 142.432L2.12005 108.802C0.808269 108.044 0 106.645 0 105.129V37.8707C0 36.3549 0.808269 34.9556 2.12005 34.1977L60.3684 0.568438C61.6802 -0.189479 63.2967 -0.189479 64.6085 0.568438L122.857 34.1977C124.169 34.9556 124.977 36.3549 124.977 37.8707V105.129C124.977 106.645 124.169 108.044 122.857 108.802L64.6085 142.432C63.2967 143.189 61.6802 143.189 60.3684 142.432ZM12.7203 102.683L60.3684 130.194C61.6802 130.951 63.2967 130.951 64.6085 130.194L112.257 102.683C113.568 101.925 114.377 100.526 114.377 99.0103V43.9923C114.377 42.4765 113.568 41.0773 112.257 40.3194L64.6085 12.8091C63.2967 12.0512 61.6802 12.0512 60.3684 12.8091L12.7203 40.3194C11.4085 41.0773 10.6002 42.4765 10.6002 43.9923V99.0103C10.6002 100.526 11.4085 101.925 12.7203 102.683Z" fill="#6CB6AD"/>
<path d="M60.3687 22.54L21.1478 45.1848C19.836 45.9427 19.0277 47.3419 19.0277 48.8578V91.6987C19.0277 94.7277 20.6442 97.5288 23.2678 99.042L28.0379 101.795C28.7455 102.203 29.628 101.695 29.628 100.878V54.9794C29.628 53.4636 30.4362 52.0643 31.748 51.3064L60.3687 34.7833C61.6805 34.0254 63.297 34.0254 64.6088 34.7833L93.2294 51.3064C94.5412 52.0643 95.3495 53.4636 95.3495 54.9794V88.0283C95.3495 89.5442 94.5412 90.9434 93.2294 91.7013L64.6088 108.224C63.297 108.982 61.6805 108.982 60.3687 108.224L50.8284 102.718C49.5167 101.96 48.7084 100.56 48.7084 99.0446V65.9957C48.7084 64.4799 49.5167 63.0807 50.8284 62.3227L60.3687 56.8159C61.6805 56.058 63.297 56.058 64.6088 56.8159L74.149 62.3227C75.4608 63.0807 76.269 64.4799 76.269 65.9957V77.012C76.269 78.5279 75.4608 79.9271 74.149 80.685L69.3789 83.4384C68.6713 83.8465 67.7888 83.3377 67.7888 82.5215V75.7453V70.9672C67.7888 69.4514 66.9806 68.0522 65.6688 67.2943L63.5487 66.0699C62.8915 65.691 62.0859 65.691 61.4287 66.0699L58.7786 67.599C57.7955 68.1661 57.1886 69.2182 57.1886 70.3524V71.4999V94.1924C57.1886 95.7135 58.0048 97.1181 59.3246 97.8733L60.3475 98.4563C61.6566 99.2036 63.2652 99.201 64.5717 98.4457L84.7492 86.7961C86.061 86.0381 86.8693 84.6389 86.8693 83.1231V59.8661C86.8693 58.3503 86.061 56.9511 84.7492 56.1931L64.6088 44.5647C63.297 43.8068 61.6805 43.8068 60.3687 44.5647L40.2282 56.1931C38.9164 56.9511 38.1082 58.3503 38.1082 59.8661V105.153C38.1082 106.669 38.9164 108.068 40.2282 108.826L60.3687 120.454C61.6805 121.212 63.297 121.212 64.6088 120.454L103.83 97.8097C105.141 97.0518 105.95 95.6525 105.95 94.1367V48.8498C105.95 47.334 105.141 45.9347 103.83 45.1768L64.6088 22.5321C63.297 21.7741 61.6805 21.7741 60.3687 22.5321V22.54Z" fill="#6CB6AD"/>
</svg>