<?xml version="1.0" encoding="UTF-8"?>
<svg xmlns="http://www.w3.org/2000/svg" xmlns:xlink="http://www.w3.org/1999/xlink" width="25px" height="25px" viewBox="0 0 25 25" version="1.1">
<g id="surface1">
<path style=" stroke:none;fill-rule:nonzero;fill:currentColor;fill-opacity:1;" d="M 10.738281 0.886719 L 10.738281 1.769531 L 8.949219 1.769531 L 8.949219 3.539062 L 10.738281 3.539062 L 10.738281 1.769531 L 14.320312 1.769531 L 14.320312 3.539062 L 16.109375 3.539062 L 16.109375 1.769531 L 14.320312 1.769531 L 14.320312 0 L 10.738281 0 Z M 10.738281 0.886719 "/>
<path style=" stroke:none;fill-rule:nonzero;fill:currentColor;fill-opacity:1;" d="M 10.738281 4.460938 L 10.738281 5.34375 L 8.949219 5.34375 L 8.949219 10.6875 L 7.160156 10.6875 L 7.160156 12.457031 L 5.371094 12.457031 L 5.371094 14.226562 L 3.578125 14.226562 L 3.578125 15.996094 L 1.789062 15.996094 L 1.789062 12.457031 L 0 12.457031 L 0 24.914062 L 8.949219 24.914062 L 8.949219 15.996094 L 10.738281 15.996094 L 10.738281 14.226562 L 14.320312 14.226562 L 14.320312 15.996094 L 16.109375 15.996094 L 16.117188 20.445312 L 16.125 24.898438 L 20.558594 24.90625 L 24.984375 24.914062 L 24.984375 12.457031 L 23.265625 12.457031 L 23.265625 15.996094 L 21.476562 15.996094 L 21.476562 14.226562 L 19.6875 14.226562 L 19.6875 12.457031 L 17.898438 12.457031 L 17.898438 10.6875 L 17.015625 10.679688 L 16.125 10.671875 L 16.117188 8.003906 L 16.109375 5.34375 L 14.320312 5.34375 L 14.320312 3.574219 L 10.738281 3.574219 Z M 5.371094 19.570312 L 5.371094 20.457031 L 3.578125 20.457031 L 3.578125 18.6875 L 5.371094 18.6875 Z M 21.476562 19.570312 L 21.476562 20.457031 L 19.6875 20.457031 L 19.6875 18.6875 L 21.476562 18.6875 Z M 21.476562 19.570312 "/>
</g>
</svg>
