<svg width="39" height="51" viewBox="0 0 39 51" fill="none" xmlns="http://www.w3.org/2000/svg">
<path fill-rule="evenodd" clip-rule="evenodd" d="M30.3264 35.124C30.9778 36.6617 31.6303 38.1989 32.2801 39.7373C33.0189 41.4865 33.7473 43.2401 34.4969 44.9847C34.7553 45.5861 34.8026 46.1628 34.3434 46.6647C33.8966 47.153 33.3287 47.1735 32.7252 46.9605C31.2856 46.4522 29.8376 45.9673 28.4017 45.4481C28.0496 45.3208 27.9049 45.413 27.7568 45.7365C27.0965 47.1783 26.4155 48.6107 25.7315 50.0416C25.4584 50.6126 24.979 50.8263 24.3594 50.7805C23.8092 50.74 23.4699 50.4308 23.2673 49.9488C22.1999 47.4084 21.1371 44.8661 20.0714 42.3251C20.0223 42.2078 19.9605 42.0959 19.8728 41.9165C19.5063 42.781 19.1603 43.5876 18.8216 44.3975C18.0504 46.2413 17.2854 48.0877 16.512 49.9305C16.2806 50.4817 15.8785 50.779 15.2549 50.7851C14.6278 50.7913 14.2468 50.4869 13.9916 49.9441C13.3169 48.5087 12.6255 47.0811 11.9538 45.6443C11.8297 45.3787 11.703 45.3382 11.4247 45.4369C9.90522 45.9763 8.37816 46.4947 6.85084 47.0116C6.31731 47.1922 5.80651 47.0977 5.4334 46.6822C5.05985 46.2661 4.9517 45.7641 5.18602 45.2081C6.43335 42.2479 7.66995 39.2833 8.91264 36.3211C8.97316 36.1769 9.05633 36.0422 9.12886 35.9031C9.31958 35.9827 9.4982 36.0795 9.62034 36.2552C9.00577 37.7456 8.39533 39.2378 7.77535 40.726C7.1383 42.2549 6.49017 43.7792 5.85089 45.3071C5.7115 45.6403 5.66403 45.9813 5.94736 46.2665C6.20847 46.5291 6.51009 46.4503 6.8214 46.3413C8.41052 45.7843 10.0071 45.2484 11.5919 44.6797C11.9968 44.5345 12.1943 44.6103 12.377 45.0113C13.0821 46.5585 13.8234 48.0891 14.5493 49.6269C14.6928 49.9307 14.8961 50.1672 15.2557 50.162C15.5937 50.1572 15.8031 49.9398 15.9272 49.6434C17.0628 46.9304 18.1859 44.2119 19.3404 41.507C19.5203 41.0853 19.4902 40.7603 19.2387 40.411C19.1222 40.4807 19.103 40.5815 19.0652 40.6715C17.9417 43.3434 16.8184 46.0154 15.6929 48.6865C15.618 48.864 15.5952 49.1157 15.3423 49.1209C15.0741 49.1264 15.026 48.8657 14.9332 48.6811C14.1619 47.1478 13.387 45.6164 12.633 44.0748C12.4981 43.7989 12.3699 43.7342 12.0789 43.836C11.2442 44.1278 10.3996 44.3918 9.55776 44.6631C8.70227 44.9387 7.84488 45.2084 6.98964 45.4849C6.8469 45.531 6.70905 45.5721 6.5942 45.4433C6.49524 45.3324 6.52485 45.2056 6.57669 45.0809C6.62055 44.9754 6.65686 44.8668 6.70098 44.7614C7.85466 42.0093 9.00895 39.2574 10.1631 36.5054C11.1272 36.7592 12.1151 36.7335 13.0904 36.6729C14.3799 36.5927 15.4807 37.0036 16.5288 37.7051C17.3788 38.274 18.2537 38.823 19.3332 38.8455C20.82 42.4014 22.309 45.9564 23.7904 49.5146C23.9304 49.8509 24.0937 50.1503 24.4969 50.1611C24.8995 50.172 25.0918 49.8832 25.2454 49.556C25.9315 48.0946 26.6131 46.6311 27.315 45.1774C27.6426 44.4988 27.4812 44.4554 28.3576 44.7575C29.8953 45.2878 31.4341 45.8148 32.9685 46.3546C33.3059 46.4733 33.6079 46.4977 33.8682 46.2142C34.132 45.9269 34.0567 45.6256 33.9204 45.3019C32.5684 42.0919 31.224 38.8786 29.8775 35.6662C30.0152 35.4756 30.127 35.2634 30.3264 35.124Z" fill="#FCCDD3"/>
<mask id="mask0_419_724" style="mask-type:alpha" maskUnits="userSpaceOnUse" x="0" y="0" width="39" height="39">
<path d="M0 0H38.8083V38.8584H0V0Z" fill="white"/>
</mask>
<g mask="url(#mask0_419_724)">
<path fill-rule="evenodd" clip-rule="evenodd" d="M13.0152 2.93208C12.3208 2.93208 11.848 2.91293 11.3772 2.9362C10.5206 2.97864 9.80658 3.29817 9.29596 4.02879C8.90096 4.59399 8.57428 5.19646 8.26442 5.80769C7.70805 6.90543 6.88954 7.72522 5.79053 8.27778C5.30592 8.52147 4.8395 8.8014 4.36725 9.06922C3.37948 9.62926 2.91581 10.4874 2.9256 11.6152C2.93186 12.3451 2.92568 13.0751 2.93701 13.8049C2.94963 14.6133 2.74311 15.3599 2.33378 16.0522C2.00641 16.6058 1.67981 17.1601 1.34043 17.7064C0.639 18.8355 0.603551 19.9607 1.33013 21.093C1.49991 21.3575 1.63698 21.6444 1.82006 21.8986C2.68226 23.0964 3.06688 24.4198 2.94053 25.897C2.90156 26.3519 2.92345 26.8125 2.9274 27.2704C2.93564 28.2467 3.2727 29.06 4.12194 29.6039C4.44639 29.8118 4.76783 30.0352 5.11752 30.1911C6.6844 30.8893 7.85843 31.9747 8.55737 33.5594C8.70088 33.8848 8.89838 34.1869 9.07683 34.4965C9.63603 35.4664 10.4916 35.9136 11.5957 35.9132C12.3537 35.9129 13.1118 35.9111 13.8698 35.9036C14.6785 35.8957 15.419 36.1272 16.1091 36.5337C16.6633 36.86 17.2167 37.1879 17.7625 37.5278C18.8527 38.2067 19.9387 38.2153 21.0311 37.5368C21.4438 37.2804 21.8695 37.0444 22.2761 36.7788C23.2123 36.1675 24.2191 35.8362 25.3511 35.8988C25.9644 35.9327 26.5808 35.9116 27.1958 35.9135C28.3171 35.9168 29.1844 35.4666 29.7454 34.4755C30.0129 34.0029 30.2936 33.5365 30.5369 33.0515C31.0885 31.9522 31.8969 31.123 33.001 30.5735C33.4994 30.3254 33.9821 30.0439 34.4605 29.7586C35.2371 29.2958 35.7581 28.6565 35.8469 27.7157C35.9293 26.8435 35.8722 25.9714 35.8697 25.0996C35.8672 24.2154 36.0878 23.4057 36.5445 22.6537C36.8784 22.1038 37.2047 21.5495 37.5365 20.9985C38.1511 19.9779 38.1819 18.9482 37.5795 17.913C37.3135 17.4559 37.0457 16.9992 36.7588 16.5552C36.1441 15.6046 35.8029 14.586 35.8693 13.4371C35.9057 12.8094 35.8912 12.1779 35.8824 11.5483C35.869 10.5915 35.5376 9.79504 34.7095 9.24479C34.1486 8.87192 33.559 8.55162 32.9614 8.24617C31.9076 7.70744 31.117 6.91522 30.5751 5.86258C30.307 5.34188 30.0156 4.83252 29.7192 4.32711C29.258 3.54065 28.5933 3.03997 27.6657 2.9551C27.3108 2.92263 26.9519 2.93466 26.5947 2.9283C25.8233 2.91439 25.0481 2.99212 24.2809 2.88742C23.3329 2.75806 22.52 2.27893 21.7749 1.72869C20.1834 0.553294 18.6462 0.536802 17.0545 1.72319C15.7979 2.65979 14.3944 3.16941 13.0152 2.93208ZM9.62032 36.255C9.49818 36.0794 9.31956 35.9826 9.12884 35.903C8.30794 34.9371 7.80804 33.772 7.14696 32.7069C6.73212 32.0385 6.09481 31.6324 5.42325 31.2661C4.77144 30.9106 4.09996 30.5879 3.50351 30.137C2.63694 29.482 2.19078 28.6076 2.1573 27.5267C2.14142 27.012 2.11645 26.4925 2.16503 25.9819C2.29472 24.6193 1.91997 23.4162 1.14404 22.3066C0.850407 21.8866 0.600118 21.4313 0.373862 20.9705C-0.137961 19.9283 -0.114872 18.8768 0.385535 17.8306C0.670244 17.235 1.03255 16.6853 1.38412 16.1303C1.91894 15.2862 2.22563 14.3908 2.16752 13.3754C2.13241 12.7618 2.15911 12.1449 2.15155 11.5295C2.13439 10.1429 2.75118 9.11612 3.92461 8.41229C4.37772 8.14052 4.83573 7.87313 5.30978 7.64121C6.35094 7.13194 7.11657 6.3679 7.63097 5.32538C7.98417 4.60927 8.35094 3.89643 8.88087 3.28288C9.53114 2.53 10.3628 2.18806 11.3365 2.16005C11.8365 2.14571 12.3417 2.11427 12.8369 2.16555C14.2342 2.31003 15.4544 1.89429 16.5844 1.10371C16.9575 0.842762 17.3656 0.628367 17.7704 0.41715C18.8643 -0.153797 19.9608 -0.125108 21.0601 0.420242C21.6254 0.700691 22.1546 1.04075 22.6823 1.3809C23.5379 1.93226 24.4558 2.21511 25.479 2.17053C26.0929 2.14373 26.7086 2.16151 27.3234 2.1561C28.7119 2.14382 29.7266 2.77876 30.4208 3.95656C30.7037 4.43654 30.9862 4.91867 31.2333 5.41755C31.7152 6.3904 32.4391 7.10359 33.4071 7.58761C34.0073 7.88773 34.5988 8.20692 35.1534 8.58881C36.1456 9.27219 36.6447 10.2185 36.6574 11.4212C36.6623 11.8935 36.6932 12.3694 36.6477 12.8374C36.5137 14.2146 36.8908 15.434 37.6814 16.5517C37.9281 16.9004 38.1321 17.2813 38.3359 17.6582C39.0141 18.913 38.9463 20.1532 38.2352 21.3715C37.8821 21.9765 37.5226 22.5776 37.1646 23.1795C36.8047 23.7847 36.64 24.4396 36.6481 25.1427C36.6564 25.8582 36.648 26.574 36.6602 27.2894C36.6838 28.6773 36.0696 29.7062 34.9029 30.4164C34.4028 30.7209 33.8881 31.0031 33.3686 31.2734C32.5228 31.7132 31.828 32.3011 31.3811 33.1612C31.0387 33.8201 30.6791 34.47 30.3268 35.1239C30.127 35.2633 30.0152 35.4754 29.8775 35.666C29.6961 35.7684 29.5578 35.9186 29.425 36.0749C28.6592 36.5889 27.8048 36.7234 26.9021 36.6922C26.2605 36.6701 25.6176 36.6874 24.9753 36.6858C24.5284 36.6845 24.098 36.7671 23.6892 36.9467C22.4186 37.5052 21.3519 38.4583 19.9992 38.8584C19.7782 38.7954 19.5553 38.8445 19.3332 38.8454C18.2537 38.823 17.3788 38.2738 16.5289 37.7049C15.4807 37.0034 14.3799 36.5926 13.0904 36.6727C12.1151 36.7335 11.1272 36.7591 10.163 36.5053C9.99962 36.3836 9.8265 36.2836 9.62032 36.255Z" fill="#6534FF"/>
</g>
<path fill-rule="evenodd" clip-rule="evenodd" d="M24.8898 23.4651C25.2374 23.4755 25.4714 23.1876 25.3698 22.8315C24.7514 20.6649 24.1241 18.5008 23.4987 16.3362C23.4023 16.0027 23.1481 15.9353 22.8565 16.0046C22.6183 16.0611 22.5554 16.2861 22.4935 16.4951C22.0924 17.8486 21.6909 19.2021 21.2889 20.5554C21.0695 21.2935 20.84 22.0286 20.6329 22.7701C20.5476 23.0757 20.6126 23.3598 20.9663 23.4481C21.2745 23.525 21.4867 23.4011 21.5697 23.0688C21.6491 22.751 21.7688 22.4433 21.8487 22.1255C21.9039 21.9064 22.0176 21.828 22.2412 21.8338C22.7407 21.8468 23.241 21.8465 23.7404 21.834C23.976 21.8282 24.1055 21.8907 24.1554 22.1452C24.2155 22.4518 24.3219 22.7498 24.4167 23.0488C24.4898 23.2788 24.6058 23.4702 24.8898 23.4651ZM13.6582 19.7447C13.6244 20.0999 13.7272 20.4355 13.8932 20.7609C14.2113 21.3844 14.5284 22.0089 14.8304 22.6404C15.0735 23.1488 15.4412 23.4505 16.0217 23.4703C16.6327 23.4913 17.0069 23.1712 17.2577 22.6517C17.5868 21.97 17.9293 21.2945 18.25 20.6089C18.5259 20.0189 18.524 19.419 18.2373 18.8298C17.8809 18.0976 17.529 17.3629 17.1551 16.6397C16.707 15.7731 15.462 15.7108 14.9758 16.5599C14.5225 17.3516 14.153 18.1917 13.7587 19.0164C13.6533 19.237 13.6353 19.485 13.6582 19.7447ZM27.5586 19.5979C27.5586 20.6851 27.5629 21.7723 27.5562 22.8595C27.5541 23.2137 27.6795 23.4566 28.0585 23.4611C28.4911 23.4662 28.5568 23.1376 28.5639 22.8082C28.5771 22.1933 28.5786 21.5777 28.5633 20.963C28.5568 20.7003 28.645 20.6151 28.9066 20.6208C29.5781 20.6357 30.2505 20.6368 30.922 20.6222C31.7215 20.6049 32.3287 20.0048 32.3531 19.2036C32.3714 18.6034 32.3726 18.0016 32.3527 17.4014C32.3257 16.5842 31.6949 15.989 30.8796 15.9868C29.9076 15.984 28.9352 15.9983 27.9635 15.979C27.6509 15.9728 27.544 16.0478 27.5506 16.3793C27.5721 17.4518 27.5586 18.525 27.5586 19.5979ZM6.70119 19.6112C6.70119 20.6698 6.70059 21.7284 6.70196 22.787C6.70213 22.9009 6.6866 23.0245 6.72437 23.1266C6.81243 23.3645 6.99216 23.4883 7.25713 23.4639C7.58785 23.4335 7.68973 23.1893 7.69892 22.9233C7.72072 22.2947 7.72484 21.6643 7.70398 21.0356C7.69359 20.7235 7.77204 20.6053 8.10551 20.6182C8.76204 20.6437 9.42064 20.6376 10.0779 20.6215C10.8553 20.6025 11.4642 20.0106 11.4941 19.2332C11.5177 18.6189 11.517 18.0025 11.4945 17.3881C11.4647 16.573 10.8312 15.9885 10.0089 15.9866C9.0368 15.9844 8.06439 16.0008 7.09285 15.9779C6.75947 15.9701 6.689 16.0818 6.69424 16.3925C6.71226 17.4651 6.70119 18.5383 6.70119 19.6112ZM13.0149 2.9322C14.3942 3.16953 15.7976 2.65992 17.0542 1.72323C18.6458 0.53684 20.1831 0.553418 21.7746 1.72881C22.5197 2.27897 23.3325 2.7581 24.2806 2.88754C25.0479 2.99216 25.823 2.91451 26.5944 2.92834C26.9516 2.93478 27.3105 2.92276 27.6654 2.95522C28.593 3.04009 29.2577 3.54077 29.7189 4.32723C30.0153 4.83264 30.3067 5.34191 30.5747 5.8627C31.1167 6.91535 31.9073 7.70756 32.9611 8.24621C33.5587 8.55174 34.1483 8.87204 34.7092 9.24483C35.5374 9.79516 35.8688 10.5916 35.8821 11.5484C35.8909 12.178 35.9054 12.8094 35.869 13.4372C35.8026 14.5861 36.1438 15.6046 36.7584 16.5553C37.0454 16.9992 37.3132 17.456 37.5792 17.9131C38.1815 18.9483 38.1508 19.978 37.5362 20.9985C37.2044 21.5495 36.8781 22.1039 36.5442 22.6537C36.0875 23.4058 35.867 24.2155 35.8694 25.0997C35.8719 25.9714 35.929 26.8436 35.8466 27.7158C35.7578 28.6566 35.2368 29.2958 34.4602 29.7587C33.9818 30.044 33.4991 30.3255 33.0007 30.5735C31.8966 31.1232 31.0882 31.9523 30.5366 33.0516C30.2933 33.5366 30.0126 34.003 29.745 34.4757C29.1842 35.4666 28.3168 35.9168 27.1955 35.9135C26.5805 35.9117 25.9641 35.9328 25.3508 35.8989C24.2188 35.8363 23.212 36.1675 22.2758 36.7789C21.8692 37.0444 21.4436 37.2805 21.0308 37.5369C19.9383 38.2154 18.8524 38.2069 17.7623 37.5279C17.2164 37.188 16.663 36.8601 16.1088 36.5338C15.4187 36.1273 14.6782 35.8958 13.8694 35.9038C13.1115 35.9112 12.3534 35.9129 11.5954 35.9132C10.4913 35.9136 9.63574 35.4665 9.07654 34.4965C8.89809 34.187 8.70059 33.885 8.55708 33.5595C7.85814 31.9748 6.68411 30.8894 5.11723 30.1911C4.76746 30.0353 4.4461 29.8118 4.12165 29.6039C3.27241 29.06 2.93535 28.2467 2.92711 27.2704C2.92316 26.8126 2.90127 26.352 2.94024 25.8971C3.06659 24.42 2.68197 23.0965 1.81977 21.8988C1.63669 21.6444 1.49962 21.3576 1.32984 21.0931C0.60326 19.9608 0.638623 18.8357 1.34014 17.7065C1.67952 17.1603 2.00612 16.6059 2.33348 16.0523C2.74282 15.36 2.94934 14.6134 2.93672 13.805C2.92539 13.0752 2.93157 12.3452 2.9253 11.6153C2.91552 10.4875 3.37919 9.62938 4.36696 9.06926C4.83921 8.80152 5.30563 8.5215 5.79016 8.2779C6.88925 7.72534 7.70776 6.90547 8.26413 5.80781C8.57398 5.19649 8.90067 4.59411 9.29567 4.02883C9.80629 3.29821 10.5203 2.97867 11.3769 2.93633C11.8477 2.91305 12.3205 2.9322 13.0149 2.9322Z" fill="#FEFEFE"/>
<path fill-rule="evenodd" clip-rule="evenodd" d="M29.4252 36.0747C30.4816 38.6027 31.538 41.1306 32.5944 43.6586C32.776 44.0931 32.9629 44.5255 33.137 44.963C33.1981 45.1162 33.3048 45.285 33.1601 45.4449C33.0123 45.6082 32.8438 45.5072 32.6837 45.4557C31.0275 44.9229 29.3682 44.3993 27.7179 43.8488C27.3894 43.7391 27.2547 43.8095 27.1062 44.1145C26.3552 45.6565 25.5787 47.186 24.8094 48.7193C24.728 48.8815 24.6751 49.0723 24.4307 49.0709C24.1765 49.0692 24.1441 48.859 24.0768 48.6988C22.7442 45.5286 21.4164 42.3562 20.0899 39.1833C20.0468 39.0803 20.029 38.9666 19.9995 38.8581C21.3522 38.4581 22.4189 37.505 23.6895 36.9465C24.0981 36.767 24.5287 36.6844 24.9755 36.6856C25.6179 36.6873 26.2608 36.67 26.9023 36.692C27.805 36.7233 28.6595 36.5887 29.4252 36.0747Z" fill="#FCCDD3"/>
<path fill-rule="evenodd" clip-rule="evenodd" d="M7.66924 18.2908C7.66924 18.6478 7.67594 19.0049 7.66667 19.3616C7.66135 19.5678 7.71044 19.6782 7.94983 19.6739C8.62019 19.6621 9.29089 19.6716 9.96142 19.6687C10.3273 19.667 10.5213 19.459 10.5336 19.1116C10.5522 18.584 10.5552 18.0547 10.5346 17.5273C10.5207 17.1672 10.3328 16.9477 9.93584 16.9524C9.29389 16.9601 8.6516 16.963 8.00983 16.9505C7.74478 16.9453 7.65542 17.0515 7.66607 17.3059C7.67972 17.6336 7.66933 17.9625 7.66924 18.2908ZM6.70156 19.6112C6.70156 18.5382 6.71255 17.4651 6.69461 16.3925C6.68929 16.0818 6.75984 15.97 7.09322 15.9779C8.06468 16.0009 9.03717 15.9844 10.0092 15.9866C10.8316 15.9884 11.465 16.573 11.4948 17.3882C11.5174 18.0025 11.5181 18.619 11.4945 19.2332C11.4645 20.0106 10.8556 20.6025 10.0782 20.6215C9.42101 20.6376 8.76241 20.6438 8.10579 20.6182C7.77242 20.6052 7.69396 20.7236 7.70435 21.0356C7.72521 21.6642 7.72109 22.2947 7.69929 22.9233C7.6901 23.1894 7.58822 23.4335 7.2575 23.4639C6.99253 23.4882 6.8128 23.3644 6.72474 23.1266C6.68697 23.0245 6.70242 22.9008 6.70225 22.787C6.70096 21.7284 6.70156 20.6698 6.70156 19.6112Z" fill="#6534FF"/>
<path fill-rule="evenodd" clip-rule="evenodd" d="M28.5269 18.3082C28.5269 18.6652 28.5363 19.0224 28.5236 19.3789C28.5154 19.6053 28.606 19.6766 28.8249 19.6733C29.481 19.6635 30.1374 19.6687 30.7937 19.6699C31.18 19.6706 31.3815 19.4633 31.3929 19.094C31.4089 18.5663 31.4145 18.0369 31.3905 17.5098C31.374 17.1457 31.1681 16.9448 30.7759 16.9515C30.1484 16.9621 29.5202 16.9645 28.8928 16.9496C28.6121 16.9429 28.5084 17.0447 28.5228 17.3232C28.5397 17.6507 28.5267 17.9798 28.5269 18.3082ZM27.5591 19.5977C27.5591 18.5248 27.5726 17.4516 27.5511 16.3791C27.5445 16.0477 27.6514 15.9727 27.9639 15.9789C28.9357 15.9981 29.908 15.9838 30.8801 15.9866C31.6954 15.9888 32.3262 16.584 32.3532 17.4012C32.3731 18.0014 32.3719 18.6032 32.3536 19.2035C32.3291 20.0046 31.722 20.6048 30.9225 20.622C30.2509 20.6366 29.5786 20.6355 28.9071 20.6206C28.6455 20.6149 28.5573 20.7001 28.5638 20.9629C28.579 21.5776 28.5776 22.1931 28.5644 22.8081C28.5573 23.1374 28.4916 23.466 28.059 23.4609C27.68 23.4565 27.5546 23.2135 27.5566 22.8593C27.5633 21.7722 27.5591 20.6849 27.5591 19.5977Z" fill="#6534FF"/>
<path fill-rule="evenodd" clip-rule="evenodd" d="M17.4562 19.7331C17.4283 19.5943 17.4274 19.4426 17.3682 19.3188C17.023 18.5975 16.6744 17.8772 16.305 17.1681C16.1441 16.8593 15.8905 16.8623 15.7283 17.1775C15.3754 17.863 15.0447 18.56 14.7164 19.2578C14.5468 19.618 14.592 19.983 14.7642 20.3321C15.0737 20.9599 15.3893 21.5847 15.7014 22.2114C15.7729 22.3548 15.8452 22.5076 16.034 22.4992C16.1962 22.4921 16.2691 22.3595 16.3352 22.2272C16.6612 21.5757 16.9908 20.926 17.3167 20.2745C17.4009 20.1062 17.4501 19.9277 17.4562 19.7331ZM13.6586 19.7444C13.6358 19.4848 13.6538 19.2367 13.7592 19.0161C14.1534 18.1915 14.523 17.3514 14.9762 16.5598C15.4624 15.7105 16.7074 15.7729 17.1555 16.6394C17.5294 17.3626 17.8813 18.0974 18.2377 18.8296C18.5244 19.4187 18.5264 20.0187 18.2504 20.6086C17.9297 21.2942 17.5872 21.9697 17.2581 22.6515C17.0073 23.171 16.6332 23.491 16.0221 23.4701C15.4417 23.4502 15.074 23.1486 14.8309 22.6402C14.5289 22.0086 14.2118 21.3842 13.8936 20.7607C13.7276 20.4353 13.6249 20.0997 13.6586 19.7444Z" fill="#6534FF"/>
<path fill-rule="evenodd" clip-rule="evenodd" d="M23.0703 18.4141C23.0335 18.415 22.9967 18.4158 22.9598 18.4166C22.8284 18.8623 22.686 19.3052 22.5687 19.7545C22.4729 20.1216 22.1131 20.6137 22.3627 20.8238C22.6063 21.0288 23.15 20.8737 23.5618 20.8827C23.7409 20.8866 23.7751 20.8268 23.7226 20.6532C23.4976 19.9091 23.2865 19.1608 23.0703 18.4141ZM24.8904 23.4647C24.6062 23.4701 24.4901 23.2786 24.417 23.0488C24.3222 22.7497 24.2159 22.4516 24.1558 22.1451C24.1058 21.8906 23.9763 21.828 23.7409 21.8339C23.2413 21.8464 22.741 21.8467 22.2415 21.8338C22.0179 21.828 21.9042 21.9064 21.849 22.1254C21.7691 22.4431 21.6494 22.7509 21.57 23.0687C21.487 23.401 21.2749 23.5249 20.9666 23.4479C20.6129 23.3597 20.5479 23.0757 20.6333 22.77C20.8404 22.0285 21.0698 21.2933 21.2892 20.5552C21.6913 19.202 22.0928 17.8486 22.4939 16.495C22.5558 16.2861 22.6186 16.061 22.8569 16.0045C23.1484 15.9353 23.4026 16.0026 23.499 16.3361C24.1244 18.5007 24.7517 20.6648 25.3701 22.8314C25.4718 23.1875 25.2377 23.4753 24.8904 23.4647Z" fill="#6534FF"/>
<path fill-rule="evenodd" clip-rule="evenodd" d="M7.66913 18.2907C7.66921 17.9623 7.67951 17.6335 7.66586 17.3057C7.65531 17.0514 7.74466 16.9451 8.00971 16.9504C8.65149 16.9628 9.29369 16.9599 9.93564 16.9523C10.3327 16.9475 10.5205 17.1671 10.5345 17.5272C10.555 18.0546 10.552 18.5839 10.5334 19.1115C10.5212 19.4589 10.3272 19.6669 9.9613 19.6685C9.29077 19.6715 8.61999 19.6619 7.94972 19.6738C7.71024 19.6781 7.66114 19.5676 7.66647 19.3615C7.67582 19.0047 7.66913 18.6477 7.66913 18.2907Z" fill="#FEFEFE"/>
<path fill-rule="evenodd" clip-rule="evenodd" d="M28.5263 18.308C28.5263 17.9797 28.5392 17.6506 28.5223 17.3231C28.5079 17.0446 28.6116 16.9428 28.8923 16.9495C29.5197 16.9644 30.1479 16.962 30.7754 16.9513C31.1675 16.9446 31.3735 17.1456 31.39 17.5097C31.414 18.0368 31.4084 18.5662 31.3924 19.0939C31.3811 19.4632 31.1795 19.6704 30.7932 19.6697C30.1369 19.6685 29.4805 19.6634 28.8244 19.6732C28.6055 19.6764 28.5149 19.6052 28.5231 19.3787C28.5358 19.0223 28.5264 18.665 28.5263 18.308Z" fill="#FEFEFE"/>
<path fill-rule="evenodd" clip-rule="evenodd" d="M17.4562 19.7333C17.4501 19.9279 17.401 20.1064 17.3168 20.2747C16.9908 20.9262 16.6612 21.5759 16.3353 22.2274C16.2692 22.3597 16.1963 22.4922 16.0341 22.4994C15.8453 22.5078 15.773 22.355 15.7015 22.2115C15.3894 21.5849 15.0738 20.9601 14.7643 20.3323C14.5921 19.9832 14.5469 19.6182 14.7164 19.2579C15.0448 18.5602 15.3755 17.8632 15.7283 17.1777C15.8906 16.8625 16.1442 16.8595 16.305 17.1683C16.6745 17.8774 17.023 18.5977 17.3683 19.319C17.4275 19.4428 17.4284 19.5945 17.4562 19.7333Z" fill="#FEFEFE"/>
<path fill-rule="evenodd" clip-rule="evenodd" d="M23.0706 18.4141C23.2868 19.1608 23.4978 19.9091 23.7228 20.6531C23.7753 20.8268 23.7411 20.8866 23.562 20.8826C23.1502 20.8737 22.6065 21.0287 22.363 20.8238C22.1133 20.6137 22.4732 20.1215 22.569 19.7545C22.6863 19.3051 22.8286 18.8623 22.96 18.4166C22.9969 18.4157 23.0337 18.4149 23.0706 18.4141Z" fill="#FEFEFE"/>
</svg>
