<?xml version="1.0" encoding="UTF-8"?>
<svg xmlns="http://www.w3.org/2000/svg" xmlns:xlink="http://www.w3.org/1999/xlink" width="25px" height="25px" viewBox="0 0 25 24" version="1.1">
<g id="surface1">
<path style=" stroke:none;fill-rule:nonzero;fill:rgb(100%,100%,100%);fill-opacity:1;" d="M 3.734375 0.0546875 C 2.824219 0.210938 2 0.625 1.34375 1.257812 C 0.679688 1.894531 0.277344 2.640625 0.0664062 3.605469 C 0.0117188 3.871094 -0.0234375 19.253906 0.03125 19.933594 C 0.125 21.046875 0.542969 21.933594 1.339844 22.699219 C 2.117188 23.449219 3.015625 23.847656 4.132812 23.949219 C 4.417969 23.980469 7.164062 23.984375 12.789062 23.980469 C 21.019531 23.964844 21.035156 23.964844 21.367188 23.890625 C 22.078125 23.730469 22.652344 23.484375 23.15625 23.117188 C 23.894531 22.589844 24.445312 21.859375 24.734375 21.019531 C 24.96875 20.347656 24.957031 20.882812 24.957031 11.992188 C 24.957031 4.707031 24.949219 3.871094 24.898438 3.574219 C 24.621094 2.019531 23.472656 0.722656 21.945312 0.238281 C 21.152344 -0.0195312 21.820312 0 12.464844 0.00390625 C 5.359375 0.0078125 3.984375 0.015625 3.734375 0.0546875 Z M 15.789062 5.921875 C 17.519531 6.882812 18.980469 7.707031 19.035156 7.757812 C 19.226562 7.9375 19.1875 8.222656 18.953125 8.390625 C 18.882812 8.441406 18.179688 8.859375 17.386719 9.320312 C 16.167969 10.027344 15.921875 10.152344 15.800781 10.152344 C 15.679688 10.152344 15.203125 9.894531 12.496094 8.367188 C 10.753906 7.382812 9.285156 6.53125 9.230469 6.472656 C 9.09375 6.332031 9.089844 6.097656 9.214844 5.960938 C 9.257812 5.910156 9.980469 5.488281 10.820312 5.023438 C 12.128906 4.296875 12.371094 4.175781 12.496094 4.175781 C 12.621094 4.179688 13.085938 4.421875 15.789062 5.921875 Z M 13.390625 10.421875 C 16.683594 12.261719 19.421875 13.816406 19.484375 13.871094 L 19.582031 13.972656 L 19.582031 14.910156 C 19.582031 15.828125 19.582031 15.84375 19.5 15.9375 C 19.453125 15.988281 19.042969 16.234375 18.589844 16.484375 C 17.898438 16.867188 17.738281 16.945312 17.613281 16.945312 C 17.484375 16.945312 16.6875 16.515625 11.488281 13.628906 C 6.246094 10.714844 5.5 10.292969 5.441406 10.183594 C 5.382812 10.078125 5.375 9.96875 5.375 9.164062 C 5.375 8.375 5.382812 8.246094 5.441406 8.136719 C 5.492188 8.035156 5.640625 7.933594 6.3125 7.542969 C 6.980469 7.15625 7.148438 7.074219 7.261719 7.074219 C 7.382812 7.074219 8.261719 7.554688 13.390625 10.421875 Z M 19.402344 9.871094 C 19.417969 9.871094 19.46875 9.902344 19.507812 9.941406 C 19.578125 10.007812 19.582031 10.058594 19.582031 11 L 19.582031 11.988281 L 19.484375 12.058594 C 19.429688 12.101562 19.355469 12.132812 19.316406 12.132812 C 19.226562 12.132812 17.484375 11.226562 17.421875 11.148438 C 17.363281 11.074219 17.363281 10.925781 17.421875 10.855469 C 17.460938 10.800781 19.019531 9.9375 19.191406 9.871094 C 19.234375 9.851562 19.292969 9.84375 19.316406 9.855469 C 19.347656 9.863281 19.382812 9.871094 19.402344 9.871094 Z M 6.53125 12.425781 C 7.539062 12.984375 7.507812 12.960938 7.507812 13.105469 C 7.507812 13.195312 7.484375 13.242188 7.410156 13.292969 C 7.234375 13.410156 5.71875 14.222656 5.675781 14.222656 C 5.585938 14.222656 5.453125 14.140625 5.414062 14.054688 C 5.390625 14.003906 5.375 13.664062 5.375 13.105469 C 5.375 11.773438 5.367188 11.777344 6.53125 12.425781 Z M 12.421875 15.738281 C 14.144531 16.695312 15.589844 17.519531 15.632812 17.570312 C 15.730469 17.675781 15.746094 17.886719 15.660156 18.039062 C 15.621094 18.117188 15.265625 18.332031 14.125 18.964844 C 12.875 19.664062 12.621094 19.789062 12.496094 19.789062 C 12.367188 19.792969 11.941406 19.566406 9.203125 18.046875 C 7.472656 17.085938 6.015625 16.261719 5.964844 16.21875 C 5.902344 16.164062 5.875 16.085938 5.859375 15.960938 C 5.84375 15.804688 5.855469 15.773438 5.949219 15.679688 C 6.007812 15.617188 6.640625 15.253906 7.371094 14.859375 C 9.164062 13.894531 9.019531 13.96875 9.164062 13.984375 C 9.25 13.996094 10.363281 14.59375 12.421875 15.738281 Z M 12.421875 15.738281 "/>
</g>
</svg>
