<svg width="40" height="40" viewBox="0 0 40 40" fill="none" xmlns="http://www.w3.org/2000/svg">
<mask id="mask0_2981_2314" style="mask-type:luminance" maskUnits="userSpaceOnUse" x="2" y="9" width="36" height="31">
<path d="M2.02686 9.81348H37.9735V39.9201H2.02686V9.81348Z" fill="white"/>
</mask>
<g mask="url(#mask0_2981_2314)">
<path fill-rule="evenodd" clip-rule="evenodd" d="M29.0408 11.7469H29.8271C30.2546 11.7469 30.665 11.9294 30.9362 12.4119L36.5787 22.3561C36.7316 22.6223 36.7229 22.7982 36.6679 22.9544C36.6129 23.1103 36.4833 23.2607 36.2954 23.3561C35.9225 23.5469 35.3996 23.564 34.9283 22.8969L31.1408 17.5428C30.7546 16.994 29.8958 17.3498 30.0054 18.0082L31.0483 24.4653L32.5279 38.0528C32.5537 38.2807 32.5104 38.3361 32.3575 38.4457C32.2041 38.5528 31.9004 38.6453 31.5625 38.6423C31.2212 38.6398 30.8575 38.5498 30.595 38.3998C30.335 38.2498 30.1846 38.0698 30.1296 37.8394C29.4537 35.0019 28.6416 31.6107 28.0491 29.0357C27.9887 28.7819 27.9166 28.5215 27.72 28.3165C27.5266 28.1086 27.2233 27.9578 26.9058 27.9578C26.5908 27.9578 26.2846 28.1028 26.0908 28.3107C25.8975 28.5186 25.7937 28.7761 25.765 29.0357L24.7158 37.9136C24.6891 38.1394 24.5829 38.2836 24.3516 38.4257C24.1208 38.5669 23.7679 38.6565 23.4266 38.659C23.0833 38.659 22.7566 38.5698 22.5746 38.4457C22.39 38.3211 22.3291 38.2348 22.3379 38.0061L22.7654 25.454C22.7683 25.4253 22.7683 25.399 22.7654 25.3694L21.8216 15.3961C21.7975 15.1478 21.6333 14.9394 21.3991 14.859L19.9262 14.3473C20.2671 13.8015 20.94 13.3798 21.46 13.0732C21.9508 12.7907 22.4766 12.5736 22.8991 12.4144C23.2283 12.2903 23.5866 12.2353 23.8983 12.299C24.5366 12.4286 25.1758 12.6194 25.8575 12.6194C27.0183 12.6194 28.0875 12.2586 29.0408 11.7469ZM19.5787 11.1582C19.8183 11.1494 20.0696 11.1553 20.3271 11.1753C20.7516 11.2069 21.2166 11.479 21.665 11.6032C21.385 11.7336 21.1104 11.8228 20.8304 11.9848C20.2696 12.3082 19.7058 12.6607 19.2904 13.1053C18.8396 13.5911 18.3891 14.0932 18.3312 14.6628L17.2883 25.4532L17.7187 38.0057C17.7237 38.234 17.6633 38.3207 17.4816 38.4448C17.2966 38.5694 16.9733 38.6586 16.6296 38.6586C16.2854 38.6557 15.9354 38.5661 15.705 38.4248C15.4712 38.2832 15.3637 38.1386 15.3383 37.9132L14.2925 29.0348C14.2608 28.7753 14.1596 28.5182 13.9637 28.3103C13.77 28.1019 13.4637 27.9573 13.1487 27.9573C12.8337 27.9573 12.5275 28.1082 12.3337 28.3161C12.1408 28.5207 12.0654 28.7815 12.0079 29.0348L9.92705 37.8386C9.87205 38.0694 9.72247 38.249 9.45955 38.3994C9.19913 38.5498 8.83205 38.639 8.49413 38.6419C8.1533 38.6448 7.85289 38.5528 7.69997 38.4448C7.54664 38.3357 7.50038 38.2803 7.52622 38.0523L9.0058 24.4648L10.0491 18.0078C10.1616 17.349 9.3008 16.9936 8.91289 17.5423L5.12538 22.8961C4.65747 23.5636 4.13413 23.5461 3.75913 23.3557C3.57122 23.2603 3.44163 23.1098 3.38663 22.954C3.33163 22.7982 3.32622 22.6215 3.4758 22.3553L9.1183 12.4119C9.39288 11.9298 9.79997 11.7469 10.2304 11.7469H11.0158C11.9696 12.2586 13.0387 12.6194 14.1971 12.6194C15.4796 12.6194 16.6816 12.2528 17.6925 11.6603C18.2041 11.3628 18.8512 11.1919 19.5787 11.1582ZM19.9575 9.87443C18.8941 9.85734 17.8946 10.0853 17.06 10.5765C16.225 11.0648 15.24 11.3623 14.1971 11.3623C13.1516 11.3623 12.1604 11.0732 11.3433 10.579C11.245 10.5186 11.1321 10.4865 11.0166 10.4898H10.2312C9.39288 10.4898 8.51747 10.9203 8.02622 11.7873L2.3833 21.734C2.07705 22.2715 2.02538 22.8703 2.1983 23.3665C2.37205 23.8636 2.74205 24.2482 3.18955 24.4761C4.0883 24.9332 5.37955 24.7194 6.15413 23.6211L8.37289 20.4836L7.76039 24.2803L6.2783 37.9165C6.20872 38.5553 6.5208 39.1498 6.9683 39.4678C7.41914 39.789 7.95955 39.9073 8.5033 39.9044C9.04622 39.8982 9.59747 39.7686 10.0858 39.4878C10.5716 39.2078 11.005 38.7486 11.1491 38.1298L13.1166 29.7982L14.0866 38.0611C14.1621 38.6994 14.57 39.2044 15.0491 39.4965C15.5262 39.7911 16.0808 39.9182 16.6296 39.9182C17.1754 39.9182 17.7237 39.794 18.1841 39.4848C18.6462 39.174 18.9987 38.6069 18.9758 37.9628L18.545 25.4528L19.5121 15.5403L20.6046 15.9157L21.5091 25.4473L21.0787 37.9628C21.0583 38.6069 21.4108 39.174 21.8704 39.4848C22.3325 39.794 22.8783 39.9182 23.4275 39.9182C23.9737 39.9182 24.5283 39.7911 25.0075 39.4965C25.4846 39.2044 25.8946 38.6994 25.97 38.0611L26.9437 29.8044L28.9087 38.1298C29.0558 38.7486 29.4837 39.2078 29.9716 39.4878C30.4571 39.7678 31.0116 39.8982 31.5554 39.9044C32.0983 39.9073 32.6387 39.789 33.0862 39.4678C33.5341 39.1498 33.8491 38.5553 33.7791 37.9165L32.2996 24.3153L31.6825 20.4836L33.9012 23.6211C34.6779 24.7194 35.9691 24.9332 36.865 24.4761C37.3133 24.2482 37.6833 23.8636 37.8562 23.3665C38.03 22.8703 37.9775 22.2723 37.6716 21.734L32.0279 11.7873C31.54 10.9203 30.665 10.4898 29.8271 10.4898H29.0408C28.9254 10.4869 28.81 10.5186 28.7121 10.579C27.8971 11.0732 26.9062 11.3623 25.8579 11.3623C25.1962 11.3273 24.5083 11.3044 23.9941 11.0623C22.7804 10.4898 21.5908 9.98984 20.4175 9.89526C20.2612 9.88359 20.1079 9.87443 19.9575 9.87443Z" fill="#D8E1FF"/>
</g>
<path fill-rule="evenodd" clip-rule="evenodd" d="M14.1969 1.26873C16.3806 1.26873 18.031 2.73331 18.031 4.44873V6.00915C18.031 7.72498 16.3806 9.1954 14.1969 9.1954C12.0131 9.1954 10.3627 7.72498 10.3627 6.00915V4.44873C10.3627 2.73331 12.0127 1.26873 14.1969 1.26873ZM14.1969 0.0112305C11.4352 0.0112305 9.10645 1.94415 9.10645 4.44873V6.00915C9.10645 8.51623 11.4356 10.4516 14.1969 10.4516C16.9556 10.4516 19.2873 8.51623 19.2873 6.00915V4.44873C19.2873 1.94415 16.9556 0.0112305 14.1969 0.0112305Z" fill="#D8E1FF"/>
<path fill-rule="evenodd" clip-rule="evenodd" d="M25.857 1.26873C28.0407 1.26873 29.6903 2.73331 29.6903 4.44873V6.00915C29.6903 7.72498 28.0415 9.1954 25.857 9.1954C23.6753 9.1954 22.0257 7.72498 22.0257 6.00915V4.44873C22.0257 2.73331 23.6753 1.26873 25.857 1.26873ZM25.857 0.0112305C23.0974 0.0112305 20.769 1.94415 20.769 4.44873V6.00915C20.769 8.51623 23.0974 10.4516 25.857 10.4516C28.6186 10.4516 30.9528 8.51623 30.9528 6.00915V4.44873C30.9528 1.94415 28.6186 0.0112305 25.857 0.0112305Z" fill="#D8E1FF"/>
</svg>
