<svg width="25" height="24" viewBox="0 0 25 24" fill="none" xmlns="http://www.w3.org/2000/svg">
<mask id="mask0_3098_575" style="mask-type:luminance" maskUnits="userSpaceOnUse" x="2" y="0" width="21" height="24">
<path d="M2.33008 0.640137H22.6821V23.3409H2.33008V0.640137Z" fill="white"/>
</mask>
<g mask="url(#mask0_3098_575)">
<path d="M21.8866 11.5531H14.3049V8.13639H21.8866V11.5531ZM20.4921 22.5769H14.3049V12.3356H20.4921V22.5769ZM11.4759 22.5769V12.3356H13.5224V22.5769H11.4759ZM4.5061 12.3356H10.6934V22.5769H4.5061V12.3356ZM3.1116 8.13639H10.6934V11.5531H3.1116V8.13639ZM5.52385 3.60589C5.44235 3.09589 6.03085 2.50164 6.4606 2.06789C6.8631 1.66164 7.2166 1.46539 7.5731 1.45039C8.01785 1.43189 8.52835 1.70539 9.09185 2.26364C9.70335 2.86939 10.6301 4.00714 11.3216 5.18289C11.6546 5.74914 11.8879 6.25389 11.9961 6.64264C12.0414 6.80539 12.0614 6.93614 12.0646 7.03689L6.5746 4.62164C6.13035 4.39239 5.5916 4.03214 5.52385 3.60589ZM12.9611 6.64264C13.0691 6.25389 13.3026 5.74914 13.6356 5.18289C14.3269 4.00714 15.2539 2.86939 15.8654 2.26364C16.4289 1.70539 16.9401 1.43214 17.3841 1.45039C17.7409 1.46539 18.0944 1.66164 18.4964 2.06789C18.9261 2.50164 19.5149 3.09589 19.4336 3.60589C19.3654 4.03214 18.8269 4.39239 18.3826 4.62164L12.8926 7.03689C12.8961 6.93614 12.9159 6.80539 12.9611 6.64264ZM13.5224 11.5531H11.4759V8.13639H13.5224V11.5531ZM22.2779 7.35414H14.1149L18.7086 5.33289C18.7156 5.32989 18.7226 5.32664 18.7296 5.32314C19.6251 4.86389 20.1084 4.34264 20.2061 3.72914C20.3501 2.82714 19.6001 2.06989 19.0524 1.51714C18.5101 0.969644 17.9751 0.692144 17.4169 0.668644C16.7374 0.640394 16.0496 0.979894 15.3146 1.70764C14.5364 2.47864 13.5906 3.71564 12.9611 4.78589C12.7679 5.11464 12.6069 5.42164 12.4786 5.70564C12.3504 5.42164 12.1894 5.11464 11.9961 4.78589C11.3666 3.71564 10.4206 2.47864 9.6426 1.70764C8.90785 0.980144 8.2201 0.640144 7.54035 0.668644C6.9821 0.692144 6.4471 0.969644 5.90485 1.51714C5.3571 2.06989 4.6071 2.82714 4.7511 3.72914C4.84885 4.34264 5.33185 4.86389 6.22785 5.32314C6.2346 5.32664 6.2416 5.32989 6.2486 5.33289L10.8424 7.35414H2.72035C2.50435 7.35414 2.3291 7.52914 2.3291 7.74539V11.9444C2.3291 12.1606 2.50435 12.3356 2.72035 12.3356H3.7236V22.9681C3.7236 23.1841 3.89885 23.3594 4.11485 23.3594H20.8834C21.0994 23.3594 21.2746 23.1841 21.2746 22.9681V12.3356H22.2779C22.4941 12.3356 22.6691 12.1606 22.6691 11.9444V7.74539C22.6691 7.52914 22.4941 7.35414 22.2779 7.35414Z" fill="white"/>
</g>
</svg>
