<svg width="25" height="24" viewBox="0 0 25 24" fill="none" xmlns="http://www.w3.org/2000/svg">
<g clip-path="url(#clip0_3094_161)">
<mask id="mask0_3094_161" style="mask-type:luminance" maskUnits="userSpaceOnUse" x="0" y="9" width="12" height="12">
<path d="M0.563965 9.53613H11.764V20.7841H0.563965V9.53613Z" fill="white"/>
</mask>
<g mask="url(#mask0_3094_161)">
<path d="M6.16877 20.7609C6.07727 20.7609 5.98602 20.7586 5.89452 20.7541C5.80327 20.7496 5.71227 20.7429 5.62127 20.7339C5.53027 20.7251 5.43952 20.7139 5.34902 20.7004C5.25852 20.6869 5.16852 20.6714 5.07902 20.6536C4.98927 20.6356 4.90002 20.6156 4.81152 20.5934C4.72277 20.5711 4.63452 20.5469 4.54702 20.5204C4.45977 20.4939 4.37277 20.4651 4.28677 20.4344C4.20077 20.4036 4.11552 20.3706 4.03102 20.3356C3.94652 20.3006 3.86302 20.2636 3.78027 20.2246C3.69777 20.1854 3.61602 20.1444 3.53552 20.1014C3.45477 20.0581 3.37527 20.0131 3.29677 19.9661C3.21852 19.9191 3.14127 19.8701 3.06527 19.8194C2.98927 19.7686 2.91452 19.7161 2.84102 19.6616C2.76752 19.6071 2.69552 19.5509 2.62477 19.4929C2.55427 19.4349 2.48502 19.3751 2.41727 19.3139C2.34952 19.2524 2.28327 19.1894 2.21877 19.1246C2.15402 19.0601 2.09102 18.9939 2.02952 18.9261C1.96827 18.8584 1.90852 18.7891 1.85052 18.7186C1.79252 18.6479 1.73627 18.5759 1.68177 18.5024C1.62727 18.4289 1.57477 18.3541 1.52402 18.2781C1.47327 18.2021 1.42427 18.1249 1.37727 18.0466C1.33027 17.9681 1.28527 17.8886 1.24202 17.8079C1.19902 17.7274 1.15802 17.6456 1.11877 17.5631C1.07977 17.4804 1.04277 17.3969 1.00777 17.3124C0.972769 17.2279 0.939769 17.1426 0.909019 17.0566C0.878269 16.9706 0.849519 16.8836 0.823019 16.7964C0.79652 16.7089 0.772269 16.6206 0.750019 16.5319C0.72777 16.4434 0.70777 16.3541 0.68977 16.2644C0.672019 16.1749 0.65652 16.0849 0.643019 15.9944C0.62952 15.9039 0.618269 15.8131 0.60952 15.7221C0.60052 15.6311 0.59377 15.5401 0.58927 15.4489C0.58477 15.3574 0.58252 15.2661 0.58252 15.1746C0.58252 15.0831 0.58477 14.9919 0.58927 14.9006C0.59377 14.8091 0.60052 14.7181 0.60952 14.6271C0.618269 14.5361 0.62952 14.4454 0.643019 14.3549C0.65652 14.2646 0.672019 14.1746 0.68977 14.0849C0.70777 13.9951 0.72777 13.9061 0.750019 13.8174C0.772269 13.7286 0.79652 13.6406 0.823019 13.5531C0.849519 13.4656 0.878269 13.3789 0.909019 13.2926C0.939769 13.2066 0.972769 13.1214 1.00777 13.0369C1.04277 12.9524 1.07977 12.8689 1.11877 12.7864C1.15802 12.7036 1.19902 12.6219 1.24202 12.5414C1.28527 12.4606 1.33027 12.3811 1.37727 12.3029C1.42427 12.2244 1.47327 12.1471 1.52402 12.0711C1.57477 11.9951 1.62727 11.9204 1.68177 11.8469C1.73627 11.7736 1.79252 11.7014 1.85052 11.6309C1.90852 11.5601 1.96827 11.4909 2.02952 11.4231C2.09102 11.3554 2.15402 11.2894 2.21877 11.2246C2.28327 11.1599 2.34952 11.0969 2.41727 11.0356C2.48502 10.9741 2.55427 10.9144 2.62477 10.8564C2.69552 10.7984 2.76752 10.7421 2.84102 10.6879C2.91452 10.6334 2.98927 10.5806 3.06527 10.5299C3.14127 10.4791 3.21852 10.4301 3.29677 10.3831C3.37527 10.3361 3.45477 10.2911 3.53552 10.2481C3.61602 10.2049 3.69777 10.1639 3.78027 10.1249C3.86302 10.0856 3.94652 10.0486 4.03102 10.0136C4.11552 9.97863 4.20077 9.94588 4.28677 9.91513C4.37277 9.88413 4.45977 9.85563 4.54727 9.82888C4.63452 9.80238 4.72277 9.77813 4.81152 9.75588C4.90002 9.73363 4.98927 9.71363 5.07902 9.69588C5.16852 9.67788 5.25852 9.66238 5.34902 9.64888C5.43952 9.63563 5.53027 9.62438 5.62127 9.61538C5.71227 9.60638 5.80327 9.59963 5.89452 9.59513C5.98602 9.59063 6.07727 9.58838 6.16877 9.58838C6.26027 9.58838 6.35152 9.59063 6.44277 9.59513C6.53427 9.59963 6.62527 9.60638 6.71627 9.61538C6.80727 9.62438 6.89802 9.63563 6.98852 9.64888C7.07877 9.66238 7.16877 9.67788 7.25852 9.69588C7.34827 9.71363 7.43727 9.73363 7.52602 9.75588C7.61477 9.77813 7.70277 9.80238 7.79027 9.82888C7.87777 9.85563 7.96452 9.88413 8.05077 9.91513C8.13677 9.94588 8.22202 9.97863 8.30652 10.0136C8.39102 10.0486 8.47452 10.0856 8.55727 10.1249C8.63977 10.1639 8.72152 10.2049 8.80202 10.2481C8.88277 10.2911 8.96227 10.3361 9.04052 10.3831C9.11902 10.4301 9.19627 10.4791 9.27227 10.5299C9.34827 10.5806 9.42302 10.6334 9.49652 10.6879C9.56977 10.7421 9.64202 10.7984 9.71252 10.8564C9.78327 10.9144 9.85252 10.9741 9.92027 11.0356C9.98802 11.0969 10.054 11.1599 10.1188 11.2246C10.1835 11.2894 10.2465 11.3554 10.3078 11.4231C10.3693 11.4909 10.429 11.5601 10.487 11.6309C10.545 11.7014 10.6013 11.7736 10.6555 11.8469C10.71 11.9204 10.7628 11.9951 10.8135 12.0711C10.8643 12.1471 10.9133 12.2244 10.9603 12.3029C11.0073 12.3811 11.0523 12.4606 11.0953 12.5414C11.1385 12.6219 11.1795 12.7036 11.2185 12.7864C11.2578 12.8689 11.2948 12.9524 11.3298 13.0369C11.3648 13.1214 11.3975 13.2066 11.4283 13.2926C11.4593 13.3789 11.4878 13.4656 11.5145 13.5531C11.541 13.6406 11.5653 13.7286 11.5875 13.8174C11.6098 13.9061 11.6298 13.9951 11.6475 14.0849C11.6655 14.1746 11.681 14.2646 11.6945 14.3549C11.7078 14.4454 11.719 14.5361 11.728 14.6271C11.737 14.7181 11.7438 14.8091 11.7483 14.9006C11.7528 14.9919 11.755 15.0831 11.755 15.1746C11.7548 15.2661 11.7525 15.3574 11.748 15.4486C11.7433 15.5399 11.7365 15.6311 11.7275 15.7221C11.7185 15.8129 11.7073 15.9036 11.6938 15.9941C11.6803 16.0844 11.6645 16.1744 11.6465 16.2641C11.6288 16.3536 11.6085 16.4429 11.5863 16.5314C11.564 16.6201 11.5395 16.7081 11.513 16.7956C11.4865 16.8831 11.4578 16.9696 11.4268 17.0559C11.396 17.1419 11.363 17.2271 11.328 17.3114C11.293 17.3959 11.256 17.4794 11.2168 17.5619C11.1778 17.6446 11.1368 17.7261 11.0935 17.8069C11.0505 17.8874 11.0053 17.9669 10.9583 18.0451C10.9113 18.1236 10.8625 18.2009 10.8115 18.2766C10.7608 18.3526 10.7083 18.4274 10.6538 18.5009C10.5993 18.5741 10.543 18.6461 10.485 18.7169C10.427 18.7876 10.3673 18.8566 10.306 18.9244C10.2445 18.9921 10.1815 19.0584 10.117 19.1229C10.0523 19.1876 9.98627 19.2506 9.91852 19.3119C9.85077 19.3734 9.78152 19.4329 9.71102 19.4909C9.64027 19.5489 9.56827 19.6051 9.49477 19.6596C9.42152 19.7141 9.34677 19.7666 9.27077 19.8176C9.19477 19.8684 9.11777 19.9171 9.03927 19.9644C8.96102 20.0114 8.88152 20.0564 8.80077 20.0994C8.72027 20.1426 8.63877 20.1836 8.55602 20.2229C8.47352 20.2619 8.39002 20.2989 8.30552 20.3341C8.22102 20.3691 8.13577 20.4019 8.04977 20.4329C7.96377 20.4636 7.87702 20.4924 7.78977 20.5189C7.70227 20.5456 7.61427 20.5699 7.52552 20.5924C7.43677 20.6146 7.34777 20.6346 7.25802 20.6526C7.16852 20.6704 7.07852 20.6861 6.98802 20.6996C6.89777 20.7131 6.80702 20.7244 6.71602 20.7334C6.62502 20.7424 6.53402 20.7494 6.44277 20.7539C6.35152 20.7584 6.26002 20.7609 6.16877 20.7609ZM6.16877 10.3334C6.08952 10.3334 6.01027 10.3351 5.93127 10.3391C5.85202 10.3431 5.77302 10.3489 5.69427 10.3566C5.61527 10.3644 5.53677 10.3741 5.45827 10.3856C5.38002 10.3974 5.30202 10.4109 5.22427 10.4264C5.14652 10.4419 5.06927 10.4591 4.99227 10.4784C4.91552 10.4976 4.83927 10.5186 4.76327 10.5419C4.68752 10.5649 4.61227 10.5896 4.53777 10.6164C4.46302 10.6429 4.38927 10.6714 4.31602 10.7019C4.24277 10.7321 4.17052 10.7641 4.09877 10.7981C4.02727 10.8319 3.95652 10.8676 3.88652 10.9049C3.81677 10.9424 3.74777 10.9814 3.67977 11.0221C3.61177 11.0629 3.54477 11.1051 3.47902 11.1491C3.41302 11.1931 3.34827 11.2389 3.28477 11.2861C3.22102 11.3331 3.15852 11.3819 3.09752 11.4321C3.03627 11.4824 2.97627 11.5341 2.91752 11.5874C2.85877 11.6406 2.80127 11.6954 2.74527 11.7514C2.68927 11.8074 2.63477 11.8646 2.58152 11.9234C2.52827 11.9821 2.47652 12.0421 2.42627 12.1034C2.37602 12.1646 2.32727 12.2271 2.28002 12.2906C2.23302 12.3544 2.18727 12.4191 2.14327 12.4849C2.09927 12.5509 2.05677 12.6176 2.01627 12.6856C1.97552 12.7536 1.93627 12.8226 1.89902 12.8924C1.86177 12.9624 1.82602 13.0331 1.79227 13.1046C1.75827 13.1764 1.72627 13.2486 1.69577 13.3219C1.66552 13.3951 1.63702 13.4691 1.61027 13.5436C1.58377 13.6181 1.55877 13.6934 1.53577 13.7694C1.51277 13.8451 1.49177 13.9214 1.47252 13.9984C1.45327 14.0751 1.43577 14.1524 1.42027 14.2301C1.40502 14.3079 1.39127 14.3859 1.37977 14.4644C1.36802 14.5426 1.35852 14.6214 1.35077 14.7001C1.34302 14.7789 1.33702 14.8579 1.33327 14.9371C1.32927 15.0161 1.32727 15.0954 1.32727 15.1746C1.32727 15.2539 1.32927 15.3331 1.33327 15.4121C1.33702 15.4914 1.34302 15.5704 1.35077 15.6491C1.35852 15.7281 1.36802 15.8066 1.37977 15.8851C1.39127 15.9634 1.40502 16.0414 1.42027 16.1191C1.43577 16.1969 1.45327 16.2741 1.47252 16.3511C1.49177 16.4279 1.51277 16.5041 1.53577 16.5801C1.55877 16.6559 1.58377 16.7311 1.61027 16.8056C1.63702 16.8804 1.66552 16.9541 1.69577 17.0274C1.72627 17.1006 1.75827 17.1729 1.79227 17.2446C1.82602 17.3161 1.86177 17.3869 1.89902 17.4569C1.93627 17.5266 1.97552 17.5956 2.01627 17.6636C2.05677 17.7316 2.09927 17.7986 2.14327 17.8644C2.18727 17.9304 2.23302 17.9951 2.28002 18.0586C2.32727 18.1224 2.37602 18.1846 2.42627 18.2459C2.47652 18.3071 2.52827 18.3671 2.58152 18.4259C2.63477 18.4846 2.68927 18.5421 2.74527 18.5981C2.80127 18.6541 2.85877 18.7086 2.91752 18.7619C2.97627 18.8151 3.03627 18.8669 3.09752 18.9171C3.15852 18.9674 3.22102 19.0161 3.28477 19.0634C3.34827 19.1104 3.41302 19.1561 3.47902 19.2001C3.54477 19.2441 3.61177 19.2866 3.67977 19.3271C3.74777 19.3679 3.81677 19.4071 3.88652 19.4444C3.95652 19.4816 4.02727 19.5174 4.09877 19.5511C4.17052 19.5851 4.24277 19.6171 4.31602 19.6476C4.38927 19.6779 4.46302 19.7064 4.53777 19.7331C4.61227 19.7596 4.68752 19.7846 4.76327 19.8076C4.83927 19.8306 4.91552 19.8516 4.99227 19.8709C5.06927 19.8901 5.14652 19.9076 5.22427 19.9231C5.30202 19.9384 5.38002 19.9521 5.45827 19.9636C5.53677 19.9754 5.61527 19.9849 5.69427 19.9926C5.77302 20.0004 5.85202 20.0064 5.93127 20.0101C6.01027 20.0141 6.08952 20.0161 6.16877 20.0161C6.24802 20.0161 6.32727 20.0141 6.40627 20.0101C6.48552 20.0064 6.56452 20.0004 6.64327 19.9926C6.72202 19.9849 6.80077 19.9754 6.87902 19.9636C6.95752 19.9521 7.03552 19.9384 7.11327 19.9231C7.19102 19.9076 7.26827 19.8901 7.34502 19.8709C7.42202 19.8516 7.49827 19.8306 7.57402 19.8076C7.65002 19.7846 7.72502 19.7596 7.79977 19.7331C7.87427 19.7064 7.94827 19.6779 8.02152 19.6476C8.09477 19.6171 8.16702 19.5851 8.23877 19.5511C8.31027 19.5174 8.38102 19.4816 8.45102 19.4444C8.52077 19.4071 8.58977 19.3679 8.65777 19.3271C8.72577 19.2866 8.79252 19.2441 8.85852 19.2001C8.92427 19.1561 8.98902 19.1104 9.05277 19.0634C9.11627 19.0161 9.17877 18.9674 9.24002 18.9171C9.30127 18.8669 9.36127 18.8151 9.42002 18.7619C9.47877 18.7086 9.53602 18.6541 9.59202 18.5981C9.64802 18.5421 9.70277 18.4846 9.75602 18.4259C9.80927 18.3671 9.86102 18.3071 9.91127 18.2459C9.96152 18.1849 10.0103 18.1224 10.0573 18.0586C10.1045 17.9951 10.1503 17.9304 10.1943 17.8644C10.2383 17.7986 10.2805 17.7316 10.3213 17.6636C10.362 17.5956 10.401 17.5266 10.4385 17.4569C10.4758 17.3869 10.5115 17.3161 10.5453 17.2446C10.5793 17.1729 10.6113 17.1006 10.6415 17.0274C10.672 16.9541 10.7005 16.8804 10.727 16.8056C10.7538 16.7311 10.7788 16.6559 10.8018 16.5801C10.8248 16.5041 10.8458 16.4279 10.865 16.3511C10.8843 16.2741 10.9015 16.1969 10.917 16.1191C10.9325 16.0414 10.946 15.9634 10.9578 15.8851C10.9693 15.8066 10.979 15.7281 10.9868 15.6491C10.9945 15.5704 11.0003 15.4914 11.0043 15.4121C11.0083 15.3331 11.01 15.2539 11.01 15.1746C11.01 15.0954 11.008 15.0164 11.004 14.9371C11 14.8581 10.994 14.7791 10.9863 14.7004C10.9785 14.6214 10.9688 14.5429 10.957 14.4646C10.9453 14.3861 10.9318 14.3081 10.9163 14.2306C10.9005 14.1529 10.8833 14.0756 10.864 13.9989C10.8445 13.9219 10.8235 13.8456 10.8003 13.7699C10.7773 13.6941 10.7525 13.6189 10.7258 13.5444C10.699 13.4699 10.6705 13.3959 10.64 13.3229C10.6098 13.2496 10.5775 13.1774 10.5438 13.1056C10.5098 13.0341 10.4743 12.9634 10.4368 12.8936C10.3995 12.8236 10.3603 12.7549 10.3195 12.6869C10.2788 12.6189 10.2365 12.5521 10.1925 12.4864C10.1485 12.4204 10.1028 12.3556 10.0555 12.2921C10.0085 12.2284 9.95977 12.1661 9.90952 12.1049C9.85927 12.0436 9.80752 11.9836 9.75427 11.9249C9.70102 11.8664 9.64652 11.8089 9.59052 11.7529C9.53452 11.6969 9.47702 11.6424 9.41852 11.5891C9.35977 11.5359 9.29977 11.4841 9.23852 11.4339C9.17727 11.3836 9.11502 11.3349 9.05127 11.2879C8.98777 11.2406 8.92302 11.1949 8.85702 11.1509C8.79127 11.1069 8.72452 11.0646 8.65652 11.0239C8.58852 10.9831 8.51977 10.9439 8.44977 10.9066C8.38002 10.8691 8.30927 10.8336 8.23777 10.7996C8.16602 10.7659 8.09377 10.7336 8.02052 10.7034C7.94752 10.6729 7.87352 10.6444 7.79902 10.6176C7.72452 10.5909 7.64927 10.5661 7.57352 10.5431C7.49777 10.5199 7.42152 10.4989 7.34452 10.4794C7.26777 10.4601 7.19052 10.4429 7.11277 10.4271C7.03527 10.4116 6.95727 10.3981 6.87877 10.3864C6.80052 10.3746 6.72202 10.3649 6.64302 10.3571C6.56427 10.3494 6.48527 10.3434 6.40627 10.3394C6.32702 10.3354 6.24802 10.3334 6.16877 10.3334Z" fill="white"/>
</g>
<path d="M6.16907 18.8989C6.04707 18.8989 5.92532 18.8929 5.80407 18.8809C5.68257 18.8689 5.56207 18.8512 5.44257 18.8272C5.32282 18.8034 5.20457 18.7739 5.08807 18.7384C4.97132 18.7032 4.85657 18.6619 4.74382 18.6154C4.63107 18.5687 4.52107 18.5167 4.41357 18.4592C4.30582 18.4017 4.20132 18.3389 4.10007 18.2712C3.99857 18.2034 3.90082 18.1309 3.80657 18.0534C3.71207 17.9762 3.62182 17.8944 3.53557 17.8082C3.44932 17.7219 3.36757 17.6317 3.29032 17.5372C3.21282 17.4429 3.14032 17.3452 3.07257 17.2437C3.00482 17.1424 2.94207 17.0379 2.88457 16.9302C2.82707 16.8227 2.77507 16.7127 2.72832 16.5999C2.68182 16.4872 2.64057 16.3724 2.60532 16.2557C2.56982 16.1392 2.54032 16.0209 2.51657 15.9012C2.49257 15.7817 2.47482 15.6612 2.46282 15.5397C2.45082 15.4184 2.44482 15.2967 2.44482 15.1747C2.44482 15.0527 2.45082 14.9312 2.46282 14.8097C2.47482 14.6882 2.49257 14.5677 2.51657 14.4482C2.54032 14.3284 2.56982 14.2104 2.60532 14.0937C2.64057 13.9769 2.68182 13.8622 2.72832 13.7494C2.77507 13.6369 2.82707 13.5267 2.88457 13.4192C2.94207 13.3117 3.00482 13.2072 3.07257 13.1057C3.14032 13.0042 3.21282 12.9064 3.29032 12.8122C3.36757 12.7179 3.44932 12.6277 3.53557 12.5414C3.62182 12.4552 3.71207 12.3732 3.80657 12.2959C3.90082 12.2184 3.99857 12.1459 4.10007 12.0782C4.20132 12.0104 4.30582 11.9479 4.41357 11.8904C4.52107 11.8329 4.63107 11.7807 4.74382 11.7342C4.85657 11.6874 4.97132 11.6464 5.08807 11.6109C5.20457 11.5754 5.32282 11.5459 5.44257 11.5222C5.56207 11.4984 5.68257 11.4804 5.80407 11.4684C5.92532 11.4567 6.04707 11.4507 6.16907 11.4507C6.29107 11.4507 6.41257 11.4567 6.53407 11.4684C6.65557 11.4804 6.77607 11.4984 6.89557 11.5222C7.01532 11.5459 7.13332 11.5754 7.25007 11.6109C7.36682 11.6464 7.48157 11.6874 7.59432 11.7342C7.70682 11.7807 7.81707 11.8329 7.92457 11.8904C8.03207 11.9479 8.13657 12.0104 8.23807 12.0782C8.33957 12.1459 8.43732 12.2184 8.53157 12.2959C8.62582 12.3732 8.71607 12.4552 8.80232 12.5414C8.88857 12.6277 8.97057 12.7179 9.04782 12.8122C9.12532 12.9064 9.19782 13.0042 9.26557 13.1057C9.33332 13.2072 9.39582 13.3117 9.45332 13.4192C9.51082 13.5267 9.56307 13.6369 9.60957 13.7494C9.65632 13.8622 9.69732 13.9769 9.73282 14.0937C9.76832 14.2104 9.79782 14.3284 9.82157 14.4482C9.84532 14.5677 9.86332 14.6882 9.87532 14.8097C9.88707 14.9312 9.89307 15.0527 9.89307 15.1747C9.89307 15.2967 9.88682 15.4182 9.87482 15.5397C9.86282 15.6609 9.84482 15.7814 9.82082 15.9009C9.79707 16.0204 9.76732 16.1387 9.73182 16.2552C9.69632 16.3719 9.65532 16.4867 9.60857 16.5992C9.56182 16.7119 9.50957 16.8219 9.45207 16.9294C9.39457 17.0369 9.33207 17.1414 9.26432 17.2427C9.19632 17.3442 9.12382 17.4419 9.04657 17.5362C8.96907 17.6304 8.88732 17.7207 8.80107 17.8067C8.71482 17.8929 8.62457 17.9747 8.53032 18.0522C8.43607 18.1294 8.33832 18.2022 8.23707 18.2699C8.13557 18.3377 8.03132 18.4002 7.92382 18.4579C7.81632 18.5154 7.70607 18.5674 7.59357 18.6142C7.48082 18.6609 7.36632 18.7019 7.24957 18.7374C7.13307 18.7729 7.01482 18.8027 6.89532 18.8267C6.77582 18.8504 6.65532 18.8684 6.53382 18.8804C6.41257 18.8927 6.29107 18.8987 6.16907 18.8989ZM6.16907 12.1954C6.07157 12.1954 5.97407 12.2002 5.87707 12.2097C5.77982 12.2194 5.68357 12.2337 5.58782 12.2527C5.49207 12.2717 5.39757 12.2954 5.30407 12.3237C5.21082 12.3519 5.11907 12.3849 5.02882 12.4222C4.93882 12.4594 4.85057 12.5012 4.76457 12.5472C4.67857 12.5932 4.59507 12.6432 4.51382 12.6974C4.43257 12.7517 4.35432 12.8097 4.27907 12.8717C4.20357 12.9337 4.13132 12.9989 4.06232 13.0679C3.99332 13.1369 3.92782 13.2092 3.86607 13.2847C3.80407 13.3602 3.74607 13.4384 3.69182 13.5194C3.63757 13.6007 3.58757 13.6842 3.54157 13.7702C3.49557 13.8564 3.45382 13.9444 3.41657 14.0347C3.37907 14.1247 3.34632 14.2164 3.31807 14.3099C3.28957 14.4032 3.26607 14.4977 3.24707 14.5934C3.22782 14.6892 3.21357 14.7857 3.20407 14.8827C3.19457 14.9797 3.18982 15.0772 3.18982 15.1747C3.18982 15.2722 3.19457 15.3697 3.20407 15.4667C3.21357 15.5639 3.22782 15.6602 3.24707 15.7559C3.26607 15.8517 3.28957 15.9462 3.31807 16.0397C3.34632 16.1329 3.37907 16.2247 3.41657 16.3149C3.45382 16.4049 3.49557 16.4932 3.54157 16.5792C3.58757 16.6652 3.63757 16.7487 3.69182 16.8299C3.74607 16.9112 3.80407 16.9894 3.86607 17.0647C3.92782 17.1402 3.99332 17.2124 4.06232 17.2814C4.13132 17.3504 4.20357 17.4159 4.27907 17.4777C4.35432 17.5397 4.43257 17.5977 4.51382 17.6519C4.59507 17.7062 4.67857 17.7562 4.76457 17.8022C4.85057 17.8482 4.93882 17.8899 5.02882 17.9272C5.11907 17.9647 5.21082 17.9974 5.30407 18.0257C5.39757 18.0542 5.49207 18.0777 5.58782 18.0967C5.68357 18.1159 5.77982 18.1302 5.87707 18.1397C5.97407 18.1492 6.07157 18.1539 6.16907 18.1539C6.26657 18.1539 6.36407 18.1492 6.46107 18.1397C6.55807 18.1302 6.65457 18.1159 6.75032 18.0967C6.84607 18.0777 6.94057 18.0542 7.03382 18.0257C7.12732 17.9974 7.21907 17.9647 7.30907 17.9272C7.39932 17.8899 7.48732 17.8482 7.57357 17.8022C7.65957 17.7562 7.74307 17.7062 7.82432 17.6519C7.90532 17.5977 7.98357 17.5397 8.05907 17.4777C8.13457 17.4159 8.20682 17.3504 8.27582 17.2814C8.34482 17.2124 8.41007 17.1402 8.47207 17.0647C8.53407 16.9894 8.59207 16.9112 8.64632 16.8299C8.70057 16.7487 8.75057 16.6652 8.79657 16.5792C8.84257 16.4932 8.88432 16.4049 8.92157 16.3149C8.95882 16.2247 8.99182 16.1329 9.02007 16.0397C9.04832 15.9462 9.07207 15.8517 9.09107 15.7559C9.11007 15.6602 9.12432 15.5639 9.13407 15.4667C9.14357 15.3697 9.14832 15.2722 9.14832 15.1747C9.14832 15.0772 9.14332 14.9799 9.13357 14.8827C9.12407 14.7857 9.10957 14.6894 9.09057 14.5937C9.07132 14.4982 9.04757 14.4037 9.01932 14.3102C8.99082 14.2169 8.95807 14.1252 8.92057 14.0352C8.88332 13.9449 8.84157 13.8569 8.79557 13.7709C8.74957 13.6849 8.69932 13.6014 8.64507 13.5202C8.59107 13.4392 8.53282 13.3609 8.47107 13.2857C8.40907 13.2102 8.34382 13.1379 8.27482 13.0689C8.20582 12.9999 8.13357 12.9347 8.05807 12.8727C7.98282 12.8109 7.90457 12.7527 7.82357 12.6987C7.74232 12.6444 7.65882 12.5942 7.57282 12.5482C7.48682 12.5022 7.39882 12.4604 7.30857 12.4232C7.21857 12.3857 7.12682 12.3529 7.03357 12.3244C6.94007 12.2962 6.84557 12.2724 6.75007 12.2532C6.65432 12.2342 6.55807 12.2197 6.46107 12.2102C6.36382 12.2004 6.26657 12.1954 6.16907 12.1954Z" fill="white"/>
<path d="M11.3826 8.09716C11.3581 8.09716 11.3338 8.09466 11.3098 8.08991C11.2858 8.08516 11.2626 8.07816 11.2401 8.06891C11.2173 8.05941 11.1961 8.04791 11.1756 8.03441C11.1553 8.02091 11.1366 8.00541 11.1191 7.98816C11.1018 7.97091 11.0863 7.95191 11.0728 7.93166C11.0593 7.91141 11.0478 7.88991 11.0386 7.86716C11.0291 7.84466 11.0221 7.82141 11.0173 7.79741C11.0126 7.77341 11.0101 7.74916 11.0101 7.72466C11.0101 7.64166 11.0066 7.55866 10.9998 7.47566C10.9928 7.39291 10.9823 7.31041 10.9686 7.22841C10.9546 7.14641 10.9373 7.06516 10.9166 6.98466C10.8961 6.90416 10.8721 6.82466 10.8448 6.74616C10.8173 6.66766 10.7868 6.59041 10.7531 6.51441C10.7193 6.43841 10.6823 6.36391 10.6423 6.29116C10.6023 6.21816 10.5593 6.14716 10.5133 6.07791C10.4673 6.00866 10.4186 5.94141 10.3671 5.87616C10.3156 5.81091 10.2613 5.74816 10.2043 5.68741C10.1476 5.62666 10.0883 5.56866 10.0266 5.51291C9.96481 5.45716 9.90081 5.40416 9.83456 5.35391C9.76856 5.30341 9.70031 5.25591 9.63031 5.21141C9.56006 5.16666 9.48806 5.12516 9.41456 5.08641C9.34081 5.04791 9.26581 5.01241 9.18931 4.97991C9.11256 4.94766 9.03481 4.91866 8.95581 4.89266C8.87681 4.86691 8.79681 4.84441 8.71581 4.82541C8.63506 4.80616 8.55331 4.79041 8.47106 4.77816C8.38906 4.76591 8.30631 4.75716 8.22331 4.75166C8.14031 4.74616 8.05731 4.74441 7.97431 4.74591C7.89106 4.74741 7.80831 4.75241 7.72556 4.76091C7.64281 4.76941 7.56056 4.78141 7.47881 4.79691C7.39706 4.81216 7.31631 4.83091 7.23606 4.85316C7.15606 4.87541 7.07681 4.90091 6.99881 4.92966C6.92081 4.95841 6.84431 4.99041 6.76881 5.02541C6.69356 5.06066 6.61981 5.09891 6.54781 5.14041C6.47556 5.18166 6.40531 5.22591 6.33706 5.27316C6.26856 5.32041 6.20231 5.37041 6.13806 5.42341C6.07381 5.47616 6.01181 5.53141 5.95231 5.58941C5.89281 5.64741 5.83556 5.70791 5.78106 5.77066C5.72656 5.83341 5.67481 5.89816 5.62556 5.96541C5.57656 6.03241 5.53031 6.10141 5.48706 6.17241C5.44356 6.24341 5.40331 6.31591 5.36606 6.39041C5.35506 6.41216 5.34206 6.43266 5.32706 6.45191C5.31206 6.47141 5.29531 6.48891 5.27681 6.50491C5.25831 6.52091 5.23856 6.53491 5.21731 6.54691C5.19606 6.55916 5.17381 6.56891 5.15056 6.57666C5.12731 6.58441 5.10381 6.58966 5.07956 6.59266C5.05531 6.59566 5.03081 6.59641 5.00656 6.59466C4.98206 6.59291 4.95806 6.58866 4.93456 6.58216C4.91106 6.57566 4.88831 6.56691 4.86656 6.55616C4.84456 6.54516 4.82406 6.53216 4.80481 6.51716C4.78556 6.50216 4.76781 6.48541 4.75181 6.46691C4.73581 6.44841 4.72181 6.42841 4.70981 6.40716C4.69756 6.38616 4.68781 6.36391 4.68006 6.34066C4.67231 6.31741 4.66706 6.29366 4.66406 6.26941C4.66106 6.24516 4.66031 6.22091 4.66206 6.19641C4.66381 6.17216 4.66806 6.14816 4.67431 6.12466C4.68081 6.10091 4.68956 6.07841 4.70056 6.05641C4.74706 5.96366 4.79756 5.87266 4.85156 5.78416C4.90581 5.69541 4.96356 5.60916 5.02506 5.52516C5.08631 5.44141 5.15106 5.36016 5.21931 5.28191C5.28756 5.20341 5.35881 5.12791 5.43331 5.05541C5.50781 4.98291 5.58506 4.91391 5.66531 4.84791C5.74581 4.78191 5.82856 4.71941 5.91406 4.66016C5.99956 4.60116 6.08756 4.54591 6.17756 4.49416C6.26781 4.44241 6.35981 4.39466 6.45406 4.35066C6.54831 4.30666 6.64406 4.26666 6.74156 4.23066C6.83906 4.19466 6.93781 4.16291 7.03806 4.13516C7.13806 4.10741 7.23931 4.08416 7.34156 4.06491C7.44356 4.04566 7.54631 4.03066 7.64981 4.02016C7.75306 4.00941 7.85681 4.00316 7.96056 4.00116C8.06456 3.99916 8.16831 4.00166 8.27206 4.00841C8.37581 4.01516 8.47906 4.02616 8.58181 4.04166C8.68456 4.05691 8.78656 4.07666 8.88756 4.10066C8.98881 4.12441 9.08856 4.15266 9.18731 4.18491C9.28631 4.21716 9.38356 4.25341 9.47931 4.29391C9.57506 4.33441 9.66881 4.37866 9.76081 4.42691C9.85281 4.47516 9.94281 4.52716 10.0303 4.58316C10.1181 4.63891 10.2033 4.69816 10.2858 4.76116C10.3686 4.82416 10.4486 4.89041 10.5258 4.95991C10.6028 5.02966 10.6771 5.10241 10.7481 5.17816C10.8191 5.25391 10.8868 5.33266 10.9513 5.41416C11.0158 5.49566 11.0768 5.57966 11.1343 5.66616C11.1916 5.75291 11.2453 5.84166 11.2953 5.93291C11.3453 6.02391 11.3916 6.11691 11.4338 6.21191C11.4761 6.30691 11.5141 6.40341 11.5483 6.50166C11.5823 6.59966 11.6123 6.69916 11.6383 6.79966C11.6641 6.90041 11.6856 7.00191 11.7028 7.10441C11.7203 7.20691 11.7333 7.30991 11.7418 7.41341C11.7506 7.51716 11.7551 7.62066 11.7551 7.72466C11.7551 7.74916 11.7526 7.77341 11.7478 7.79741C11.7431 7.82141 11.7361 7.84466 11.7268 7.86716C11.7173 7.88991 11.7058 7.91141 11.6923 7.93166C11.6788 7.95191 11.6633 7.97091 11.6461 7.98816C11.6286 8.00541 11.6098 8.02091 11.5896 8.03441C11.5691 8.04791 11.5478 8.05941 11.5251 8.06891C11.5026 8.07816 11.4793 8.08516 11.4553 8.08991C11.4313 8.09466 11.4071 8.09716 11.3826 8.09716Z" fill="white"/>
<path d="M11.3828 15.547C11.3583 15.547 11.334 15.5445 11.31 15.5398C11.286 15.535 11.2628 15.528 11.2403 15.5188C11.2175 15.5093 11.1963 15.4978 11.1758 15.4843C11.1555 15.4708 11.1368 15.4553 11.1193 15.438C11.102 15.4208 11.0865 15.4018 11.073 15.3815C11.0595 15.3613 11.048 15.3398 11.0388 15.317C11.0293 15.2945 11.0223 15.2713 11.0175 15.2473C11.0128 15.2233 11.0103 15.199 11.0103 15.1745V4.74555C11.0103 4.72105 11.0128 4.6968 11.0175 4.6728C11.0223 4.6488 11.0293 4.62555 11.0388 4.60305C11.048 4.5803 11.0595 4.55905 11.073 4.53855C11.0868 4.5183 11.1023 4.49955 11.1195 4.4823C11.1368 4.4648 11.1555 4.44955 11.1758 4.4358C11.1963 4.4223 11.2178 4.4108 11.2403 4.40155C11.2628 4.39205 11.286 4.38505 11.31 4.3803C11.334 4.37555 11.3583 4.37305 11.3828 4.37305C11.4073 4.37305 11.4315 4.37555 11.4555 4.3803C11.4795 4.38505 11.5028 4.39205 11.5253 4.40155C11.5478 4.4108 11.5693 4.4223 11.5898 4.4358C11.61 4.44955 11.6288 4.4648 11.646 4.4823C11.6635 4.49955 11.6788 4.5183 11.6925 4.53855C11.706 4.55905 11.7175 4.5803 11.7268 4.60305C11.7363 4.62555 11.7433 4.6488 11.748 4.6728C11.7528 4.6968 11.7553 4.72105 11.7553 4.74555V15.1745C11.7553 15.199 11.7528 15.2233 11.748 15.2473C11.7433 15.2713 11.7363 15.2945 11.727 15.317C11.7175 15.3398 11.706 15.3613 11.6925 15.3815C11.679 15.4018 11.6635 15.4208 11.6463 15.438C11.6288 15.4553 11.61 15.4708 11.5898 15.4843C11.5693 15.4978 11.548 15.5093 11.5253 15.5188C11.5028 15.528 11.4795 15.535 11.4555 15.5398C11.4315 15.5445 11.4073 15.547 11.3828 15.547Z" fill="white"/>
<path d="M1.45689 13.3112C1.44089 13.3112 1.42514 13.3102 1.40914 13.308C1.39339 13.306 1.37764 13.303 1.36214 13.299C1.34664 13.2947 1.33164 13.2897 1.31664 13.2837C1.30189 13.2777 1.28764 13.2707 1.27364 13.2627C1.25964 13.255 1.24639 13.2462 1.23364 13.2365C1.22089 13.227 1.20864 13.2165 1.19714 13.2055C1.18589 13.1942 1.17514 13.1825 1.16514 13.1697C1.15539 13.1572 1.14614 13.1442 1.13789 13.1305C1.12964 13.1167 1.12239 13.1025 1.11614 13.0877C1.10964 13.0732 1.10414 13.0582 1.09964 13.0427C1.09514 13.0275 1.09189 13.012 1.08939 12.996C1.08689 12.9802 1.08539 12.9645 1.08514 12.9485C1.08464 12.9325 1.08514 12.9165 1.08689 12.9005C1.08839 12.8847 1.09114 12.869 1.09489 12.8532C1.09864 12.8377 1.10314 12.8225 1.10889 12.8075C1.11439 12.7925 1.12114 12.778 1.12864 12.764L4.70464 6.04874C4.71614 6.02724 4.72965 6.00674 4.74514 5.98774C4.7604 5.96874 4.77764 5.95149 4.79664 5.93599C4.81539 5.92024 4.83564 5.90674 4.85715 5.89524C4.87864 5.88349 4.90114 5.87424 4.92464 5.86699C4.94814 5.85974 4.97189 5.85499 4.99639 5.85249C5.02064 5.84999 5.04515 5.84999 5.0694 5.85224C5.09389 5.85474 5.11764 5.85924 5.14114 5.86649C5.16465 5.87349 5.18714 5.88274 5.20864 5.89424C5.23039 5.90574 5.25064 5.91924 5.26964 5.93474C5.28864 5.95024 5.30589 5.96749 5.32139 5.98624C5.33689 6.00524 5.35039 6.02549 5.36214 6.04699C5.37364 6.06874 5.38289 6.09124 5.39014 6.11449C5.39714 6.13799 5.40214 6.16199 5.40439 6.18624C5.40689 6.21074 5.40689 6.23499 5.40439 6.25949C5.40214 6.28374 5.39739 6.30774 5.39014 6.33124C5.38314 6.35449 5.37364 6.37699 5.36214 6.39874L1.78614 13.1137C1.77014 13.1435 1.75064 13.1707 1.72739 13.1952C1.70414 13.2197 1.67789 13.2407 1.64889 13.2582C1.61989 13.2755 1.58914 13.2887 1.55664 13.2977C1.52389 13.3067 1.49064 13.3112 1.45689 13.3112Z" fill="white"/>
<path d="M11.3828 5.11776C11.3583 5.11776 11.3341 5.11526 11.3101 5.11051C11.2861 5.10576 11.2628 5.09876 11.2403 5.08926C11.2176 5.08001 11.1963 5.06851 11.1758 5.05501C11.1556 5.04126 11.1368 5.02601 11.1193 5.00876C11.1021 4.99126 11.0868 4.97251 11.0731 4.95226C11.0596 4.93176 11.0481 4.91051 11.0388 4.88776C11.0293 4.86526 11.0223 4.84201 11.0176 4.81801C11.0128 4.79401 11.0103 4.76976 11.0103 4.74526C11.0103 4.69951 11.0083 4.65376 11.0041 4.60826C10.9998 4.56251 10.9936 4.51726 10.9851 4.47226C10.9768 4.42726 10.9663 4.38276 10.9538 4.33851C10.9413 4.29451 10.9268 4.25126 10.9103 4.20851C10.8938 4.16576 10.8753 4.12376 10.8548 4.08276C10.8346 4.04176 10.8123 4.00176 10.7883 3.96276C10.7643 3.92401 10.7383 3.88601 10.7108 3.84951C10.6833 3.81301 10.6541 3.77776 10.6233 3.74376C10.5926 3.71001 10.5603 3.67751 10.5266 3.64651C10.4928 3.61576 10.4576 3.58626 10.4211 3.55876C10.3846 3.53101 10.3471 3.50501 10.3081 3.48076C10.2693 3.45651 10.2293 3.43426 10.1883 3.41376C10.1473 3.39326 10.1056 3.37451 10.0631 3.35801C10.0203 3.34126 9.97708 3.32651 9.93308 3.31376C9.88908 3.30126 9.84458 3.29051 9.79958 3.28201C9.75458 3.27351 9.70933 3.26701 9.66358 3.26251C9.61808 3.25801 9.57233 3.25576 9.52658 3.25551C9.48083 3.25551 9.43508 3.25726 9.38958 3.26126C9.34383 3.26551 9.29858 3.27151 9.25333 3.27976C9.20833 3.28801 9.16383 3.29826 9.11958 3.31051C9.07558 3.32276 9.03208 3.33701 8.98933 3.35351C8.94658 3.36976 8.90458 3.38801 8.86358 3.40826C8.82233 3.42851 8.78233 3.45051 8.74333 3.47426C8.70408 3.49826 8.66633 3.52376 8.62958 3.55126C8.59283 3.57851 8.55758 3.60776 8.52358 3.63826C8.48933 3.66901 8.45683 3.70101 8.42583 3.73476C8.39483 3.76826 8.36533 3.80326 8.33733 3.83976C8.30958 3.87601 8.28358 3.91376 8.25908 3.95251C8.23483 3.99126 8.21208 4.03101 8.19158 4.07176C8.17083 4.11276 8.15208 4.15451 8.13508 4.19701C8.11833 4.23951 8.10333 4.28276 8.09058 4.32676C8.07758 4.37076 8.06683 4.41526 8.05808 4.46001C8.05333 4.48401 8.04658 4.50751 8.03733 4.53001C8.02808 4.55276 8.01658 4.57426 8.00333 4.59451C7.98983 4.61501 7.97433 4.63401 7.95733 4.65126C7.94008 4.66876 7.92133 4.68426 7.90108 4.69801C7.88083 4.71151 7.85933 4.72326 7.83683 4.73276C7.81433 4.74226 7.79108 4.74926 7.76733 4.75426C7.74333 4.75926 7.71908 4.76176 7.69458 4.76176C7.67008 4.76201 7.64608 4.75976 7.62208 4.75501C7.59808 4.75051 7.57458 4.74351 7.55208 4.73426C7.52933 4.72501 7.50783 4.71376 7.48758 4.70026C7.46708 4.68676 7.44808 4.67151 7.43083 4.65426C7.41333 4.63701 7.39783 4.61826 7.38408 4.59801C7.37058 4.57776 7.35883 4.55651 7.34933 4.53401C7.33983 4.51151 7.33283 4.48826 7.32783 4.46426C7.32283 4.44026 7.32033 4.41601 7.32033 4.39176C7.32008 4.36726 7.32233 4.34301 7.32708 4.31901C7.34008 4.25151 7.35633 4.18476 7.37558 4.11901C7.39483 4.05301 7.41708 3.98801 7.44233 3.92426C7.46758 3.86026 7.49583 3.79776 7.52683 3.73626C7.55783 3.67501 7.59158 3.61526 7.62808 3.55701C7.66458 3.49901 7.70383 3.44251 7.74558 3.38801C7.78733 3.33326 7.83133 3.28076 7.87808 3.23026C7.92458 3.17976 7.97333 3.13151 8.02433 3.08551C8.07533 3.03951 8.12858 2.99601 8.18358 2.95501C8.23858 2.91376 8.29533 2.87526 8.35408 2.83951C8.41258 2.80351 8.47283 2.77051 8.53433 2.74026C8.59608 2.70976 8.65908 2.68251 8.72308 2.65801C8.78733 2.63326 8.85258 2.61176 8.91858 2.59326C8.98483 2.57476 9.05183 2.55951 9.11933 2.54701C9.18683 2.53476 9.25483 2.52551 9.32333 2.51951C9.39183 2.51351 9.46033 2.51051 9.52908 2.51076C9.59783 2.51101 9.66633 2.51451 9.73483 2.52101C9.80308 2.52751 9.87108 2.53726 9.93858 2.55026C10.0061 2.56301 10.0728 2.57901 10.1388 2.59801C10.2048 2.61701 10.2698 2.63901 10.3338 2.66401C10.3978 2.68901 10.4606 2.71701 10.5221 2.74776C10.5833 2.77851 10.6433 2.81201 10.7016 2.84826C10.7598 2.88476 10.8163 2.92351 10.8711 2.96501C10.9258 3.00651 10.9786 3.05051 11.0293 3.09701C11.0801 3.14326 11.1283 3.19201 11.1746 3.24276C11.2208 3.29376 11.2646 3.34651 11.3058 3.40151C11.3473 3.45626 11.3861 3.51301 11.4221 3.57151C11.4581 3.63001 11.4916 3.69001 11.5221 3.75151C11.5526 3.81301 11.5803 3.87576 11.6051 3.94001C11.6298 4.00401 11.6516 4.06901 11.6703 4.13526C11.6891 4.20126 11.7048 4.26801 11.7173 4.33551C11.7298 4.40326 11.7393 4.47126 11.7458 4.53951C11.7521 4.60801 11.7553 4.67651 11.7553 4.74526C11.7553 4.76976 11.7528 4.79401 11.7481 4.81801C11.7433 4.84201 11.7363 4.86526 11.7271 4.88776C11.7176 4.91051 11.7061 4.93176 11.6926 4.95226C11.6791 4.97251 11.6636 4.99126 11.6463 5.00876C11.6288 5.02601 11.6101 5.04126 11.5898 5.05501C11.5693 5.06851 11.5481 5.08001 11.5253 5.08926C11.5028 5.09876 11.4796 5.10576 11.4556 5.11051C11.4316 5.11526 11.4073 5.11776 11.3828 5.11776Z" fill="white"/>
<mask id="mask1_3094_161" style="mask-type:luminance" maskUnits="userSpaceOnUse" x="13" y="9" width="12" height="12">
<path d="M13.2358 9.53613H24.4358V20.7841H13.2358V9.53613Z" fill="white"/>
</mask>
<g mask="url(#mask1_3094_161)">
<path d="M18.8309 20.7609C18.7394 20.7609 18.6481 20.7586 18.5569 20.7541C18.4654 20.7496 18.3744 20.7429 18.2834 20.7339C18.1924 20.7251 18.1016 20.7139 18.0111 20.7004C17.9209 20.6869 17.8309 20.6714 17.7411 20.6536C17.6514 20.6356 17.5624 20.6156 17.4736 20.5934C17.3849 20.5711 17.2969 20.5469 17.2094 20.5204C17.1219 20.4939 17.0351 20.4651 16.9489 20.4344C16.8629 20.4036 16.7776 20.3706 16.6931 20.3356C16.6086 20.3006 16.5251 20.2636 16.4424 20.2246C16.3599 20.1854 16.2781 20.1444 16.1976 20.1014C16.1169 20.0581 16.0374 20.0131 15.9591 19.9661C15.8806 19.9191 15.8034 19.8701 15.7274 19.8194C15.6514 19.7686 15.5766 19.7161 15.5031 19.6616C15.4299 19.6071 15.3576 19.5509 15.2871 19.4929C15.2164 19.4349 15.1471 19.3751 15.0794 19.3139C15.0116 19.2524 14.9456 19.1894 14.8809 19.1246C14.8161 19.0601 14.7531 18.9939 14.6919 18.9261C14.6304 18.8584 14.5706 18.7891 14.5126 18.7186C14.4546 18.6479 14.3984 18.5759 14.3441 18.5024C14.2896 18.4289 14.2369 18.3541 14.1861 18.2781C14.1354 18.2021 14.0864 18.1249 14.0394 18.0466C13.9924 17.9681 13.9474 17.8886 13.9044 17.8079C13.8611 17.7274 13.8201 17.6456 13.7811 17.5631C13.7419 17.4804 13.7049 17.3969 13.6699 17.3124C13.6349 17.2279 13.6021 17.1426 13.5711 17.0566C13.5404 16.9706 13.5119 16.8836 13.4851 16.7964C13.4586 16.7089 13.4344 16.6206 13.4121 16.5319C13.3899 16.4434 13.3699 16.3541 13.3521 16.2644C13.3341 16.1749 13.3186 16.0849 13.3051 15.9944C13.2916 15.9039 13.2806 15.8131 13.2716 15.7221C13.2626 15.6311 13.2559 15.5401 13.2514 15.4489C13.2469 15.3574 13.2446 15.2661 13.2446 15.1746C13.2446 15.0831 13.2469 14.9919 13.2514 14.9006C13.2559 14.8091 13.2626 14.7181 13.2716 14.6271C13.2806 14.5361 13.2916 14.4454 13.3051 14.3549C13.3186 14.2646 13.3341 14.1746 13.3521 14.0849C13.3699 13.9951 13.3899 13.9061 13.4121 13.8174C13.4344 13.7286 13.4586 13.6406 13.4851 13.5531C13.5119 13.4656 13.5404 13.3789 13.5711 13.2926C13.6021 13.2066 13.6349 13.1214 13.6699 13.0369C13.7049 12.9524 13.7419 12.8689 13.7811 12.7864C13.8201 12.7036 13.8611 12.6219 13.9044 12.5414C13.9474 12.4606 13.9924 12.3811 14.0394 12.3029C14.0864 12.2244 14.1354 12.1471 14.1861 12.0711C14.2369 11.9951 14.2896 11.9204 14.3441 11.8469C14.3984 11.7736 14.4546 11.7014 14.5126 11.6309C14.5706 11.5601 14.6304 11.4909 14.6919 11.4231C14.7531 11.3554 14.8161 11.2894 14.8809 11.2246C14.9456 11.1599 15.0116 11.0969 15.0794 11.0356C15.1471 10.9741 15.2164 10.9144 15.2871 10.8564C15.3576 10.7984 15.4299 10.7421 15.5031 10.6879C15.5766 10.6334 15.6514 10.5806 15.7274 10.5299C15.8034 10.4791 15.8806 10.4301 15.9591 10.3831C16.0374 10.3361 16.1169 10.2911 16.1976 10.2481C16.2781 10.2049 16.3599 10.1639 16.4424 10.1249C16.5251 10.0856 16.6086 10.0486 16.6931 10.0136C16.7776 9.97863 16.8629 9.94588 16.9489 9.91513C17.0351 9.88413 17.1219 9.85563 17.2094 9.82888C17.2969 9.80238 17.3849 9.77813 17.4736 9.75588C17.5624 9.73363 17.6514 9.71363 17.7411 9.69588C17.8309 9.67788 17.9209 9.66238 18.0111 9.64888C18.1016 9.63563 18.1924 9.62438 18.2834 9.61538C18.3744 9.60638 18.4654 9.59963 18.5569 9.59513C18.6481 9.59063 18.7394 9.58838 18.8309 9.58838C18.9224 9.58838 19.0136 9.59063 19.1051 9.59513C19.1964 9.59963 19.2874 9.60638 19.3784 9.61538C19.4694 9.62438 19.5601 9.63563 19.6506 9.64888C19.7411 9.66238 19.8311 9.67788 19.9206 9.69588C20.0104 9.71363 20.0996 9.73363 20.1881 9.75588C20.2769 9.77813 20.3651 9.80238 20.4524 9.82888C20.5399 9.85563 20.6269 9.88413 20.7129 9.91513C20.7989 9.94588 20.8841 9.97863 20.9686 10.0136C21.0531 10.0486 21.1366 10.0856 21.2194 10.1249C21.3019 10.1639 21.3836 10.2049 21.4641 10.2481C21.5449 10.2911 21.6244 10.3361 21.7029 10.3831C21.7811 10.4301 21.8584 10.4791 21.9344 10.5299C22.0104 10.5806 22.0851 10.6334 22.1586 10.6879C22.2321 10.7421 22.3041 10.7984 22.3749 10.8564C22.4454 10.9144 22.5146 10.9741 22.5824 11.0356C22.6501 11.0969 22.7164 11.1599 22.7809 11.2246C22.8456 11.2894 22.9086 11.3554 22.9701 11.4231C23.0314 11.4909 23.0911 11.5601 23.1491 11.6309C23.2071 11.7014 23.2634 11.7736 23.3179 11.8469C23.3724 11.9204 23.4249 11.9951 23.4756 12.0711C23.5264 12.1471 23.5754 12.2244 23.6224 12.3029C23.6694 12.3811 23.7144 12.4606 23.7576 12.5414C23.8006 12.6219 23.8416 12.7036 23.8809 12.7864C23.9199 12.8689 23.9569 12.9524 23.9919 13.0369C24.0269 13.1214 24.0599 13.2066 24.0906 13.2926C24.1214 13.3789 24.1501 13.4656 24.1766 13.5531C24.2031 13.6406 24.2274 13.7286 24.2496 13.8174C24.2719 13.9061 24.2919 13.9951 24.3099 14.0849C24.3276 14.1746 24.3431 14.2646 24.3566 14.3549C24.3701 14.4454 24.3814 14.5361 24.3901 14.6271C24.3991 14.7181 24.4059 14.8091 24.4104 14.9006C24.4149 14.9919 24.4171 15.0831 24.4171 15.1746C24.4171 15.2661 24.4146 15.3574 24.4101 15.4486C24.4056 15.5399 24.3986 15.6311 24.3896 15.7221C24.3806 15.8129 24.3694 15.9036 24.3559 15.9941C24.3424 16.0844 24.3266 16.1744 24.3089 16.2641C24.2909 16.3536 24.2709 16.4429 24.2484 16.5314C24.2261 16.6201 24.2019 16.7081 24.1751 16.7956C24.1486 16.8831 24.1199 16.9696 24.0891 17.0559C24.0581 17.1419 24.0254 17.2271 23.9904 17.3114C23.9551 17.3959 23.9181 17.4794 23.8791 17.5619C23.8399 17.6446 23.7989 17.7261 23.7556 17.8069C23.7126 17.8874 23.6676 17.9669 23.6206 18.0451C23.5734 18.1236 23.5246 18.2009 23.4739 18.2766C23.4229 18.3526 23.3704 18.4274 23.3159 18.5009C23.2614 18.5741 23.2051 18.6461 23.1471 18.7169C23.0891 18.7876 23.0296 18.8566 22.9681 18.9244C22.9069 18.9921 22.8439 19.0584 22.7791 19.1229C22.7146 19.1876 22.6484 19.2506 22.5806 19.3119C22.5129 19.3734 22.4439 19.4329 22.3731 19.4909C22.3024 19.5489 22.2304 19.6051 22.1571 19.6596C22.0836 19.7141 22.0089 19.7666 21.9329 19.8176C21.8571 19.8684 21.7799 19.9171 21.7014 19.9644C21.6231 20.0114 21.5436 20.0564 21.4631 20.0994C21.3824 20.1426 21.3009 20.1836 21.2181 20.2229C21.1356 20.2619 21.0521 20.2989 20.9676 20.3341C20.8834 20.3691 20.7981 20.4019 20.7121 20.4329C20.6259 20.4636 20.5394 20.4924 20.4519 20.5189C20.3644 20.5456 20.2764 20.5699 20.1876 20.5924C20.0991 20.6146 20.0099 20.6346 19.9204 20.6526C19.8306 20.6704 19.7406 20.6861 19.6504 20.6996C19.5599 20.7131 19.4691 20.7244 19.3784 20.7334C19.2874 20.7424 19.1961 20.7494 19.1049 20.7539C19.0136 20.7584 18.9224 20.7609 18.8309 20.7609ZM18.8309 10.3334C18.7516 10.3334 18.6724 10.3351 18.5934 10.3391C18.5141 10.3431 18.4351 10.3489 18.3564 10.3566C18.2776 10.3644 18.1989 10.3741 18.1206 10.3856C18.0421 10.3974 17.9641 10.4109 17.8864 10.4264C17.8086 10.4419 17.7314 10.4591 17.6546 10.4784C17.5776 10.4976 17.5014 10.5186 17.4256 10.5419C17.3496 10.5649 17.2744 10.5896 17.1999 10.6164C17.1254 10.6429 17.0514 10.6714 16.9781 10.7019C16.9049 10.7321 16.8326 10.7641 16.7609 10.7981C16.6894 10.8319 16.6186 10.8676 16.5486 10.9049C16.4789 10.9424 16.4099 10.9814 16.3419 11.0221C16.2739 11.0629 16.2071 11.1051 16.1411 11.1491C16.0754 11.1931 16.0106 11.2389 15.9469 11.2861C15.8834 11.3331 15.8209 11.3819 15.7596 11.4321C15.6984 11.4824 15.6384 11.5341 15.5796 11.5874C15.5209 11.6406 15.4636 11.6954 15.4076 11.7514C15.3516 11.8074 15.2969 11.8646 15.2436 11.9234C15.1904 11.9821 15.1386 12.0421 15.0884 12.1034C15.0381 12.1646 14.9894 12.2271 14.9424 12.2906C14.8951 12.3544 14.8494 12.4191 14.8054 12.4849C14.7614 12.5509 14.7191 12.6176 14.6784 12.6856C14.6376 12.7536 14.5986 12.8226 14.5611 12.8924C14.5239 12.9624 14.4881 13.0331 14.4544 13.1046C14.4204 13.1764 14.3884 13.2486 14.3581 13.3219C14.3276 13.3951 14.2991 13.4691 14.2726 13.5436C14.2459 13.6181 14.2209 13.6934 14.1979 13.7694C14.1749 13.8451 14.1539 13.9214 14.1346 13.9984C14.1154 14.0751 14.0981 14.1524 14.0826 14.2301C14.0671 14.3079 14.0536 14.3859 14.0419 14.4644C14.0304 14.5426 14.0206 14.6214 14.0129 14.7001C14.0051 14.7789 13.9991 14.8579 13.9954 14.9371C13.9914 15.0161 13.9896 15.0954 13.9896 15.1746C13.9896 15.2539 13.9914 15.3331 13.9954 15.4121C13.9991 15.4914 14.0051 15.5704 14.0129 15.6491C14.0206 15.7281 14.0304 15.8066 14.0419 15.8851C14.0536 15.9634 14.0671 16.0414 14.0826 16.1191C14.0981 16.1969 14.1154 16.2741 14.1346 16.3511C14.1539 16.4279 14.1749 16.5041 14.1979 16.5801C14.2209 16.6559 14.2459 16.7311 14.2726 16.8056C14.2991 16.8804 14.3276 16.9541 14.3581 17.0274C14.3884 17.1006 14.4204 17.1729 14.4544 17.2446C14.4881 17.3161 14.5239 17.3869 14.5611 17.4569C14.5986 17.5266 14.6376 17.5956 14.6784 17.6636C14.7191 17.7316 14.7614 17.7986 14.8054 17.8644C14.8494 17.9304 14.8951 17.9951 14.9424 18.0586C14.9894 18.1224 15.0381 18.1846 15.0884 18.2459C15.1386 18.3071 15.1904 18.3671 15.2436 18.4259C15.2969 18.4846 15.3516 18.5421 15.4076 18.5981C15.4636 18.6541 15.5209 18.7086 15.5796 18.7619C15.6384 18.8151 15.6984 18.8669 15.7596 18.9171C15.8209 18.9674 15.8834 19.0161 15.9469 19.0634C16.0106 19.1104 16.0754 19.1561 16.1411 19.2001C16.2071 19.2441 16.2739 19.2866 16.3419 19.3271C16.4099 19.3679 16.4789 19.4071 16.5486 19.4444C16.6186 19.4816 16.6894 19.5174 16.7609 19.5511C16.8326 19.5851 16.9049 19.6171 16.9781 19.6476C17.0514 19.6779 17.1254 19.7064 17.1999 19.7331C17.2744 19.7596 17.3496 19.7846 17.4256 19.8076C17.5014 19.8306 17.5776 19.8516 17.6546 19.8709C17.7314 19.8901 17.8086 19.9076 17.8864 19.9231C17.9641 19.9384 18.0421 19.9521 18.1206 19.9636C18.1989 19.9754 18.2776 19.9849 18.3564 19.9926C18.4351 20.0004 18.5141 20.0064 18.5934 20.0101C18.6724 20.0141 18.7516 20.0161 18.8309 20.0161C18.9101 20.0161 18.9894 20.0141 19.0684 20.0101C19.1476 20.0064 19.2266 20.0004 19.3054 19.9926C19.3844 19.9849 19.4629 19.9754 19.5414 19.9636C19.6196 19.9521 19.6976 19.9384 19.7754 19.9231C19.8531 19.9076 19.9304 19.8901 20.0074 19.8709C20.0841 19.8516 20.1604 19.8306 20.2364 19.8076C20.3121 19.7846 20.3874 19.7596 20.4619 19.7331C20.5366 19.7064 20.6104 19.6779 20.6836 19.6476C20.7569 19.6171 20.8291 19.5851 20.9009 19.5511C20.9724 19.5174 21.0431 19.4816 21.1131 19.4444C21.1829 19.4071 21.2519 19.3679 21.3199 19.3271C21.3879 19.2866 21.4549 19.2441 21.5206 19.2001C21.5866 19.1561 21.6514 19.1104 21.7149 19.0634C21.7786 19.0161 21.8409 18.9674 21.9021 18.9171C21.9634 18.8669 22.0234 18.8151 22.0821 18.7619C22.1409 18.7086 22.1984 18.6541 22.2544 18.5981C22.3104 18.5421 22.3649 18.4846 22.4181 18.4259C22.4714 18.3671 22.5231 18.3071 22.5734 18.2459C22.6236 18.1849 22.6724 18.1224 22.7196 18.0586C22.7666 17.9951 22.8124 17.9304 22.8564 17.8644C22.9004 17.7986 22.9429 17.7316 22.9834 17.6636C23.0241 17.5956 23.0634 17.5266 23.1006 17.4569C23.1379 17.3869 23.1736 17.3161 23.2074 17.2446C23.2414 17.1729 23.2734 17.1006 23.3039 17.0274C23.3341 16.9541 23.3626 16.8804 23.3894 16.8056C23.4159 16.7311 23.4409 16.6559 23.4639 16.5801C23.4869 16.5041 23.5079 16.4279 23.5271 16.3511C23.5464 16.2741 23.5639 16.1969 23.5794 16.1191C23.5946 16.0414 23.6084 15.9634 23.6199 15.8851C23.6316 15.8066 23.6411 15.7281 23.6489 15.6491C23.6566 15.5704 23.6626 15.4914 23.6664 15.4121C23.6704 15.3331 23.6724 15.2539 23.6724 15.1746C23.6721 15.0954 23.6701 15.0164 23.6661 14.9371C23.6621 14.8581 23.6564 14.7791 23.6484 14.7004C23.6406 14.6214 23.6309 14.5429 23.6191 14.4646C23.6074 14.3861 23.5939 14.3081 23.5784 14.2306C23.5629 14.1529 23.5454 14.0756 23.5261 13.9989C23.5069 13.9219 23.4856 13.8456 23.4626 13.7699C23.4396 13.6941 23.4146 13.6189 23.3879 13.5444C23.3611 13.4699 23.3326 13.3959 23.3024 13.3229C23.2719 13.2496 23.2399 13.1774 23.2059 13.1056C23.1719 13.0341 23.1364 12.9634 23.0989 12.8936C23.0616 12.8236 23.0226 12.7549 22.9819 12.6869C22.9411 12.6189 22.8986 12.5521 22.8546 12.4864C22.8106 12.4204 22.7651 12.3556 22.7179 12.2921C22.6706 12.2284 22.6219 12.1661 22.5716 12.1049C22.5214 12.0436 22.4696 11.9836 22.4164 11.9249C22.3634 11.8664 22.3086 11.8089 22.2526 11.7529C22.1966 11.6969 22.1394 11.6424 22.0806 11.5891C22.0219 11.5359 21.9619 11.4841 21.9006 11.4339C21.8396 11.3836 21.7771 11.3349 21.7134 11.2879C21.6499 11.2406 21.5851 11.1949 21.5194 11.1509C21.4534 11.1069 21.3866 11.0646 21.3186 11.0239C21.2506 10.9831 21.1819 10.9439 21.1121 10.9066C21.0421 10.8691 20.9714 10.8336 20.8999 10.7996C20.8284 10.7659 20.7559 10.7336 20.6829 10.7034C20.6096 10.6729 20.5356 10.6444 20.4611 10.6176C20.3866 10.5909 20.3114 10.5661 20.2356 10.5431C20.1599 10.5199 20.0836 10.4989 20.0069 10.4794C19.9299 10.4601 19.8526 10.4429 19.7751 10.4271C19.6974 10.4116 19.6194 10.3981 19.5411 10.3864C19.4626 10.3746 19.3841 10.3649 19.3054 10.3571C19.2264 10.3494 19.1474 10.3434 19.0684 10.3394C18.9894 10.3354 18.9101 10.3334 18.8309 10.3334Z" fill="white"/>
</g>
<path d="M18.8309 18.8989C18.7089 18.8989 18.5874 18.8929 18.4659 18.8809C18.3444 18.8689 18.2239 18.8512 18.1044 18.8272C17.9847 18.8034 17.8667 18.7739 17.7499 18.7384C17.6332 18.7032 17.5184 18.6619 17.4057 18.6154C17.2932 18.5687 17.1829 18.5167 17.0754 18.4592C16.9679 18.4017 16.8634 18.3389 16.7619 18.2712C16.6604 18.2034 16.5627 18.1309 16.4684 18.0534C16.3742 17.9762 16.2839 17.8944 16.1977 17.8082C16.1114 17.7219 16.0294 17.6317 15.9522 17.5372C15.8747 17.4429 15.8022 17.3452 15.7344 17.2437C15.6667 17.1424 15.6042 17.0379 15.5467 16.9302C15.4892 16.8227 15.4369 16.7127 15.3904 16.5999C15.3437 16.4872 15.3027 16.3724 15.2672 16.2557C15.2317 16.1392 15.2022 16.0209 15.1784 15.9012C15.1547 15.7817 15.1367 15.6612 15.1247 15.5397C15.1127 15.4184 15.1069 15.2967 15.1069 15.1747C15.1069 15.0527 15.1127 14.9312 15.1247 14.8097C15.1367 14.6882 15.1547 14.5677 15.1784 14.4482C15.2022 14.3284 15.2317 14.2104 15.2672 14.0937C15.3027 13.9769 15.3437 13.8622 15.3904 13.7494C15.4369 13.6369 15.4892 13.5267 15.5467 13.4192C15.6042 13.3117 15.6667 13.2072 15.7344 13.1057C15.8022 13.0042 15.8747 12.9064 15.9522 12.8122C16.0294 12.7179 16.1114 12.6277 16.1977 12.5414C16.2839 12.4552 16.3742 12.3732 16.4684 12.2959C16.5627 12.2184 16.6604 12.1459 16.7619 12.0782C16.8634 12.0104 16.9679 11.9479 17.0754 11.8904C17.1829 11.8329 17.2932 11.7807 17.4057 11.7342C17.5184 11.6874 17.6332 11.6464 17.7499 11.6109C17.8667 11.5754 17.9847 11.5459 18.1044 11.5222C18.2239 11.4984 18.3444 11.4804 18.4659 11.4684C18.5874 11.4567 18.7089 11.4507 18.8309 11.4507C18.9529 11.4507 19.0747 11.4567 19.1959 11.4684C19.3174 11.4804 19.4379 11.4984 19.5574 11.5222C19.6772 11.5459 19.7952 11.5754 19.9119 11.6109C20.0287 11.6464 20.1434 11.6874 20.2562 11.7342C20.3689 11.7807 20.4789 11.8329 20.5864 11.8904C20.6942 11.9479 20.7987 12.0104 20.8999 12.0782C21.0014 12.1459 21.0992 12.2184 21.1934 12.2959C21.2879 12.3732 21.3782 12.4552 21.4644 12.5414C21.5507 12.6277 21.6324 12.7179 21.7097 12.8122C21.7872 12.9064 21.8597 13.0042 21.9274 13.1057C21.9952 13.2072 22.0579 13.3117 22.1154 13.4192C22.1729 13.5267 22.2249 13.6369 22.2717 13.7494C22.3182 13.8622 22.3594 13.9769 22.3947 14.0937C22.4302 14.2104 22.4597 14.3284 22.4834 14.4482C22.5074 14.5677 22.5252 14.6882 22.5372 14.8097C22.5492 14.9312 22.5552 15.0527 22.5552 15.1747C22.5549 15.2967 22.5489 15.4182 22.5367 15.5397C22.5247 15.6609 22.5067 15.7814 22.4829 15.9009C22.4589 16.0204 22.4292 16.1387 22.3937 16.2552C22.3582 16.3719 22.3172 16.4867 22.2704 16.5992C22.2237 16.7119 22.1717 16.8219 22.1142 16.9294C22.0564 17.0369 21.9939 17.1414 21.9262 17.2427C21.8584 17.3442 21.7857 17.4419 21.7084 17.5362C21.6309 17.6304 21.5492 17.7207 21.4629 17.8067C21.3769 17.8929 21.2867 17.9749 21.1924 18.0522C21.0982 18.1294 21.0004 18.2022 20.8989 18.2699C20.7977 18.3377 20.6932 18.4002 20.5857 18.4579C20.4782 18.5154 20.3682 18.5674 20.2554 18.6142C20.1429 18.6609 20.0282 18.7019 19.9114 18.7374C19.7949 18.7729 19.6767 18.8027 19.5572 18.8267C19.4377 18.8504 19.3172 18.8684 19.1959 18.8804C19.0744 18.8927 18.9529 18.8987 18.8309 18.8989ZM18.8309 12.1954C18.7334 12.1954 18.6359 12.2002 18.5389 12.2097C18.4419 12.2194 18.3454 12.2337 18.2497 12.2527C18.1539 12.2717 18.0594 12.2954 17.9662 12.3237C17.8727 12.3519 17.7809 12.3849 17.6909 12.4222C17.6007 12.4594 17.5127 12.5012 17.4264 12.5472C17.3404 12.5932 17.2569 12.6432 17.1757 12.6974C17.0947 12.7517 17.0164 12.8097 16.9409 12.8717C16.8654 12.9337 16.7932 12.9989 16.7242 13.0679C16.6552 13.1369 16.5899 13.2092 16.5279 13.2847C16.4659 13.3602 16.4079 13.4384 16.3537 13.5194C16.2994 13.6007 16.2494 13.6842 16.2034 13.7702C16.1574 13.8564 16.1157 13.9444 16.0784 14.0347C16.0412 14.1247 16.0082 14.2164 15.9799 14.3099C15.9517 14.4032 15.9279 14.4977 15.9089 14.5934C15.8899 14.6892 15.8757 14.7857 15.8659 14.8827C15.8564 14.9797 15.8517 15.0772 15.8517 15.1747C15.8517 15.2722 15.8564 15.3697 15.8659 15.4667C15.8757 15.5639 15.8899 15.6602 15.9089 15.7559C15.9279 15.8517 15.9517 15.9462 15.9799 16.0397C16.0082 16.1329 16.0412 16.2247 16.0784 16.3149C16.1157 16.4049 16.1574 16.4932 16.2034 16.5792C16.2494 16.6652 16.2994 16.7487 16.3537 16.8299C16.4079 16.9112 16.4659 16.9894 16.5279 17.0647C16.5899 17.1402 16.6552 17.2124 16.7242 17.2814C16.7932 17.3504 16.8654 17.4159 16.9409 17.4777C17.0164 17.5397 17.0947 17.5977 17.1757 17.6519C17.2569 17.7062 17.3404 17.7562 17.4264 17.8022C17.5127 17.8482 17.6007 17.8899 17.6909 17.9272C17.7809 17.9647 17.8727 17.9974 17.9662 18.0257C18.0594 18.0542 18.1539 18.0777 18.2497 18.0967C18.3454 18.1159 18.4419 18.1302 18.5389 18.1397C18.6359 18.1492 18.7334 18.1539 18.8309 18.1539C18.9284 18.1539 19.0259 18.1492 19.1229 18.1397C19.2202 18.1302 19.3164 18.1159 19.4122 18.0967C19.5079 18.0777 19.6024 18.0542 19.6959 18.0257C19.7892 17.9974 19.8809 17.9647 19.9712 17.9272C20.0612 17.8899 20.1494 17.8482 20.2354 17.8022C20.3214 17.7562 20.4049 17.7062 20.4862 17.6519C20.5674 17.5977 20.6457 17.5397 20.7209 17.4777C20.7964 17.4159 20.8687 17.3504 20.9377 17.2814C21.0067 17.2124 21.0722 17.1402 21.1339 17.0647C21.1959 16.9894 21.2539 16.9112 21.3082 16.8299C21.3624 16.7487 21.4124 16.6652 21.4584 16.5792C21.5044 16.4932 21.5462 16.4049 21.5834 16.3149C21.6209 16.2247 21.6537 16.1329 21.6819 16.0397C21.7104 15.9462 21.7339 15.8517 21.7529 15.7559C21.7722 15.6602 21.7864 15.5639 21.7959 15.4667C21.8054 15.3697 21.8102 15.2722 21.8102 15.1747C21.8102 15.0772 21.8052 14.9799 21.7957 14.8827C21.7859 14.7857 21.7717 14.6894 21.7524 14.5937C21.7334 14.4982 21.7097 14.4037 21.6812 14.3102C21.6529 14.2169 21.6199 14.1252 21.5827 14.0352C21.5452 13.9449 21.5034 13.8569 21.4574 13.7709C21.4114 13.6849 21.3614 13.6014 21.3072 13.5202C21.2529 13.4392 21.1949 13.3609 21.1329 13.2857C21.0712 13.2102 21.0057 13.1379 20.9367 13.0689C20.8677 12.9999 20.7954 12.9347 20.7202 12.8727C20.6447 12.8109 20.5664 12.7527 20.4854 12.6987C20.4042 12.6444 20.3207 12.5942 20.2347 12.5482C20.1487 12.5022 20.0607 12.4604 19.9707 12.4232C19.8804 12.3857 19.7887 12.3529 19.6954 12.3244C19.6022 12.2962 19.5077 12.2724 19.4119 12.2532C19.3164 12.2342 19.2199 12.2197 19.1229 12.2102C19.0259 12.2004 18.9284 12.1954 18.8309 12.1954Z" fill="white"/>
<path d="M13.6171 8.09716C13.5926 8.09716 13.5684 8.09466 13.5444 8.08991C13.5204 8.08516 13.4971 8.07816 13.4746 8.06891C13.4519 8.05941 13.4304 8.04791 13.4101 8.03441C13.3899 8.02091 13.3711 8.00541 13.3536 7.98816C13.3364 7.97091 13.3209 7.95191 13.3074 7.93166C13.2939 7.91141 13.2824 7.88991 13.2729 7.86716C13.2636 7.84466 13.2566 7.82141 13.2519 7.79741C13.2471 7.77341 13.2446 7.74916 13.2446 7.72466C13.2446 7.62066 13.2491 7.51716 13.2579 7.41341C13.2664 7.30991 13.2794 7.20691 13.2969 7.10441C13.3141 7.00191 13.3356 6.90041 13.3614 6.79966C13.3874 6.69916 13.4174 6.59966 13.4514 6.50166C13.4856 6.40341 13.5236 6.30691 13.5659 6.21191C13.6081 6.11691 13.6544 6.02391 13.7044 5.93291C13.7544 5.84166 13.8081 5.75291 13.8654 5.66616C13.9229 5.57966 13.9839 5.49566 14.0484 5.41416C14.1129 5.33266 14.1806 5.25391 14.2516 5.17816C14.3226 5.10241 14.3969 5.02966 14.4739 4.95991C14.5511 4.89041 14.6311 4.82416 14.7139 4.76116C14.7964 4.69816 14.8816 4.63891 14.9694 4.58316C15.0569 4.52716 15.1469 4.47516 15.2389 4.42691C15.3309 4.37866 15.4246 4.33441 15.5204 4.29391C15.6161 4.25341 15.7134 4.21716 15.8121 4.18491C15.9111 4.15266 16.0109 4.12441 16.1121 4.10041C16.2131 4.07666 16.3151 4.05691 16.4179 4.04166C16.5206 4.02616 16.6239 4.01516 16.7276 4.00841C16.8314 4.00166 16.9351 3.99916 17.0391 4.00116C17.1429 4.00316 17.2466 4.00941 17.3499 4.02016C17.4534 4.03066 17.5561 4.04566 17.6581 4.06491C17.7604 4.08416 17.8616 4.10741 17.9616 4.13516C18.0619 4.16291 18.1606 4.19466 18.2581 4.23066C18.3556 4.26666 18.4514 4.30666 18.5456 4.35066C18.6399 4.39466 18.7319 4.44241 18.8221 4.49416C18.9121 4.54591 19.0001 4.60116 19.0856 4.66016C19.1711 4.71941 19.2539 4.78191 19.3344 4.84791C19.4146 4.91366 19.4919 4.98291 19.5664 5.05541C19.6409 5.12791 19.7121 5.20341 19.7804 5.28191C19.8486 5.36016 19.9134 5.44141 19.9746 5.52516C20.0361 5.60916 20.0939 5.69541 20.1481 5.78416C20.2021 5.87266 20.2526 5.96366 20.2991 6.05641C20.3101 6.07841 20.3189 6.10116 20.3254 6.12466C20.3319 6.14816 20.3359 6.17216 20.3376 6.19666C20.3396 6.22091 20.3389 6.24516 20.3359 6.26941C20.3329 6.29391 20.3274 6.31766 20.3199 6.34066C20.3121 6.36391 20.3021 6.38616 20.2901 6.40741C20.2781 6.42866 20.2641 6.44866 20.2481 6.46716C20.2321 6.48566 20.2144 6.50241 20.1951 6.51741C20.1759 6.53241 20.1551 6.54541 20.1334 6.55641C20.1114 6.56741 20.0889 6.57591 20.0651 6.58241C20.0416 6.58891 20.0176 6.59316 19.9931 6.59491C19.9689 6.59666 19.9446 6.59591 19.9204 6.59291C19.8961 6.58991 19.8724 6.58466 19.8491 6.57691C19.8259 6.56916 19.8036 6.55916 19.7824 6.54716C19.7611 6.53516 19.7411 6.52116 19.7229 6.50516C19.7044 6.48916 19.6876 6.47141 19.6726 6.45216C19.6574 6.43266 19.6446 6.41216 19.6336 6.39041C19.5964 6.31591 19.5561 6.24341 19.5126 6.17241C19.4694 6.10141 19.4231 6.03241 19.3741 5.96541C19.3249 5.89816 19.2731 5.83341 19.2186 5.77066C19.1641 5.70791 19.1069 5.64741 19.0474 5.58941C18.9879 5.53141 18.9259 5.47616 18.8616 5.42341C18.7974 5.37041 18.7311 5.32041 18.6626 5.27316C18.5944 5.22591 18.5241 5.18166 18.4519 5.14041C18.3799 5.09891 18.3061 5.06066 18.2309 5.02541C18.1554 4.99041 18.0789 4.95841 18.0009 4.92966C17.9229 4.90066 17.8436 4.87541 17.7636 4.85316C17.6834 4.83091 17.6026 4.81216 17.5209 4.79691C17.4391 4.78141 17.3569 4.76941 17.2741 4.76091C17.1914 4.75241 17.1086 4.74741 17.0254 4.74591C16.9424 4.74441 16.8594 4.74616 16.7764 4.75166C16.6934 4.75716 16.6106 4.76591 16.5286 4.77816C16.4464 4.79041 16.3646 4.80616 16.2839 4.82541C16.2029 4.84441 16.1229 4.86691 16.0439 4.89266C15.9649 4.91866 15.8871 4.94766 15.8104 4.97991C15.7339 5.01241 15.6589 5.04791 15.5851 5.08641C15.5116 5.12516 15.4396 5.16666 15.3694 5.21141C15.2994 5.25591 15.2311 5.30341 15.1651 5.35391C15.0989 5.40416 15.0349 5.45716 14.9731 5.51291C14.9114 5.56866 14.8521 5.62666 14.7954 5.68741C14.7384 5.74816 14.6841 5.81091 14.6326 5.87616C14.5811 5.94141 14.5324 6.00866 14.4864 6.07791C14.4404 6.14716 14.3974 6.21816 14.3574 6.29116C14.3174 6.36391 14.2804 6.43841 14.2466 6.51441C14.2129 6.59041 14.1824 6.66766 14.1549 6.74616C14.1276 6.82466 14.1036 6.90416 14.0831 6.98466C14.0624 7.06516 14.0451 7.14641 14.0311 7.22841C14.0174 7.31041 14.0069 7.39291 13.9999 7.47566C13.9931 7.55866 13.9896 7.64166 13.9896 7.72466C13.9896 7.74916 13.9871 7.77341 13.9824 7.79741C13.9776 7.82141 13.9706 7.84466 13.9611 7.86716C13.9519 7.88991 13.9404 7.91141 13.9269 7.93166C13.9134 7.95191 13.8979 7.97091 13.8806 7.98816C13.8631 8.00541 13.8444 8.02091 13.8241 8.03441C13.8036 8.04791 13.7824 8.05941 13.7596 8.06891C13.7371 8.07816 13.7139 8.08516 13.6899 8.08991C13.6659 8.09466 13.6416 8.09716 13.6171 8.09716Z" fill="white"/>
<path d="M13.6171 15.547C13.5926 15.547 13.5684 15.5445 13.5444 15.5398C13.5204 15.535 13.4971 15.528 13.4746 15.5188C13.4519 15.5093 13.4304 15.4978 13.4101 15.4843C13.3899 15.4708 13.3711 15.4553 13.3536 15.438C13.3364 15.4208 13.3209 15.4018 13.3074 15.3815C13.2939 15.3613 13.2824 15.3398 13.2729 15.317C13.2636 15.2945 13.2566 15.2713 13.2519 15.2473C13.2471 15.2233 13.2446 15.199 13.2446 15.1745V4.74555C13.2446 4.72105 13.2471 4.6968 13.2519 4.6728C13.2566 4.6488 13.2636 4.62555 13.2731 4.60305C13.2824 4.5803 13.2939 4.55905 13.3074 4.53855C13.3211 4.5183 13.3364 4.49955 13.3539 4.4823C13.3711 4.4648 13.3899 4.44955 13.4101 4.4358C13.4306 4.4223 13.4521 4.4108 13.4746 4.40155C13.4971 4.39205 13.5204 4.38505 13.5444 4.3803C13.5684 4.37555 13.5926 4.37305 13.6171 4.37305C13.6416 4.37305 13.6659 4.37555 13.6899 4.3803C13.7139 4.38505 13.7371 4.39205 13.7596 4.40155C13.7821 4.4108 13.8036 4.4223 13.8241 4.4358C13.8444 4.44955 13.8631 4.4648 13.8804 4.4823C13.8976 4.49955 13.9131 4.5183 13.9269 4.53855C13.9404 4.55905 13.9519 4.5803 13.9611 4.60305C13.9706 4.62555 13.9776 4.6488 13.9824 4.6728C13.9871 4.6968 13.9896 4.72105 13.9896 4.74555V15.1745C13.9896 15.199 13.9871 15.2233 13.9824 15.2473C13.9776 15.2713 13.9706 15.2945 13.9611 15.317C13.9519 15.3398 13.9404 15.3613 13.9269 15.3815C13.9131 15.4018 13.8979 15.4208 13.8806 15.438C13.8631 15.4553 13.8444 15.4708 13.8241 15.4843C13.8036 15.4978 13.7824 15.5093 13.7596 15.5188C13.7371 15.528 13.7139 15.535 13.6899 15.5398C13.6659 15.5445 13.6416 15.547 13.6171 15.547Z" fill="white"/>
<path d="M23.5431 13.3112C23.5094 13.3112 23.4761 13.3067 23.4434 13.2977C23.4109 13.2887 23.3801 13.2755 23.3511 13.2582C23.3221 13.2407 23.2959 13.2197 23.2726 13.1952C23.2494 13.1707 23.2299 13.1435 23.2139 13.1137L19.6379 6.39874C19.6264 6.37699 19.6169 6.35449 19.6099 6.33124C19.6026 6.30774 19.5979 6.28374 19.5956 6.25949C19.5931 6.23499 19.5931 6.21074 19.5956 6.18624C19.5981 6.16199 19.6029 6.13799 19.6099 6.11474C19.6171 6.09124 19.6264 6.06874 19.6379 6.04724C19.6496 6.02549 19.6631 6.00524 19.6786 5.98649C19.6941 5.96749 19.7114 5.95024 19.7304 5.93474C19.7494 5.91924 19.7696 5.90574 19.7914 5.89424C19.8129 5.88274 19.8354 5.87349 19.8589 5.86649C19.8824 5.85949 19.9061 5.85474 19.9306 5.85224C19.9549 5.84999 19.9794 5.84999 20.0036 5.85249C20.0281 5.85499 20.0519 5.85974 20.0754 5.86699C20.0989 5.87424 20.1214 5.88349 20.1429 5.89524C20.1644 5.90674 20.1846 5.92049 20.2034 5.93599C20.2224 5.95149 20.2396 5.96899 20.2549 5.98799C20.2704 6.00674 20.2839 6.02724 20.2954 6.04874L23.8714 12.764C23.8789 12.778 23.8856 12.7925 23.8911 12.8075C23.8969 12.8225 23.9014 12.8377 23.9051 12.8532C23.9089 12.869 23.9114 12.8847 23.9131 12.9005C23.9149 12.9165 23.9154 12.9325 23.9149 12.9485C23.9146 12.9645 23.9131 12.9802 23.9106 12.996C23.9081 13.012 23.9049 13.0275 23.9004 13.0427C23.8959 13.0582 23.8904 13.0732 23.8839 13.0877C23.8776 13.1025 23.8704 13.1167 23.8621 13.1305C23.8539 13.1442 23.8446 13.1572 23.8349 13.1697C23.8249 13.1825 23.8141 13.1942 23.8029 13.2055C23.7914 13.2165 23.7791 13.227 23.7664 13.2365C23.7536 13.2462 23.7404 13.255 23.7264 13.2627C23.7124 13.2707 23.6981 13.2777 23.6831 13.2837C23.6684 13.2897 23.6534 13.2947 23.6379 13.299C23.6224 13.303 23.6066 13.306 23.5909 13.308C23.5749 13.3102 23.5591 13.3112 23.5431 13.3112Z" fill="white"/>
<path d="M13.6171 5.11776C13.5926 5.11776 13.5684 5.11526 13.5444 5.11051C13.5204 5.10576 13.4971 5.09876 13.4746 5.08926C13.4519 5.08001 13.4306 5.06851 13.4101 5.05501C13.3899 5.04126 13.3711 5.02601 13.3536 5.00876C13.3364 4.99126 13.3209 4.97251 13.3074 4.95226C13.2939 4.93176 13.2824 4.91051 13.2729 4.88776C13.2636 4.86526 13.2566 4.84201 13.2519 4.81801C13.2471 4.79401 13.2446 4.76976 13.2446 4.74526C13.2446 4.67651 13.2479 4.60801 13.2541 4.53951C13.2606 4.47126 13.2699 4.40326 13.2826 4.33551C13.2951 4.26801 13.3109 4.20126 13.3296 4.13526C13.3484 4.06901 13.3701 4.00401 13.3949 3.94001C13.4196 3.87576 13.4474 3.81301 13.4779 3.75151C13.5084 3.69001 13.5419 3.63001 13.5779 3.57151C13.6139 3.51301 13.6526 3.45626 13.6941 3.40151C13.7354 3.34651 13.7791 3.29376 13.8254 3.24276C13.8716 3.19201 13.9199 3.14326 13.9706 3.09701C14.0214 3.05051 14.0741 3.00651 14.1289 2.96501C14.1834 2.92351 14.2401 2.88476 14.2984 2.84826C14.3566 2.81201 14.4166 2.77851 14.4779 2.74776C14.5394 2.71701 14.6021 2.68901 14.6661 2.66401C14.7301 2.63901 14.7951 2.61701 14.8611 2.59801C14.9271 2.57901 14.9939 2.56301 15.0614 2.55026C15.1289 2.53726 15.1969 2.52751 15.2651 2.52101C15.3336 2.51451 15.4021 2.51101 15.4709 2.51076C15.5396 2.51051 15.6081 2.51351 15.6766 2.51951C15.7451 2.52551 15.8131 2.53476 15.8806 2.54701C15.9481 2.55951 16.0151 2.57476 16.0814 2.59326C16.1474 2.61176 16.2126 2.63326 16.2769 2.65801C16.3409 2.68251 16.4039 2.70976 16.4656 2.74026C16.5271 2.77051 16.5874 2.80351 16.6459 2.83951C16.7046 2.87526 16.7614 2.91376 16.8164 2.95501C16.8714 2.99601 16.9246 3.03951 16.9756 3.08551C17.0266 3.13151 17.0754 3.17976 17.1219 3.23026C17.1686 3.28076 17.2126 3.33326 17.2544 3.38801C17.2961 3.44251 17.3354 3.49901 17.3719 3.55701C17.4084 3.61526 17.4421 3.67501 17.4731 3.73626C17.5041 3.79776 17.5324 3.86026 17.5576 3.92401C17.5829 3.98801 17.6051 4.05301 17.6244 4.11901C17.6436 4.18476 17.6599 4.25151 17.6729 4.31901C17.6776 4.34301 17.6796 4.36726 17.6796 4.39151C17.6794 4.41601 17.6769 4.44026 17.6719 4.46401C17.6669 4.48801 17.6596 4.51126 17.6501 4.53376C17.6406 4.55601 17.6291 4.57751 17.6154 4.59776C17.6016 4.61801 17.5861 4.63651 17.5689 4.65376C17.5514 4.67076 17.5326 4.68626 17.5121 4.69951C17.4919 4.71301 17.4704 4.72426 17.4476 4.73351C17.4251 4.74276 17.4019 4.74976 17.3779 4.75426C17.3539 4.75901 17.3296 4.76126 17.3054 4.76101C17.2809 4.76101 17.2566 4.75851 17.2329 4.75351C17.2089 4.74876 17.1856 4.74151 17.1631 4.73201C17.1406 4.72251 17.1194 4.71101 17.0991 4.69726C17.0789 4.68376 17.0601 4.66826 17.0429 4.65076C17.0256 4.63351 17.0104 4.61476 16.9969 4.59426C16.9834 4.57401 16.9721 4.55251 16.9629 4.53001C16.9536 4.50726 16.9466 4.48401 16.9419 4.46001C16.9331 4.41526 16.9224 4.37076 16.9094 4.32676C16.8966 4.28276 16.8816 4.23951 16.8649 4.19701C16.8479 4.15451 16.8291 4.11276 16.8084 4.07176C16.7879 4.03101 16.7651 3.99126 16.7409 3.95251C16.7164 3.91376 16.6904 3.87601 16.6626 3.83976C16.6346 3.80326 16.6051 3.76826 16.5741 3.73476C16.5431 3.70101 16.5106 3.66901 16.4764 3.63826C16.4424 3.60776 16.4071 3.57851 16.3704 3.55126C16.3336 3.52376 16.2959 3.49826 16.2566 3.47426C16.2176 3.45051 16.1776 3.42851 16.1364 3.40826C16.0954 3.38801 16.0534 3.36976 16.0106 3.35351C15.9679 3.33701 15.9244 3.32276 15.8804 3.31051C15.8361 3.29826 15.7916 3.28801 15.7466 3.27976C15.7014 3.27151 15.6561 3.26551 15.6104 3.26126C15.5649 3.25726 15.5191 3.25551 15.4734 3.25551C15.4276 3.25576 15.3819 3.25801 15.3364 3.26251C15.2906 3.26701 15.2454 3.27351 15.2004 3.28201C15.1554 3.29051 15.1109 3.30126 15.0669 3.31376C15.0229 3.32651 14.9796 3.34126 14.9369 3.35801C14.8944 3.37451 14.8526 3.39326 14.8116 3.41376C14.7706 3.43426 14.7306 3.45651 14.6919 3.48076C14.6529 3.50501 14.6154 3.53101 14.5789 3.55876C14.5424 3.58626 14.5071 3.61576 14.4734 3.64651C14.4396 3.67751 14.4074 3.71001 14.3766 3.74376C14.3459 3.77776 14.3166 3.81301 14.2891 3.84951C14.2616 3.88601 14.2356 3.92401 14.2116 3.96276C14.1876 4.00176 14.1654 4.04176 14.1451 4.08276C14.1246 4.12376 14.1061 4.16576 14.0896 4.20851C14.0731 4.25126 14.0586 4.29451 14.0461 4.33851C14.0336 4.38276 14.0231 4.42726 14.0149 4.47226C14.0064 4.51726 14.0001 4.56251 13.9959 4.60826C13.9916 4.65376 13.9896 4.69951 13.9896 4.74526C13.9896 4.76976 13.9871 4.79401 13.9824 4.81801C13.9776 4.84201 13.9706 4.86526 13.9611 4.88776C13.9519 4.91051 13.9404 4.93176 13.9269 4.95226C13.9131 4.97251 13.8979 4.99126 13.8806 5.00876C13.8631 5.02601 13.8444 5.04126 13.8241 5.05501C13.8036 5.06851 13.7824 5.08001 13.7596 5.08926C13.7371 5.09876 13.7139 5.10576 13.6899 5.11051C13.6659 5.11526 13.6416 5.11776 13.6171 5.11776Z" fill="white"/>
<path d="M12.5 15.1746C12.4513 15.1746 12.4025 15.1723 12.354 15.1673C12.3055 15.1626 12.2573 15.1556 12.2095 15.1461C12.1615 15.1366 12.1143 15.1246 12.0675 15.1106C12.021 15.0963 11.975 15.0798 11.93 15.0613C11.8848 15.0426 11.8408 15.0218 11.7978 14.9988C11.7548 14.9758 11.713 14.9506 11.6725 14.9236C11.6318 14.8966 11.5928 14.8673 11.555 14.8366C11.5173 14.8056 11.4813 14.7728 11.4468 14.7383C11.4123 14.7038 11.3795 14.6676 11.3485 14.6301C11.3175 14.5923 11.2885 14.5531 11.2615 14.5126C11.2343 14.4721 11.2093 14.4301 11.1863 14.3871C11.1633 14.3441 11.1425 14.3001 11.1238 14.2551C11.105 14.2098 11.0888 14.1641 11.0745 14.1173C11.0603 14.0706 11.0485 14.0233 11.039 13.9756C11.0295 13.9278 11.0223 13.8796 11.0175 13.8311C11.0128 13.7823 11.0103 13.7338 11.0103 13.6851C11.0103 13.6361 11.0128 13.5876 11.0175 13.5388C11.0223 13.4903 11.0295 13.4421 11.039 13.3943C11.0485 13.3466 11.0603 13.2993 11.0745 13.2526C11.0888 13.2058 11.105 13.1601 11.1238 13.1148C11.1425 13.0698 11.1633 13.0258 11.1863 12.9828C11.2093 12.9398 11.2343 12.8978 11.2615 12.8573C11.2885 12.8168 11.3175 12.7776 11.3485 12.7398C11.3795 12.7023 11.4123 12.6661 11.4468 12.6316C11.4813 12.5971 11.5173 12.5643 11.555 12.5333C11.5928 12.5026 11.6318 12.4736 11.6725 12.4463C11.713 12.4193 11.7548 12.3941 11.7978 12.3711C11.8408 12.3481 11.8848 12.3273 11.93 12.3086C11.975 12.2901 12.021 12.2736 12.0675 12.2593C12.1143 12.2453 12.1615 12.2333 12.2095 12.2238C12.2573 12.2143 12.3055 12.2073 12.354 12.2026C12.4025 12.1976 12.4513 12.1953 12.5 12.1953C12.5488 12.1953 12.5975 12.1976 12.646 12.2026C12.6945 12.2073 12.7428 12.2143 12.7905 12.2238C12.8385 12.2333 12.8858 12.2453 12.9325 12.2593C12.979 12.2736 13.025 12.2901 13.07 12.3086C13.1153 12.3273 13.1593 12.3481 13.2023 12.3711C13.2453 12.3941 13.287 12.4193 13.3275 12.4463C13.3683 12.4736 13.4073 12.5026 13.445 12.5333C13.4828 12.5643 13.5188 12.5971 13.5533 12.6316C13.5878 12.6661 13.6205 12.7023 13.6515 12.7398C13.6825 12.7776 13.7115 12.8168 13.7385 12.8573C13.7658 12.8978 13.7908 12.9398 13.8138 12.9828C13.8368 13.0258 13.8575 13.0698 13.8763 13.1148C13.895 13.1601 13.9113 13.2058 13.9255 13.2526C13.9398 13.2993 13.9515 13.3466 13.961 13.3943C13.9705 13.4421 13.9778 13.4903 13.9825 13.5388C13.9873 13.5876 13.9898 13.6361 13.9898 13.6851C13.9895 13.7338 13.9873 13.7823 13.9823 13.8308C13.9775 13.8796 13.9703 13.9276 13.9608 13.9756C13.9513 14.0233 13.9393 14.0706 13.9253 14.1173C13.911 14.1638 13.8945 14.2098 13.8758 14.2548C13.8573 14.2998 13.8363 14.3438 13.8133 14.3868C13.7903 14.4298 13.7653 14.4716 13.7383 14.5123C13.711 14.5528 13.682 14.5918 13.651 14.6296C13.62 14.6673 13.5875 14.7033 13.553 14.7378C13.5185 14.7723 13.4823 14.8051 13.4448 14.8361C13.407 14.8671 13.3678 14.8961 13.3273 14.9231C13.2868 14.9503 13.245 14.9753 13.202 14.9983C13.159 15.0213 13.115 15.0421 13.0698 15.0608C13.0248 15.0796 12.979 15.0958 12.9323 15.1101C12.8855 15.1243 12.8383 15.1361 12.7905 15.1458C12.7428 15.1553 12.6945 15.1626 12.646 15.1673C12.5975 15.1721 12.5488 15.1746 12.5 15.1746ZM12.5 12.9401C12.451 12.9401 12.4028 12.9448 12.3548 12.9543C12.3068 12.9641 12.2603 12.9781 12.215 12.9968C12.1698 13.0156 12.1268 13.0386 12.0863 13.0656C12.0455 13.0928 12.008 13.1238 11.9733 13.1583C11.9388 13.1928 11.9078 13.2306 11.8808 13.2711C11.8535 13.3118 11.8305 13.3548 11.8118 13.3998C11.7933 13.4451 11.779 13.4916 11.7695 13.5396C11.76 13.5876 11.7553 13.6361 11.7553 13.6851C11.7553 13.7338 11.76 13.7823 11.7695 13.8303C11.779 13.8783 11.7933 13.9248 11.8118 13.9701C11.8305 14.0151 11.8535 14.0581 11.8808 14.0988C11.9078 14.1393 11.9388 14.1771 11.9733 14.2116C12.008 14.2463 12.0455 14.2771 12.0863 14.3043C12.1268 14.3313 12.1698 14.3543 12.215 14.3731C12.2603 14.3918 12.3068 14.4058 12.3548 14.4156C12.4028 14.4251 12.451 14.4298 12.5 14.4298C12.549 14.4298 12.5973 14.4251 12.6453 14.4156C12.6933 14.4058 12.7398 14.3918 12.785 14.3731C12.8303 14.3543 12.8733 14.3313 12.9138 14.3043C12.9545 14.2771 12.992 14.2463 13.0268 14.2116C13.0613 14.1771 13.0923 14.1393 13.1193 14.0988C13.1465 14.0581 13.1695 14.0151 13.1883 13.9701C13.2068 13.9248 13.221 13.8783 13.2305 13.8303C13.24 13.7823 13.2448 13.7338 13.2448 13.6851C13.2448 13.6361 13.24 13.5876 13.2303 13.5398C13.2208 13.4918 13.2065 13.4453 13.1878 13.4001C13.1693 13.3548 13.1463 13.3121 13.119 13.2713C13.0918 13.2308 13.061 13.1931 13.0265 13.1586C12.9918 13.1241 12.9543 13.0931 12.9135 13.0661C12.873 13.0388 12.83 13.0158 12.785 12.9971C12.7398 12.9783 12.6933 12.9641 12.6453 12.9546C12.5973 12.9451 12.549 12.9401 12.5 12.9401Z" fill="white"/>
<path d="M13.6173 8.09735C13.5928 8.09735 13.5685 8.09485 13.5445 8.0901C13.5205 8.08535 13.4973 8.07835 13.4748 8.0691C13.452 8.0596 13.4305 8.0481 13.4103 8.0346C13.39 8.0211 13.3713 8.0056 13.3538 7.98835C13.3365 7.9711 13.321 7.9521 13.3075 7.93185C13.294 7.9116 13.2825 7.8901 13.273 7.86735C13.2638 7.84485 13.2568 7.8216 13.252 7.7976C13.2473 7.7736 13.2448 7.74935 13.2448 7.72485C13.2448 7.6761 13.24 7.6276 13.2305 7.5796C13.221 7.5316 13.2068 7.4851 13.1883 7.43985C13.1695 7.3946 13.1465 7.35185 13.1193 7.3111C13.0923 7.27035 13.0613 7.23285 13.0268 7.1981C12.992 7.1636 12.9545 7.13285 12.9138 7.1056C12.8733 7.07835 12.8303 7.05535 12.785 7.03685C12.7398 7.0181 12.6933 7.00385 12.6453 6.99435C12.5973 6.98485 12.549 6.9801 12.5 6.9801C12.451 6.9801 12.4028 6.98485 12.3548 6.99435C12.3068 7.00385 12.2603 7.0181 12.215 7.03685C12.1698 7.05535 12.1268 7.07835 12.0863 7.1056C12.0455 7.13285 12.008 7.1636 11.9733 7.1981C11.9388 7.23285 11.9078 7.27035 11.8808 7.3111C11.8535 7.35185 11.8305 7.3946 11.8118 7.43985C11.7933 7.4851 11.779 7.5316 11.7695 7.5796C11.76 7.6276 11.7553 7.6761 11.7553 7.72485C11.7553 7.74935 11.7528 7.7736 11.748 7.7976C11.7433 7.8216 11.7363 7.84485 11.7268 7.86735C11.7175 7.8901 11.706 7.91135 11.6925 7.93185C11.6788 7.9521 11.6635 7.97085 11.646 7.98835C11.6288 8.0056 11.61 8.02085 11.5898 8.0346C11.5693 8.0481 11.5478 8.0596 11.5253 8.06885C11.5028 8.07835 11.4795 8.08535 11.4555 8.0901C11.4315 8.09485 11.4073 8.09735 11.3828 8.09735C11.3583 8.09735 11.334 8.09485 11.31 8.0901C11.286 8.08535 11.2628 8.07835 11.2403 8.06885C11.2178 8.0596 11.1963 8.0481 11.1758 8.0346C11.1555 8.02085 11.1368 8.0056 11.1195 7.98835C11.1023 7.97085 11.0868 7.9521 11.073 7.93185C11.0595 7.91135 11.048 7.8901 11.0388 7.86735C11.0293 7.84485 11.0223 7.8216 11.0175 7.7976C11.0128 7.7736 11.0103 7.74935 11.0103 7.72485C11.0103 7.6761 11.0128 7.62735 11.0175 7.57885C11.0223 7.53035 11.0295 7.4821 11.039 7.43435C11.0485 7.38635 11.0603 7.3391 11.0745 7.29235C11.0888 7.24585 11.105 7.19985 11.1238 7.15485C11.1425 7.10985 11.1633 7.0656 11.1863 7.0226C11.2093 6.9796 11.2343 6.93785 11.2615 6.89735C11.2885 6.8566 11.3175 6.8176 11.3485 6.77985C11.3795 6.7421 11.4123 6.7061 11.4468 6.6716C11.4813 6.6371 11.5173 6.60435 11.555 6.57335C11.5928 6.54235 11.6318 6.51335 11.6725 6.48635C11.713 6.4591 11.7548 6.4341 11.7978 6.4111C11.8408 6.3881 11.8848 6.36735 11.93 6.3486C11.975 6.32985 12.021 6.3136 12.0675 6.29935C12.1143 6.2851 12.1615 6.27335 12.2095 6.26385C12.2573 6.25435 12.3055 6.2471 12.354 6.24235C12.4025 6.2376 12.4513 6.23535 12.5 6.23535C12.5488 6.23535 12.5975 6.2376 12.646 6.24235C12.6945 6.2471 12.7428 6.25435 12.7905 6.26385C12.8385 6.27335 12.8858 6.2851 12.9325 6.29935C12.979 6.3136 13.025 6.32985 13.07 6.3486C13.1153 6.36735 13.1593 6.3881 13.2023 6.4111C13.2453 6.4341 13.287 6.4591 13.3275 6.48635C13.3683 6.51335 13.4073 6.54235 13.445 6.57335C13.4828 6.60435 13.5188 6.6371 13.5533 6.6716C13.5878 6.7061 13.6205 6.7421 13.6515 6.77985C13.6825 6.8176 13.7115 6.8566 13.7385 6.89735C13.7658 6.93785 13.7908 6.9796 13.8138 7.0226C13.8368 7.0656 13.8575 7.10985 13.8763 7.15485C13.895 7.19985 13.9113 7.24585 13.9255 7.29235C13.9398 7.3391 13.9515 7.38635 13.961 7.43435C13.9705 7.4821 13.9778 7.53035 13.9825 7.57885C13.9873 7.62735 13.9898 7.6761 13.9898 7.72485C13.9898 7.74935 13.9873 7.7736 13.9825 7.7976C13.9778 7.8216 13.9708 7.84485 13.9613 7.86735C13.952 7.8901 13.9405 7.9116 13.927 7.93185C13.9135 7.9521 13.898 7.9711 13.8808 7.98835C13.8633 8.0056 13.8445 8.0211 13.8243 8.0346C13.8038 8.0481 13.7825 8.0596 13.7598 8.0691C13.7373 8.07835 13.714 8.08535 13.69 8.0901C13.666 8.09485 13.6418 8.09735 13.6173 8.09735Z" fill="white"/>
</g>
<defs>
<clipPath id="clip0_3094_161">
<rect width="24" height="24" fill="white" transform="translate(0.5)"/>
</clipPath>
</defs>
</svg>
