<svg id="Layer_1" data-name="Layer 1" xmlns="http://www.w3.org/2000/svg" viewBox="0 0 292.2 292.2">
    <defs>
        <style>.cls-1{fill:#7a5da8;}.cls-2{fill:#fff;}</style>
    </defs>
    <circle class="cls-1" cx="146.1" cy="146.1" r="146.1"/>
    <path class="cls-2"
          d="M89.19,57.65a226.74,226.74,0,0,0,33.05,4.48,383.07,383.07,0,0,0,49.1.42c13.2-.78,26.74-2,39.66-4.9a107,107,0,0,1,13.88,23.18,99.79,99.79,0,0,1-14.09,3.93c-13.36,2.71-27.2,3.86-40.8,4.57-9.35.28-18.53.8-27.85.36a358.91,358.91,0,0,1-37.92-2.53c-9.8-1.28-19.59-2.91-28.9-6.33A106.51,106.51,0,0,1,89.19,57.65Z"
          transform="translate(-3.9 -3.9)"/>
    <path class="cls-2"
          d="M70.27,94.47c3.06.53,6,1.74,9,2.39,13.65,3.2,28,4.6,42,5.53a462.05,462.05,0,0,0,71.46-1.1c12.54-1.3,25.26-3.06,37.27-7a160.62,160.62,0,0,1,5.93,26c-32,8.53-66.13,10.16-99.1,9.48-24.62-.77-48.7-3.11-72.57-9.49a166.66,166.66,0,0,1,3.58-17.87,52.31,52.31,0,0,1,2.43-7.9Z"
          transform="translate(-3.9 -3.9)"/>
    <path class="cls-2"
          d="M167.34,170.63c23.26.91,46,3.35,68.59,9.33a160.36,160.36,0,0,1-5.92,26,134,134,0,0,0-19.55-4.69c-16.24-2.71-32.49-3.66-48.9-4.2a465.5,465.5,0,0,0-55.26,2C94,200.34,82,202.09,70.18,205.93a159.17,159.17,0,0,1-5.91-26c17.94-4.79,36.18-7.29,54.68-8.6a479.19,479.19,0,0,1,48.39-.74Z"
          transform="translate(-3.9 -3.9)"/>
    <path class="cls-2"
          d="M184.05,211.75c13.54,1.22,28,2.93,40.83,7.62-3.8,8.33-8.15,16.22-14.06,23.26-16.64-4.18-34.32-5.15-51.42-5.52-23.08-.27-47.67.12-70.21,5.45a106.58,106.58,0,0,1-13.87-23.19c13.91-5.06,29.58-6.69,44.27-7.89a425.47,425.47,0,0,1,64.46.27Z"
          transform="translate(-3.9 -3.9)"/>
</svg>