<svg width="791" height="791" viewBox="0 0 791 791" fill="none" xmlns="http://www.w3.org/2000/svg">
<path d="M163.3 277.7L43.5003 216.7C34.1003 235.1 26.2003 254.4 19.8003 274.1L147.7 315.5C151.9 302.5 157.1 289.8 163.3 277.7Z" fill="black"/>
<path d="M265 170.2L331.3 284.5C341 278.9 351.4 274.6 362.1 271.7L327.8 144.1C336.5 141.8 345.4 139.8 354.4 138.4L333.3 5.59998C312.9 8.79998 292.6 13.7 273 20.1L314 145.9C300.9 150.2 288.2 155.5 276 161.7L215.8 44C197.5 53.4 179.7 64.3 163.1 76.5L242.3 185C249.6 179.7 257.2 174.8 265 170.2Z" fill="black"/>
<path d="M621.1 264.9L506.8 331.3C512.4 341 516.8 351.4 519.7 362.1L647.3 327.7C649.7 336.4 651.6 345.3 653 354.2L785.8 333.1C782.6 312.7 777.7 292.4 771.2 272.8L645.5 314C641.2 300.9 635.9 288.2 629.7 276L747.4 215.6C738 197.3 727.1 179.5 714.9 162.9L606.4 242.2C611.6 249.5 616.5 257.1 621.1 264.9Z" fill="black"/>
<path d="M574.5 43.3999C556.1 33.9999 536.8 26.1 517.1 19.7L475.8 147.6C488.7 151.8 501.4 157 513.6 163.2L574.5 43.3999Z" fill="black"/>
<path d="M526.7 167.9L459.6 284.4C469.3 290 478.3 296.9 486.2 304.8L674.4 115.9C659.8 101.3 643.9 87.8 627.3 75.7L549.7 182.8C542.3 177.4 534.7 172.4 526.7 167.9Z" fill="black"/>
<path d="M167.9 264.5L284.3 331.7C289.9 322 296.8 313 304.7 305L116 116.7C101.4 131.3 87.9003 147.2 75.8003 163.8L182.8 241.5C177.5 248.9 172.5 256.6 167.9 264.5Z" fill="black"/>
<path d="M436.4 136.1L456.7 5.39993C436.6 2.29993 416.1 0.699951 395.6 0.699951H395.3V267.3H395.6C406.8 267.3 418 268.7 428.7 271.6L463.2 141.7C454.4 139.3 445.5 137.5 436.4 136.1Z" fill="black"/>
<path d="M271.6 362.6L141.7 328C139.4 336.8 137.5 345.8 136.1 354.8L5.40018 334.4C2.30018 354.5 0.700195 375.2 0.700195 395.7H267.3C267.3 384.4 268.8 373.3 271.6 362.6Z" fill="black"/>
<path d="M628.1 513.7L747.9 574.7C757.3 556.3 765.2 537 771.6 517.3L643.7 475.9C639.5 488.9 634.3 501.6 628.1 513.7Z" fill="black"/>
<path d="M526.3 621.1L460 506.8C450.3 512.4 439.9 516.7 429.2 519.6L463.5 647.2C454.8 649.5 445.9 651.5 436.9 652.9L458 785.7C478.4 782.5 498.7 777.6 518.3 771.2L477.3 645.4C490.4 641.1 503.1 635.8 515.3 629.6L575.6 747.3C593.9 737.9 611.7 727 628.3 714.8L549.1 606.2C541.8 611.7 534.2 616.6 526.3 621.1Z" fill="black"/>
<path d="M170.3 526.5L284.6 460C279 450.3 274.6 439.9 271.7 429.2L144.1 463.6C141.7 454.9 139.8 446 138.4 437.1L5.6001 458.2C8.8001 478.6 13.7001 498.9 20.2001 518.5L145.9 477.4C150.2 490.4 155.5 503.2 161.7 515.4L44.0001 575.8C53.4001 594.1 64.3001 611.9 76.5001 628.5L185 549.2C179.8 541.9 174.9 534.3 170.3 526.5Z" fill="black"/>
<path d="M216.9 748C235.3 757.4 254.6 765.3 274.3 771.7L315.6 643.8C302.7 639.6 290 634.4 277.8 628.2L216.9 748Z" fill="black"/>
<path d="M264.6 623.5L331.7 507C322 501.4 313 494.5 305.1 486.6L116.9 675.5C131.5 690.1 147.4 703.6 164 715.7L241.6 608.6C249 613.9 256.7 618.9 264.6 623.5Z" fill="black"/>
<path d="M623.4 526.9L507 459.7C501.4 469.4 494.5 478.4 486.6 486.4L675.4 674.7C690 660.1 703.5 644.2 715.6 627.6L608.6 549.9C613.9 542.4 618.9 534.8 623.4 526.9Z" fill="black"/>
<path d="M362.6 519.8L328.1 649.7C336.9 652 345.9 653.9 354.9 655.3L334.6 786C354.7 789.1 375.2 790.7 395.7 790.7H396V524.1H395.7C384.5 524.1 373.3 522.6 362.6 519.8Z" fill="black"/>
<path d="M524.1 395.7C524.1 407 522.7 418.1 519.8 428.8L649.7 463.4C652 454.6 653.9 445.6 655.3 436.6L786 457C789.1 436.9 790.7 416.2 790.7 395.7H524.1Z" fill="black"/>
</svg>
