<svg version="1.1" id="Layer_1" xmlns="http://www.w3.org/2000/svg" xmlns:xlink="http://www.w3.org/1999/xlink" x="0px" y="0px"
	 width="100%" viewBox="0 0 737 767" enable-background="new 0 0 737 767" xml:space="preserve">
<path fill="#FFFFFF" opacity="1.000000" stroke="none" 
	d="
M409.000000,768.000000 
	C272.666656,768.000000 136.833328,768.000000 1.000000,768.000000 
	C1.000000,512.333313 1.000000,256.666656 1.000000,1.000000 
	C246.666672,1.000000 492.333344,1.000000 738.000000,1.000000 
	C738.000000,256.666656 738.000000,512.333313 738.000000,768.000000 
	C628.500000,768.000000 519.000000,768.000000 409.000000,768.000000 
M652.477234,726.004761 
	C695.719543,698.475464 716.147522,659.013733 710.499573,608.129883 
	C703.757446,547.388489 652.385803,503.215851 591.093567,503.185913 
	C578.658081,503.179840 566.574341,501.184540 554.791809,497.315430 
	C500.207306,479.390961 466.669128,425.728302 473.843262,367.846283 
	C480.586914,313.437500 526.058960,269.486816 580.510925,264.857452 
	C590.789490,263.983612 601.228516,264.282928 611.372864,262.660889 
	C681.126282,251.507675 726.027100,181.546555 707.465271,113.415520 
	C691.023560,53.066204 631.612488,15.867171 569.745300,27.185049 
	C520.083618,36.270073 480.044952,78.314415 473.941315,128.185333 
	C472.487823,140.061615 472.598663,152.136536 471.000763,163.986694 
	C464.225616,214.232315 419.664612,257.578156 369.405975,263.016968 
	C357.341156,264.322571 345.088135,264.193390 333.117371,266.012207 
	C269.040436,275.747986 223.667511,339.940430 235.430435,403.695557 
	C246.287888,462.543030 294.583954,502.854126 354.217590,503.309662 
	C363.132874,503.377777 372.242828,504.472229 380.907166,506.564453 
	C435.198608,519.674377 472.305511,566.776184 472.675781,622.595337 
	C472.794586,640.509766 476.473511,657.558289 484.049927,673.794922 
	C513.460083,736.821960 592.650940,761.621155 652.477234,726.004761 
M74.038414,716.477234 
	C101.876884,737.889221 133.296829,746.437500 167.861618,740.580872 
	C233.338348,729.486755 275.937500,669.727722 266.142517,603.785217 
	C254.020966,522.179504 160.618500,477.280853 89.262436,518.758789 
	C15.740371,561.495789 7.682226,662.384399 74.038414,716.477234 
M90.486320,40.002117 
	C46.894455,64.877724 23.737885,110.647446 29.832745,159.885910 
	C38.378410,228.923676 105.418983,276.542206 173.150620,261.683777 
	C237.698090,247.523880 278.094635,185.539276 265.176453,120.478996 
	C249.653671,42.300888 160.776947,1.047236 90.486320,40.002117 
z"/>
<path fill="#052C29" opacity="1.000000" stroke="none" 
	d="
M652.142822,726.155396 
	C592.650940,761.621155 513.460083,736.821960 484.049927,673.794922 
	C476.473511,657.558289 472.794586,640.509766 472.675781,622.595337 
	C472.305511,566.776184 435.198608,519.674377 380.907166,506.564453 
	C372.242828,504.472229 363.132874,503.377777 354.217590,503.309662 
	C294.583954,502.854126 246.287888,462.543030 235.430435,403.695557 
	C223.667511,339.940430 269.040436,275.747986 333.117371,266.012207 
	C345.088135,264.193390 357.341156,264.322571 369.405975,263.016968 
	C419.664612,257.578156 464.225616,214.232315 471.000763,163.986694 
	C472.598663,152.136536 472.487823,140.061615 473.941315,128.185333 
	C480.044952,78.314415 520.083618,36.270073 569.745300,27.185049 
	C631.612488,15.867171 691.023560,53.066204 707.465271,113.415520 
	C726.027100,181.546555 681.126282,251.507675 611.372864,262.660889 
	C601.228516,264.282928 590.789490,263.983612 580.510925,264.857452 
	C526.058960,269.486816 480.586914,313.437500 473.843262,367.846283 
	C466.669128,425.728302 500.207306,479.390961 554.791809,497.315430 
	C566.574341,501.184540 578.658081,503.179840 591.093567,503.185913 
	C652.385803,503.215851 703.757446,547.388489 710.499573,608.129883 
	C716.147522,659.013733 695.719543,698.475464 652.142822,726.155396 
z"/>
<path fill="#052C29" opacity="1.000000" stroke="none" 
	d="
M73.773407,716.238770 
	C7.682226,662.384399 15.740371,561.495789 89.262436,518.758789 
	C160.618500,477.280853 254.020966,522.179504 266.142517,603.785217 
	C275.937500,669.727722 233.338348,729.486755 167.861618,740.580872 
	C133.296829,746.437500 101.876884,737.889221 73.773407,716.238770 
z"/>
<path fill="#052C29" opacity="1.000000" stroke="none" 
	d="
M90.825554,39.855312 
	C160.776947,1.047236 249.653671,42.300888 265.176453,120.478996 
	C278.094635,185.539276 237.698090,247.523880 173.150620,261.683777 
	C105.418983,276.542206 38.378410,228.923676 29.832745,159.885910 
	C23.737885,110.647446 46.894455,64.877724 90.825554,39.855312 
z"/>
</svg>