<svg xmlns="http://www.w3.org/2000/svg" width="237px" height="213px" style="shape-rendering:geometricPrecision; text-rendering:geometricPrecision; image-rendering:optimizeQuality; fill-rule:evenodd; clip-rule:evenodd" xmlns:xlink="http://www.w3.org/1999/xlink">

  <path transform="translate(0.000000,213.000000) scale(0.100000,-0.100000)" fill="#e81b99" d="M1109 2117 c-48 -14 -90 -40 -126 -79 -12 -12 -90 -178 -173 -368 -163 -372 -173 -407 -146 -495 20 -65 7 -86 -62 -104 -28 -7 -69 -25 -90 -41 -24 -17 -124 -144 -260 -330 -247 -336 -263 -366 -243 -461 15 -69 33 -100 86 -147 81 -71 85 -71 517 -23 417 46 434 50 503 121 22 22 47 40 57 40 10 0 37 -19 60 -42 24 -22 61 -49 84 -59 49 -22 746 -103 812 -95 151 20 246 174 201 326 -13 43 -433 621 -481 663 -18 15 -63 37 -100 48 -55 16 -69 24 -74 44 -3 13 -3 28 0 34 16 25 24 110 15 151 -16 69 -297 703 -330 743 -55 66 -162 98 -250 74z m108 -199 c22 -26 293 -640 293 -667 0 -9 -7 -27 -16 -39 -15 -22 -16 -22 -316 -22 -330 0 -338 1 -338 59 0 34 275 662 297 679 26 18 57 15 80 -10z m208 -943 c14 -13 25 -32 25 -41 0 -16 -178 -333 -222 -396 -23 -33 -75 -38 -101 -10 -31 34 -227 386 -227 407 0 12 9 31 20 43 20 21 27 22 251 22 l230 0 24 -25z m-712 -117 c26 -35 214 -359 258 -445 30 -58 29 -87 -5 -108 -19 -12 -623 -85 -705 -85 -41 0 -71 24 -71 58 0 16 73 123 216 318 209 285 216 294 249 294 27 0 39 -7 58 -32z m1029 5 c51 -56 418 -566 418 -582 0 -36 -29 -61 -71 -61 -93 0 -685 72 -706 86 -50 32 -44 48 107 311 79 137 150 254 158 261 26 21 66 14 94 -15z"/>

</svg>