<svg id="svg" version="1.1" xmlns="http://www.w3.org/2000/svg" xmlns:xlink="http://www.w3.org/1999/xlink" width="400" height="400" viewBox="0, 0, 400,400"><g id="svgg"><path id="path0" d="M199.556 19.800 C 198.997 21.073,198.641 25.137,197.112 47.727 C 196.608 55.169,197.761 59.097,200.474 59.175 C 203.341 59.257,205.621 45.499,205.608 28.200 L 205.600 18.400 202.886 18.400 C 201.068 18.400,199.968 18.863,199.556 19.800 M212.000 45.200 C 212.000 49.963,214.432 51.771,215.496 47.800 C 216.671 43.416,216.111 40.800,214.000 40.800 C 212.109 40.800,212.000 41.040,212.000 45.200 M72.010 50.600 C 72.034 55.134,98.799 81.600,103.360 81.600 C 106.457 81.600,106.554 81.521,106.028 79.426 C 105.058 75.563,95.526 64.800,93.075 64.800 C 92.283 64.800,86.046 58.843,80.635 52.921 C 76.335 48.215,71.991 47.046,72.010 50.600 M321.110 55.067 C 319.389 56.314,315.365 60.364,312.168 64.067 C 308.971 67.770,304.259 72.960,301.697 75.600 C 293.676 83.864,290.951 89.600,295.044 89.600 C 296.421 89.600,302.400 84.766,302.400 83.652 C 302.400 83.166,312.907 72.800,313.399 72.800 C 313.725 72.800,326.380 59.656,326.493 59.200 C 326.932 57.425,328.049 55.264,328.751 54.830 C 330.437 53.789,329.545 52.800,326.920 52.800 C 325.247 52.800,323.064 53.652,321.110 55.067 M103.200 62.503 C 103.200 65.541,112.118 77.600,114.365 77.600 C 116.447 77.600,115.116 72.177,112.014 68.019 C 110.262 65.670,108.617 63.085,108.360 62.274 C 107.647 60.028,103.200 60.225,103.200 62.503 M311.758 82.200 C 309.019 84.278,307.789 87.200,309.654 87.200 C 310.123 87.200,311.917 86.030,313.639 84.600 C 318.886 80.244,317.189 78.080,311.758 82.200 M186.000 88.381 C 167.714 90.948,150.109 97.152,142.258 103.796 C 140.796 105.034,138.018 107.110,136.085 108.411 C 113.314 123.736,94.705 174.681,101.238 203.816 C 102.433 209.146,103.159 211.205,105.297 215.323 C 105.904 216.491,106.400 218.180,106.400 219.076 C 106.400 219.972,106.760 220.928,107.200 221.200 C 107.640 221.472,108.000 222.278,108.000 222.991 C 108.000 224.744,118.306 241.027,122.723 246.256 C 128.323 252.883,133.840 258.708,145.972 270.800 C 153.477 278.280,161.201 286.243,163.136 288.495 C 166.909 292.887,171.355 303.282,169.696 303.835 C 169.203 303.999,168.800 304.625,168.800 305.227 C 168.800 305.828,168.210 306.651,167.488 307.055 C 166.449 307.636,166.258 308.641,166.571 311.894 C 166.847 314.770,166.641 316.268,165.883 316.897 C 164.066 318.405,164.454 326.815,166.424 328.651 C 167.865 329.993,167.910 330.278,166.824 331.180 C 165.207 332.522,165.207 339.320,166.824 342.447 C 167.724 344.186,167.830 345.223,167.224 346.355 C 166.019 348.606,166.226 352.850,167.674 355.600 C 168.369 356.920,169.128 359.980,169.361 362.400 C 169.832 367.295,172.317 371.853,174.800 372.380 C 175.680 372.567,179.190 372.949,182.600 373.228 C 187.293 373.613,188.800 374.023,188.800 374.913 C 188.800 379.355,204.380 380.572,210.141 376.580 C 212.768 374.759,214.135 374.400,218.443 374.397 C 227.407 374.392,229.134 372.591,229.948 362.403 C 230.176 359.544,230.821 356.844,231.381 356.403 C 233.066 355.075,233.431 349.073,231.991 346.383 C 231.454 345.380,231.580 344.254,232.405 342.672 C 233.996 339.621,233.978 332.510,232.376 331.180 C 231.290 330.278,231.335 329.993,232.776 328.651 C 234.759 326.803,235.133 318.405,233.300 316.883 C 232.541 316.253,232.325 314.863,232.602 312.401 C 232.891 309.843,232.616 308.239,231.634 306.740 C 230.668 305.266,230.448 304.023,230.888 302.525 C 231.230 301.356,231.520 300.040,231.531 299.600 C 231.572 297.968,235.174 290.323,237.644 286.623 C 241.429 280.954,254.432 267.506,260.058 263.441 C 292.426 240.056,306.847 188.896,291.261 152.744 C 284.303 136.605,264.031 109.600,258.874 109.600 C 258.658 109.600,257.595 108.777,256.510 107.772 C 255.425 106.767,253.517 105.431,252.269 104.804 C 251.021 104.177,248.380 102.541,246.400 101.169 C 230.996 90.490,207.067 85.423,186.000 88.381 M210.176 94.384 C 213.793 94.871,218.653 95.950,220.976 96.781 C 227.882 99.251,237.121 103.228,237.576 103.926 C 237.809 104.284,239.226 105.205,240.725 105.974 C 242.224 106.742,243.844 107.707,244.325 108.118 C 244.806 108.530,248.149 111.005,251.754 113.620 C 262.935 121.730,275.105 136.612,282.184 150.834 C 285.748 157.994,289.600 169.121,289.600 172.257 C 289.600 172.996,289.957 173.600,290.393 173.600 C 291.332 173.600,290.724 190.336,289.478 198.800 C 288.297 206.820,285.378 216.542,282.370 222.475 C 280.941 225.294,279.052 229.040,278.173 230.800 C 277.293 232.560,275.954 234.436,275.197 234.968 C 274.440 235.501,273.367 237.031,272.813 238.368 C 272.259 239.706,271.481 240.800,271.083 240.800 C 270.686 240.800,270.018 241.700,269.600 242.800 C 269.182 243.900,268.540 244.800,268.174 244.800 C 267.808 244.800,266.366 246.420,264.970 248.400 C 263.575 250.380,261.903 252.000,261.256 252.000 C 260.609 252.000,259.761 252.569,259.372 253.265 C 258.982 253.960,255.603 257.650,251.861 261.465 C 235.526 278.117,227.839 289.209,225.570 299.400 C 224.502 304.196,221.520 306.076,220.495 302.600 C 219.040 297.663,217.219 272.631,217.252 258.000 C 217.264 252.531,219.177 233.498,220.347 227.200 C 220.961 223.900,222.057 217.960,222.784 214.000 C 225.194 200.861,225.097 201.065,229.191 200.603 C 234.348 200.022,241.261 196.361,246.157 191.619 L 250.400 187.509 250.400 181.839 C 250.400 165.195,231.517 168.691,222.528 187.000 C 220.123 191.901,220.042 191.932,217.762 188.848 L 216.023 186.496 217.894 184.248 C 222.790 178.365,223.584 167.488,219.560 161.400 C 215.839 155.770,205.992 157.773,204.302 164.504 C 203.759 166.669,204.404 180.297,205.191 183.276 C 206.210 187.134,197.275 189.464,194.461 186.074 C 193.854 185.342,193.978 183.819,194.895 180.731 C 198.359 169.065,194.921 157.600,187.958 157.600 C 179.296 157.600,175.508 171.167,181.093 182.189 C 183.603 187.142,183.678 188.120,181.683 189.925 C 180.221 191.248,180.019 191.056,176.120 184.649 C 168.493 172.116,163.622 169.331,154.245 172.141 C 137.977 177.015,152.507 202.400,171.565 202.400 L 177.304 202.400 179.018 207.400 C 181.054 213.342,182.695 221.708,184.390 234.800 C 185.074 240.080,185.986 246.837,186.417 249.815 C 187.802 259.391,186.941 275.735,183.826 299.000 L 182.942 305.600 180.411 305.600 C 176.874 305.600,174.880 303.106,172.811 296.092 C 170.103 286.914,158.821 272.983,143.702 260.150 C 139.799 256.837,135.376 252.297,133.874 250.063 C 132.372 247.828,128.717 243.043,125.750 239.430 C 120.504 233.039,113.581 220.975,113.594 218.247 C 113.597 217.503,113.240 216.672,112.800 216.400 C 112.360 216.128,111.998 215.297,111.995 214.553 C 111.992 213.809,111.504 212.269,110.910 211.131 C 109.855 209.108,108.435 202.127,107.727 195.474 C 104.669 166.781,125.434 122.068,147.600 109.617 C 150.240 108.134,153.381 106.114,154.580 105.129 C 162.032 99.004,191.575 91.601,202.000 93.246 C 202.880 93.385,206.559 93.897,210.176 94.384 M162.200 113.425 C 158.418 115.455,157.132 117.658,159.800 117.536 C 162.124 117.428,167.560 114.094,167.848 112.599 C 168.205 110.745,166.811 110.949,162.200 113.425 M145.447 121.925 C 138.718 124.328,122.400 144.096,122.400 149.846 C 122.400 150.237,121.889 151.693,121.264 153.079 C 119.270 157.505,117.443 166.512,117.969 169.318 C 118.655 172.974,120.584 172.788,121.273 169.000 C 121.574 167.350,122.534 164.380,123.408 162.400 C 131.827 143.314,135.304 137.722,143.992 129.296 C 152.891 120.663,153.188 119.161,145.447 121.925 M249.600 122.885 C 249.600 123.592,250.500 124.878,251.600 125.743 C 252.700 126.608,253.600 127.665,253.600 128.091 C 253.600 128.979,268.090 143.192,269.000 143.197 C 269.330 143.199,269.600 143.740,269.600 144.400 C 269.600 145.067,270.311 145.600,271.200 145.600 C 274.987 145.600,271.610 139.777,263.302 131.982 C 252.425 121.778,249.600 119.902,249.600 122.885 M257.600 140.676 C 257.600 141.488,258.320 142.804,259.200 143.600 C 260.080 144.396,260.800 145.692,260.800 146.479 C 260.800 147.265,261.600 148.470,262.578 149.155 C 267.602 152.673,267.717 148.219,262.737 143.000 C 258.836 138.910,257.600 138.351,257.600 140.676 M45.196 144.007 C 42.834 147.828,55.909 151.934,70.600 151.984 C 80.349 152.018,74.658 147.112,63.285 145.680 C 59.152 145.159,55.125 144.388,54.337 143.967 C 52.443 142.952,45.829 142.982,45.196 144.007 M18.400 150.229 C 18.400 152.484,18.673 152.702,22.600 153.592 C 24.910 154.115,28.240 155.033,30.000 155.633 C 31.760 156.232,36.419 157.123,40.354 157.612 C 44.289 158.101,49.509 159.024,51.954 159.663 C 63.365 162.646,69.600 162.676,69.600 159.750 C 69.600 158.245,66.613 156.002,64.591 155.988 C 63.606 155.982,60.597 155.457,57.905 154.822 C 52.312 153.503,36.499 150.660,28.800 149.590 C 25.940 149.192,22.430 148.631,21.000 148.342 C 18.526 147.844,18.400 147.935,18.400 150.229 M372.400 149.349 C 369.760 149.484,363.100 150.122,357.600 150.765 C 352.100 151.409,343.476 152.347,338.435 152.850 C 327.194 153.972,325.600 154.510,325.600 157.180 C 325.600 159.963,331.252 159.788,363.200 156.015 C 366.940 155.574,371.903 155.209,374.228 155.206 C 378.893 155.199,382.400 153.478,382.400 151.194 C 382.400 149.677,380.722 148.703,378.535 148.951 C 377.801 149.034,375.040 149.213,372.400 149.349 M128.847 158.676 C 128.455 159.708,127.641 161.058,127.038 161.676 C 124.115 164.675,121.845 185.600,124.442 185.600 C 125.062 185.600,125.765 184.610,126.003 183.400 C 126.242 182.190,126.759 179.580,127.153 177.600 C 127.547 175.620,128.296 171.660,128.818 168.800 C 129.340 165.940,130.270 162.466,130.884 161.079 C 131.498 159.693,132.000 158.163,132.000 157.679 C 132.000 156.026,129.562 156.797,128.847 158.676 M133.695 169.954 C 132.409 175.062,132.519 181.600,133.890 181.600 C 134.640 181.600,135.140 180.039,135.490 176.600 C 135.770 173.850,136.220 170.430,136.491 169.000 C 137.290 164.766,134.786 165.621,133.695 169.954 M188.270 173.784 L 187.509 178.000 186.624 175.018 C 185.503 171.240,186.965 164.940,188.280 167.886 C 188.748 168.936,188.745 171.152,188.270 173.784 M213.914 167.665 C 214.645 169.568,214.502 172.270,213.522 175.080 C 212.362 178.408,211.197 177.538,211.211 173.353 C 211.230 167.567,212.694 164.486,213.914 167.665 M333.000 166.965 C 331.603 167.234,331.200 167.857,331.200 169.746 C 331.200 172.061,331.329 172.157,333.800 171.694 C 335.230 171.425,337.750 170.977,339.400 170.698 C 342.467 170.178,343.147 169.067,341.440 167.360 C 340.511 166.431,336.699 166.252,333.000 166.965 M170.352 188.877 C 176.016 197.798,174.945 198.543,164.000 193.294 C 155.007 188.981,151.718 179.555,158.586 177.776 C 161.787 176.946,164.257 179.277,170.352 188.877 M243.188 181.698 C 243.212 184.231,230.502 193.969,229.058 192.524 C 227.873 191.339,235.506 181.967,239.410 179.814 C 242.058 178.354,243.161 178.904,243.188 181.698 M217.306 201.311 C 215.931 205.786,211.975 231.547,211.183 241.187 C 210.677 247.340,210.106 252.628,209.914 252.939 C 209.213 254.074,211.230 291.807,212.365 298.767 C 213.798 307.563,215.129 306.680,199.843 307.069 L 186.961 307.397 187.514 304.699 C 187.819 303.214,188.430 299.161,188.873 295.691 C 189.315 292.220,190.214 287.360,190.871 284.891 C 192.558 278.545,193.281 256.834,192.094 248.172 C 191.568 244.337,190.600 237.060,189.941 232.000 C 188.375 219.959,185.889 207.568,184.087 202.821 C 182.659 199.059,184.034 195.200,186.804 195.200 C 187.145 195.200,187.849 194.618,188.370 193.906 C 189.241 192.714,189.513 192.714,191.818 193.906 C 195.433 195.776,204.503 195.649,207.478 193.687 L 209.757 192.185 213.760 196.004 C 216.646 198.756,217.636 200.239,217.306 201.311 M244.801 225.199 C 244.212 226.298,243.989 227.455,244.304 227.770 C 245.221 228.687,247.576 226.795,247.856 224.918 C 248.212 222.522,246.131 222.713,244.801 225.199 M244.200 236.749 C 240.820 240.674,239.780 243.553,241.920 243.059 C 243.327 242.734,249.600 235.183,249.600 233.815 C 249.600 231.766,247.515 232.899,244.200 236.749 M252.400 237.600 C 251.604 238.480,250.580 239.200,250.126 239.200 C 248.987 239.200,232.867 256.162,232.830 257.400 C 232.813 257.950,233.250 258.392,233.800 258.382 C 235.147 258.357,256.012 238.266,256.005 237.000 C 255.997 235.478,254.024 235.806,252.400 237.600 M310.400 238.470 C 310.400 240.193,322.801 253.083,331.119 260.005 C 333.495 261.982,337.579 265.444,340.195 267.697 C 349.739 275.917,358.486 274.954,350.596 266.551 C 348.350 264.159,334.003 252.591,330.400 250.266 C 329.300 249.557,326.360 247.046,323.867 244.688 C 316.538 237.756,315.189 236.800,312.732 236.800 C 310.901 236.800,310.400 237.159,310.400 238.470 M70.000 242.245 C 60.715 247.051,60.032 247.568,60.012 249.800 C 59.996 251.686,62.746 251.615,64.569 249.683 C 66.406 247.736,76.128 242.400,77.838 242.400 C 79.114 242.400,80.800 240.152,80.800 238.453 C 80.800 236.955,78.996 237.588,70.000 242.245 M83.108 243.858 C 77.708 247.322,71.449 251.976,70.000 253.603 C 68.066 255.777,56.317 264.994,53.800 266.313 C 52.550 266.968,52.000 267.981,52.000 269.628 C 52.000 273.899,55.566 272.885,64.151 266.174 C 71.610 260.344,80.140 254.400,81.049 254.400 C 81.315 254.400,83.046 252.960,84.897 251.200 C 86.747 249.440,88.504 248.000,88.802 248.000 C 89.400 248.000,91.200 244.368,91.200 243.162 C 91.200 241.911,85.362 242.413,83.108 243.858 M152.790 250.600 C 152.778 251.845,164.032 262.362,165.400 262.384 C 167.669 262.420,166.074 259.925,160.624 254.912 C 155.015 249.754,152.810 248.540,152.790 250.600 M308.533 250.133 C 307.036 251.630,314.112 263.104,317.283 264.321 C 322.144 266.187,323.739 263.884,320.200 260.107 C 318.990 258.816,316.405 255.924,314.455 253.680 C 311.065 249.778,309.704 248.963,308.533 250.133 M247.970 253.800 C 237.888 261.973,228.800 273.029,228.800 277.121 C 228.800 279.369,230.785 278.494,232.373 275.546 C 233.219 273.976,238.520 268.017,244.155 262.304 C 249.790 256.590,254.400 251.574,254.400 251.158 C 254.400 249.549,251.995 250.537,247.970 253.800 M152.800 261.144 C 152.800 261.774,154.477 263.844,156.526 265.744 C 165.208 273.797,168.536 277.651,170.800 282.273 C 173.510 287.807,175.200 288.633,175.200 284.425 C 175.200 281.012,170.144 273.316,164.837 268.653 C 162.837 266.895,160.942 264.769,160.626 263.928 C 160.310 263.088,159.309 262.400,158.401 262.400 C 157.493 262.400,156.543 261.860,156.289 261.200 C 155.702 259.670,152.800 259.624,152.800 261.144 M184.400 316.035 C 192.079 317.207,210.868 316.931,217.200 315.554 C 227.865 313.234,229.874 313.579,224.600 316.823 C 214.202 323.219,182.431 323.368,174.832 317.057 C 171.191 314.032,171.329 313.674,175.800 314.555 C 177.890 314.966,181.760 315.632,184.400 316.035 M182.800 334.101 C 190.169 336.032,211.262 336.103,219.600 334.224 C 225.436 332.909,228.000 333.583,228.000 336.433 C 228.000 339.737,195.398 340.844,179.800 338.071 C 171.026 336.510,170.294 336.148,172.400 334.400 C 173.060 333.852,173.600 332.720,173.600 331.884 C 173.600 330.504,173.767 330.468,175.400 331.498 C 176.390 332.122,179.720 333.293,182.800 334.101 M226.089 351.656 C 224.311 356.290,204.426 360.265,192.066 358.458 C 185.602 357.513,173.789 352.878,174.931 351.735 C 175.226 351.441,174.828 351.200,174.047 351.200 C 172.897 351.200,172.732 350.781,173.178 349.002 C 173.886 346.180,173.539 346.291,177.454 347.640 C 189.802 351.894,206.860 352.148,218.484 348.251 L 225.200 346.000 225.848 348.298 C 226.205 349.561,226.313 351.072,226.089 351.656 M199.200 365.786 C 207.340 365.778,215.918 365.422,218.262 364.995 C 222.167 364.284,222.416 364.326,221.244 365.498 C 217.966 368.777,181.188 368.731,177.902 365.445 C 176.743 364.285,176.970 364.246,180.516 364.988 C 182.652 365.436,191.060 365.795,199.200 365.786 " stroke="currentColor" stroke-width="3" fill="#000000" fill-rule="evenodd"></path></g></svg>