<svg width="80" height="80" viewBox="0 0 80 80" fill="none" xmlns="http://www.w3.org/2000/svg">
<g clip-path="url(#clip0_3438_2658)">
<path d="M67.4158 77.3958C67.2808 77.3958 67.1558 77.385 67.0208 77.3625L25.4508 69.9516C24.8633 69.85 24.3325 69.5116 23.9933 69.0258C23.6542 68.5283 23.5192 67.93 23.6208 67.3316L24.2308 63.9425C24.445 62.7108 25.62 61.8975 26.8508 62.1125C28.0825 62.3266 28.8958 63.5016 28.6808 64.7333L28.4775 65.8966L65.5975 72.5158L74.9392 20.0791L44.6542 14.6791C43.4225 14.465 42.6092 13.29 42.8242 12.0583C43.0383 10.8275 44.2133 10.0141 45.445 10.2291L77.955 16.0233C79.1867 16.2383 80 17.4133 79.785 18.6441L69.6417 75.5325C69.54 76.12 69.2008 76.6508 68.715 76.9891C68.32 77.2491 67.8675 77.3958 67.4158 77.3958Z" fill="#69DDFF"/>
<mask id="mask0_3438_2658" style="mask-type:luminance" maskUnits="userSpaceOnUse" x="0" y="2" width="52" height="67">
<path d="M0 2.59998H51.4133V68.2666H0V2.59998Z" fill="white"/>
</mask>
<g mask="url(#mask0_3438_2658)">
<path d="M6.87917 68.1216C5.71583 68.1216 4.72167 67.2183 4.63167 66.0433L0.101664 8.44412C-2.22772e-06 7.20162 0.937498 6.11662 2.18 6.01496L44.27 2.70579C45.5125 2.60412 46.5967 3.54162 46.6983 4.78412L51.2283 62.3833C51.2733 62.9825 51.0817 63.57 50.6975 64.0325C50.3133 64.4958 49.7483 64.7666 49.1608 64.8125L7.07167 68.1216C7.00333 68.1216 6.9475 68.1216 6.87917 68.1216ZM4.79 10.3416L8.95833 63.4341L46.5517 60.4858L42.3833 7.39329L4.79 10.3416Z" fill="#69DDFF"/>
</g>
</g>
<defs>
<clipPath id="clip0_3438_2658">
<rect width="80" height="80" fill="white"/>
</clipPath>
</defs>
</svg>
