<svg width="80" height="81" viewBox="0 0 80 81" fill="none" xmlns="http://www.w3.org/2000/svg">
<mask id="mask0_3438_2736" style="mask-type:luminance" maskUnits="userSpaceOnUse" x="6" y="3" width="68" height="76">
<path d="M6.10001 3.02222H73.94V78.6914H6.10001V3.02222Z" fill="white"/>
</mask>
<g mask="url(#mask0_3438_2736)">
<path d="M71.2892 39.3989H46.0167V28.0097H71.2892V39.3989ZM66.6408 76.1447H46.0167V42.0072H66.6408V76.1447ZM36.5867 76.1447V42.0072H43.4083V76.1447H36.5867ZM13.3542 42.0072H33.9783V76.1447H13.3542V42.0072ZM8.70584 28.0097H33.9783V39.3989H8.70584V28.0097ZM16.7467 12.908C16.475 11.208 18.4367 9.2272 19.8692 7.78137C21.2108 6.4272 22.3892 5.77303 23.5775 5.72303C25.06 5.66137 26.7617 6.57303 28.64 8.43387C30.6783 10.453 33.7675 14.2455 36.0725 18.1647C37.1825 20.0522 37.96 21.7347 38.3208 23.0305C38.4717 23.573 38.5383 24.0089 38.5492 24.3447L20.2492 16.2939C18.7683 15.5297 16.9725 14.3289 16.7467 12.908ZM41.5375 23.0305C41.8975 21.7347 42.6758 20.0522 43.7858 18.1647C46.09 14.2455 49.18 10.453 51.2183 8.43387C53.0967 6.57303 54.8008 5.6622 56.2808 5.72303C57.47 5.77303 58.6483 6.4272 59.9883 7.78137C61.4208 9.2272 63.3833 11.208 63.1125 12.908C62.885 14.3289 61.09 15.5297 59.6092 16.2939L41.3092 24.3447C41.3208 24.0089 41.3867 23.573 41.5375 23.0305ZM43.4083 39.3989H36.5867V28.0097H43.4083V39.3989ZM72.5933 25.4022H45.3833L60.6958 18.6647C60.7192 18.6547 60.7425 18.6439 60.7658 18.6322C63.7508 17.1014 65.3617 15.3639 65.6875 13.3189C66.1675 10.3122 63.6675 7.78803 61.8417 5.94553C60.0342 4.12053 58.2508 3.19553 56.39 3.1172C54.125 3.02303 51.8325 4.1547 49.3825 6.58053C46.7883 9.15053 43.6358 13.2739 41.5375 16.8414C40.8933 17.9372 40.3567 18.9605 39.9292 19.9072C39.5017 18.9605 38.965 17.9372 38.3208 16.8414C36.2225 13.2739 33.0692 9.15053 30.4758 6.58053C28.0267 4.15553 25.7342 3.0222 23.4683 3.1172C21.6075 3.19553 19.8242 4.12053 18.0167 5.94553C16.1908 7.78803 13.6908 10.3122 14.1708 13.3189C14.4967 15.3639 16.1067 17.1014 19.0933 18.6322C19.1158 18.6439 19.1392 18.6547 19.1625 18.6647L34.475 25.4022H7.40167C6.68167 25.4022 6.0975 25.9855 6.0975 26.7064V40.703C6.0975 41.4239 6.68167 42.0072 7.40167 42.0072H10.7458V77.4489C10.7458 78.1689 11.33 78.753 12.05 78.753H67.945C68.665 78.753 69.2492 78.1689 69.2492 77.4489V42.0072H72.5933C73.3142 42.0072 73.8975 41.4239 73.8975 40.703V26.7064C73.8975 25.9855 73.3142 25.4022 72.5933 25.4022Z" fill="#69DDFF"/>
</g>
</svg>
