<svg width="80" height="80" viewBox="0 0 80 80" fill="none" xmlns="http://www.w3.org/2000/svg">
<mask id="mask0_3433_2481" style="mask-type:luminance" maskUnits="userSpaceOnUse" x="0" y="31" width="38" height="39">
<path d="M0.213333 31.7867H37.5467V69.28H0.213333V31.7867Z" fill="white"/>
</mask>
<g mask="url(#mask0_3433_2481)">
<path d="M18.8967 69.2025C18.5917 69.2025 18.2875 69.195 17.9825 69.18C17.6783 69.165 17.375 69.1425 17.0717 69.1125C16.7683 69.0833 16.4658 69.0458 16.1642 69.0008C15.8625 68.9558 15.5625 68.9042 15.2642 68.845C14.965 68.785 14.6675 68.7183 14.3725 68.6442C14.0767 68.57 13.7825 68.4892 13.4908 68.4008C13.2 68.3125 12.91 68.2167 12.6233 68.1142C12.3367 68.0117 12.0525 67.9017 11.7708 67.785C11.4892 67.6683 11.2108 67.545 10.935 67.415C10.66 67.2842 10.3875 67.1475 10.1192 67.0042C9.85 66.86 9.585 66.71 9.32333 66.5533C9.0625 66.3967 8.805 66.2333 8.55167 66.0642C8.29833 65.895 8.04917 65.72 7.80417 65.5383C7.55917 65.3567 7.31917 65.1692 7.08333 64.9758C6.84833 64.7825 6.6175 64.5833 6.39167 64.3792C6.16583 64.1742 5.945 63.9642 5.73 63.7483C5.51417 63.5333 5.30417 63.3125 5.09917 63.0867C4.895 62.8608 4.69583 62.63 4.5025 62.395C4.30917 62.1592 4.12167 61.9192 3.94 61.6742C3.75833 61.4292 3.58333 61.18 3.41417 60.9267C3.245 60.6733 3.08167 60.4158 2.925 60.155C2.76833 59.8933 2.61833 59.6283 2.47417 59.3592C2.33083 59.0908 2.19417 58.8183 2.06333 58.5433C1.93333 58.2675 1.81 57.9892 1.69333 57.7075C1.57667 57.4258 1.46667 57.1417 1.36417 56.855C1.26167 56.5683 1.16583 56.2783 1.0775 55.9875C0.989166 55.6958 0.908333 55.4017 0.834166 55.1058C0.76 54.8108 0.693333 54.5133 0.633333 54.2142C0.574166 53.9158 0.5225 53.6158 0.4775 53.3142C0.4325 53.0125 0.395 52.71 0.365833 52.4067C0.335833 52.1033 0.313333 51.8 0.298333 51.4958C0.283333 51.1908 0.275833 50.8867 0.275833 50.5817C0.275833 50.2767 0.283333 49.9725 0.298333 49.6683C0.313333 49.3633 0.335833 49.06 0.365833 48.7567C0.395 48.4533 0.4325 48.1508 0.4775 47.8492C0.5225 47.5483 0.574166 47.2483 0.633333 46.9492C0.693333 46.65 0.76 46.3533 0.834166 46.0575C0.908333 45.7617 0.989166 45.4683 1.0775 45.1767C1.16583 44.885 1.26167 44.5958 1.36417 44.3083C1.46667 44.0217 1.57667 43.7375 1.69333 43.4558C1.81 43.1742 1.93333 42.8958 2.06333 42.6208C2.19417 42.345 2.33083 42.0725 2.47417 41.8042C2.61833 41.535 2.76833 41.27 2.925 41.0092C3.08167 40.7475 3.245 40.49 3.41417 40.2367C3.58333 39.9833 3.75833 39.7342 3.94 39.4892C4.12167 39.245 4.30917 39.0042 4.5025 38.7692C4.69583 38.5333 4.895 38.3025 5.09917 38.0767C5.30417 37.8508 5.51417 37.6308 5.73 37.415C5.945 37.1992 6.16583 36.9892 6.39167 36.785C6.6175 36.58 6.84833 36.3808 7.08333 36.1875C7.31917 35.9942 7.55917 35.8067 7.80417 35.6258C8.04917 35.4442 8.29833 35.2683 8.55167 35.0992C8.805 34.93 9.0625 34.7667 9.32333 34.61C9.585 34.4533 9.85 34.3033 10.1192 34.16C10.3875 34.0158 10.66 33.8792 10.935 33.7492C11.2108 33.6183 11.4892 33.495 11.7708 33.3783C12.0525 33.2617 12.3367 33.1525 12.6233 33.05C12.91 32.9467 13.2 32.8517 13.4917 32.7625C13.7825 32.6742 14.0767 32.5933 14.3725 32.5192C14.6675 32.445 14.965 32.3783 15.2642 32.3192C15.5625 32.2592 15.8625 32.2075 16.1642 32.1625C16.4658 32.1183 16.7683 32.0808 17.0717 32.0508C17.375 32.0208 17.6783 31.9983 17.9825 31.9833C18.2875 31.9683 18.5917 31.9608 18.8967 31.9608C19.2017 31.9608 19.5058 31.9683 19.81 31.9833C20.115 31.9983 20.4183 32.0208 20.7217 32.0508C21.025 32.0808 21.3275 32.1183 21.6292 32.1625C21.93 32.2075 22.23 32.2592 22.5292 32.3192C22.8283 32.3783 23.125 32.445 23.4208 32.5192C23.7167 32.5933 24.01 32.6742 24.3017 32.7625C24.5933 32.8517 24.8825 32.9467 25.17 33.05C25.4567 33.1525 25.7408 33.2617 26.0225 33.3783C26.3042 33.495 26.5825 33.6183 26.8583 33.7492C27.1333 33.8792 27.4058 34.0158 27.6742 34.16C27.9433 34.3033 28.2083 34.4533 28.4692 34.61C28.7308 34.7667 28.9883 34.93 29.2417 35.0992C29.495 35.2683 29.7442 35.4442 29.9892 35.6258C30.2333 35.8067 30.4742 35.9942 30.7092 36.1875C30.945 36.3808 31.1758 36.58 31.4017 36.785C31.6275 36.9892 31.8475 37.1992 32.0633 37.415C32.2792 37.6308 32.4892 37.8508 32.6933 38.0767C32.8983 38.3025 33.0975 38.5333 33.2908 38.7692C33.4842 39.0042 33.6717 39.245 33.8525 39.4892C34.0342 39.7342 34.21 39.9833 34.3792 40.2367C34.5483 40.49 34.7117 40.7475 34.8683 41.0092C35.025 41.27 35.175 41.535 35.3183 41.8042C35.4625 42.0725 35.5992 42.345 35.7292 42.6208C35.86 42.8958 35.9833 43.1742 36.1 43.4558C36.2167 43.7375 36.3258 44.0217 36.4283 44.3083C36.5317 44.5958 36.6267 44.885 36.7158 45.1767C36.8042 45.4683 36.885 45.7617 36.9592 46.0575C37.0333 46.3533 37.1 46.65 37.1592 46.9492C37.2192 47.2483 37.2708 47.5483 37.3158 47.8492C37.36 48.1508 37.3975 48.4533 37.4275 48.7567C37.4575 49.06 37.48 49.3633 37.495 49.6683C37.51 49.9725 37.5175 50.2767 37.5175 50.5817C37.5167 50.8867 37.5092 51.1908 37.4942 51.495C37.4783 51.7992 37.4558 52.1033 37.4258 52.4067C37.3958 52.7092 37.3583 53.0117 37.3133 53.3133C37.2683 53.6142 37.2158 53.9142 37.1558 54.2133C37.0967 54.5117 37.0292 54.8092 36.955 55.1042C36.8808 55.4 36.7992 55.6933 36.7108 55.985C36.6225 56.2767 36.5267 56.565 36.4233 56.8525C36.3208 57.1392 36.2108 57.4233 36.0942 57.7042C35.9775 57.9858 35.8542 58.2642 35.7233 58.5392C35.5933 58.815 35.4567 59.0867 35.3125 59.3558C35.1692 59.6242 35.0183 59.8892 34.8617 60.15C34.705 60.4117 34.5425 60.6692 34.3725 60.9217C34.2033 61.175 34.0283 61.4242 33.8467 61.6692C33.665 61.9133 33.4775 62.1533 33.2842 62.3892C33.0908 62.625 32.8917 62.855 32.6875 63.0808C32.4825 63.3067 32.2725 63.5275 32.0575 63.7425C31.8417 63.9583 31.6217 64.1683 31.3958 64.3725C31.17 64.5775 30.9392 64.7758 30.7042 64.9692C30.4683 65.1625 30.2283 65.35 29.9833 65.5317C29.7392 65.7133 29.49 65.8883 29.2367 66.0583C28.9833 66.2275 28.7267 66.39 28.465 66.5475C28.2042 66.7042 27.9392 66.8542 27.67 66.9975C27.4017 67.1417 27.13 67.2783 26.8542 67.4092C26.5792 67.5392 26.3008 67.6625 26.0192 67.78C25.7375 67.8967 25.4533 68.0058 25.1667 68.1092C24.88 68.2117 24.5908 68.3075 24.3 68.3958C24.0083 68.485 23.715 68.5658 23.4192 68.6408C23.1233 68.715 22.8267 68.7817 22.5275 68.8417C22.2292 68.9008 21.9292 68.9533 21.6275 68.9983C21.3267 69.0433 21.0242 69.0808 20.7208 69.1108C20.4175 69.1408 20.1142 69.1642 19.81 69.1792C19.5058 69.1942 19.2008 69.2025 18.8967 69.2025ZM18.8967 34.4442C18.6325 34.4442 18.3683 34.45 18.105 34.4633C17.8408 34.4767 17.5775 34.4958 17.315 34.5217C17.0517 34.5475 16.79 34.58 16.5283 34.6183C16.2675 34.6575 16.0075 34.7025 15.7483 34.7542C15.4892 34.8058 15.2317 34.8633 14.975 34.9275C14.7192 34.9917 14.465 35.0617 14.2117 35.1392C13.9592 35.2158 13.7083 35.2983 13.46 35.3875C13.2108 35.4758 12.965 35.5708 12.7208 35.6725C12.4767 35.7733 12.2358 35.88 11.9967 35.9933C11.7583 36.1058 11.5225 36.225 11.2892 36.3492C11.0567 36.4742 10.8267 36.6042 10.6 36.74C10.3733 36.8758 10.15 37.0167 9.93083 37.1633C9.71083 37.31 9.495 37.4625 9.28333 37.62C9.07083 37.7767 8.8625 37.9392 8.65917 38.1067C8.455 38.2742 8.255 38.4467 8.05917 38.6242C7.86333 38.8017 7.67167 38.9842 7.485 39.1708C7.29833 39.3575 7.11667 39.5483 6.93917 39.7442C6.76167 39.94 6.58917 40.14 6.42167 40.3442C6.25417 40.5483 6.09167 40.7567 5.93417 40.9683C5.7775 41.1808 5.625 41.3967 5.47833 41.6158C5.33167 41.8358 5.19 42.0583 5.055 42.285C4.91917 42.5117 4.78833 42.7417 4.66417 42.9742C4.54 43.2075 4.42083 43.4433 4.30833 43.6817C4.195 43.9208 4.08833 44.1617 3.98667 44.4058C3.88583 44.65 3.79083 44.8967 3.70167 45.145C3.61333 45.3933 3.53 45.6442 3.45333 45.8975C3.37667 46.15 3.30667 46.4042 3.2425 46.6608C3.17833 46.9167 3.12 47.1742 3.06833 47.4333C3.0175 47.6925 2.97167 47.9525 2.93333 48.2142C2.89417 48.475 2.8625 48.7375 2.83667 49C2.81083 49.2625 2.79083 49.5258 2.77833 49.79C2.765 50.0533 2.75833 50.3175 2.75833 50.5817C2.75833 50.8458 2.765 51.11 2.77833 51.3733C2.79083 51.6375 2.81083 51.9008 2.83667 52.1633C2.8625 52.4267 2.89417 52.6883 2.93333 52.95C2.97167 53.2108 3.0175 53.4708 3.06833 53.73C3.12 53.9892 3.17833 54.2467 3.2425 54.5033C3.30667 54.7592 3.37667 55.0133 3.45333 55.2667C3.53 55.5192 3.61333 55.77 3.70167 56.0183C3.79083 56.2675 3.88583 56.5133 3.98667 56.7575C4.08833 57.0017 4.195 57.2425 4.30833 57.4817C4.42083 57.72 4.54 57.9558 4.66417 58.1892C4.78833 58.4217 4.91917 58.6517 5.055 58.8783C5.19 59.105 5.33167 59.3283 5.47833 59.5475C5.625 59.7675 5.7775 59.9833 5.93417 60.195C6.09167 60.4075 6.25417 60.615 6.42167 60.8192C6.58917 61.0233 6.76167 61.2233 6.93917 61.4192C7.11667 61.615 7.29833 61.8067 7.485 61.9933C7.67167 62.18 7.86333 62.3617 8.05917 62.5392C8.255 62.7167 8.455 62.8892 8.65917 63.0567C8.8625 63.2242 9.07083 63.3867 9.28333 63.5442C9.495 63.7008 9.71083 63.8533 9.93083 64C10.15 64.1467 10.3733 64.2883 10.6 64.4233C10.8267 64.5592 11.0567 64.69 11.2892 64.8142C11.5225 64.9383 11.7583 65.0575 11.9967 65.17C12.2358 65.2833 12.4767 65.39 12.7208 65.4917C12.965 65.5925 13.2108 65.6875 13.46 65.7767C13.7083 65.865 13.9592 65.9483 14.2117 66.025C14.465 66.1017 14.7192 66.1717 14.975 66.2358C15.2317 66.3 15.4892 66.3583 15.7483 66.41C16.0075 66.4608 16.2675 66.5067 16.5283 66.545C16.79 66.5842 17.0517 66.6158 17.315 66.6417C17.5775 66.6675 17.8408 66.6875 18.105 66.7C18.3683 66.7133 18.6325 66.72 18.8967 66.72C19.1608 66.72 19.425 66.7133 19.6883 66.7C19.9525 66.6875 20.2158 66.6675 20.4783 66.6417C20.7408 66.6158 21.0033 66.5842 21.2642 66.545C21.5258 66.5067 21.7858 66.4608 22.045 66.41C22.3042 66.3583 22.5617 66.3 22.8175 66.2358C23.0742 66.1717 23.3283 66.1017 23.5808 66.025C23.8342 65.9483 24.0842 65.865 24.3333 65.7767C24.5817 65.6875 24.8283 65.5925 25.0725 65.4917C25.3167 65.39 25.5575 65.2833 25.7967 65.17C26.035 65.0575 26.2708 64.9383 26.5042 64.8142C26.7367 64.69 26.9667 64.5592 27.1933 64.4233C27.42 64.2883 27.6425 64.1467 27.8625 64C28.0817 63.8533 28.2975 63.7008 28.51 63.5442C28.7217 63.3867 28.93 63.2242 29.1342 63.0567C29.3383 62.8892 29.5383 62.7167 29.7342 62.5392C29.93 62.3617 30.1208 62.18 30.3075 61.9933C30.4942 61.8067 30.6767 61.615 30.8542 61.4192C31.0317 61.2233 31.2042 61.0233 31.3717 60.8192C31.5392 60.6158 31.7017 60.4075 31.8583 60.195C32.0158 59.9833 32.1683 59.7675 32.315 59.5475C32.4617 59.3283 32.6025 59.105 32.7383 58.8783C32.8742 58.6517 33.0042 58.4217 33.1292 58.1892C33.2533 57.9558 33.3725 57.72 33.485 57.4817C33.5983 57.2425 33.705 57.0017 33.8058 56.7575C33.9075 56.5133 34.0025 56.2675 34.0908 56.0183C34.18 55.77 34.2633 55.5192 34.34 55.2667C34.4167 55.0133 34.4867 54.7592 34.5508 54.5033C34.615 54.2467 34.6725 53.9892 34.7242 53.73C34.7758 53.4708 34.8208 53.2108 34.86 52.95C34.8983 52.6883 34.9308 52.4267 34.9567 52.1633C34.9825 51.9008 35.0017 51.6375 35.015 51.3733C35.0283 51.11 35.0342 50.8458 35.0342 50.5817C35.0342 50.3175 35.0275 50.0542 35.0142 49.79C35.0008 49.5267 34.9808 49.2633 34.955 49.0008C34.9292 48.7375 34.8967 48.4758 34.8575 48.215C34.8183 47.9533 34.7733 47.6933 34.7217 47.435C34.6692 47.1758 34.6117 46.9183 34.5475 46.6625C34.4825 46.4058 34.4125 46.1517 34.335 45.8992C34.2583 45.6467 34.1758 45.3958 34.0867 45.1475C33.9975 44.8992 33.9025 44.6525 33.8008 44.4092C33.7 44.165 33.5925 43.9242 33.48 43.685C33.3667 43.4467 33.2483 43.2108 33.1233 42.9783C32.9992 42.745 32.8683 42.5158 32.7325 42.2892C32.5967 42.0625 32.4558 41.84 32.3092 41.6208C32.1625 41.4008 32.01 41.185 31.8525 40.9733C31.6958 40.7608 31.5333 40.5533 31.3658 40.3492C31.1983 40.145 31.0258 39.945 30.8483 39.7492C30.6708 39.5542 30.4892 39.3625 30.3025 39.1758C30.1158 38.9892 29.9242 38.8075 29.7292 38.63C29.5333 38.4525 29.3333 38.28 29.1292 38.1125C28.925 37.945 28.7175 37.7825 28.505 37.6258C28.2933 37.4683 28.0775 37.3158 27.8575 37.1692C27.6383 37.0225 27.4158 36.8817 27.1892 36.7458C26.9625 36.61 26.7333 36.4792 26.5 36.355C26.2675 36.23 26.0317 36.1117 25.7933 35.9983C25.5542 35.8858 25.3133 35.7783 25.0692 35.6775C24.8258 35.5758 24.5792 35.4808 24.3308 35.3917C24.0825 35.3025 23.8317 35.22 23.5792 35.1433C23.3267 35.0658 23.0725 34.9958 22.8158 34.9308C22.56 34.8667 22.3025 34.8092 22.0433 34.7567C21.785 34.705 21.525 34.66 21.2633 34.6208C21.0025 34.5817 20.7408 34.5492 20.4775 34.5233C20.215 34.4975 19.9517 34.4775 19.6883 34.4642C19.4242 34.4508 19.1608 34.4442 18.8967 34.4442Z" fill="#69DDFF"/>
</g>
<path d="M18.8967 62.9958C18.49 62.9958 18.0842 62.9758 17.68 62.9358C17.275 62.8958 16.8733 62.8367 16.475 62.7567C16.0758 62.6775 15.6817 62.5792 15.2933 62.4608C14.9042 62.3433 14.5217 62.2058 14.1458 62.0508C13.77 61.895 13.4033 61.7217 13.045 61.53C12.6858 61.3383 12.3375 61.1292 12 60.9033C11.6617 60.6775 11.3358 60.4358 11.0217 60.1775C10.7067 59.92 10.4058 59.6475 10.1183 59.36C9.83083 59.0725 9.55833 58.7717 9.30083 58.4567C9.0425 58.1425 8.80083 57.8167 8.575 57.4783C8.34916 57.1408 8.14 56.7925 7.94833 56.4333C7.75666 56.075 7.58333 55.7083 7.4275 55.3325C7.2725 54.9567 7.135 54.5742 7.0175 54.185C6.89916 53.7967 6.80083 53.4025 6.72166 53.0033C6.64166 52.605 6.5825 52.2033 6.5425 51.7983C6.5025 51.3942 6.4825 50.9883 6.4825 50.5817C6.4825 50.175 6.5025 49.77 6.5425 49.365C6.5825 48.96 6.64166 48.5583 6.72166 48.16C6.80083 47.7608 6.89916 47.3675 7.0175 46.9783C7.135 46.5892 7.2725 46.2067 7.4275 45.8308C7.58333 45.4558 7.75666 45.0883 7.94833 44.73C8.14 44.3717 8.34916 44.0233 8.575 43.685C8.80083 43.3467 9.0425 43.0208 9.30083 42.7067C9.55833 42.3925 9.83083 42.0917 10.1183 41.8042C10.4058 41.5167 10.7067 41.2433 11.0217 40.9858C11.3358 40.7275 11.6617 40.4858 12 40.26C12.3375 40.0342 12.6858 39.8258 13.045 39.6342C13.4033 39.4425 13.77 39.2683 14.1458 39.1133C14.5217 38.9575 14.9042 38.8208 15.2933 38.7025C15.6817 38.5842 16.0758 38.4858 16.475 38.4067C16.8733 38.3275 17.275 38.2675 17.68 38.2275C18.0842 38.1883 18.49 38.1683 18.8967 38.1683C19.3033 38.1683 19.7083 38.1883 20.1133 38.2275C20.5183 38.2675 20.92 38.3275 21.3183 38.4067C21.7175 38.4858 22.1108 38.5842 22.5 38.7025C22.8892 38.8208 23.2717 38.9575 23.6475 39.1133C24.0225 39.2683 24.39 39.4425 24.7483 39.6342C25.1067 39.8258 25.455 40.0342 25.7933 40.26C26.1317 40.4858 26.4575 40.7275 26.7717 40.9858C27.0858 41.2433 27.3867 41.5167 27.6742 41.8042C27.9617 42.0917 28.235 42.3925 28.4925 42.7067C28.7508 43.0208 28.9925 43.3467 29.2183 43.685C29.4442 44.0233 29.6525 44.3717 29.8442 44.73C30.0358 45.0883 30.21 45.4558 30.365 45.8308C30.5208 46.2067 30.6575 46.5892 30.7758 46.9783C30.8942 47.3675 30.9925 47.7608 31.0717 48.16C31.1508 48.5583 31.2108 48.96 31.2508 49.365C31.29 49.77 31.31 50.175 31.31 50.5817C31.31 50.9883 31.2892 51.3933 31.2492 51.7983C31.2092 52.2025 31.1492 52.6042 31.0692 53.0025C30.99 53.4008 30.8908 53.795 30.7725 54.1833C30.6542 54.5725 30.5175 54.955 30.3617 55.33C30.2058 55.7058 30.0317 56.0725 29.84 56.4308C29.6483 56.7892 29.44 57.1375 29.2142 57.475C28.9875 57.8133 28.7458 58.1392 28.4883 58.4533C28.23 58.7675 27.9575 59.0683 27.67 59.355C27.3825 59.6425 27.0817 59.915 26.7675 60.1733C26.4533 60.4308 26.1275 60.6733 25.79 60.8992C25.4517 61.125 25.1042 61.3333 24.7458 61.5258C24.3875 61.7175 24.02 61.8908 23.645 62.0467C23.2692 62.2025 22.8875 62.3392 22.4983 62.4575C22.11 62.5758 21.7158 62.675 21.3175 62.755C20.9192 62.8342 20.5175 62.8942 20.1125 62.9342C19.7083 62.975 19.3033 62.995 18.8967 62.9958ZM18.8967 40.6508C18.5717 40.6508 18.2467 40.6667 17.9233 40.6983C17.5992 40.7308 17.2783 40.7783 16.9592 40.8417C16.64 40.905 16.325 40.9842 16.0133 41.0783C15.7025 41.1725 15.3967 41.2825 15.0958 41.4067C14.7958 41.5308 14.5017 41.67 14.215 41.8233C13.9283 41.9767 13.65 42.1433 13.3792 42.3242C13.1083 42.505 12.8475 42.6983 12.5967 42.905C12.345 43.1117 12.1042 43.3292 11.8742 43.5592C11.6442 43.7892 11.4258 44.03 11.22 44.2817C11.0133 44.5333 10.82 44.7942 10.6392 45.0642C10.4583 45.335 10.2917 45.6133 10.1383 45.9C9.985 46.1875 9.84583 46.4808 9.72166 46.7817C9.59666 47.0817 9.4875 47.3875 9.39333 47.6992C9.29833 48.01 9.22 48.325 9.15666 48.6442C9.0925 48.9633 9.045 49.285 9.01333 49.6083C8.98166 49.9317 8.96583 50.2567 8.96583 50.5817C8.96583 50.9067 8.98166 51.2317 9.01333 51.555C9.045 51.8792 9.0925 52.2 9.15666 52.5192C9.22 52.8383 9.29833 53.1533 9.39333 53.465C9.4875 53.7758 9.59666 54.0817 9.72166 54.3825C9.84583 54.6825 9.985 54.9767 10.1383 55.2633C10.2917 55.55 10.4583 55.8283 10.6392 56.0992C10.82 56.37 11.0133 56.6308 11.22 56.8817C11.4258 57.1333 11.6442 57.3742 11.8742 57.6042C12.1042 57.8342 12.345 58.0525 12.5967 58.2583C12.8475 58.465 13.1083 58.6583 13.3792 58.8392C13.65 59.02 13.9283 59.1867 14.215 59.34C14.5017 59.4933 14.7958 59.6325 15.0958 59.7567C15.3967 59.8817 15.7025 59.9908 16.0133 60.085C16.325 60.18 16.64 60.2583 16.9592 60.3217C17.2783 60.3858 17.5992 60.4333 17.9233 60.465C18.2467 60.4967 18.5717 60.5125 18.8967 60.5125C19.2217 60.5125 19.5467 60.4967 19.87 60.465C20.1933 60.4333 20.515 60.3858 20.8342 60.3217C21.1533 60.2583 21.4683 60.18 21.7792 60.085C22.0908 59.9908 22.3967 59.8817 22.6967 59.7567C22.9975 59.6325 23.2908 59.4933 23.5783 59.34C23.865 59.1867 24.1433 59.02 24.4142 58.8392C24.6842 58.6583 24.945 58.465 25.1967 58.2583C25.4483 58.0525 25.6892 57.8342 25.9192 57.6042C26.1492 57.3742 26.3667 57.1333 26.5733 56.8817C26.78 56.6308 26.9733 56.37 27.1542 56.0992C27.335 55.8283 27.5017 55.55 27.655 55.2633C27.8083 54.9767 27.9475 54.6825 28.0717 54.3825C28.1958 54.0817 28.3058 53.7758 28.4 53.465C28.4942 53.1533 28.5733 52.8383 28.6367 52.5192C28.7 52.2 28.7475 51.8792 28.78 51.555C28.8117 51.2317 28.8275 50.9067 28.8275 50.5817C28.8275 50.2567 28.8108 49.9325 28.7783 49.6083C28.7467 49.285 28.6983 48.9642 28.635 48.645C28.5708 48.3267 28.4917 48.0117 28.3975 47.7C28.3025 47.3892 28.1933 47.0833 28.0683 46.7833C27.9442 46.4825 27.805 46.1892 27.6517 45.9025C27.4983 45.6158 27.3308 45.3375 27.15 45.0667C26.97 44.7967 26.7758 44.5358 26.57 44.285C26.3633 44.0333 26.1458 43.7925 25.9158 43.5625C25.6858 43.3325 25.445 43.115 25.1933 42.9083C24.9425 42.7025 24.6817 42.5083 24.4117 42.3283C24.1408 42.1475 23.8625 41.98 23.5758 41.8267C23.2892 41.6733 22.9958 41.5342 22.695 41.41C22.395 41.285 22.0892 41.1758 21.7783 41.0808C21.4667 40.9867 21.1517 40.9075 20.8333 40.8433C20.5142 40.78 20.1933 40.7317 19.87 40.7C19.5458 40.6675 19.2217 40.6508 18.8967 40.6508Z" fill="#69DDFF"/>
<path d="M36.2758 26.9908C36.1942 26.9908 36.1133 26.9825 36.0333 26.9667C35.9533 26.9508 35.8758 26.9275 35.8008 26.8967C35.725 26.865 35.6542 26.8267 35.5858 26.7817C35.5183 26.7367 35.4558 26.685 35.3975 26.6275C35.34 26.57 35.2883 26.5067 35.2433 26.4392C35.1983 26.3717 35.16 26.3 35.1292 26.2242C35.0975 26.1492 35.0742 26.0717 35.0583 25.9917C35.0425 25.9117 35.0342 25.8308 35.0342 25.7492C35.0342 25.4725 35.0225 25.1958 35 24.9192C34.9767 24.6433 34.9417 24.3683 34.8958 24.095C34.8492 23.8217 34.7917 23.5508 34.7225 23.2825C34.6542 23.0142 34.5742 22.7492 34.4833 22.4875C34.3917 22.2258 34.29 21.9683 34.1775 21.715C34.065 21.4617 33.9417 21.2133 33.8083 20.9708C33.675 20.7275 33.5317 20.4908 33.3783 20.26C33.225 20.0292 33.0625 19.805 32.8908 19.5875C32.7192 19.37 32.5383 19.1608 32.3483 18.9583C32.1592 18.7558 31.9617 18.5625 31.7558 18.3767C31.55 18.1908 31.3367 18.0142 31.1158 17.8467C30.8958 17.6783 30.6683 17.52 30.435 17.3717C30.2008 17.2225 29.9608 17.0842 29.7158 16.955C29.47 16.8267 29.22 16.7083 28.965 16.6C28.7092 16.4925 28.45 16.3958 28.1867 16.3092C27.9233 16.2233 27.6567 16.1483 27.3867 16.085C27.1175 16.0208 26.845 15.9683 26.5708 15.9275C26.2975 15.8867 26.0217 15.8575 25.745 15.8392C25.4683 15.8208 25.1917 15.815 24.915 15.82C24.6375 15.825 24.3617 15.8417 24.0858 15.87C23.81 15.8983 23.5358 15.9383 23.2633 15.99C22.9908 16.0408 22.7217 16.1033 22.4542 16.1775C22.1875 16.2517 21.9233 16.3367 21.6633 16.4325C21.4033 16.5283 21.1483 16.635 20.8967 16.7517C20.6458 16.8692 20.4 16.9967 20.16 17.135C19.9192 17.2725 19.685 17.42 19.4575 17.5775C19.2292 17.735 19.0083 17.9017 18.7942 18.0783C18.58 18.2542 18.3733 18.4383 18.175 18.6317C17.9767 18.825 17.7858 19.0267 17.6042 19.2358C17.4225 19.445 17.25 19.6608 17.0858 19.885C16.9225 20.1083 16.7683 20.3383 16.6242 20.575C16.4792 20.8117 16.345 21.0533 16.2208 21.3017C16.1842 21.3742 16.1408 21.4425 16.0908 21.5067C16.0408 21.5717 15.985 21.63 15.9233 21.6833C15.8617 21.7367 15.7958 21.7833 15.725 21.8233C15.6542 21.8642 15.58 21.8967 15.5025 21.9225C15.425 21.9483 15.3467 21.9658 15.2658 21.9758C15.185 21.9858 15.1033 21.9883 15.0225 21.9825C14.9408 21.9767 14.8608 21.9625 14.7825 21.9408C14.7042 21.9192 14.6283 21.89 14.5558 21.8542C14.4825 21.8175 14.4142 21.7742 14.35 21.7242C14.2858 21.6742 14.2267 21.6183 14.1733 21.5567C14.12 21.495 14.0733 21.4283 14.0333 21.3575C13.9925 21.2875 13.96 21.2133 13.9342 21.1358C13.9083 21.0583 13.8908 20.9792 13.8808 20.8983C13.8708 20.8175 13.8683 20.7367 13.8742 20.655C13.88 20.5742 13.8942 20.4942 13.915 20.4158C13.9367 20.3367 13.9658 20.2617 14.0025 20.1883C14.1575 19.8792 14.3258 19.5758 14.5058 19.2808C14.6867 18.985 14.8792 18.6975 15.0842 18.4175C15.2883 18.1383 15.5042 17.8675 15.7317 17.6067C15.9592 17.345 16.1967 17.0933 16.445 16.8517C16.6933 16.61 16.9508 16.38 17.2183 16.16C17.4867 15.94 17.7625 15.7317 18.0475 15.5342C18.3325 15.3375 18.6258 15.1533 18.9258 14.9808C19.2267 14.8083 19.5333 14.6492 19.8475 14.5025C20.1617 14.3558 20.4808 14.2225 20.8058 14.1025C21.1308 13.9825 21.46 13.8767 21.7942 13.7842C22.1275 13.6917 22.465 13.6142 22.8058 13.55C23.1458 13.4858 23.4883 13.4358 23.8333 13.4008C24.1775 13.365 24.5233 13.3442 24.8692 13.3375C25.2158 13.3308 25.5617 13.3392 25.9075 13.3617C26.2533 13.3842 26.5975 13.4208 26.94 13.4725C27.2825 13.5233 27.6225 13.5892 27.9592 13.6692C28.2967 13.7483 28.6292 13.8425 28.9583 13.95C29.2883 14.0575 29.6125 14.1783 29.9317 14.3133C30.2508 14.4483 30.5633 14.5958 30.87 14.7567C31.1767 14.9175 31.4767 15.0908 31.7683 15.2775C32.0608 15.4633 32.345 15.6608 32.62 15.8708C32.8958 16.0808 33.1625 16.3017 33.42 16.5333C33.6767 16.7658 33.9242 17.0083 34.1608 17.2608C34.3975 17.5133 34.6233 17.7758 34.8383 18.0475C35.0533 18.3192 35.2567 18.5992 35.4483 18.8875C35.6392 19.1767 35.8183 19.4725 35.985 19.7767C36.1517 20.08 36.3058 20.39 36.4467 20.7067C36.5875 21.0233 36.7142 21.345 36.8283 21.6725C36.9417 21.9992 37.0417 22.3308 37.1283 22.6658C37.2142 23.0017 37.2858 23.34 37.3433 23.6817C37.4017 24.0233 37.445 24.3667 37.4733 24.7117C37.5025 25.0575 37.5175 25.4025 37.5175 25.7492C37.5175 25.8308 37.5092 25.9117 37.4933 25.9917C37.4775 26.0717 37.4542 26.1492 37.4233 26.2242C37.3917 26.3 37.3533 26.3717 37.3083 26.4392C37.2633 26.5067 37.2117 26.57 37.1542 26.6275C37.0958 26.685 37.0333 26.7367 36.9658 26.7817C36.8975 26.8267 36.8267 26.865 36.7508 26.8967C36.6758 26.9275 36.5983 26.9508 36.5183 26.9667C36.4383 26.9825 36.3575 26.9908 36.2758 26.9908Z" fill="#69DDFF"/>
<path d="M36.2758 51.8233C36.1942 51.8233 36.1133 51.815 36.0333 51.7992C35.9533 51.7833 35.8758 51.76 35.8008 51.7292C35.725 51.6975 35.6542 51.6592 35.5858 51.6142C35.5183 51.5692 35.4558 51.5175 35.3975 51.46C35.34 51.4025 35.2883 51.3392 35.2433 51.2717C35.1983 51.2042 35.16 51.1325 35.1292 51.0567C35.0975 50.9817 35.0742 50.9042 35.0583 50.8242C35.0425 50.7442 35.0342 50.6633 35.0342 50.5817V15.8183C35.0342 15.7367 35.0425 15.6558 35.0583 15.5758C35.0742 15.4958 35.0975 15.4183 35.1292 15.3433C35.16 15.2675 35.1983 15.1967 35.2433 15.1283C35.2892 15.0608 35.3408 14.9983 35.3983 14.9408C35.4558 14.8825 35.5183 14.8317 35.5858 14.7858C35.6542 14.7408 35.7258 14.7025 35.8008 14.6717C35.8758 14.64 35.9533 14.6167 36.0333 14.6008C36.1133 14.585 36.1942 14.5767 36.2758 14.5767C36.3575 14.5767 36.4383 14.585 36.5183 14.6008C36.5983 14.6167 36.6758 14.64 36.7508 14.6717C36.8258 14.7025 36.8975 14.7408 36.9658 14.7858C37.0333 14.8317 37.0958 14.8825 37.1533 14.9408C37.2117 14.9983 37.2625 15.0608 37.3083 15.1283C37.3533 15.1967 37.3917 15.2675 37.4225 15.3433C37.4542 15.4183 37.4775 15.4958 37.4933 15.5758C37.5092 15.6558 37.5175 15.7367 37.5175 15.8183V50.5817C37.5175 50.6633 37.5092 50.7442 37.4933 50.8242C37.4775 50.9042 37.4542 50.9817 37.4233 51.0567C37.3917 51.1325 37.3533 51.2042 37.3083 51.2717C37.2633 51.3392 37.2117 51.4025 37.1542 51.46C37.0958 51.5175 37.0333 51.5692 36.9658 51.6142C36.8975 51.6592 36.8267 51.6975 36.7508 51.7292C36.6758 51.76 36.5983 51.7833 36.5183 51.7992C36.4383 51.815 36.3575 51.8233 36.2758 51.8233Z" fill="#69DDFF"/>
<path d="M3.19001 44.37C3.13667 44.37 3.08417 44.3667 3.03084 44.3592C2.97834 44.3525 2.92584 44.3425 2.87417 44.3292C2.82251 44.315 2.77251 44.2983 2.72251 44.2783C2.67334 44.2583 2.62584 44.235 2.57917 44.2083C2.53251 44.1825 2.48834 44.1533 2.44584 44.1208C2.40334 44.0892 2.36251 44.0542 2.32417 44.0175C2.28667 43.98 2.25084 43.9408 2.21751 43.8983C2.18501 43.8567 2.15417 43.8133 2.12667 43.7675C2.09917 43.7217 2.075 43.6742 2.05417 43.625C2.03251 43.5767 2.01417 43.5267 1.99917 43.475C1.98417 43.4242 1.97334 43.3725 1.96501 43.3192C1.95667 43.2667 1.95167 43.2142 1.95084 43.1608C1.94917 43.1075 1.95084 43.0542 1.95667 43.0008C1.96167 42.9483 1.97084 42.8958 1.98334 42.8433C1.99584 42.7917 2.01084 42.7408 2.03001 42.6908C2.04834 42.6409 2.07084 42.5925 2.09584 42.5458L14.0158 20.1617C14.0542 20.09 14.0992 20.0217 14.1508 19.9584C14.2017 19.895 14.2592 19.8375 14.3225 19.7859C14.385 19.7334 14.4525 19.6884 14.5242 19.65C14.5958 19.6109 14.6708 19.58 14.7492 19.5559C14.8275 19.5317 14.9067 19.5159 14.9883 19.5075C15.0692 19.4992 15.1508 19.4992 15.2317 19.5067C15.3133 19.515 15.3925 19.53 15.4708 19.5542C15.5492 19.5775 15.6242 19.6084 15.6958 19.6467C15.7683 19.685 15.8358 19.73 15.8992 19.7817C15.9625 19.8334 16.02 19.8909 16.0717 19.9534C16.1233 20.0167 16.1683 20.0842 16.2075 20.1559C16.2458 20.2284 16.2767 20.3034 16.3008 20.3809C16.3242 20.4592 16.3408 20.5392 16.3483 20.62C16.3567 20.7017 16.3567 20.7825 16.3483 20.8642C16.3408 20.945 16.325 21.025 16.3008 21.1034C16.2775 21.1809 16.2458 21.2559 16.2075 21.3284L4.28751 43.7117C4.23417 43.8108 4.16917 43.9017 4.09167 43.9833C4.01417 44.065 3.92667 44.135 3.83001 44.1933C3.73334 44.2508 3.63084 44.295 3.52251 44.325C3.41334 44.355 3.30251 44.37 3.19001 44.37Z" fill="#69DDFF"/>
<path d="M36.2758 17.06C36.1942 17.06 36.1133 17.0517 36.0333 17.0358C35.9533 17.02 35.8758 16.9967 35.8008 16.965C35.725 16.9342 35.6542 16.8958 35.5858 16.8508C35.5183 16.805 35.4558 16.7542 35.3975 16.6967C35.34 16.6383 35.2892 16.5758 35.2433 16.5083C35.1983 16.44 35.16 16.3692 35.1292 16.2933C35.0975 16.2183 35.0742 16.1408 35.0583 16.0608C35.0425 15.9808 35.0342 15.9 35.0342 15.8183C35.0342 15.6658 35.0275 15.5133 35.0133 15.3617C34.9992 15.2092 34.9783 15.0583 34.95 14.9083C34.9225 14.7583 34.8875 14.61 34.8458 14.4625C34.8042 14.3158 34.7558 14.1717 34.7008 14.0292C34.6458 13.8867 34.5842 13.7467 34.5158 13.61C34.4483 13.4733 34.3742 13.34 34.2942 13.21C34.2142 13.0808 34.1275 12.9542 34.0358 12.8325C33.9442 12.7108 33.8467 12.5933 33.7442 12.48C33.6417 12.3675 33.5342 12.2592 33.4217 12.1558C33.3092 12.0533 33.1917 11.955 33.07 11.8633C32.9483 11.7708 32.8233 11.6842 32.6933 11.6033C32.5642 11.5225 32.4308 11.4483 32.2942 11.38C32.1575 11.3117 32.0183 11.2492 31.8767 11.1942C31.7342 11.1383 31.59 11.0892 31.4433 11.0467C31.2967 11.005 31.1483 10.9692 30.9983 10.9408C30.8483 10.9125 30.6975 10.8908 30.545 10.8758C30.3933 10.8608 30.2408 10.8533 30.0883 10.8525C29.9358 10.8525 29.7833 10.8583 29.6317 10.8717C29.4792 10.8858 29.3283 10.9058 29.1775 10.9333C29.0275 10.9608 28.8792 10.995 28.7317 11.0358C28.585 11.0767 28.44 11.1242 28.2975 11.1792C28.155 11.2333 28.015 11.2942 27.8783 11.3617C27.7408 11.4292 27.6075 11.5025 27.4775 11.5817C27.3467 11.6617 27.2208 11.7467 27.0983 11.8383C26.9758 11.9292 26.8583 12.0267 26.745 12.1283C26.6308 12.2308 26.5225 12.3375 26.4192 12.45C26.3158 12.5617 26.2175 12.6783 26.1242 12.8C26.0317 12.9208 25.945 13.0467 25.8633 13.1758C25.7825 13.305 25.7067 13.4375 25.6383 13.5733C25.5692 13.71 25.5067 13.8492 25.45 13.9908C25.3942 14.1325 25.3442 14.2767 25.3017 14.4233C25.2583 14.57 25.2225 14.7183 25.1933 14.8675C25.1775 14.9475 25.155 15.0258 25.1242 15.1008C25.0933 15.1767 25.055 15.2483 25.0108 15.3158C24.9658 15.3842 24.9142 15.4475 24.8575 15.505C24.8 15.5633 24.7375 15.615 24.67 15.6608C24.6025 15.7058 24.5308 15.745 24.4558 15.7767C24.3808 15.8083 24.3033 15.8317 24.2242 15.8483C24.1442 15.865 24.0633 15.8733 23.9817 15.8733C23.9 15.8742 23.82 15.8667 23.74 15.8508C23.66 15.8358 23.5817 15.8125 23.5067 15.7817C23.4308 15.7508 23.3592 15.7133 23.2917 15.6683C23.2233 15.6233 23.16 15.5725 23.1025 15.515C23.0442 15.4575 22.9925 15.395 22.9467 15.3275C22.9017 15.26 22.8625 15.1892 22.8308 15.1142C22.7992 15.0392 22.7758 14.9617 22.7592 14.8817C22.7425 14.8017 22.7342 14.7208 22.7342 14.64C22.7333 14.5583 22.7408 14.4775 22.7567 14.3975C22.8 14.1725 22.8542 13.95 22.9183 13.7308C22.9825 13.5108 23.0567 13.2942 23.1408 13.0817C23.225 12.8683 23.3192 12.66 23.4225 12.455C23.5258 12.2508 23.6383 12.0517 23.76 11.8575C23.8817 11.6642 24.0125 11.4758 24.1517 11.2942C24.2908 11.1117 24.4375 10.9367 24.5933 10.7683C24.7483 10.6 24.9108 10.4392 25.0808 10.2858C25.2508 10.1325 25.4283 9.98751 25.6117 9.85085C25.795 9.71335 25.9842 9.58501 26.18 9.46585C26.375 9.34585 26.5758 9.23585 26.7808 9.13501C26.9867 9.03335 27.1967 8.94251 27.41 8.86085C27.6242 8.77835 27.8417 8.70668 28.0617 8.64501C28.2825 8.58335 28.5058 8.53251 28.7308 8.49085C28.9558 8.45001 29.1825 8.41918 29.4108 8.39918C29.6392 8.37918 29.8675 8.36918 30.0967 8.37001C30.3258 8.37085 30.5542 8.38251 30.7825 8.40418C31.01 8.42585 31.2367 8.45835 31.4617 8.50168C31.6867 8.54418 31.9092 8.59751 32.1292 8.66085C32.3492 8.72418 32.5658 8.79751 32.7792 8.88085C32.9925 8.96418 33.2017 9.05751 33.4067 9.16001C33.6108 9.26251 33.8108 9.37418 34.005 9.49501C34.1992 9.61668 34.3875 9.74585 34.57 9.88418C34.7525 10.0225 34.9283 10.1692 35.0975 10.3242C35.2667 10.4783 35.4275 10.6408 35.5817 10.81C35.7358 10.98 35.8817 11.1558 36.0192 11.3392C36.1575 11.5217 36.2867 11.7108 36.4067 11.9058C36.5267 12.1008 36.6383 12.3008 36.74 12.5058C36.8417 12.7108 36.9342 12.92 37.0167 13.1342C37.0992 13.3475 37.1717 13.5642 37.2342 13.785C37.2967 14.005 37.3492 14.2275 37.3908 14.4525C37.4325 14.6783 37.4642 14.905 37.4858 15.1325C37.5067 15.3608 37.5175 15.5892 37.5175 15.8183C37.5175 15.9 37.5092 15.9808 37.4933 16.0608C37.4775 16.1408 37.4542 16.2183 37.4233 16.2933C37.3917 16.3692 37.3533 16.44 37.3083 16.5083C37.2633 16.5758 37.2117 16.6383 37.1542 16.6967C37.0958 16.7542 37.0333 16.805 36.9658 16.8508C36.8975 16.8958 36.8267 16.9342 36.7508 16.965C36.6758 16.9967 36.5983 17.02 36.5183 17.0358C36.4383 17.0517 36.3575 17.06 36.2758 17.06Z" fill="#69DDFF"/>
<mask id="mask1_3433_2481" style="mask-type:luminance" maskUnits="userSpaceOnUse" x="42" y="31" width="38" height="39">
<path d="M42.4533 31.7867H79.7867V69.28H42.4533V31.7867Z" fill="white"/>
</mask>
<g mask="url(#mask1_3433_2481)">
<path d="M61.1033 69.2025C60.7983 69.2025 60.4942 69.195 60.19 69.18C59.885 69.165 59.5817 69.1425 59.2783 69.1125C58.975 69.0833 58.6725 69.0458 58.3708 69.0008C58.07 68.9558 57.77 68.9042 57.4708 68.845C57.1717 68.785 56.875 68.7183 56.5792 68.6442C56.2833 68.57 55.99 68.4892 55.6983 68.4008C55.4067 68.3125 55.1175 68.2167 54.83 68.1142C54.5433 68.0117 54.2592 67.9017 53.9775 67.785C53.6958 67.6683 53.4175 67.545 53.1417 67.415C52.8667 67.2842 52.5942 67.1475 52.3258 67.0042C52.0567 66.86 51.7917 66.71 51.5308 66.5533C51.2692 66.3967 51.0117 66.2333 50.7583 66.0642C50.505 65.895 50.2558 65.72 50.0108 65.5383C49.7667 65.3567 49.5258 65.1692 49.2908 64.9758C49.055 64.7825 48.8242 64.5833 48.5983 64.3792C48.3725 64.1742 48.1525 63.9642 47.9367 63.7483C47.7208 63.5333 47.5108 63.3125 47.3067 63.0867C47.1017 62.8608 46.9025 62.63 46.7092 62.395C46.5158 62.1592 46.3283 61.9192 46.1475 61.6742C45.9658 61.4292 45.79 61.18 45.6208 60.9267C45.4517 60.6733 45.2883 60.4158 45.1317 60.155C44.975 59.8933 44.825 59.6283 44.6817 59.3592C44.5375 59.0908 44.4008 58.8183 44.2708 58.5433C44.14 58.2675 44.0167 57.9892 43.9 57.7075C43.7833 57.4258 43.6742 57.1417 43.5708 56.855C43.4683 56.5683 43.3733 56.2783 43.2842 55.9875C43.1958 55.6958 43.115 55.4017 43.0408 55.1058C42.9667 54.8108 42.9 54.5133 42.8408 54.2142C42.7808 53.9158 42.7292 53.6158 42.6842 53.3142C42.6392 53.0125 42.6025 52.71 42.5725 52.4067C42.5425 52.1033 42.52 51.8 42.505 51.4958C42.49 51.1908 42.4825 50.8867 42.4825 50.5817C42.4825 50.2767 42.49 49.9725 42.505 49.6683C42.52 49.3633 42.5425 49.06 42.5725 48.7567C42.6025 48.4533 42.6392 48.1508 42.6842 47.8492C42.7292 47.5483 42.7808 47.2483 42.8408 46.9492C42.9 46.65 42.9667 46.3533 43.0408 46.0575C43.115 45.7617 43.1958 45.4683 43.2842 45.1767C43.3733 44.885 43.4683 44.5958 43.5708 44.3083C43.6742 44.0217 43.7833 43.7375 43.9 43.4558C44.0167 43.1742 44.14 42.8958 44.2708 42.6208C44.4008 42.345 44.5375 42.0725 44.6817 41.8042C44.825 41.535 44.975 41.27 45.1317 41.0092C45.2883 40.7475 45.4517 40.49 45.6208 40.2367C45.79 39.9833 45.9658 39.7342 46.1475 39.4892C46.3283 39.245 46.5158 39.0042 46.7092 38.7692C46.9025 38.5333 47.1017 38.3025 47.3067 38.0767C47.5108 37.8508 47.7208 37.6308 47.9367 37.415C48.1525 37.1992 48.3725 36.9892 48.5983 36.785C48.8242 36.58 49.055 36.3808 49.2908 36.1875C49.5258 35.9942 49.7667 35.8067 50.0108 35.6258C50.2558 35.4442 50.505 35.2683 50.7583 35.0992C51.0117 34.93 51.2692 34.7667 51.5308 34.61C51.7917 34.4533 52.0567 34.3033 52.3258 34.16C52.5942 34.0158 52.8667 33.8792 53.1417 33.7492C53.4175 33.6183 53.6958 33.495 53.9775 33.3783C54.2592 33.2617 54.5433 33.1525 54.83 33.05C55.1175 32.9467 55.4067 32.8517 55.6983 32.7625C55.99 32.6742 56.2833 32.5933 56.5792 32.5192C56.875 32.445 57.1717 32.3783 57.4708 32.3192C57.77 32.2592 58.07 32.2075 58.3708 32.1625C58.6725 32.1183 58.975 32.0808 59.2783 32.0508C59.5817 32.0208 59.885 31.9983 60.19 31.9833C60.4942 31.9683 60.7983 31.9608 61.1033 31.9608C61.4083 31.9608 61.7125 31.9683 62.0175 31.9833C62.3217 31.9983 62.625 32.0208 62.9283 32.0508C63.2317 32.0808 63.5342 32.1183 63.8358 32.1625C64.1375 32.2075 64.4375 32.2592 64.7358 32.3192C65.035 32.3783 65.3325 32.445 65.6275 32.5192C65.9233 32.5933 66.2175 32.6742 66.5083 32.7625C66.8 32.8517 67.09 32.9467 67.3767 33.05C67.6633 33.1525 67.9475 33.2617 68.2292 33.3783C68.5108 33.495 68.7892 33.6183 69.065 33.7492C69.34 33.8792 69.6125 34.0158 69.8808 34.16C70.15 34.3033 70.415 34.4533 70.6767 34.61C70.9375 34.7667 71.195 34.93 71.4483 35.0992C71.7017 35.2683 71.9508 35.4442 72.1958 35.6258C72.4408 35.8067 72.6808 35.9942 72.9167 36.1875C73.1517 36.3808 73.3825 36.58 73.6083 36.785C73.8342 36.9892 74.055 37.1992 74.27 37.415C74.4858 37.6308 74.6958 37.8508 74.9008 38.0767C75.105 38.3025 75.3042 38.5333 75.4975 38.7692C75.6908 39.0042 75.8783 39.245 76.06 39.4892C76.2417 39.7342 76.4167 39.9833 76.5858 40.2367C76.755 40.49 76.9183 40.7475 77.075 41.0092C77.2317 41.27 77.3817 41.535 77.5258 41.8042C77.6692 42.0725 77.8058 42.345 77.9367 42.6208C78.0667 42.8958 78.19 43.1742 78.3067 43.4558C78.4233 43.7375 78.5333 44.0217 78.6358 44.3083C78.7383 44.5958 78.8342 44.885 78.9225 45.1767C79.0108 45.4683 79.0917 45.7617 79.1658 46.0575C79.24 46.3533 79.3067 46.65 79.3667 46.9492C79.4258 47.2483 79.4775 47.5483 79.5225 47.8492C79.5675 48.1508 79.605 48.4533 79.6342 48.7567C79.6642 49.06 79.6867 49.3633 79.7017 49.6683C79.7167 49.9725 79.7242 50.2767 79.7242 50.5817C79.7242 50.8867 79.7158 51.1908 79.7008 51.495C79.6858 51.7992 79.6625 52.1033 79.6325 52.4067C79.6025 52.7092 79.565 53.0117 79.52 53.3133C79.475 53.6142 79.4225 53.9142 79.3633 54.2133C79.3033 54.5117 79.2367 54.8092 79.1617 55.1042C79.0875 55.4 79.0067 55.6933 78.9175 55.985C78.8292 56.2767 78.7333 56.565 78.6308 56.8525C78.5275 57.1392 78.4183 57.4233 78.3017 57.7042C78.1842 57.9858 78.0608 58.2642 77.9308 58.5392C77.8 58.815 77.6633 59.0867 77.5192 59.3558C77.3758 59.6242 77.2258 59.8892 77.0692 60.15C76.9117 60.4117 76.7492 60.6692 76.58 60.9217C76.41 61.175 76.235 61.4242 76.0533 61.6692C75.8717 61.9133 75.6842 62.1533 75.4908 62.3892C75.2975 62.625 75.0992 62.855 74.8942 63.0808C74.69 63.3067 74.48 63.5275 74.2642 63.7425C74.0492 63.9583 73.8283 64.1683 73.6025 64.3725C73.3767 64.5775 73.1467 64.7758 72.9108 64.9692C72.675 65.1625 72.435 65.35 72.1908 65.5317C71.9458 65.7133 71.6967 65.8883 71.4433 66.0583C71.1908 66.2275 70.9333 66.39 70.6717 66.5475C70.4108 66.7042 70.1458 66.8542 69.8775 66.9975C69.6083 67.1417 69.3367 67.2783 69.0608 67.4092C68.7858 67.5392 68.5075 67.6625 68.2258 67.78C67.945 67.8967 67.6608 68.0058 67.3742 68.1092C67.0867 68.2117 66.7983 68.3075 66.5067 68.3958C66.215 68.485 65.9217 68.5658 65.6258 68.6408C65.3308 68.715 65.0333 68.7817 64.735 68.8417C64.4358 68.9008 64.1358 68.9533 63.835 68.9983C63.5333 69.0433 63.2308 69.0808 62.9283 69.1108C62.625 69.1408 62.3208 69.1642 62.0167 69.1792C61.7125 69.1942 61.4083 69.2025 61.1033 69.2025ZM61.1033 34.4442C60.8392 34.4442 60.575 34.45 60.3117 34.4633C60.0475 34.4767 59.7842 34.4958 59.5217 34.5217C59.2592 34.5475 58.9967 34.58 58.7358 34.6183C58.4742 34.6575 58.2142 34.7025 57.955 34.7542C57.6958 34.8058 57.4383 34.8633 57.1825 34.9275C56.9258 34.9917 56.6717 35.0617 56.4192 35.1392C56.1658 35.2158 55.915 35.2983 55.6667 35.3875C55.4183 35.4758 55.1717 35.5708 54.9275 35.6725C54.6833 35.7733 54.4425 35.88 54.2033 35.9933C53.965 36.1058 53.7292 36.225 53.4958 36.3492C53.2633 36.4742 53.0333 36.6042 52.8067 36.74C52.58 36.8758 52.3575 37.0167 52.1375 37.1633C51.9183 37.31 51.7025 37.4625 51.49 37.62C51.2783 37.7767 51.07 37.9392 50.8658 38.1067C50.6617 38.2742 50.4617 38.4467 50.2658 38.6242C50.07 38.8017 49.8792 38.9842 49.6925 39.1708C49.5058 39.3575 49.3233 39.5483 49.1458 39.7442C48.9683 39.94 48.7958 40.14 48.6283 40.3442C48.4608 40.5483 48.2983 40.7567 48.1417 40.9683C47.9842 41.1808 47.8317 41.3967 47.685 41.6158C47.5383 41.8358 47.3975 42.0583 47.2617 42.285C47.1258 42.5117 46.9958 42.7417 46.8708 42.9742C46.7467 43.2075 46.6275 43.4433 46.515 43.6817C46.4017 43.9208 46.295 44.1617 46.1942 44.4058C46.0925 44.65 45.9975 44.8967 45.9092 45.145C45.82 45.3933 45.7367 45.6442 45.66 45.8975C45.5833 46.15 45.5133 46.4042 45.4492 46.6608C45.385 46.9167 45.3275 47.1742 45.2758 47.4333C45.2242 47.6925 45.1792 47.9525 45.14 48.2142C45.1017 48.475 45.0692 48.7375 45.0433 49C45.0175 49.2625 44.9975 49.5258 44.985 49.79C44.9717 50.0533 44.9658 50.3175 44.9658 50.5817C44.9658 50.8458 44.9717 51.11 44.985 51.3733C44.9975 51.6375 45.0175 51.9008 45.0433 52.1633C45.0692 52.4267 45.1017 52.6883 45.14 52.95C45.1792 53.2108 45.2242 53.4708 45.2758 53.73C45.3275 53.9892 45.385 54.2467 45.4492 54.5033C45.5133 54.7592 45.5833 55.0133 45.66 55.2667C45.7367 55.5192 45.82 55.77 45.9092 56.0183C45.9975 56.2675 46.0925 56.5133 46.1942 56.7575C46.295 57.0017 46.4017 57.2425 46.515 57.4817C46.6275 57.72 46.7467 57.9558 46.8708 58.1892C46.9958 58.4217 47.1258 58.6517 47.2617 58.8783C47.3975 59.105 47.5383 59.3283 47.685 59.5475C47.8317 59.7675 47.9842 59.9833 48.1417 60.195C48.2983 60.4075 48.4608 60.615 48.6283 60.8192C48.7958 61.0233 48.9683 61.2233 49.1458 61.4192C49.3233 61.615 49.5058 61.8067 49.6925 61.9933C49.8792 62.18 50.07 62.3617 50.2658 62.5392C50.4617 62.7167 50.6617 62.8892 50.8658 63.0567C51.07 63.2242 51.2783 63.3867 51.49 63.5442C51.7025 63.7008 51.9183 63.8533 52.1375 64C52.3575 64.1467 52.58 64.2883 52.8067 64.4233C53.0333 64.5592 53.2633 64.69 53.4958 64.8142C53.7292 64.9383 53.965 65.0575 54.2033 65.17C54.4425 65.2833 54.6833 65.39 54.9275 65.4917C55.1717 65.5925 55.4183 65.6875 55.6667 65.7767C55.915 65.865 56.1658 65.9483 56.4192 66.025C56.6717 66.1017 56.9258 66.1717 57.1825 66.2358C57.4383 66.3 57.6958 66.3583 57.955 66.41C58.2142 66.4608 58.4742 66.5067 58.7358 66.545C58.9967 66.5842 59.2592 66.6158 59.5217 66.6417C59.7842 66.6675 60.0475 66.6875 60.3117 66.7C60.575 66.7133 60.8392 66.72 61.1033 66.72C61.3675 66.72 61.6317 66.7133 61.895 66.7C62.1592 66.6875 62.4225 66.6675 62.685 66.6417C62.9483 66.6158 63.21 66.5842 63.4717 66.545C63.7325 66.5067 63.9925 66.4608 64.2517 66.41C64.5108 66.3583 64.7683 66.3 65.025 66.2358C65.2808 66.1717 65.535 66.1017 65.7883 66.025C66.0408 65.9483 66.2917 65.865 66.54 65.7767C66.7892 65.6875 67.035 65.5925 67.2792 65.4917C67.5233 65.39 67.7642 65.2833 68.0033 65.17C68.2417 65.0575 68.4775 64.9383 68.7108 64.8142C68.9433 64.69 69.1733 64.5592 69.4 64.4233C69.6267 64.2883 69.85 64.1467 70.0692 64C70.2892 63.8533 70.505 63.7008 70.7167 63.5442C70.9292 63.3867 71.1367 63.2242 71.3408 63.0567C71.545 62.8892 71.745 62.7167 71.9408 62.5392C72.1367 62.3617 72.3283 62.18 72.515 61.9933C72.7017 61.8067 72.8833 61.615 73.0608 61.4192C73.2383 61.2233 73.4108 61.0233 73.5783 60.8192C73.7458 60.6158 73.9083 60.4075 74.0658 60.195C74.2225 59.9833 74.375 59.7675 74.5217 59.5475C74.6683 59.3283 74.81 59.105 74.945 58.8783C75.0808 58.6517 75.2117 58.4217 75.3358 58.1892C75.46 57.9558 75.5792 57.72 75.6917 57.4817C75.805 57.2425 75.9117 57.0017 76.0133 56.7575C76.1142 56.5133 76.2092 56.2675 76.2983 56.0183C76.3867 55.77 76.47 55.5192 76.5467 55.2667C76.6233 55.0133 76.6933 54.7592 76.7575 54.5033C76.8217 54.2467 76.88 53.9892 76.9317 53.73C76.9825 53.4708 77.0283 53.2108 77.0667 52.95C77.1058 52.6883 77.1375 52.4267 77.1633 52.1633C77.1892 51.9008 77.2092 51.6375 77.2217 51.3733C77.235 51.11 77.2417 50.8458 77.2417 50.5817C77.2408 50.3175 77.2342 50.0542 77.2208 49.79C77.2075 49.5267 77.1883 49.2633 77.1617 49.0008C77.1358 48.7375 77.1033 48.4758 77.0642 48.215C77.025 47.9533 76.98 47.6933 76.9283 47.435C76.8767 47.1758 76.8183 46.9183 76.7542 46.6625C76.69 46.4058 76.6192 46.1517 76.5425 45.8992C76.4658 45.6467 76.3825 45.3958 76.2933 45.1475C76.2042 44.8992 76.1092 44.6525 76.0083 44.4092C75.9067 44.165 75.8 43.9242 75.6867 43.685C75.5733 43.4467 75.455 43.2108 75.33 42.9783C75.2058 42.745 75.0758 42.5158 74.94 42.2892C74.8042 42.0625 74.6625 41.84 74.5158 41.6208C74.3692 41.4008 74.2175 41.185 74.06 40.9733C73.9025 40.7608 73.74 40.5533 73.5725 40.3492C73.405 40.145 73.2325 39.945 73.055 39.7492C72.8783 39.5542 72.6958 39.3625 72.5092 39.1758C72.3225 38.9892 72.1317 38.8075 71.9358 38.63C71.74 38.4525 71.54 38.28 71.3358 38.1125C71.1325 37.945 70.9242 37.7825 70.7117 37.6258C70.5 37.4683 70.2842 37.3158 70.065 37.1692C69.845 37.0225 69.6225 36.8817 69.3958 36.7458C69.1692 36.61 68.94 36.4792 68.7075 36.355C68.4742 36.23 68.2383 36.1117 68 35.9983C67.7617 35.8858 67.52 35.7783 67.2767 35.6775C67.0325 35.5758 66.7858 35.4808 66.5375 35.3917C66.2892 35.3025 66.0383 35.22 65.7858 35.1433C65.5333 35.0658 65.2792 34.9958 65.0233 34.9308C64.7667 34.8667 64.5092 34.8092 64.2508 34.7567C63.9917 34.705 63.7317 34.66 63.4708 34.6208C63.2092 34.5817 62.9475 34.5492 62.685 34.5233C62.4217 34.4975 62.1583 34.4775 61.895 34.4642C61.6317 34.4508 61.3675 34.4442 61.1033 34.4442Z" fill="#69DDFF"/>
</g>
<path d="M61.1033 62.9958C60.6967 62.9958 60.2917 62.9758 59.8867 62.9358C59.4817 62.8958 59.08 62.8367 58.6817 62.7567C58.2825 62.6775 57.8892 62.5792 57.5 62.4608C57.1108 62.3433 56.7283 62.2058 56.3525 62.0508C55.9775 61.895 55.61 61.7217 55.2517 61.53C54.8933 61.3383 54.545 61.1292 54.2067 60.9033C53.8683 60.6775 53.5425 60.4358 53.2283 60.1775C52.9142 59.92 52.6133 59.6475 52.3258 59.36C52.0383 59.0725 51.765 58.7717 51.5075 58.4567C51.2492 58.1425 51.0075 57.8167 50.7817 57.4783C50.5558 57.1408 50.3475 56.7925 50.1558 56.4333C49.9642 56.075 49.79 55.7083 49.635 55.3325C49.4792 54.9567 49.3425 54.5742 49.2242 54.185C49.1058 53.7967 49.0075 53.4025 48.9283 53.0033C48.8492 52.605 48.7892 52.2033 48.7492 51.7983C48.7092 51.3942 48.69 50.9883 48.69 50.5817C48.69 50.175 48.7092 49.77 48.7492 49.365C48.7892 48.96 48.8492 48.5583 48.9283 48.16C49.0075 47.7608 49.1058 47.3675 49.2242 46.9783C49.3425 46.5892 49.4792 46.2067 49.635 45.8308C49.79 45.4558 49.9642 45.0883 50.1558 44.73C50.3475 44.3717 50.5558 44.0233 50.7817 43.685C51.0075 43.3467 51.2492 43.0208 51.5075 42.7067C51.765 42.3925 52.0383 42.0917 52.3258 41.8042C52.6133 41.5167 52.9142 41.2433 53.2283 40.9858C53.5425 40.7275 53.8683 40.4858 54.2067 40.26C54.545 40.0342 54.8933 39.8258 55.2517 39.6342C55.61 39.4425 55.9775 39.2683 56.3525 39.1133C56.7283 38.9575 57.1108 38.8208 57.5 38.7025C57.8892 38.5842 58.2825 38.4858 58.6817 38.4067C59.08 38.3275 59.4817 38.2675 59.8867 38.2275C60.2917 38.1883 60.6967 38.1683 61.1033 38.1683C61.51 38.1683 61.9158 38.1883 62.32 38.2275C62.725 38.2675 63.1267 38.3275 63.525 38.4067C63.9242 38.4858 64.3175 38.5842 64.7067 38.7025C65.0958 38.8208 65.4783 38.9575 65.8542 39.1133C66.23 39.2683 66.5967 39.4425 66.955 39.6342C67.3142 39.8258 67.6625 40.0342 68 40.26C68.3383 40.4858 68.6642 40.7275 68.9783 40.9858C69.2933 41.2433 69.5942 41.5167 69.8817 41.8042C70.1692 42.0917 70.4417 42.3925 70.6992 42.7067C70.9575 43.0208 71.1992 43.3467 71.425 43.685C71.6508 44.0233 71.86 44.3717 72.0517 44.73C72.2433 45.0883 72.4167 45.4558 72.5725 45.8308C72.7275 46.2067 72.865 46.5892 72.9825 46.9783C73.1008 47.3675 73.1992 47.7608 73.2783 48.16C73.3583 48.5583 73.4175 48.96 73.4575 49.365C73.4975 49.77 73.5175 50.175 73.5175 50.5817C73.5167 50.9883 73.4967 51.3933 73.4558 51.7983C73.4158 52.2025 73.3558 52.6042 73.2767 53.0025C73.1967 53.4008 73.0975 53.795 72.9792 54.1833C72.8608 54.5725 72.7242 54.955 72.5683 55.33C72.4125 55.7058 72.2392 56.0725 72.0475 56.4308C71.855 56.7892 71.6467 57.1375 71.4208 57.475C71.195 57.8133 70.9525 58.1392 70.695 58.4533C70.4367 58.7675 70.1642 59.0683 69.8767 59.355C69.59 59.6425 69.2892 59.9158 68.975 60.1733C68.6608 60.4308 68.335 60.6733 67.9967 60.8992C67.6592 61.125 67.3108 61.3333 66.9525 61.5258C66.5942 61.7175 66.2275 61.8908 65.8517 62.0467C65.4767 62.2025 65.0942 62.3392 64.705 62.4575C64.3167 62.5758 63.9225 62.675 63.5242 62.755C63.1258 62.8342 62.7242 62.8942 62.32 62.9342C61.915 62.975 61.51 62.995 61.1033 62.9958ZM61.1033 40.6508C60.7783 40.6508 60.4533 40.6667 60.13 40.6983C59.8067 40.7308 59.485 40.7783 59.1658 40.8417C58.8467 40.905 58.5317 40.9842 58.2208 41.0783C57.9092 41.1725 57.6033 41.2825 57.3033 41.4067C57.0025 41.5308 56.7092 41.67 56.4217 41.8233C56.135 41.9767 55.8567 42.1433 55.5858 42.3242C55.3158 42.505 55.055 42.6983 54.8033 42.905C54.5517 43.1117 54.3108 43.3292 54.0808 43.5592C53.8508 43.7892 53.6333 44.03 53.4267 44.2817C53.22 44.5333 53.0267 44.7942 52.8458 45.0642C52.665 45.335 52.4983 45.6133 52.345 45.9C52.1917 46.1875 52.0525 46.4808 51.9283 46.7817C51.8042 47.0817 51.6942 47.3875 51.6 47.6992C51.5058 48.01 51.4267 48.325 51.3633 48.6442C51.3 48.9633 51.2525 49.285 51.22 49.6083C51.1883 49.9317 51.1725 50.2567 51.1725 50.5817C51.1725 50.9067 51.1883 51.2317 51.22 51.555C51.2525 51.8792 51.3 52.2 51.3633 52.5192C51.4267 52.8383 51.5058 53.1533 51.6 53.465C51.6942 53.7758 51.8042 54.0817 51.9283 54.3825C52.0525 54.6825 52.1917 54.9767 52.345 55.2633C52.4983 55.55 52.665 55.8283 52.8458 56.0992C53.0267 56.37 53.22 56.6308 53.4267 56.8817C53.6333 57.1333 53.8508 57.3742 54.0808 57.6042C54.3108 57.8342 54.5517 58.0525 54.8033 58.2583C55.055 58.465 55.3158 58.6583 55.5858 58.8392C55.8567 59.02 56.135 59.1867 56.4217 59.34C56.7092 59.4933 57.0025 59.6325 57.3033 59.7567C57.6033 59.8817 57.9092 59.9908 58.2208 60.085C58.5317 60.18 58.8467 60.2583 59.1658 60.3217C59.485 60.3858 59.8067 60.4333 60.13 60.465C60.4533 60.4967 60.7783 60.5125 61.1033 60.5125C61.4283 60.5125 61.7533 60.4967 62.0767 60.465C62.4008 60.4333 62.7217 60.3858 63.0408 60.3217C63.36 60.2583 63.675 60.18 63.9867 60.085C64.2975 59.9908 64.6033 59.8817 64.9042 59.7567C65.2042 59.6325 65.4983 59.4933 65.785 59.34C66.0717 59.1867 66.35 59.02 66.6208 58.8392C66.8917 58.6583 67.1525 58.465 67.4033 58.2583C67.655 58.0525 67.8958 57.8342 68.1258 57.6042C68.3558 57.3742 68.5742 57.1333 68.78 56.8817C68.9867 56.6308 69.18 56.37 69.3608 56.0992C69.5417 55.8283 69.7083 55.55 69.8617 55.2633C70.015 54.9767 70.1542 54.6825 70.2783 54.3825C70.4033 54.0817 70.5125 53.7758 70.6067 53.465C70.7017 53.1533 70.78 52.8383 70.8433 52.5192C70.9075 52.2 70.955 51.8792 70.9867 51.555C71.0183 51.2317 71.0342 50.9067 71.0342 50.5817C71.0342 50.2567 71.0175 49.9325 70.9858 49.6083C70.9533 49.285 70.9058 48.9642 70.8417 48.645C70.7783 48.3267 70.6992 48.0117 70.6042 47.7C70.51 47.3892 70.4 47.0833 70.2758 46.7833C70.1508 46.4825 70.0117 46.1892 69.8583 45.9025C69.705 45.6158 69.5383 45.3375 69.3575 45.0667C69.1767 44.7967 68.9833 44.5358 68.7767 44.285C68.5708 44.0333 68.3525 43.7925 68.1225 43.5625C67.8925 43.3325 67.6517 43.115 67.4008 42.9083C67.1492 42.7025 66.8883 42.5083 66.6183 42.3283C66.3475 42.1475 66.0692 41.98 65.7825 41.8267C65.4958 41.6733 65.2025 41.5342 64.9025 41.41C64.6017 41.285 64.2958 41.1758 63.985 41.0808C63.6742 40.9867 63.3592 40.9075 63.04 40.8433C62.7217 40.78 62.4 40.7317 62.0767 40.7C61.7533 40.6675 61.4283 40.6508 61.1033 40.6508Z" fill="#69DDFF"/>
<path d="M43.7242 26.9908C43.6425 26.9908 43.5617 26.9825 43.4817 26.9667C43.4017 26.9508 43.3242 26.9275 43.2492 26.8967C43.1733 26.865 43.1017 26.8267 43.0342 26.7817C42.9667 26.7367 42.9042 26.685 42.8458 26.6275C42.7883 26.57 42.7367 26.5067 42.6917 26.4392C42.6467 26.3717 42.6083 26.3 42.5767 26.2242C42.5458 26.1492 42.5225 26.0717 42.5067 25.9917C42.4908 25.9117 42.4825 25.8308 42.4825 25.7492C42.4825 25.4025 42.4975 25.0575 42.5267 24.7117C42.555 24.3667 42.5983 24.0233 42.6567 23.6817C42.7142 23.34 42.7858 23.0017 42.8717 22.6658C42.9583 22.3308 43.0583 21.9992 43.1717 21.6725C43.2858 21.345 43.4125 21.0233 43.5533 20.7067C43.6942 20.39 43.8483 20.08 44.015 19.7767C44.1817 19.4725 44.3608 19.1767 44.5517 18.8875C44.7433 18.5992 44.9467 18.3192 45.1617 18.0475C45.3767 17.7758 45.6025 17.5133 45.8392 17.2608C46.0758 17.0083 46.3233 16.7658 46.58 16.5333C46.8375 16.3017 47.1042 16.0808 47.38 15.8708C47.655 15.6608 47.9392 15.4633 48.2317 15.2775C48.5233 15.0908 48.8233 14.9175 49.13 14.7567C49.4367 14.5958 49.7492 14.4483 50.0683 14.3133C50.3875 14.1783 50.7117 14.0575 51.0408 13.95C51.3708 13.8425 51.7033 13.7483 52.0408 13.6683C52.3775 13.5892 52.7175 13.5233 53.06 13.4725C53.4025 13.4208 53.7467 13.3842 54.0925 13.3617C54.4383 13.3392 54.7842 13.3308 55.1308 13.3375C55.4767 13.3442 55.8225 13.365 56.1667 13.4008C56.5117 13.4358 56.8542 13.4858 57.1942 13.55C57.535 13.6142 57.8725 13.6917 58.2058 13.7842C58.54 13.8767 58.8692 13.9825 59.1942 14.1025C59.5192 14.2225 59.8383 14.3558 60.1525 14.5025C60.4667 14.6492 60.7733 14.8083 61.0742 14.9808C61.3742 15.1533 61.6675 15.3375 61.9525 15.5342C62.2375 15.7317 62.5133 15.94 62.7817 16.16C63.0492 16.3792 63.3067 16.61 63.555 16.8517C63.8033 17.0933 64.0408 17.345 64.2683 17.6067C64.4958 17.8675 64.7117 18.1383 64.9158 18.4175C65.1208 18.6975 65.3133 18.985 65.4942 19.2808C65.6742 19.5758 65.8425 19.8792 65.9975 20.1883C66.0342 20.2617 66.0633 20.3375 66.085 20.4158C66.1067 20.4942 66.12 20.5742 66.1258 20.6558C66.1325 20.7367 66.13 20.8175 66.12 20.8983C66.11 20.98 66.0917 21.0592 66.0667 21.1358C66.0408 21.2133 66.0075 21.2875 65.9675 21.3583C65.9275 21.4292 65.8808 21.4958 65.8275 21.5575C65.7742 21.6192 65.715 21.675 65.6508 21.725C65.5867 21.775 65.5175 21.8183 65.445 21.855C65.3717 21.8917 65.2967 21.92 65.2175 21.9417C65.1392 21.9633 65.0592 21.9775 64.9775 21.9833C64.8967 21.9892 64.8158 21.9867 64.735 21.9767C64.6542 21.9667 64.575 21.9492 64.4975 21.9233C64.42 21.8975 64.3458 21.8642 64.275 21.8242C64.2042 21.7842 64.1375 21.7375 64.0767 21.6842C64.015 21.6308 63.9592 21.5717 63.9092 21.5075C63.8583 21.4425 63.8158 21.3742 63.7792 21.3017C63.655 21.0533 63.5208 20.8117 63.3758 20.575C63.2317 20.3383 63.0775 20.1083 62.9142 19.885C62.75 19.6608 62.5775 19.445 62.3958 19.2358C62.2142 19.0267 62.0233 18.825 61.825 18.6317C61.6267 18.4383 61.42 18.2542 61.2058 18.0783C60.9917 17.9017 60.7708 17.735 60.5425 17.5775C60.315 17.42 60.0808 17.2725 59.84 17.135C59.6 16.9967 59.3542 16.8692 59.1033 16.7517C58.8517 16.635 58.5967 16.5283 58.3367 16.4325C58.0767 16.3358 57.8125 16.2517 57.5458 16.1775C57.2783 16.1033 57.0092 16.0408 56.7367 15.99C56.4642 15.9383 56.19 15.8983 55.9142 15.87C55.6383 15.8417 55.3625 15.825 55.085 15.82C54.8083 15.815 54.5317 15.8208 54.255 15.8392C53.9783 15.8575 53.7025 15.8867 53.4292 15.9275C53.155 15.9683 52.8825 16.0208 52.6133 16.085C52.3433 16.1483 52.0767 16.2233 51.8133 16.3092C51.55 16.3958 51.2908 16.4925 51.035 16.6C50.78 16.7083 50.53 16.8267 50.2842 16.955C50.0392 17.0842 49.7992 17.2225 49.565 17.3717C49.3317 17.52 49.1042 17.6783 48.8842 17.8467C48.6633 18.0142 48.45 18.1908 48.2442 18.3767C48.0383 18.5625 47.8408 18.7558 47.6517 18.9583C47.4617 19.1608 47.2808 19.37 47.1092 19.5875C46.9375 19.805 46.775 20.0292 46.6217 20.26C46.4683 20.4908 46.325 20.7275 46.1917 20.9708C46.0583 21.2133 45.935 21.4617 45.8225 21.715C45.71 21.9683 45.6083 22.2258 45.5167 22.4875C45.4258 22.7492 45.3458 23.0142 45.2775 23.2825C45.2083 23.5508 45.1508 23.8217 45.1042 24.095C45.0583 24.3683 45.0233 24.6433 45 24.9192C44.9775 25.1958 44.9658 25.4725 44.9658 25.7492C44.9658 25.8308 44.9575 25.9117 44.9417 25.9917C44.9258 26.0717 44.9025 26.1492 44.8708 26.2242C44.84 26.3 44.8017 26.3717 44.7567 26.4392C44.7117 26.5067 44.66 26.57 44.6025 26.6275C44.5442 26.685 44.4817 26.7367 44.4142 26.7817C44.3458 26.8267 44.275 26.865 44.1992 26.8967C44.1242 26.9275 44.0467 26.9508 43.9667 26.9667C43.8867 26.9825 43.8058 26.9908 43.7242 26.9908Z" fill="#69DDFF"/>
<path d="M43.7242 51.8233C43.6425 51.8233 43.5617 51.815 43.4817 51.7992C43.4017 51.7833 43.3242 51.76 43.2492 51.7292C43.1733 51.6975 43.1017 51.6592 43.0342 51.6142C42.9667 51.5692 42.9042 51.5175 42.8458 51.46C42.7883 51.4025 42.7367 51.3392 42.6917 51.2717C42.6467 51.2042 42.6083 51.1325 42.5767 51.0567C42.5458 50.9817 42.5225 50.9042 42.5067 50.8242C42.4908 50.7442 42.4825 50.6633 42.4825 50.5817V15.8183C42.4825 15.7367 42.4908 15.6558 42.5067 15.5758C42.5225 15.4958 42.5458 15.4183 42.5775 15.3433C42.6083 15.2675 42.6467 15.1967 42.6917 15.1283C42.7375 15.0608 42.7883 14.9983 42.8467 14.9408C42.9042 14.8825 42.9667 14.8317 43.0342 14.7858C43.1025 14.7408 43.1742 14.7025 43.2492 14.6717C43.3242 14.64 43.4017 14.6167 43.4817 14.6008C43.5617 14.585 43.6425 14.5767 43.7242 14.5767C43.8058 14.5767 43.8867 14.585 43.9667 14.6008C44.0467 14.6167 44.1242 14.64 44.1992 14.6717C44.2742 14.7025 44.3458 14.7408 44.4142 14.7858C44.4817 14.8317 44.5442 14.8825 44.6017 14.9408C44.6592 14.9983 44.7108 15.0608 44.7567 15.1283C44.8017 15.1967 44.84 15.2675 44.8708 15.3433C44.9025 15.4183 44.9258 15.4958 44.9417 15.5758C44.9575 15.6558 44.9658 15.7367 44.9658 15.8183V50.5817C44.9658 50.6633 44.9575 50.7442 44.9417 50.8242C44.9258 50.9042 44.9025 50.9817 44.8708 51.0567C44.84 51.1325 44.8017 51.2042 44.7567 51.2717C44.7108 51.3392 44.66 51.4025 44.6025 51.46C44.5442 51.5175 44.4817 51.5692 44.4142 51.6142C44.3458 51.6592 44.275 51.6975 44.1992 51.7292C44.1242 51.76 44.0467 51.7833 43.9667 51.7992C43.8867 51.815 43.8058 51.8233 43.7242 51.8233Z" fill="#69DDFF"/>
<path d="M76.81 44.37C76.6975 44.37 76.5867 44.355 76.4775 44.325C76.3692 44.295 76.2667 44.2508 76.17 44.1933C76.0733 44.135 75.9858 44.065 75.9083 43.9833C75.8308 43.9017 75.7658 43.8108 75.7125 43.7117L63.7925 21.3284C63.7542 21.2559 63.7225 21.1809 63.6992 21.1034C63.675 21.025 63.6592 20.945 63.6517 20.8642C63.6433 20.7825 63.6433 20.7017 63.6517 20.62C63.66 20.5392 63.6758 20.4592 63.6992 20.3817C63.7233 20.3034 63.7542 20.2284 63.7925 20.1567C63.8317 20.0842 63.8767 20.0167 63.9283 19.9542C63.98 19.8909 64.0375 19.8334 64.1008 19.7817C64.1642 19.73 64.2317 19.685 64.3042 19.6467C64.3758 19.6084 64.4508 19.5775 64.5292 19.5542C64.6075 19.5309 64.6867 19.515 64.7683 19.5067C64.8492 19.4992 64.9308 19.4992 65.0117 19.5075C65.0933 19.5159 65.1725 19.5317 65.2508 19.5559C65.3292 19.58 65.4042 19.6109 65.4758 19.65C65.5475 19.6884 65.615 19.7342 65.6775 19.7859C65.7408 19.8375 65.7983 19.8959 65.8492 19.9592C65.9008 20.0217 65.9458 20.09 65.9842 20.1617L77.9042 42.5458C77.9292 42.5925 77.9517 42.6409 77.97 42.6908C77.9892 42.7408 78.0042 42.7917 78.0167 42.8433C78.0292 42.8958 78.0375 42.9483 78.0433 43.0008C78.0492 43.0542 78.0508 43.1075 78.0492 43.1608C78.0483 43.2142 78.0433 43.2667 78.035 43.3192C78.0267 43.3725 78.0158 43.4242 78.0008 43.475C77.9858 43.5267 77.9675 43.5767 77.9458 43.625C77.925 43.6742 77.9008 43.7217 77.8733 43.7675C77.8458 43.8133 77.815 43.8567 77.7825 43.8983C77.7492 43.9408 77.7133 43.98 77.6758 44.0175C77.6375 44.0542 77.5967 44.0892 77.5542 44.1208C77.5117 44.1533 77.4675 44.1825 77.4208 44.2083C77.3742 44.235 77.3267 44.2583 77.2767 44.2783C77.2275 44.2983 77.1775 44.315 77.1258 44.3292C77.0742 44.3425 77.0217 44.3525 76.9692 44.3592C76.9158 44.3667 76.8633 44.37 76.81 44.37Z" fill="#69DDFF"/>
<path d="M43.7242 17.06C43.6425 17.06 43.5617 17.0517 43.4817 17.0358C43.4017 17.02 43.3242 16.9967 43.2492 16.965C43.1733 16.9342 43.1025 16.8958 43.0342 16.8508C42.9667 16.805 42.9042 16.7542 42.8458 16.6967C42.7883 16.6383 42.7367 16.5758 42.6917 16.5083C42.6467 16.44 42.6083 16.3692 42.5767 16.2933C42.5458 16.2183 42.5225 16.1408 42.5067 16.0608C42.4908 15.9808 42.4825 15.9 42.4825 15.8183C42.4825 15.5892 42.4933 15.3608 42.5142 15.1325C42.5358 14.905 42.5667 14.6783 42.6092 14.4525C42.6508 14.2275 42.7033 14.005 42.7658 13.785C42.8283 13.5642 42.9008 13.3475 42.9833 13.1342C43.0658 12.92 43.1583 12.7108 43.26 12.5058C43.3617 12.3008 43.4733 12.1008 43.5933 11.9058C43.7133 11.7108 43.8425 11.5217 43.9808 11.3392C44.1183 11.1558 44.2642 10.98 44.4183 10.81C44.5725 10.6408 44.7333 10.4783 44.9025 10.3242C45.0717 10.1692 45.2475 10.0225 45.43 9.88418C45.6117 9.74585 45.8008 9.61668 45.995 9.49501C46.1892 9.37418 46.3892 9.26251 46.5933 9.16001C46.7983 9.05751 47.0075 8.96418 47.2208 8.88085C47.4342 8.79751 47.6508 8.72418 47.8708 8.66085C48.0908 8.59751 48.3133 8.54418 48.5383 8.50168C48.7633 8.45835 48.99 8.42585 49.2175 8.40418C49.4458 8.38251 49.6742 8.37085 49.9033 8.37001C50.1325 8.36918 50.3608 8.37918 50.5892 8.39918C50.8175 8.41918 51.0442 8.45001 51.2692 8.49085C51.4942 8.53251 51.7175 8.58335 51.9383 8.64501C52.1583 8.70668 52.3758 8.77835 52.59 8.86085C52.8033 8.94251 53.0133 9.03335 53.2192 9.13501C53.4242 9.23585 53.625 9.34585 53.82 9.46585C54.0158 9.58501 54.205 9.71335 54.3883 9.85085C54.5717 9.98751 54.7492 10.1325 54.9192 10.2858C55.0892 10.4392 55.2517 10.6 55.4067 10.7683C55.5625 10.9367 55.7092 11.1117 55.8483 11.2942C55.9875 11.4758 56.1183 11.6642 56.24 11.8575C56.3617 12.0517 56.4742 12.2508 56.5775 12.455C56.6808 12.66 56.775 12.8683 56.8592 13.0808C56.9433 13.2942 57.0175 13.5108 57.0817 13.7308C57.1458 13.95 57.2 14.1725 57.2433 14.3975C57.2592 14.4775 57.2658 14.5583 57.2658 14.6392C57.265 14.7208 57.2567 14.8017 57.24 14.8808C57.2233 14.9608 57.1992 15.0383 57.1675 15.1133C57.1358 15.1875 57.0975 15.2592 57.0517 15.3267C57.0058 15.3942 56.9542 15.4558 56.8967 15.5133C56.8383 15.57 56.7758 15.6217 56.7075 15.6658C56.64 15.7108 56.5683 15.7483 56.4925 15.7792C56.4175 15.81 56.34 15.8333 56.26 15.8483C56.18 15.8642 56.0992 15.8717 56.0183 15.8708C55.9367 15.8708 55.8558 15.8625 55.7767 15.8458C55.6967 15.83 55.6192 15.8058 55.5442 15.7742C55.4692 15.7425 55.3983 15.7042 55.3308 15.6583C55.2633 15.6133 55.2008 15.5617 55.1433 15.5033C55.0858 15.4458 55.035 15.3833 54.99 15.315C54.945 15.2475 54.9075 15.1758 54.8767 15.1008C54.8458 15.025 54.8225 14.9475 54.8067 14.8675C54.7775 14.7183 54.7417 14.57 54.6983 14.4233C54.6558 14.2767 54.6058 14.1325 54.55 13.9908C54.4933 13.8492 54.4308 13.71 54.3617 13.5733C54.2933 13.4375 54.2175 13.305 54.1367 13.1758C54.055 13.0467 53.9683 12.9208 53.8758 12.8C53.7825 12.6783 53.6842 12.5617 53.5808 12.45C53.4775 12.3375 53.3692 12.2308 53.255 12.1283C53.1417 12.0267 53.0242 11.9292 52.9017 11.8383C52.7792 11.7467 52.6533 11.6617 52.5225 11.5817C52.3925 11.5025 52.2592 11.4292 52.1217 11.3617C51.985 11.2942 51.845 11.2333 51.7025 11.1792C51.56 11.1242 51.415 11.0767 51.2683 11.0358C51.1208 10.995 50.9725 10.9608 50.8225 10.9333C50.6717 10.9058 50.5208 10.8858 50.3683 10.8717C50.2167 10.8583 50.0642 10.8525 49.9117 10.8525C49.7592 10.8533 49.6067 10.8608 49.455 10.8758C49.3025 10.8908 49.1517 10.9125 49.0017 10.9408C48.8517 10.9692 48.7033 11.005 48.5567 11.0467C48.41 11.0892 48.2658 11.1383 48.1233 11.1942C47.9817 11.2492 47.8425 11.3117 47.7058 11.38C47.5692 11.4483 47.4358 11.5225 47.3067 11.6033C47.1767 11.6842 47.0517 11.7708 46.93 11.8633C46.8083 11.955 46.6908 12.0533 46.5783 12.1558C46.4658 12.2592 46.3583 12.3675 46.2558 12.48C46.1533 12.5933 46.0558 12.7108 45.9642 12.8325C45.8725 12.9542 45.7858 13.0808 45.7058 13.21C45.6258 13.34 45.5517 13.4733 45.4842 13.61C45.4158 13.7467 45.3542 13.8867 45.2992 14.0292C45.2442 14.1717 45.1958 14.3158 45.1542 14.4625C45.1125 14.61 45.0775 14.7583 45.05 14.9083C45.0217 15.0583 45.0008 15.2092 44.9867 15.3617C44.9725 15.5133 44.9658 15.6658 44.9658 15.8183C44.9658 15.9 44.9575 15.9808 44.9417 16.0608C44.9258 16.1408 44.9025 16.2183 44.8708 16.2933C44.84 16.3692 44.8017 16.44 44.7567 16.5083C44.7108 16.5758 44.66 16.6383 44.6025 16.6967C44.5442 16.7542 44.4817 16.805 44.4142 16.8508C44.3458 16.8958 44.275 16.9342 44.1992 16.965C44.1242 16.9967 44.0467 17.02 43.9667 17.0358C43.8867 17.0517 43.8058 17.06 43.7242 17.06Z" fill="#69DDFF"/>
<path d="M40 50.5817C39.8375 50.5817 39.675 50.5742 39.5133 50.5575C39.3517 50.5417 39.1908 50.5183 39.0317 50.4867C38.8717 50.455 38.7142 50.415 38.5583 50.3683C38.4033 50.3208 38.25 50.2658 38.1 50.2042C37.9492 50.1417 37.8025 50.0725 37.6592 49.9958C37.5158 49.9192 37.3767 49.835 37.2417 49.745C37.1058 49.655 36.9758 49.5575 36.85 49.455C36.7242 49.3517 36.6042 49.2425 36.4892 49.1275C36.3742 49.0125 36.265 48.8917 36.1617 48.7667C36.0583 48.6408 35.9617 48.51 35.8717 48.375C35.7808 48.24 35.6975 48.1 35.6208 47.9567C35.5442 47.8133 35.475 47.6667 35.4125 47.5167C35.35 47.3658 35.2958 47.2133 35.2483 47.0575C35.2008 46.9017 35.1617 46.7442 35.13 46.585C35.0983 46.4258 35.0742 46.265 35.0583 46.1033C35.0425 45.9408 35.0342 45.7792 35.0342 45.6167C35.0342 45.4533 35.0425 45.2917 35.0583 45.1292C35.0742 44.9675 35.0983 44.8067 35.13 44.6475C35.1617 44.4883 35.2008 44.3308 35.2483 44.175C35.2958 44.0192 35.35 43.8667 35.4125 43.7158C35.475 43.5658 35.5442 43.4192 35.6208 43.2758C35.6975 43.1325 35.7808 42.9925 35.8717 42.8575C35.9617 42.7225 36.0583 42.5917 36.1617 42.4658C36.265 42.3408 36.3742 42.22 36.4892 42.105C36.6042 41.99 36.7242 41.8808 36.85 41.7775C36.9758 41.675 37.1058 41.5783 37.2417 41.4875C37.3767 41.3975 37.5158 41.3133 37.6592 41.2367C37.8025 41.16 37.9492 41.0908 38.1 41.0283C38.25 40.9667 38.4033 40.9117 38.5583 40.8642C38.7142 40.8175 38.8717 40.7775 39.0317 40.7458C39.1908 40.7142 39.3517 40.6908 39.5133 40.675C39.675 40.6583 39.8375 40.6508 40 40.6508C40.1625 40.6508 40.325 40.6583 40.4867 40.675C40.6483 40.6908 40.8092 40.7142 40.9683 40.7458C41.1283 40.7775 41.2858 40.8175 41.4417 40.8642C41.5967 40.9117 41.75 40.9667 41.9 41.0283C42.0508 41.0908 42.1975 41.16 42.3408 41.2367C42.4842 41.3133 42.6233 41.3975 42.7583 41.4875C42.8942 41.5783 43.0242 41.675 43.15 41.7775C43.2758 41.8808 43.3958 41.99 43.5108 42.105C43.6258 42.22 43.735 42.3408 43.8383 42.4658C43.9417 42.5917 44.0383 42.7225 44.1283 42.8575C44.2192 42.9925 44.3025 43.1325 44.3792 43.2758C44.4558 43.4192 44.525 43.5658 44.5875 43.7158C44.65 43.8667 44.7042 44.0192 44.7517 44.175C44.7992 44.3308 44.8383 44.4883 44.87 44.6475C44.9017 44.8067 44.9258 44.9675 44.9417 45.1292C44.9575 45.2917 44.9658 45.4533 44.9658 45.6167C44.965 45.7792 44.9575 45.9408 44.9408 46.1025C44.925 46.265 44.9008 46.425 44.8692 46.585C44.8375 46.7442 44.7975 46.9017 44.7508 47.0575C44.7033 47.2125 44.6483 47.3658 44.5858 47.5158C44.5242 47.6658 44.4542 47.8125 44.3775 47.9558C44.3008 48.0992 44.2175 48.2383 44.1275 48.3742C44.0367 48.5092 43.94 48.6392 43.8367 48.765C43.7333 48.8908 43.625 49.0108 43.51 49.1258C43.395 49.2408 43.2742 49.35 43.1492 49.4533C43.0233 49.5567 42.8925 49.6533 42.7575 49.7433C42.6225 49.8342 42.4833 49.9175 42.34 49.9942C42.1967 50.0708 42.05 50.14 41.8992 50.2025C41.7492 50.265 41.5967 50.3192 41.4408 50.3667C41.285 50.4142 41.1275 50.4533 40.9683 50.4858C40.8092 50.5175 40.6483 50.5417 40.4867 50.5575C40.325 50.5733 40.1625 50.5817 40 50.5817ZM40 43.1333C39.8367 43.1333 39.6758 43.1492 39.5158 43.1808C39.3558 43.2133 39.2008 43.26 39.05 43.3225C38.8992 43.385 38.7558 43.4617 38.6208 43.5517C38.485 43.6425 38.36 43.7458 38.2442 43.8608C38.1292 43.9758 38.0258 44.1017 37.9358 44.2367C37.845 44.3725 37.7683 44.5158 37.7058 44.6658C37.6442 44.8167 37.5967 44.9717 37.565 45.1317C37.5333 45.2917 37.5175 45.4533 37.5175 45.6167C37.5175 45.7792 37.5333 45.9408 37.565 46.1008C37.5967 46.2608 37.6442 46.4158 37.7058 46.5667C37.7683 46.7167 37.845 46.86 37.9358 46.9958C38.0258 47.1308 38.1292 47.2567 38.2442 47.3717C38.36 47.4875 38.485 47.59 38.6208 47.6808C38.7558 47.7708 38.8992 47.8475 39.05 47.91C39.2008 47.9725 39.3558 48.0192 39.5158 48.0517C39.6758 48.0833 39.8367 48.0992 40 48.0992C40.1633 48.0992 40.3242 48.0833 40.4842 48.0517C40.6442 48.0192 40.7992 47.9725 40.95 47.91C41.1008 47.8475 41.2442 47.7708 41.3792 47.6808C41.515 47.59 41.64 47.4875 41.7558 47.3717C41.8708 47.2567 41.9742 47.1308 42.0642 46.9958C42.155 46.86 42.2317 46.7167 42.2942 46.5667C42.3558 46.4158 42.4033 46.2608 42.435 46.1008C42.4667 45.9408 42.4825 45.7792 42.4825 45.6167C42.4825 45.4533 42.4667 45.2917 42.4342 45.1325C42.4025 44.9725 42.355 44.8175 42.2925 44.6667C42.2308 44.5158 42.1542 44.3733 42.0633 44.2375C41.9725 44.1025 41.87 43.9767 41.755 43.8617C41.6392 43.7467 41.5142 43.6433 41.3783 43.5533C41.2433 43.4625 41.1 43.3858 40.95 43.3233C40.7992 43.2608 40.6442 43.2133 40.4842 43.1817C40.3242 43.15 40.1633 43.1333 40 43.1333Z" fill="#69DDFF"/>
<path d="M43.7242 26.9908C43.6425 26.9908 43.5617 26.9825 43.4817 26.9667C43.4017 26.9508 43.3242 26.9275 43.2492 26.8967C43.1733 26.865 43.1017 26.8267 43.0342 26.7817C42.9667 26.7367 42.9042 26.685 42.8458 26.6275C42.7883 26.57 42.7367 26.5067 42.6917 26.4392C42.6467 26.3717 42.6083 26.3 42.5767 26.2242C42.5458 26.1492 42.5225 26.0717 42.5067 25.9917C42.4908 25.9117 42.4825 25.8308 42.4825 25.7492C42.4825 25.5867 42.4667 25.425 42.435 25.265C42.4033 25.105 42.3558 24.95 42.2942 24.7992C42.2317 24.6483 42.155 24.5058 42.0642 24.37C41.9742 24.2342 41.8708 24.1092 41.7558 23.9933C41.64 23.8783 41.515 23.7758 41.3792 23.685C41.2442 23.5942 41.1008 23.5175 40.95 23.4558C40.7992 23.3933 40.6442 23.3458 40.4842 23.3142C40.3242 23.2825 40.1633 23.2667 40 23.2667C39.8367 23.2667 39.6758 23.2825 39.5158 23.3142C39.3558 23.3458 39.2008 23.3933 39.05 23.4558C38.8992 23.5175 38.7558 23.5942 38.6208 23.685C38.485 23.7758 38.36 23.8783 38.2442 23.9933C38.1292 24.1092 38.0258 24.2342 37.9358 24.37C37.845 24.5058 37.7683 24.6483 37.7058 24.7992C37.6442 24.95 37.5967 25.105 37.565 25.265C37.5333 25.425 37.5175 25.5867 37.5175 25.7492C37.5175 25.8308 37.5092 25.9117 37.4933 25.9917C37.4775 26.0717 37.4542 26.1492 37.4225 26.2242C37.3917 26.3 37.3533 26.3708 37.3083 26.4392C37.2625 26.5067 37.2117 26.5692 37.1533 26.6275C37.0958 26.685 37.0333 26.7358 36.9658 26.7817C36.8975 26.8267 36.8258 26.865 36.7508 26.8958C36.6758 26.9275 36.5983 26.9508 36.5183 26.9667C36.4383 26.9825 36.3575 26.9908 36.2758 26.9908C36.1942 26.9908 36.1133 26.9825 36.0333 26.9667C35.9533 26.9508 35.8758 26.9275 35.8008 26.8958C35.7258 26.865 35.6542 26.8267 35.5858 26.7817C35.5183 26.7358 35.4558 26.685 35.3983 26.6275C35.3408 26.5692 35.2892 26.5067 35.2433 26.4392C35.1983 26.3708 35.16 26.3 35.1292 26.2242C35.0975 26.1492 35.0742 26.0717 35.0583 25.9917C35.0425 25.9117 35.0342 25.8308 35.0342 25.7492C35.0342 25.5867 35.0425 25.4242 35.0583 25.2625C35.0742 25.1008 35.0983 24.94 35.13 24.7808C35.1617 24.6208 35.2008 24.4633 35.2483 24.3075C35.2958 24.1525 35.35 23.9992 35.4125 23.8492C35.475 23.6992 35.5442 23.5517 35.6208 23.4083C35.6975 23.265 35.7808 23.1258 35.8717 22.9908C35.9617 22.855 36.0583 22.725 36.1617 22.5992C36.265 22.4733 36.3742 22.3533 36.4892 22.2383C36.6042 22.1233 36.7242 22.0142 36.85 21.9108C36.9758 21.8075 37.1058 21.7108 37.2417 21.6208C37.3767 21.53 37.5158 21.4467 37.6592 21.37C37.8025 21.2933 37.9492 21.2242 38.1 21.1617C38.25 21.0992 38.4033 21.045 38.5583 20.9975C38.7142 20.95 38.8717 20.9108 39.0317 20.8792C39.1908 20.8475 39.3517 20.8233 39.5133 20.8075C39.675 20.7917 39.8375 20.7842 40 20.7842C40.1625 20.7842 40.325 20.7917 40.4867 20.8075C40.6483 20.8233 40.8092 20.8475 40.9683 20.8792C41.1283 20.9108 41.2858 20.95 41.4417 20.9975C41.5967 21.045 41.75 21.0992 41.9 21.1617C42.0508 21.2242 42.1975 21.2933 42.3408 21.37C42.4842 21.4467 42.6233 21.53 42.7583 21.6208C42.8942 21.7108 43.0242 21.8075 43.15 21.9108C43.2758 22.0142 43.3958 22.1233 43.5108 22.2383C43.6258 22.3533 43.735 22.4733 43.8383 22.5992C43.9417 22.725 44.0383 22.855 44.1283 22.9908C44.2192 23.1258 44.3025 23.265 44.3792 23.4083C44.4558 23.5517 44.525 23.6992 44.5875 23.8492C44.65 23.9992 44.7042 24.1525 44.7517 24.3075C44.7992 24.4633 44.8383 24.6208 44.87 24.7808C44.9017 24.94 44.9258 25.1008 44.9417 25.2625C44.9575 25.4242 44.9658 25.5867 44.9658 25.7492C44.9658 25.8308 44.9575 25.9117 44.9417 25.9917C44.9258 26.0717 44.9025 26.1492 44.8708 26.2242C44.84 26.3 44.8017 26.3717 44.7567 26.4392C44.7117 26.5067 44.66 26.57 44.6025 26.6275C44.5442 26.685 44.4817 26.7367 44.4142 26.7817C44.3458 26.8267 44.275 26.865 44.1992 26.8967C44.1242 26.9275 44.0467 26.9508 43.9667 26.9667C43.8867 26.9825 43.8058 26.9908 43.7242 26.9908Z" fill="#69DDFF"/>
</svg>
