<svg width="456" height="135" viewBox="0 0 456 135" fill="none" xmlns="http://www.w3.org/2000/svg">
<g clip-path="url(#clip0_886_154)">
<path d="M36.8981 55.4487C31.8923 55.4448 26.9978 56.9256 22.8338 59.7039C18.6697 62.4821 15.4232 66.4329 13.5049 71.0565C11.5866 75.6802 11.0826 80.7689 12.0568 85.679C13.031 90.589 15.4396 95.0999 18.9778 98.6409C22.5161 102.182 27.0251 104.594 31.9344 105.572C36.8437 106.55 41.9328 106.05 46.5579 104.135C51.183 102.22 55.1363 98.977 57.9178 94.8152C60.6993 90.6533 62.1839 85.7599 62.1839 80.7542C62.1839 74.0461 59.5205 67.6125 54.7791 62.8674C50.0376 58.1223 43.6061 55.4539 36.8981 55.4487ZM30.0336 84.3776C28.12 84.3776 26.2495 83.8101 24.6585 82.7469C23.0675 81.6837 21.8275 80.1725 21.0955 78.4045C20.3634 76.6366 20.1721 74.6912 20.5458 72.8144C20.9194 70.9377 21.8413 69.214 23.1947 67.8613C24.5481 66.5085 26.2724 65.5876 28.1493 65.2148C30.0262 64.8421 31.9715 65.0344 33.7391 65.7673C35.5067 66.5003 37.0172 67.741 38.0796 69.3326C39.142 70.9241 39.7086 72.7949 39.7076 74.7085C39.7128 75.9828 39.466 77.2455 38.9815 78.4241C38.497 79.6027 37.7842 80.674 36.8843 81.5762C35.9844 82.4784 34.915 83.1938 33.7376 83.6813C32.5602 84.1688 31.2981 84.4188 30.0237 84.4168L30.0336 84.3776ZM44.65 92.5562C43.7772 92.5562 42.9241 92.2974 42.1984 91.8125C41.4727 91.3276 40.9071 90.6384 40.5731 89.832C40.2391 89.0257 40.1517 88.1384 40.3219 87.2824C40.4922 86.4264 40.9125 85.6401 41.5297 85.0229C42.1468 84.4058 42.9331 83.9855 43.7891 83.8152C44.6451 83.6449 45.5324 83.7323 46.3388 84.0663C47.1451 84.4003 47.8343 84.9659 48.3192 85.6916C48.8041 86.4173 49.0629 87.2705 49.0629 88.1433C49.0649 88.7248 48.9518 89.3011 48.7303 89.8388C48.5088 90.3765 48.1832 90.8652 47.7722 91.2767C47.3612 91.6881 46.8729 92.0143 46.3354 92.2364C45.7979 92.4585 45.2218 92.5722 44.6402 92.5709L44.65 92.5562Z" fill="#020200"/>
<path d="M152.06 51.276L110.128 21.0722C108.11 19.592 105.751 18.6448 103.27 18.3182C100.788 17.9917 98.2649 18.2964 95.9327 19.2041C89.4556 21.793 89.2693 27.0983 89.4801 29.2459C89.5929 30.3295 89.7645 32.1045 89.8381 33.1685L90.8187 47.4368H77.9576C77.9576 47.4368 78.2174 42.1119 78.2174 30.5943C78.2174 30.354 78.2174 30.104 78.2174 29.8882C78.0164 23.1022 76.1875 17.7283 65.5573 17.7283H65.5034C62.5873 17.7275 59.7499 18.6739 57.418 20.425L17.1332 50.6337C12.0116 53.9986 7.8331 58.6144 4.99283 64.0445C2.15255 69.4746 0.74445 75.5395 0.901709 81.6655C1.05897 87.7916 2.77639 93.7762 5.89153 99.0534C9.00667 104.331 13.4165 108.726 18.704 111.824C23.9915 114.921 29.9818 116.619 36.1084 116.756C42.2349 116.893 48.2951 115.465 53.7158 112.607C59.1365 109.748 63.7384 105.555 67.0863 100.422C70.4342 95.2892 72.4175 89.3873 72.8484 83.2744C74.4567 85.0101 77.9772 87.6382 84.4837 87.6382C90.0538 87.6382 93.54 85.7113 95.5013 84.0638C96.0595 90.0849 98.1244 95.8686 101.506 100.882C104.887 105.895 109.476 109.977 114.849 112.75C120.223 115.523 126.208 116.899 132.253 116.751C138.298 116.603 144.209 114.936 149.44 111.903C154.671 108.87 159.055 104.569 162.187 99.3966C165.319 94.2239 167.098 88.3461 167.361 82.3049C167.624 76.2637 166.362 70.2534 163.691 64.8282C161.021 59.403 157.027 54.7374 152.079 51.2613L152.06 51.276ZM36.8981 106.055C31.8929 106.055 27.0002 104.57 22.8386 101.79C18.677 99.0088 15.4336 95.0563 13.5184 90.4321C11.6032 85.8078 11.1024 80.7195 12.0792 75.8106C13.056 70.9016 15.4666 66.3927 19.0061 62.8538C22.5457 59.315 27.0551 56.9053 31.9642 55.9294C36.8733 54.9535 41.9616 55.4554 46.5854 57.3714C51.2093 59.2875 55.1612 62.5317 57.9412 66.6938C60.7212 70.8559 62.2045 75.749 62.2035 80.7541C62.2022 87.4647 59.5356 93.9 54.79 98.6446C50.0445 103.389 43.6087 106.055 36.8981 106.055ZM94.4078 72.8501C94.334 73.3074 94.1672 73.7447 93.9175 74.1348C93.4153 74.9287 92.7225 75.5843 91.9023 76.0421C91.1099 76.4958 90.2585 76.8374 89.3722 77.0571C87.6545 77.4787 85.8894 77.6765 84.1209 77.6455C82.18 77.6883 80.244 77.4354 78.3793 76.8953C77.2062 76.5634 76.13 75.9546 75.2412 75.1203C74.8388 74.7422 74.5068 74.2956 74.2605 73.8014C74.0879 73.4537 73.9768 73.0788 73.932 72.6933C73.882 72.268 74.0029 71.8403 74.2681 71.5042C74.5334 71.1681 74.9214 70.9512 75.3466 70.9011C75.7718 70.8511 76.1996 70.972 76.5356 71.2373C76.8717 71.5025 77.0887 71.8905 77.1387 72.3157L77.1927 72.4383C77.4025 72.7668 77.6906 73.038 78.0311 73.2277C78.5502 73.5335 79.1097 73.7646 79.6933 73.9142C81.1367 74.2685 82.6202 74.4334 84.1062 74.4045C85.7471 74.4511 87.3855 74.2477 88.9653 73.8014C89.6658 73.6181 90.3138 73.274 90.8579 72.7962C90.9862 72.6762 91.0953 72.5374 91.1815 72.3844V72.3304C91.2574 71.9136 91.4941 71.5434 91.8406 71.2998C92.1871 71.0561 92.6155 70.9584 93.0334 71.028C93.4513 71.0975 93.825 71.3286 94.0739 71.6714C94.3228 72.0142 94.4269 72.4411 94.3637 72.86L94.4078 72.8501ZM131.349 106.055C126.344 106.054 121.451 104.569 117.291 101.787C113.13 99.0058 109.887 95.053 107.972 90.4287C106.058 85.8044 105.558 80.7162 106.535 75.8076C107.513 70.899 109.924 66.3904 113.463 62.8521C117.003 59.3138 121.513 56.9045 126.421 55.929C131.33 54.9536 136.418 55.4557 141.042 57.3719C145.666 59.2881 149.617 62.5323 152.397 66.6943C155.177 70.8563 156.66 75.7492 156.659 80.7541C156.659 84.0775 156.004 87.3683 154.732 90.4385C153.46 93.5088 151.596 96.2983 149.245 98.6478C146.895 100.997 144.104 102.861 141.034 104.132C137.963 105.402 134.672 106.056 131.349 106.055Z" fill="url(#paint0_linear_886_154)"/>
<path d="M131.349 55.4487C126.344 55.4496 121.452 56.9346 117.291 59.7158C113.13 62.497 109.887 66.4495 107.973 71.0735C106.058 75.6976 105.558 80.7855 106.535 85.694C107.512 90.6024 109.922 95.111 113.462 98.6495C117.001 102.188 121.51 104.598 126.418 105.574C131.327 106.55 136.415 106.048 141.039 104.133C145.662 102.217 149.614 98.9739 152.395 94.8126C155.175 90.6512 156.659 85.7589 156.659 80.7541C156.659 77.4306 156.004 74.1395 154.732 71.069C153.46 67.9985 151.596 65.2086 149.245 62.8587C146.895 60.5088 144.105 58.6449 141.034 57.3735C137.963 56.1021 134.672 55.448 131.349 55.4487ZM124.156 84.662C122.269 84.662 120.426 84.1027 118.857 83.0547C117.289 82.0068 116.067 80.5174 115.345 78.7748C114.623 77.0322 114.434 75.1147 114.802 73.2647C115.17 71.4148 116.078 69.7155 117.412 68.3817C118.746 67.048 120.445 66.1397 122.295 65.7718C124.145 65.4038 126.063 65.5926 127.805 66.3145C129.548 67.0363 131.037 68.2586 132.085 69.8269C133.133 71.3952 133.692 73.239 133.692 75.1252C133.693 76.3778 133.447 77.6182 132.968 78.7756C132.489 79.9329 131.786 80.9845 130.901 81.8702C130.015 82.7559 128.963 83.4583 127.806 83.9373C126.649 84.4164 125.408 84.6626 124.156 84.662ZM139.316 92.0511C138.444 92.0511 137.59 91.7923 136.865 91.3074C136.139 90.8225 135.573 90.1333 135.239 89.327C134.905 88.5206 134.818 87.6334 134.988 86.7773C135.158 85.9213 135.579 85.135 136.196 84.5179C136.813 83.9007 137.599 83.4804 138.455 83.3101C139.311 83.1399 140.199 83.2273 141.005 83.5613C141.811 83.8953 142.501 84.4609 142.986 85.1865C143.47 85.9122 143.729 86.7654 143.729 87.6382C143.729 88.8086 143.264 89.931 142.437 90.7586C141.609 91.5862 140.487 92.0511 139.316 92.0511Z" fill="#020200"/>
<path d="M39.6978 74.7232C39.6978 76.6365 39.1304 78.5069 38.0674 80.0978C37.0044 81.6887 35.4936 82.9286 33.7259 83.6608C31.9582 84.393 30.013 84.5846 28.1365 84.2113C26.2599 83.8381 24.5361 82.9167 23.1832 81.5638C21.8303 80.2108 20.9089 78.487 20.5356 76.6105C20.1623 74.7339 20.3539 72.7888 21.0861 71.0211C21.8183 69.2534 23.0583 67.7425 24.6492 66.6795C26.2401 65.6165 28.1104 65.0491 30.0238 65.0491C32.5895 65.0491 35.0501 66.0684 36.8643 67.8826C38.6786 69.6968 39.6978 72.1574 39.6978 74.7232Z" fill="url(#paint1_linear_886_154)"/>
<path d="M49.0433 88.1678C49.0433 89.0406 48.7845 89.8938 48.2996 90.6195C47.8147 91.3451 47.1255 91.9108 46.3192 92.2448C45.5128 92.5788 44.6256 92.6661 43.7695 92.4959C42.9135 92.3256 42.1272 91.9053 41.5101 91.2881C40.8929 90.671 40.4726 89.8847 40.3023 89.0287C40.1321 88.1726 40.2195 87.2854 40.5535 86.479C40.8875 85.6727 41.4531 84.9835 42.1788 84.4986C42.9045 84.0137 43.7577 83.7549 44.6305 83.7549C45.8008 83.7549 46.9233 84.2198 47.7508 85.0474C48.5784 85.875 49.0433 86.9974 49.0433 88.1678Z" fill="url(#paint2_linear_886_154)"/>
<path d="M143.715 87.6529C143.715 88.5257 143.456 89.3789 142.971 90.1046C142.486 90.8303 141.797 91.3959 140.99 91.7299C140.184 92.0639 139.297 92.1513 138.441 91.9811C137.585 91.8108 136.798 91.3905 136.181 90.7734C135.564 90.1562 135.144 89.3699 134.974 88.5139C134.803 87.6579 134.891 86.7706 135.225 85.9642C135.559 85.1579 136.124 84.4687 136.85 83.9838C137.576 83.4989 138.429 83.2401 139.302 83.2401C140.472 83.2401 141.594 83.705 142.422 84.5326C143.25 85.3602 143.715 86.4826 143.715 87.6529Z" fill="url(#paint3_linear_886_154)"/>
<path d="M133.692 75.1252C133.693 77.0116 133.135 78.8559 132.087 80.4249C131.04 81.9938 129.551 83.217 127.809 83.9395C126.066 84.6621 124.148 84.8516 122.298 84.4842C120.448 84.1168 118.748 83.2089 117.414 81.8754C116.08 80.5418 115.171 78.8426 114.802 76.9925C114.434 75.1424 114.623 73.2246 115.344 71.4817C116.066 69.7388 117.288 68.2491 118.857 67.201C120.425 66.1528 122.269 65.5934 124.156 65.5934C126.684 65.5934 129.109 66.5975 130.897 68.3849C132.686 70.1723 133.691 72.5968 133.692 75.1252Z" fill="url(#paint4_linear_886_154)"/>
<path d="M94.4078 72.8501C94.334 73.3074 94.1672 73.7447 93.9175 74.1348C93.4153 74.9287 92.7225 75.5843 91.9023 76.0421C91.1099 76.4958 90.2585 76.8374 89.3722 77.0571C87.6545 77.4787 85.8894 77.6765 84.1209 77.6455C82.18 77.6883 80.244 77.4354 78.3793 76.8953C77.2062 76.5634 76.13 75.9546 75.2412 75.1203C74.8388 74.7422 74.5068 74.2956 74.2605 73.8014C74.0879 73.4537 73.9768 73.0788 73.932 72.6933C73.882 72.268 74.0029 71.8403 74.2681 71.5042C74.5334 71.1681 74.9214 70.9512 75.3466 70.9011C75.7718 70.8511 76.1996 70.972 76.5356 71.2373C76.8717 71.5025 77.0887 71.8905 77.1387 72.3157L77.1927 72.4383C77.4025 72.7668 77.6906 73.038 78.0311 73.2277C78.5502 73.5335 79.1097 73.7646 79.6933 73.9142C81.1367 74.2685 82.6202 74.4334 84.1062 74.4045C85.7471 74.4511 87.3855 74.2477 88.9653 73.8014C89.6658 73.6181 90.3138 73.274 90.8579 72.7962C90.9862 72.6762 91.0953 72.5374 91.1815 72.3844V72.3304C91.2574 71.9136 91.4941 71.5434 91.8406 71.2998C92.1871 71.0561 92.6155 70.9584 93.0334 71.028C93.4513 71.0975 93.825 71.3286 94.0739 71.6714C94.3228 72.0142 94.4269 72.4411 94.3637 72.86L94.4078 72.8501Z" fill="#020200"/>
<path d="M237.719 6.85786C237.975 7.01394 238.19 7.22883 238.346 7.48468C238.502 7.74052 238.594 8.02992 238.616 8.32882C238.598 8.86158 238.414 9.37547 238.092 9.79978L234.071 16.2132C233.62 16.9094 233.149 17.2527 232.654 17.2527C232.132 17.2053 231.637 16.9981 231.237 16.6594C229.45 15.3057 227.496 14.1899 225.422 13.3399C223.502 12.5738 221.453 12.1827 219.386 12.1876C217.424 12.1876 215.831 12.5701 214.689 13.3399C214.166 13.6518 213.733 14.0943 213.433 14.6238C213.133 15.1533 212.976 15.7517 212.977 16.3603C212.959 16.7808 213.029 17.2004 213.183 17.5923C213.336 17.9841 213.57 18.3394 213.87 18.6354C214.655 19.3147 215.566 19.8329 216.552 20.1603C218.261 20.7507 220.003 21.2419 221.769 21.6312C225.086 22.3692 228.293 23.5344 231.31 25.0978C233.591 26.2766 235.52 28.0375 236.9 30.202C238.139 32.2418 238.76 34.7277 238.763 37.6598C238.846 40.8571 237.949 44.0033 236.194 46.6768C234.382 49.2899 231.841 51.3122 228.888 52.492C225.421 53.8908 221.707 54.5746 217.969 54.5023C214.421 54.5397 210.892 53.9727 207.535 52.8255C204.441 51.7541 201.546 50.1804 198.964 48.1674C198.219 47.5692 197.846 47.0004 197.846 46.4513C197.878 45.8589 198.084 45.2891 198.439 44.8136L202.318 38.6257C202.764 37.8805 203.259 37.5078 203.789 37.5078C204.317 37.5876 204.81 37.8212 205.206 38.1796C207.029 39.613 209.065 40.7513 211.242 41.553C213.387 42.3585 215.658 42.7753 217.949 42.7837C220.335 42.7837 222.161 42.3996 223.426 41.6314C224.696 40.8616 225.328 39.827 225.328 38.5375C225.34 38.1237 225.267 37.7118 225.113 37.3273C224.96 36.9428 224.729 36.5937 224.436 36.3016C223.616 35.5726 222.65 35.0261 221.602 34.6983C219.744 34.0655 217.853 33.5303 215.939 33.0949C212.775 32.3935 209.713 31.2912 206.829 29.8147C204.592 28.6617 202.711 26.9229 201.386 24.784C200.147 22.7246 199.526 20.1782 199.523 17.1448C199.44 13.9631 200.324 10.831 202.058 8.1621C203.803 5.60969 206.25 3.61725 209.104 2.42537C212.37 1.06123 215.886 0.393248 219.425 0.464083C226.085 0.379497 232.562 2.64317 237.719 6.85786Z" fill="url(#paint5_linear_886_154)"/>
<path d="M284.951 38.2384C285.362 37.8706 285.875 37.6363 286.422 37.5667C286.665 37.5641 286.902 37.6435 287.094 37.7922C287.342 37.9906 287.568 38.2159 287.766 38.464L292.012 44.5733C292.284 44.9412 292.439 45.3817 292.458 45.8384C292.458 46.2895 292.086 46.8582 291.34 47.5545C285.861 52.117 278.946 54.5983 271.816 54.5612C266.876 54.6293 262.001 53.4361 257.65 51.0946C253.52 48.8743 250.078 45.5618 247.702 41.5186C245.267 37.3578 244.017 32.61 244.088 27.7897C244.012 22.8612 245.274 18.0044 247.741 13.737C250.154 9.625 253.654 6.25749 257.856 4.00418C262.332 1.60091 267.349 0.382279 272.429 0.464075C275.98 0.442164 279.505 1.07374 282.828 2.32729C286.032 3.53239 289.014 5.2587 291.654 7.43643C292.252 7.92675 292.547 8.41708 292.547 8.85346C292.514 9.3422 292.332 9.80925 292.027 10.192L287.732 16.3259C287.285 16.9732 286.815 17.3066 286.319 17.3066C285.779 17.2669 285.265 17.0595 284.849 16.7133C280.821 13.8302 276.672 12.3887 272.399 12.3887C269.731 12.3464 267.097 13.0022 264.76 14.2911C262.519 15.5372 260.682 17.3985 259.465 19.6552C258.167 22.0969 257.514 24.8291 257.567 27.5935C257.523 30.2976 258.176 32.9675 259.465 35.3455C260.693 37.6012 262.527 39.4691 264.76 40.739C267.091 42.0478 269.727 42.7161 272.399 42.6758C276.964 42.6529 281.387 41.0893 284.951 38.2384Z" fill="url(#paint6_linear_886_154)"/>
<path d="M299.597 13.639C301.963 9.55902 305.405 6.20747 309.546 3.95025C313.937 1.5746 318.866 0.368974 323.859 0.449352C328.881 0.366745 333.843 1.55946 338.279 3.91593C342.429 6.12983 345.876 9.46037 348.232 13.5311C350.584 17.8147 351.814 22.6237 351.807 27.5103C351.8 32.397 350.557 37.2025 348.193 41.4794C345.806 45.5466 342.334 48.8692 338.166 51.075C333.715 53.4293 328.741 54.6217 323.706 54.5416C318.753 54.6129 313.862 53.4323 309.487 51.1093C305.35 48.9078 301.915 45.588 299.573 41.5285C297.222 37.251 295.992 32.4476 295.999 27.5664C296.006 22.6852 297.249 17.8853 299.612 13.6145L299.597 13.639ZM311.267 35.4779C312.441 37.6981 314.225 39.5357 316.411 40.7733C318.683 42.0029 321.228 42.6434 323.812 42.6366C326.396 42.6297 328.937 41.9757 331.204 40.7341C333.412 39.4669 335.229 37.6162 336.455 35.3847C337.785 32.9867 338.461 30.2813 338.416 27.5396C338.479 24.7626 337.823 22.0165 336.514 19.567C335.289 17.3592 333.474 15.5358 331.272 14.3009C329 13.0528 326.449 12.3985 323.856 12.3985C321.263 12.3985 318.713 13.0528 316.44 14.3009C314.242 15.5519 312.448 17.4044 311.267 19.6405C309.99 22.0886 309.349 24.8184 309.404 27.5788C309.346 30.3271 309.987 33.045 311.267 35.4779Z" fill="url(#paint7_linear_886_154)"/>
<path d="M403.938 44.0144C401.996 47.4534 399.043 50.2114 395.48 51.9135C391.851 53.6786 387.653 54.5612 382.883 54.5612C378.265 54.5612 374.228 53.7162 370.772 52.0262C367.331 50.352 364.502 47.6408 362.682 44.2743C360.747 40.7962 359.779 36.4487 359.779 31.2317V3.35696C359.757 3.09132 359.789 2.82387 359.873 2.57096C359.957 2.31805 360.092 2.08498 360.27 1.88599C360.685 1.5548 361.211 1.39516 361.741 1.43981H370.758C371.305 1.3923 371.851 1.55145 372.287 1.88599C372.465 2.08498 372.6 2.31805 372.684 2.57096C372.768 2.82387 372.8 3.09132 372.778 3.35696V30.1873C372.778 34.2145 373.672 37.2953 375.46 39.4299C377.248 41.5644 379.881 42.6333 383.359 42.6366C386.791 42.6366 389.419 41.5677 391.263 39.4299C393.107 37.2921 394.019 34.2129 394.019 30.1873V3.35696C393.996 3.09132 394.028 2.82387 394.112 2.57096C394.196 2.31805 394.331 2.08498 394.509 1.88599C394.923 1.55344 395.45 1.39363 395.98 1.43981H405.002C405.548 1.39307 406.092 1.5522 406.527 1.88599C406.704 2.08498 406.839 2.31805 406.923 2.57096C407.008 2.82387 407.039 3.09132 407.017 3.35696V31.0846C406.981 36.2036 405.955 40.5135 403.938 44.0144Z" fill="url(#paint8_linear_886_154)"/>
<path d="M455.485 12.8594C455.286 13.0368 455.053 13.1717 454.8 13.256C454.547 13.3403 454.28 13.3722 454.014 13.3497H442.246C442.093 13.3193 441.935 13.3272 441.785 13.3726C441.636 13.418 441.5 13.4996 441.389 13.6102C441.279 13.7207 441.197 13.8567 441.151 14.0063C441.106 14.1558 441.098 14.3143 441.129 14.4676V51.6585C441.173 52.1878 441.014 52.7141 440.682 53.1294C440.483 53.3068 440.25 53.4418 439.997 53.5261C439.744 53.6104 439.477 53.6423 439.211 53.6197H430.116C429.849 53.6627 429.575 53.6417 429.317 53.5584C429.06 53.475 428.826 53.3317 428.634 53.1403C428.443 52.9488 428.299 52.7147 428.216 52.4571C428.133 52.1995 428.112 51.9258 428.155 51.6585V14.4627C428.185 14.3094 428.177 14.1509 428.132 14.0014C428.086 13.8518 428.005 13.7158 427.894 13.6053C427.784 13.4947 427.648 13.4132 427.498 13.3677C427.349 13.3223 427.19 13.3144 427.037 13.3448H415.269C415.002 13.3867 414.729 13.3649 414.472 13.2811C414.215 13.1974 413.981 13.054 413.79 12.8629C413.598 12.6717 413.455 12.438 413.371 12.1809C413.288 11.9238 413.266 11.6506 413.308 11.3835V3.35693C413.285 3.09129 413.317 2.82384 413.401 2.57093C413.486 2.31802 413.621 2.08496 413.798 1.88597C414.213 1.55342 414.74 1.39361 415.269 1.43979H454.004C454.272 1.37962 454.551 1.3877 454.815 1.46328C455.078 1.53886 455.319 1.6795 455.514 1.87232C455.709 2.06514 455.853 2.30394 455.932 2.56677C456.011 2.82961 456.022 3.10805 455.966 3.37653V11.4227C455.992 11.945 455.82 12.458 455.485 12.8594Z" fill="url(#paint9_linear_886_154)"/>
<path d="M269.433 127.874C269.071 128.368 268.581 128.755 268.016 128.992C264.842 130.596 261.507 131.858 258.067 132.758C254.621 133.638 251.077 134.076 247.52 134.062C242.611 134.135 237.759 132.997 233.394 130.747C229.287 128.614 225.859 125.373 223.5 121.392C221.087 117.365 219.883 112.743 219.886 107.526C219.886 102.064 221.102 97.2437 223.534 93.0661C225.916 88.9458 229.419 85.5861 233.634 83.3774C238.132 81.0428 243.14 79.8634 248.207 79.9451C251.782 79.9218 255.339 80.4494 258.754 81.5092C261.926 82.4898 264.93 83.9481 267.663 85.8339C268.506 86.383 268.928 86.9518 268.928 87.55C268.908 88.0825 268.725 88.596 268.403 89.021L264.603 94.9048C264.415 95.2382 264.162 95.53 263.858 95.7629C263.596 95.9421 263.283 96.0331 262.966 96.0228C262.464 95.9929 261.977 95.8396 261.548 95.5766C257.511 93.1725 252.906 91.8863 248.207 91.8501C245.445 91.7791 242.716 92.4568 240.308 93.8114C238.099 95.0976 236.302 96.9851 235.125 99.254C233.883 101.68 233.257 104.374 233.301 107.099C233.244 109.849 233.885 112.568 235.164 115.003C236.346 117.226 238.128 119.072 240.308 120.333C242.602 121.627 245.201 122.282 247.834 122.23C250.522 122.287 253.198 121.859 255.733 120.965C256.076 120.84 256.383 120.635 256.631 120.367C256.807 120.049 256.884 119.685 256.851 119.323V108.815C256.806 108.267 256.967 107.721 257.302 107.285C257.501 107.108 257.734 106.973 257.987 106.889C258.24 106.804 258.508 106.773 258.773 106.795H267.864C268.129 106.773 268.397 106.804 268.65 106.889C268.903 106.973 269.136 107.108 269.335 107.285C269.668 107.722 269.828 108.268 269.781 108.815V126.094C269.828 126.708 269.708 127.323 269.433 127.874Z" fill="url(#paint10_linear_886_154)"/>
<path d="M287.918 130.708C287.624 131.457 287.135 132.114 286.501 132.61C285.841 132.976 285.091 133.146 284.339 133.101H275.248C274.155 133.101 273.61 132.758 273.61 132.061C273.616 131.589 273.744 131.126 273.983 130.718L297.759 83.3871C298.224 82.3214 298.824 81.3195 299.543 80.406C299.742 80.1596 299.992 79.9589 300.276 79.8177C300.559 79.6764 300.869 79.5978 301.186 79.5872C301.497 79.5958 301.803 79.6738 302.08 79.8154C302.358 79.9571 302.6 80.1588 302.789 80.406C303.498 81.3343 304.11 82.3333 304.613 83.3871L328.541 130.718C328.77 131.101 328.898 131.537 328.914 131.983C328.914 132.728 328.34 133.101 327.198 133.101H317.641C316.901 133.149 316.162 132.979 315.518 132.61C314.906 132.102 314.433 131.448 314.14 130.708L300.97 103.579L287.918 130.708Z" fill="url(#paint11_linear_886_154)"/>
<path d="M345.756 131.154C345.779 131.42 345.747 131.687 345.663 131.94C345.578 132.193 345.443 132.426 345.266 132.625C344.831 132.959 344.287 133.118 343.741 133.071H334.719C334.454 133.11 334.183 133.086 333.928 133.001C333.674 132.915 333.443 132.771 333.255 132.58C333.066 132.39 332.925 132.157 332.843 131.902C332.761 131.646 332.74 131.375 332.782 131.11V82.9606C332.742 82.2386 332.896 81.5191 333.229 80.8767C333.362 80.6408 333.558 80.4463 333.795 80.3148C334.032 80.1832 334.301 80.1198 334.572 80.1314C335.087 80.1549 335.581 80.3364 335.989 80.6511C336.646 81.1544 337.245 81.7301 337.774 82.3673L359.24 105.618L380.633 82.3673C381.203 81.7308 381.827 81.1436 382.496 80.6119C382.881 80.3105 383.351 80.1388 383.839 80.1216C385.029 80.1216 385.626 81.0647 385.629 82.9508V131.1C385.672 131.63 385.511 132.157 385.178 132.571C384.979 132.749 384.746 132.884 384.493 132.968C384.24 133.052 383.973 133.084 383.707 133.062H374.69C373.351 133.062 372.68 132.419 372.68 131.1V108.59L362.02 120.74C361.516 121.305 360.967 121.828 360.378 122.304C360.049 122.595 359.625 122.755 359.186 122.755C358.747 122.755 358.324 122.595 357.995 122.304C357.422 121.837 356.898 121.313 356.43 120.74L345.771 108.59L345.756 131.154Z" fill="url(#paint12_linear_886_154)"/>
<path d="M430.165 121.613C430.346 121.814 430.482 122.052 430.567 122.309C430.651 122.566 430.681 122.838 430.655 123.108V131.154C430.655 132.449 429.984 133.115 428.645 133.115H397.264C396.999 133.138 396.731 133.106 396.478 133.022C396.226 132.938 395.993 132.803 395.794 132.625C395.616 132.426 395.481 132.193 395.397 131.94C395.313 131.687 395.281 131.42 395.303 131.154V82.8576C395.281 82.5919 395.313 82.3245 395.397 82.0716C395.481 81.8187 395.616 81.5856 395.794 81.3866C396.208 81.0536 396.735 80.8938 397.264 80.9405H428.567C429.91 80.9405 430.582 81.5828 430.582 82.9017V90.9528C430.604 91.2184 430.572 91.4859 430.488 91.7388C430.404 91.9917 430.269 92.2248 430.091 92.4237C429.654 92.7562 429.109 92.9151 428.562 92.87H409.41C409.25 92.8503 409.089 92.8632 408.934 92.9079C408.78 92.9526 408.637 93.0281 408.512 93.1298C408.343 93.3824 408.265 93.6851 408.292 93.9879V99.8031C408.254 100.118 408.333 100.435 408.512 100.695C408.774 100.877 409.093 100.957 409.41 100.921H426.081C426.346 100.899 426.614 100.93 426.867 101.015C427.12 101.099 427.353 101.234 427.552 101.411C427.886 101.848 428.045 102.393 427.998 102.941V110.894C428.042 111.423 427.883 111.95 427.552 112.365C427.353 112.543 427.12 112.678 426.867 112.762C426.614 112.846 426.346 112.878 426.081 112.855H409.41C409.25 112.836 409.089 112.849 408.934 112.893C408.78 112.938 408.637 113.014 408.512 113.115C408.343 113.368 408.265 113.671 408.292 113.973V120.083C408.265 120.386 408.343 120.689 408.512 120.941C408.636 121.044 408.78 121.12 408.934 121.164C409.088 121.209 409.25 121.222 409.41 121.201H428.64C429.182 121.147 429.724 121.293 430.165 121.613Z" fill="url(#paint13_linear_886_154)"/>
</g>
<defs>
<linearGradient id="paint0_linear_886_154" x1="84.1209" y1="-26.2781" x2="84.1209" y2="278.187" gradientUnits="userSpaceOnUse">
<stop stop-color="#69DDFF"/>
<stop offset="1" stop-color="#A06CD5"/>
</linearGradient>
<linearGradient id="paint1_linear_886_154" x1="30.0238" y1="-26.2781" x2="30.0238" y2="278.187" gradientUnits="userSpaceOnUse">
<stop stop-color="#69DDFF"/>
<stop offset="1" stop-color="#A06CD5"/>
</linearGradient>
<linearGradient id="paint2_linear_886_154" x1="44.6403" y1="-26.2779" x2="44.6403" y2="278.187" gradientUnits="userSpaceOnUse">
<stop stop-color="#69DDFF"/>
<stop offset="1" stop-color="#A06CD5"/>
</linearGradient>
<linearGradient id="paint3_linear_886_154" x1="139.316" y1="-26.2785" x2="139.316" y2="278.188" gradientUnits="userSpaceOnUse">
<stop stop-color="#69DDFF"/>
<stop offset="1" stop-color="#A06CD5"/>
</linearGradient>
<linearGradient id="paint4_linear_886_154" x1="124.156" y1="-26.2781" x2="124.156" y2="278.187" gradientUnits="userSpaceOnUse">
<stop stop-color="#69DDFF"/>
<stop offset="1" stop-color="#A06CD5"/>
</linearGradient>
<linearGradient id="paint5_linear_886_154" x1="218.283" y1="-164.338" x2="218.283" y2="140.127" gradientUnits="userSpaceOnUse">
<stop stop-color="#69DDFF"/>
<stop offset="1" stop-color="#A06CD5"/>
</linearGradient>
<linearGradient id="paint6_linear_886_154" x1="268.33" y1="-164.338" x2="268.33" y2="140.127" gradientUnits="userSpaceOnUse">
<stop stop-color="#69DDFF"/>
<stop offset="1" stop-color="#A06CD5"/>
</linearGradient>
<linearGradient id="paint7_linear_886_154" x1="323.893" y1="-164.338" x2="323.893" y2="140.127" gradientUnits="userSpaceOnUse">
<stop stop-color="#69DDFF"/>
<stop offset="1" stop-color="#A06CD5"/>
</linearGradient>
<linearGradient id="paint8_linear_886_154" x1="383.374" y1="-164.338" x2="383.374" y2="140.127" gradientUnits="userSpaceOnUse">
<stop stop-color="#69DDFF"/>
<stop offset="1" stop-color="#A06CD5"/>
</linearGradient>
<linearGradient id="paint9_linear_886_154" x1="434.617" y1="-164.338" x2="434.617" y2="140.127" gradientUnits="userSpaceOnUse">
<stop stop-color="#69DDFF"/>
<stop offset="1" stop-color="#A06CD5"/>
</linearGradient>
<linearGradient id="paint10_linear_886_154" x1="244.838" y1="-164.338" x2="244.838" y2="140.127" gradientUnits="userSpaceOnUse">
<stop stop-color="#69DDFF"/>
<stop offset="1" stop-color="#A06CD5"/>
</linearGradient>
<linearGradient id="paint11_linear_886_154" x1="301.26" y1="-164.338" x2="301.26" y2="140.127" gradientUnits="userSpaceOnUse">
<stop stop-color="#69DDFF"/>
<stop offset="1" stop-color="#A06CD5"/>
</linearGradient>
<linearGradient id="paint12_linear_886_154" x1="359.211" y1="-164.338" x2="359.211" y2="140.127" gradientUnits="userSpaceOnUse">
<stop stop-color="#69DDFF"/>
<stop offset="1" stop-color="#A06CD5"/>
</linearGradient>
<linearGradient id="paint13_linear_886_154" x1="412.984" y1="-164.338" x2="412.984" y2="140.127" gradientUnits="userSpaceOnUse">
<stop stop-color="#69DDFF"/>
<stop offset="1" stop-color="#A06CD5"/>
</linearGradient>
<clipPath id="clip0_886_154">
<rect width="455.111" height="133.622" fill="white" transform="translate(0.888889 0.444443)"/>
</clipPath>
</defs>
</svg>
