<svg preserveAspectRatio="xMidYMid meet" data-bbox="42.4 29.2 115.2 141.602" viewBox="42.4 29.2 115.2 141.602" height="200" width="200" xmlns="http://www.w3.org/2000/svg" data-type="color" role="presentation" aria-hidden="true">
    <g>
        <path d="M81.901 39.666l46.861-8.338c2.429-.393 3.84 2.517 2.978 4.799l-18.18 50.896 34.245-.551c2.429-.079 2.743 3.225 1.646 5.428l-37.536 76.069c-.313.708-1.411.315-1.254-.393l8.228-49.087c.392-2.281.078-5.821-3.918-3.933l-29.229 5.192c-2.273.393-4.545-1.495-4.545-3.776L79.16 43.836c-.08-2.046.782-3.856 2.741-4.17z" fill="#ead637" data-color="1"></path>
        <path d="M149.058 84.977c-.549-.157-1.097-.315-1.646-.315l-27.819.629 19.277-50.424c.784-2.124-4.937-5.271-7.758-5.428-.705-.236-1.411-.315-2.116-.157L82.607 37.07c-2.664.472-4.545 2.753-4.467 5.428l2.116 73.001c.078 1.495.705 2.911 1.881 3.855 1.175.944 2.664 1.337 4.153 1.023l29.856-5.664c.627-.079 1.254.079 1.724.551.47.472.627 1.101.549 1.731l-9.404 51.368c-.157 1.023.392 1.967 1.411 2.36.235.079.47.079.627.079.157 0 .235-.079.392-.079 1.724-.079 6.112-1.101 6.347-1.652l38.711-78.35c1.019-1.968-4.545-5.115-7.445-5.744zm.079 5.034l-36.439 73.709.078-.629 8.385-45.626c.078-.315.078-.708.078-1.101 0-.236-.078-.472-.078-.708 0-.079 0-.236-.078-.315a3.84 3.84 0 0 0-.313-.865v-.079a5.212 5.212 0 0 0-.549-.865c-.078-.157-.235-.315-.313-.393-.862-.865-2.116-1.416-3.37-1.416-.313 0-.627 0-.862.079l-29.856 5.664c-.705.157-1.411-.079-1.881-.472-.549-.393-.862-1.101-.862-1.731l-2.116-73.001c0-1.259.862-2.439 2.116-2.596l4.467-.787 41.924-7.08c.862-.157 1.489.393 1.646.629.392.472.549 1.18.313 1.731l-19.826 51.997c-.157.393-.078.944.157 1.337s.705.551 1.175.629l34.636-.787c.627 0 1.175.315 1.567.865.236.631.314 1.26.001 1.811z" fill="#000010" data-color="2"></path>
        <path d="M113.247 66.884c-.157 0-.313 0-.392-.079-.705-.236-1.175-1.023-.94-1.731l6.034-19.037c.235-.708 1.019-1.101 1.724-.944.705.236 1.175 1.023.94 1.731l-6.034 19.037c-.157.629-.706 1.023-1.332 1.023z" fill="#000010" data-color="2"></path>
        <path d="M109.093 77.582c-.157 0-.313 0-.47-.079a1.382 1.382 0 0 1-.862-1.731l1.881-5.585a1.374 1.374 0 0 1 1.724-.865 1.382 1.382 0 0 1 .862 1.731l-1.881 5.585a1.342 1.342 0 0 1-1.254.944z" fill="#000010" data-color="2"></path>
        <path d="M137.382 106.373c-.157 0-.392 0-.549-.079a1.463 1.463 0 0 1-.784-1.809l4.153-10.226a1.453 1.453 0 0 1 1.802-.787 1.463 1.463 0 0 1 .784 1.809l-4.153 10.226c-.156.552-.704.866-1.253.866z" fill="#000010" data-color="2"></path>
        <path d="M131.819 117.072c-.157 0-.392-.079-.549-.157-.705-.315-1.019-1.18-.705-1.809l2.351-5.113c.313-.708 1.175-1.023 1.881-.708.705.315 1.019 1.18.705 1.809l-2.351 5.113c-.314.55-.784.865-1.332.865z" fill="#000010" data-color="2"></path>
        <path d="M59.098 47.375c-.313.157-7.758 2.989-12.068-4.169-.235-.393-.784-.551-1.254-.315-.47.236-.627.787-.392 1.18.078.079 4.075 9.518-2.508 13.294-.47.236-.627.787-.313 1.259.235.472.784.629 1.254.393.313-.157 7.601-4.091 12.695 3.068.157.236.47.393.784.393.157 0 .313-.079.47-.157.392-.236.549-.787.392-1.18 0-.079-3.683-7.945 1.959-12.036.392-.315.47-.787.235-1.18-.314-.55-.784-.708-1.254-.55z" fill="#000010" data-color="2"></path>
        <path d="M157.365 121.634c-.078-.079-2.429-2.517-.392-5.428.313-.393.235-.944-.157-1.259s-.94-.236-1.254.079c0 0-3.056 3.304-5.642 1.337-.392-.315-1.019-.236-1.332.157-.313.393-.235 1.023.157 1.337.078.079 2.899 2.281.94 5.428a.985.985 0 0 0 .235 1.259c.157.157.392.157.549.157.235 0 .549-.079.705-.315 0 0 2.429-2.832 5.015-1.337.392.236.94.157 1.175-.236a.857.857 0 0 0 .001-1.179z" fill="#000010" data-color="2"></path>
        <path d="M101.335 132.018c-.078 0-1.881.629-2.899-1.18-.235-.393-.784-.629-1.175-.393-.47.236-.627.708-.47 1.18 0 0 .94 2.439-.627 3.304-.47.236-.627.787-.392 1.259.235.472.784.629 1.254.393.157-.079 1.959-.865 3.056.865.157.236.47.393.784.393.157 0 .313 0 .47-.079.392-.236.627-.708.392-1.18 0 0-.862-2.045.549-2.911.392-.236.549-.787.313-1.18-.314-.392-.784-.628-1.255-.471z" fill="#000010" data-color="2"></path>
        <path d="M56.042 100.474c-.078 0-3.683.472-4.623-2.281-.157-.472-.549-.708-1.019-.629a.934.934 0 0 0-.784.944c0 .157.157 3.54-3.291 4.327-.47.079-.784.551-.705 1.023.078.472.549.787 1.019.787.157 0 4.467-.393 5.094 2.675.078.472.47.708.94.708h.157c.47-.079.784-.551.705-1.101 0-.157-.705-3.619 2.899-4.72.47-.157.705-.629.627-1.101-.079-.396-.549-.711-1.019-.632z" fill="#000010" data-color="2"></path>
        <path d="M151.253 69.401a.985.985 0 0 0-.235-1.259c-.078 0-3.918-2.832-2.351-6.293.157-.393.078-.944-.313-1.18s-.94-.157-1.175.236c-.157.157-2.978 3.54-6.974 1.259-.392-.236-.94-.079-1.254.315a.985.985 0 0 0 .235 1.259c.078 0 4.623 3.54 2.429 7.08-.235.472-.157 1.023.313 1.259.157.079.313.157.47.157a.862.862 0 0 0 .784-.472c.078-.157 2.586-4.012 6.896-1.967.391.235.94.078 1.175-.394z" fill="#000010" data-color="2"></path>
    </g>
</svg>