<svg width="21" height="12" viewBox="0 0 21 12" fill="none" xmlns="http://www.w3.org/2000/svg">
<g clip-path="url(#clip0_1233_1292)">
<path d="M19.1455 4.06341L19.1441 4.06219L14.0642 0.402967C13.5656 0.0435244 12.9149 -0.0513489 12.3457 0.176787C11.5613 0.49026 11.5388 1.1331 11.5632 1.39327C11.5767 1.52482 11.5975 1.73951 11.6065 1.87106L11.7261 3.59956H10.168C10.168 3.59956 10.1993 2.95428 10.1993 1.55881C10.1993 1.52971 10.1993 1.50135 10.1993 1.47323C10.1749 0.651398 9.95358 5.21441e-07 8.66546 5.21441e-07H8.65885C8.30524 -0.00028215 7.96112 0.114369 7.67833 0.326677L2.79921 3.98541L2.79652 3.98786C2.17586 4.39537 1.66944 4.9545 1.32516 5.61234C0.980876 6.27018 0.810124 7.00498 0.829056 7.74722C0.847987 8.48947 1.05598 9.2146 1.43334 9.85404C1.81071 10.4935 2.34498 11.0261 2.98561 11.4014C3.62623 11.7767 4.35202 11.9824 5.09432 11.999C5.83662 12.0156 6.57088 11.8425 7.22763 11.4962C7.88438 11.1498 8.4419 10.6416 8.84745 10.0197C9.253 9.39775 9.49317 8.68262 9.54523 7.94197C9.74085 8.15225 10.1668 8.47062 10.9551 8.47062C11.63 8.47062 12.0525 8.23735 12.2897 8.03757C12.3575 8.76693 12.6077 9.4675 13.0174 10.0747C13.4271 10.682 13.983 11.1763 14.634 11.5122C15.2849 11.8481 16.0099 12.0148 16.7422 11.9969C17.4745 11.9789 18.1905 11.777 18.8242 11.4096C19.4579 11.0423 19.989 10.5213 20.3685 9.8948C20.748 9.26826 20.9636 8.55628 20.9957 7.82448C21.0277 7.09268 20.875 6.36459 20.5516 5.70731C20.2283 5.05003 19.7448 4.4847 19.1455 4.06341ZM5.19329 10.7004C4.58696 10.7003 3.99427 10.5204 3.49017 10.1835C2.98607 9.84654 2.5932 9.3677 2.36123 8.80749C2.12927 8.24729 2.06862 7.63088 2.18697 7.03621C2.30532 6.44154 2.59735 5.89531 3.02612 5.4666C3.4549 5.0379 4.00117 4.74596 4.59586 4.62771C5.19055 4.50945 5.80695 4.57019 6.36711 4.80225C6.92728 5.0343 7.40606 5.42725 7.74291 5.9314C8.07976 6.43556 8.25956 7.02828 8.25956 7.63461C8.25959 8.03726 8.18029 8.43598 8.0262 8.80798C7.87212 9.17999 7.64625 9.51799 7.36151 9.80268C7.07677 10.0874 6.73873 10.3132 6.3667 10.4672C5.99467 10.6213 5.59594 10.7005 5.19329 10.7004ZM12.1621 6.67732C12.1529 6.73261 12.1327 6.78549 12.1027 6.83283C12.0419 6.92921 11.9578 7.00869 11.8581 7.0639C11.762 7.11854 11.6588 7.15968 11.5515 7.18616C11.3862 7.23042 11.1786 7.25658 10.9158 7.25707C10.6187 7.25707 10.3937 7.22186 10.2196 7.1666C10.0455 7.11134 9.92253 7.03383 9.83988 6.95118C9.79195 6.90536 9.75269 6.85127 9.72398 6.79151C9.70285 6.74949 9.68943 6.70402 9.68437 6.65727C9.68025 6.60677 9.69588 6.55664 9.72798 6.51744C9.76008 6.47824 9.80614 6.45302 9.85646 6.44709C9.90678 6.44117 9.95743 6.455 9.99776 6.48567C10.0381 6.51634 10.0649 6.56147 10.0727 6.61154V6.61276L10.0793 6.62768C10.1044 6.66763 10.1392 6.70059 10.1805 6.72353C10.2435 6.76037 10.3113 6.7882 10.382 6.80618C10.5057 6.83992 10.6786 6.86511 10.9153 6.86511C11.1867 6.86511 11.3757 6.83259 11.5038 6.79175C11.632 6.75092 11.6994 6.70397 11.7332 6.66949C11.7487 6.65538 11.7618 6.63887 11.7721 6.62059L11.7748 6.61448V6.61228C11.785 6.56277 11.814 6.51916 11.8558 6.49058C11.8975 6.46201 11.9486 6.4507 11.9985 6.45901C12.0483 6.46733 12.0931 6.49463 12.1232 6.53519C12.1534 6.57576 12.1667 6.62643 12.1604 6.67658L12.1621 6.67732ZM16.6368 10.7004C16.0304 10.7003 15.4377 10.5205 14.9336 10.1836C14.4294 9.84669 14.0365 9.36786 13.8045 8.80766C13.5725 8.24746 13.5119 7.63104 13.6302 7.03636C13.7485 6.44167 14.0405 5.89542 14.4693 5.46669C14.898 5.03796 15.4443 4.746 16.039 4.62772C16.6337 4.50945 17.2501 4.57017 17.8103 4.80222C18.3705 5.03427 18.8493 5.42722 19.1861 5.93138C19.523 6.43554 19.7028 7.02826 19.7028 7.63461C19.7028 8.03723 19.6235 8.43591 19.4694 8.80789C19.3153 9.17986 19.0895 9.51784 18.8048 9.80253C18.52 10.0872 18.182 10.313 17.8101 10.4671C17.4381 10.6211 17.0394 10.7004 16.6368 10.7004Z" fill="#85FF9E"/>
<path d="M5.53243 6.9044C5.53238 7.13619 5.46359 7.36276 5.33476 7.55544C5.20592 7.74813 5.02283 7.89827 4.80865 7.98688C4.59447 8.07549 4.35882 8.09859 4.1315 8.05326C3.90419 8.00792 3.69544 7.89618 3.53164 7.73218C3.36784 7.56817 3.25637 7.35928 3.21131 7.13191C3.16626 6.90454 3.18965 6.66892 3.27853 6.45485C3.36741 6.24078 3.51779 6.05788 3.71063 5.92928C3.90348 5.80069 4.13013 5.73218 4.36192 5.73242C4.67249 5.73281 4.97022 5.85646 5.18969 6.07621C5.40916 6.29595 5.53243 6.59383 5.53243 6.9044Z" fill="#85FF9E"/>
<path d="M6.66474 8.53305C6.66478 8.63855 6.63354 8.74169 6.57496 8.82943C6.51638 8.91716 6.43309 8.98556 6.33564 9.02595C6.23818 9.06635 6.13093 9.07693 6.02746 9.05636C5.92399 9.03579 5.82894 8.98499 5.75434 8.91039C5.67975 8.8358 5.62895 8.74075 5.60838 8.63728C5.58781 8.53381 5.59839 8.42656 5.63879 8.3291C5.67918 8.23164 5.74757 8.14836 5.83531 8.08978C5.92305 8.03119 6.02619 7.99995 6.13168 8C6.27304 8.00006 6.40858 8.05625 6.50854 8.1562C6.60849 8.25615 6.66467 8.3917 6.66474 8.53305Z" fill="#85FF9E"/>
<path d="M18.135 8.4708C18.135 8.57627 18.1037 8.67938 18.0451 8.76708C17.9865 8.85478 17.9032 8.92313 17.8057 8.9635C17.7083 9.00386 17.6011 9.01442 17.4976 8.99384C17.3942 8.97327 17.2991 8.92248 17.2246 8.84789C17.15 8.77331 17.0992 8.67829 17.0786 8.57484C17.058 8.47139 17.0686 8.36416 17.109 8.26671C17.1493 8.16926 17.2177 8.08598 17.3054 8.02738C17.3931 7.96878 17.4962 7.9375 17.6017 7.9375C17.7431 7.93756 17.8787 7.99377 17.9787 8.09377C18.0787 8.19377 18.1349 8.32938 18.135 8.4708Z" fill="#85FF9E"/>
<path d="M16.9206 6.95271C16.9206 7.18117 16.8529 7.40451 16.726 7.5945C16.5991 7.78448 16.4188 7.93257 16.2077 8.02004C15.9967 8.10752 15.7644 8.13044 15.5403 8.08592C15.3163 8.04139 15.1104 7.93142 14.9488 7.76991C14.7873 7.6084 14.6772 7.40261 14.6326 7.17855C14.588 6.95449 14.6108 6.72223 14.6982 6.51114C14.7856 6.30006 14.9336 6.11962 15.1235 5.99266C15.3134 5.86569 15.5368 5.7979 15.7652 5.79785C15.9169 5.79782 16.0671 5.82767 16.2073 5.88569C16.3474 5.94371 16.4748 6.02876 16.5821 6.136C16.6894 6.24324 16.7745 6.37056 16.8325 6.51069C16.8906 6.65082 16.9205 6.80102 16.9206 6.95271Z" fill="#85FF9E"/>
</g>
<defs>
<clipPath id="clip0_1233_1292">
<rect width="20.1723" height="12" fill="white" transform="translate(0.827637)"/>
</clipPath>
</defs>
</svg>
