<svg width="21" height="12" viewBox="0 0 21 12" fill="none" xmlns="http://www.w3.org/2000/svg">
<g clip-path="url(#clip0_1218_686)">
<path d="M19.146 4.06341L19.1445 4.06219L14.0647 0.402967C13.5661 0.0435244 12.9154 -0.0513489 12.3462 0.176787C11.5618 0.49026 11.5393 1.1331 11.5637 1.39327C11.5772 1.52482 11.598 1.73951 11.607 1.87106L11.7266 3.59956H10.1685C10.1685 3.59956 10.1998 2.95428 10.1998 1.55881C10.1998 1.52971 10.1998 1.50135 10.1998 1.47323C10.1754 0.651398 9.95407 5.21441e-07 8.66594 5.21441e-07H8.65934C8.30573 -0.00028215 7.96161 0.114369 7.67882 0.326677L2.7997 3.98541L2.79701 3.98786C2.17635 4.39537 1.66993 4.9545 1.32565 5.61234C0.981365 6.27018 0.810613 7.00498 0.829544 7.74722C0.848475 8.48947 1.05646 9.2146 1.43383 9.85404C1.8112 10.4935 2.34547 11.0261 2.98609 11.4014C3.62672 11.7767 4.35251 11.9824 5.09481 11.999C5.83711 12.0156 6.57137 11.8425 7.22812 11.4962C7.88487 11.1498 8.44239 10.6416 8.84794 10.0197C9.25349 9.39775 9.49366 8.68262 9.54572 7.94197C9.74134 8.15225 10.1673 8.47062 10.9556 8.47062C11.6305 8.47062 12.053 8.23735 12.2902 8.03757C12.358 8.76693 12.6082 9.4675 13.0179 10.0747C13.4276 10.682 13.9835 11.1763 14.6345 11.5122C15.2854 11.8481 16.0104 12.0148 16.7427 11.9969C17.475 11.9789 18.191 11.777 18.8247 11.4096C19.4584 11.0423 19.9895 10.5213 20.369 9.8948C20.7484 9.26826 20.9641 8.55628 20.9961 7.82448C21.0281 7.09268 20.8755 6.36459 20.5521 5.70731C20.2288 5.05003 19.7452 4.4847 19.146 4.06341ZM5.19378 10.7004C4.58745 10.7003 3.99476 10.5204 3.49066 10.1835C2.98656 9.84654 2.59369 9.3677 2.36172 8.80749C2.12975 8.24729 2.06911 7.63088 2.18746 7.03621C2.30581 6.44154 2.59783 5.89531 3.02661 5.4666C3.45539 5.0379 4.00166 4.74596 4.59634 4.62771C5.19103 4.50945 5.80743 4.57019 6.3676 4.80225C6.92777 5.0343 7.40655 5.42725 7.7434 5.9314C8.08025 6.43556 8.26004 7.02828 8.26004 7.63461C8.26008 8.03726 8.18078 8.43598 8.02669 8.80798C7.8726 9.17999 7.64674 9.51799 7.362 9.80268C7.07726 10.0874 6.73922 10.3132 6.36719 10.4672C5.99516 10.6213 5.59643 10.7005 5.19378 10.7004ZM12.1626 6.67732C12.1534 6.73261 12.1332 6.78549 12.1031 6.83283C12.0424 6.92921 11.9583 7.00869 11.8586 7.0639C11.7625 7.11854 11.6593 7.15968 11.552 7.18616C11.3867 7.23042 11.1791 7.25658 10.9163 7.25707C10.6192 7.25707 10.3942 7.22186 10.2201 7.1666C10.046 7.11134 9.92302 7.03383 9.84037 6.95118C9.79244 6.90536 9.75318 6.85127 9.72447 6.79151C9.70334 6.74949 9.68992 6.70402 9.68485 6.65727C9.68073 6.60677 9.69637 6.55664 9.72847 6.51744C9.76057 6.47824 9.80663 6.45302 9.85695 6.44709C9.90726 6.44117 9.95792 6.455 9.99825 6.48567C10.0386 6.51634 10.0654 6.56147 10.0731 6.61154V6.61276L10.0798 6.62768C10.1049 6.66763 10.1397 6.70059 10.181 6.72353C10.2439 6.76037 10.3118 6.7882 10.3825 6.80618C10.5062 6.83992 10.6791 6.86511 10.9158 6.86511C11.1872 6.86511 11.3762 6.83259 11.5043 6.79175C11.6324 6.75092 11.6999 6.70397 11.7337 6.66949C11.7492 6.65538 11.7623 6.63887 11.7726 6.62059L11.7752 6.61448V6.61228C11.7855 6.56277 11.8145 6.51916 11.8562 6.49058C11.8979 6.46201 11.9491 6.4507 11.999 6.45901C12.0488 6.46733 12.0936 6.49463 12.1237 6.53519C12.1539 6.57576 12.1672 6.62643 12.1609 6.67658L12.1626 6.67732ZM16.6373 10.7004C16.0309 10.7003 15.4382 10.5205 14.9341 10.1836C14.4299 9.84669 14.037 9.36786 13.805 8.80766C13.573 8.24746 13.5123 7.63104 13.6307 7.03636C13.749 6.44167 14.041 5.89542 14.4698 5.46669C14.8985 5.03796 15.4448 4.746 16.0395 4.62772C16.6342 4.50945 17.2506 4.57017 17.8108 4.80222C18.371 5.03427 18.8498 5.42722 19.1866 5.93138C19.5235 6.43554 19.7033 7.02826 19.7033 7.63461C19.7033 8.03723 19.624 8.43591 19.4699 8.80789C19.3158 9.17986 19.09 9.51784 18.8052 9.80253C18.5205 10.0872 18.1825 10.313 17.8105 10.4671C17.4386 10.6211 17.0399 10.7004 16.6373 10.7004Z" fill="#D8E1FF"/>
<path d="M5.53292 6.90416C5.53287 7.13594 5.46408 7.36251 5.33524 7.5552C5.20641 7.74788 5.02332 7.89803 4.80914 7.98664C4.59496 8.07525 4.3593 8.09835 4.13199 8.05301C3.90468 8.00767 3.69592 7.89593 3.53213 7.73193C3.36833 7.56793 3.25686 7.35903 3.2118 7.13166C3.16675 6.9043 3.19014 6.66867 3.27902 6.4546C3.3679 6.24053 3.51828 6.05763 3.71112 5.92904C3.90397 5.80045 4.13062 5.73194 4.36241 5.73218C4.67298 5.73257 4.9707 5.85621 5.19017 6.07596C5.40965 6.29571 5.53292 6.59358 5.53292 6.90416Z" fill="#D8E1FF"/>
<path d="M6.66522 8.5333C6.66527 8.63879 6.63403 8.74193 6.57545 8.82967C6.51687 8.91741 6.43358 8.9858 6.33612 9.0262C6.23867 9.06659 6.13142 9.07717 6.02795 9.0566C5.92448 9.03603 5.82943 8.98524 5.75483 8.91064C5.68023 8.83604 5.62944 8.74099 5.60887 8.63752C5.5883 8.53405 5.59888 8.4268 5.63927 8.32934C5.67967 8.23189 5.74806 8.1486 5.8358 8.09002C5.92354 8.03144 6.02668 8.0002 6.13217 8.00024C6.27353 8.00031 6.40907 8.05649 6.50902 8.15644C6.60898 8.2564 6.66516 8.39194 6.66522 8.5333Z" fill="#D8E1FF"/>
<path d="M18.1359 8.47055C18.1359 8.57603 18.1046 8.67913 18.0461 8.76683C17.9875 8.85453 17.9042 8.92289 17.8067 8.96325C17.7093 9.00362 17.602 9.01418 17.4986 8.9936C17.3951 8.97302 17.3001 8.92223 17.2255 8.84765C17.151 8.77307 17.1002 8.67804 17.0796 8.57459C17.059 8.47114 17.0696 8.36391 17.1099 8.26647C17.1503 8.16902 17.2186 8.08573 17.3063 8.02713C17.394 7.96853 17.4972 7.93726 17.6026 7.93726C17.744 7.93732 17.8797 7.99353 17.9797 8.09352C18.0797 8.19352 18.1359 8.32913 18.1359 8.47055Z" fill="#D8E1FF"/>
<path d="M16.9206 6.9532C16.9206 7.18166 16.8529 7.405 16.726 7.59499C16.5991 7.78497 16.4188 7.93306 16.2077 8.02053C15.9967 8.108 15.7644 8.13093 15.5403 8.0864C15.3163 8.04188 15.1104 7.93191 14.9488 7.7704C14.7873 7.60889 14.6772 7.40309 14.6326 7.17903C14.588 6.95498 14.6108 6.72272 14.6982 6.51163C14.7856 6.30055 14.9336 6.12011 15.1235 5.99315C15.3134 5.86618 15.5368 5.79839 15.7652 5.79834C15.9169 5.79831 16.0671 5.82815 16.2073 5.88617C16.3474 5.94419 16.4748 6.02925 16.5821 6.13649C16.6894 6.24373 16.7745 6.37105 16.8325 6.51118C16.8906 6.65131 16.9205 6.80151 16.9206 6.9532Z" fill="#D8E1FF"/>
</g>
<defs>
<clipPath id="clip0_1218_686">
<rect width="20.1723" height="12" fill="white" transform="translate(0.828125)"/>
</clipPath>
</defs>
</svg>
