<svg xmlns="http://www.w3.org/2000/svg" xmlns:xlink="http://www.w3.org/1999/xlink" width="500" zoomAndPan="magnify" viewBox="0 0 375 374.999991" height="500" preserveAspectRatio="xMidYMid meet" version="1.0">
<defs>
<clipPath id="06dcff7512"><path d="M 0 12.1875 L 241 12.1875 L 241 320 L 0 320 Z M 0 12.1875 " clip-rule="nonzero"/></clipPath>
</defs>
<path fill="#85FF9E" d="M 316.011719 362.792969 C 315.378906 362.792969 314.792969 362.742188 314.160156 362.636719 L 119.300781 327.898438 C 116.546875 327.421875 114.058594 325.835938 112.46875 323.558594 C 110.878906 321.226562 110.246094 318.421875 110.722656 315.617188 L 113.582031 299.730469 C 114.585938 293.957031 120.09375 290.144531 125.863281 291.152344 C 131.636719 292.15625 135.449219 297.664062 134.441406 303.4375 L 133.488281 308.890625 L 307.488281 339.917969 L 351.277344 94.121094 L 209.316406 68.808594 C 203.542969 67.804688 199.730469 62.296875 200.738281 56.523438 C 201.742188 50.753906 207.25 46.941406 213.023438 47.949219 L 365.414062 75.109375 C 371.1875 76.117188 375 81.625 373.992188 87.394531 L 326.445312 354.058594 C 325.96875 356.8125 324.378906 359.300781 322.101562 360.886719 C 320.25 362.105469 318.128906 362.792969 316.011719 362.792969 Z M 316.011719 362.792969 " fill-opacity="1" fill-rule="nonzero"/>
<g clip-path="url(#06dcff7512)">
<path fill="#85FF9E" d="M 32.246094 319.320312 C 26.792969 319.320312 22.132812 315.085938 21.710938 309.578125 L 0.476562 39.582031 C 0 33.757812 4.394531 28.671875 10.21875 28.195312 L 207.515625 12.683594 C 213.339844 12.207031 218.421875 16.601562 218.898438 22.425781 L 240.132812 292.421875 C 240.34375 295.230469 239.445312 297.984375 237.644531 300.152344 C 235.84375 302.324219 233.195312 303.59375 230.441406 303.808594 L 33.148438 319.320312 C 32.828125 319.320312 32.566406 319.320312 32.246094 319.320312 Z M 22.453125 48.476562 L 41.992188 297.347656 L 218.210938 283.527344 L 198.671875 34.65625 Z M 22.453125 48.476562 " fill-opacity="1" fill-rule="nonzero"/>
</g>
</svg>