<svg width="12" height="13" viewBox="0 0 12 13" fill="none" xmlns="http://www.w3.org/2000/svg">
<mask id="mask0_1296_2943" style="mask-type:luminance" maskUnits="userSpaceOnUse" x="0" y="0" width="12" height="13">
<path d="M0.403809 0.5H11.5878V12.5H0.403809V0.5Z" fill="white"/>
</mask>
<g mask="url(#mask0_1296_2943)">
<path d="M9.59781 5.30066H7.99881V2.50253C7.99881 1.40041 7.10218 0.503906 6.00018 0.503906C5.82181 0.503906 5.66481 0.622156 5.61593 0.794031L4.84493 3.49266L3.03643 5.30066H0.803559C0.582934 5.30066 0.403809 5.47941 0.403809 5.70041V12.0962C0.403809 12.3173 0.582934 12.4959 0.803559 12.4959H9.72006C10.3089 12.4959 10.8062 12.0747 10.9029 11.4938L11.5913 7.36491C11.5948 7.34341 11.5964 7.32141 11.5964 7.29941C11.5964 6.19728 10.6998 5.30066 9.59781 5.30066ZM1.20331 6.10016H2.80218V11.6965H1.20331V6.10016ZM10.1142 11.3627C10.0818 11.5558 9.91593 11.6965 9.72006 11.6965H3.60168V5.86591L5.48331 3.98441C5.53118 3.93641 5.56643 3.87678 5.58481 3.81128L6.29118 1.33891C6.81243 1.46966 7.19931 1.94166 7.19931 2.50253V5.70041C7.19931 5.92153 7.37843 6.10016 7.59906 6.10016H9.59781C10.2486 6.10016 10.7802 6.62178 10.7966 7.26866L10.1142 11.3627Z" fill="#FFAC81"/>
</g>
</svg>
