<svg width="12" height="12" viewBox="0 0 12 12" fill="none" xmlns="http://www.w3.org/2000/svg">
<mask id="mask0_1327_775" style="mask-type:luminance" maskUnits="userSpaceOnUse" x="0" y="0" width="12" height="12">
<path d="M0.403809 0H11.5878V12H0.403809V0Z" fill="white"/>
</mask>
<g mask="url(#mask0_1327_775)">
<path d="M9.59781 4.80066H7.99881V2.00253C7.99881 0.900406 7.10218 0.00390625 6.00018 0.00390625C5.82181 0.00390625 5.66481 0.122156 5.61593 0.294031L4.84493 2.99266L3.03643 4.80066H0.803559C0.582934 4.80066 0.403809 4.97941 0.403809 5.20041V11.5962C0.403809 11.8173 0.582934 11.9959 0.803559 11.9959H9.72006C10.3089 11.9959 10.8062 11.5747 10.9029 10.9938L11.5913 6.86491C11.5948 6.84341 11.5964 6.82141 11.5964 6.79941C11.5964 5.69728 10.6998 4.80066 9.59781 4.80066ZM1.20331 5.60016H2.80218V11.1965H1.20331V5.60016ZM10.1142 10.8627C10.0818 11.0558 9.91593 11.1965 9.72006 11.1965H3.60168V5.36591L5.48331 3.48441C5.53118 3.43641 5.56643 3.37678 5.58481 3.31128L6.29118 0.838906C6.81243 0.969656 7.19931 1.44166 7.19931 2.00253V5.20041C7.19931 5.42153 7.37843 5.60016 7.59906 5.60016H9.59781C10.2486 5.60016 10.7802 6.12178 10.7966 6.76866L10.1142 10.8627Z" fill="#85FF9E"/>
</g>
</svg>
