<svg width="18" height="20" viewBox="0 0 18 20" fill="none" xmlns="http://www.w3.org/2000/svg">
<mask id="mask0_1300_4607" style="mask-type:luminance" maskUnits="userSpaceOnUse" x="0" y="0" width="18" height="20">
<path d="M0.262695 0H17.7427V20H0.262695V0Z" fill="white"/>
</mask>
<g mask="url(#mask0_1300_4607)">
<path d="M17.3181 4.71363L9.41895 0.156546C9.35499 0.119463 9.28749 0.0913379 9.21624 0.0719629C9.14499 0.0527963 9.07228 0.0432129 8.99853 0.0432129C8.92457 0.0432129 8.85207 0.0527963 8.78082 0.0719629C8.70957 0.0913379 8.64186 0.119463 8.57811 0.156546L0.683115 4.71363C0.619157 4.75071 0.560824 4.7955 0.50874 4.848C0.456449 4.9005 0.411865 4.95884 0.37499 5.023C0.338115 5.08738 0.30999 5.1553 0.291032 5.22675C0.272074 5.29842 0.26249 5.37113 0.262699 5.44509V14.5634C0.262907 14.6372 0.27249 14.7097 0.291657 14.7809C0.310824 14.852 0.338949 14.9195 0.375824 14.9832C0.412699 15.0472 0.457074 15.1051 0.509157 15.1572C0.561449 15.2093 0.619365 15.2538 0.683115 15.2907L8.57811 19.8478C8.64186 19.8849 8.70957 19.9132 8.78082 19.9326C8.85207 19.9518 8.92457 19.9613 8.99853 19.9613C9.07228 19.9613 9.14499 19.9518 9.21624 19.9326C9.28749 19.9132 9.3552 19.8849 9.41895 19.8478L17.3181 15.2907C17.3819 15.2538 17.4398 15.2093 17.4921 15.1572C17.5442 15.1051 17.5885 15.0472 17.6254 14.9834C17.6625 14.9195 17.6904 14.852 17.7096 14.7809C17.7287 14.7097 17.7383 14.6372 17.7385 14.5634V5.44509C17.7387 5.37113 17.7292 5.29842 17.7102 5.22675C17.6912 5.15509 17.6631 5.08738 17.6262 5.023C17.5894 4.95884 17.5448 4.9005 17.4925 4.848C17.4404 4.7955 17.3821 4.75071 17.3181 4.71363ZM5.87499 15.497C5.8752 15.5343 5.87207 15.5715 5.86561 15.6084C5.85916 15.6453 5.84957 15.6813 5.83686 15.7165C5.82395 15.7518 5.80812 15.7857 5.78916 15.818C5.77041 15.8503 5.74874 15.8809 5.72436 15.9093C5.7002 15.9378 5.67353 15.964 5.64457 15.9878C5.61561 16.0115 5.58478 16.0326 5.55187 16.0507C5.51916 16.069 5.4852 16.0843 5.44978 16.0963C5.41436 16.1086 5.37812 16.1174 5.34103 16.1232C5.30895 16.1268 5.27666 16.1282 5.24437 16.1274C5.21103 16.1274 5.17791 16.1247 5.14499 16.1195C5.11207 16.1143 5.07978 16.1063 5.04812 16.0959C5.01645 16.0855 4.98582 16.0728 4.95624 16.0576C4.92666 16.0422 4.89832 16.0247 4.87145 16.0051C4.84478 15.9853 4.81957 15.9636 4.79624 15.9399C4.7727 15.9161 4.75124 15.8907 4.73186 15.8636C4.71249 15.8365 4.69541 15.8082 4.68061 15.7782C4.66562 15.7484 4.65332 15.7178 4.64332 15.6859L2.9952 10.347V13.832C2.9952 13.8734 2.99124 13.9143 2.98312 13.9549C2.97499 13.9955 2.96312 14.0349 2.94728 14.0732C2.93145 14.1115 2.91207 14.1478 2.88895 14.1822C2.86603 14.2168 2.83978 14.2486 2.81062 14.2778C2.78124 14.3072 2.74937 14.3332 2.71499 14.3561C2.68062 14.3793 2.64416 14.3986 2.60603 14.4145C2.5677 14.4303 2.52832 14.4424 2.4877 14.4503C2.44707 14.4584 2.40603 14.4626 2.36478 14.4626C2.32332 14.4626 2.28228 14.4584 2.24166 14.4503C2.20103 14.4424 2.16166 14.4303 2.12332 14.4145C2.0852 14.3986 2.04874 14.3793 2.01437 14.3561C1.97999 14.3332 1.94812 14.3072 1.91874 14.2778C1.88957 14.2486 1.86332 14.2168 1.84041 14.1822C1.81728 14.1478 1.79791 14.1115 1.78207 14.0732C1.76624 14.0349 1.75437 13.9955 1.74624 13.9549C1.73812 13.9143 1.73416 13.8734 1.73416 13.832V6.17238C1.73395 6.13488 1.73687 6.0978 1.74332 6.06092C1.74978 6.02384 1.75937 5.9878 1.77228 5.95259C1.78499 5.91738 1.80103 5.88363 1.81978 5.85113C1.83874 5.81884 1.8602 5.78842 1.88457 5.75988C1.90895 5.73134 1.93562 5.70509 1.96457 5.68134C1.99353 5.65759 2.02437 5.63655 2.05707 5.61842C2.08999 5.60009 2.12395 5.58488 2.15957 5.5728C2.19499 5.5605 2.23124 5.55155 2.26832 5.54592C2.3052 5.5403 2.34249 5.5378 2.37999 5.53884C2.41749 5.53988 2.45457 5.54405 2.49124 5.55175C2.52791 5.55925 2.56374 5.57009 2.59853 5.58405C2.63332 5.598 2.66666 5.61488 2.69832 5.63488C2.7302 5.65467 2.75978 5.67738 2.7877 5.70259C2.81541 5.7278 2.84062 5.7553 2.86353 5.78488C2.88624 5.81467 2.90624 5.84613 2.92353 5.87946C2.94062 5.9128 2.95478 5.94738 2.96582 5.98321L4.61374 11.3224V4.5078C4.61374 4.46634 4.6177 4.4253 4.62582 4.38467C4.63395 4.34405 4.64582 4.30467 4.66166 4.26634C4.67749 4.22821 4.69707 4.19175 4.71999 4.15738C4.74291 4.123 4.76916 4.09113 4.79832 4.06175C4.8277 4.03259 4.85957 4.00634 4.89395 3.98342C4.92832 3.9603 4.96478 3.94092 5.00291 3.92509C5.04124 3.90925 5.08062 3.89738 5.12124 3.88925C5.16187 3.88113 5.20291 3.87717 5.24437 3.87717C5.28561 3.87717 5.32666 3.88113 5.36728 3.88925C5.40791 3.89738 5.44728 3.90925 5.48561 3.92509C5.52395 3.94092 5.5602 3.9603 5.59457 3.98342C5.62916 4.00634 5.66082 4.03259 5.6902 4.06175C5.71957 4.09113 5.74562 4.123 5.76853 4.15738C5.79166 4.19175 5.81103 4.22821 5.82687 4.26634C5.8427 4.30467 5.85478 4.34405 5.8627 4.38467C5.87082 4.4253 5.87499 4.46634 5.87499 4.5078V15.497ZM10.861 10.6328H7.97686V16.7118C7.97686 16.753 7.97291 16.794 7.96478 16.8347C7.95666 16.8753 7.94478 16.9147 7.92895 16.953C7.91312 16.9911 7.89353 17.0276 7.87062 17.062C7.84749 17.0963 7.82145 17.1282 7.79207 17.1576C7.76291 17.1868 7.73103 17.213 7.69666 17.2359C7.66228 17.259 7.62582 17.2784 7.58749 17.2943C7.54937 17.3101 7.50999 17.322 7.46937 17.3301C7.42874 17.3382 7.3877 17.3422 7.34624 17.3422C7.30478 17.3422 7.26395 17.3382 7.22332 17.3301C7.1827 17.322 7.14312 17.3101 7.10499 17.2943C7.06666 17.2784 7.03041 17.259 6.99603 17.2359C6.96145 17.213 6.92957 17.1868 6.90041 17.1576C6.87103 17.1282 6.84499 17.0963 6.82187 17.062C6.79895 17.0276 6.77957 16.9911 6.76374 16.953C6.74791 16.9147 6.73582 16.8753 6.7277 16.8347C6.71978 16.794 6.71561 16.753 6.71561 16.7118V3.2928C6.71603 3.23738 6.72353 3.18321 6.73811 3.12967C6.75249 3.07634 6.77353 3.02571 6.80124 2.9778C6.82874 2.93009 6.86207 2.88634 6.90103 2.84717C6.93999 2.808 6.98332 2.77425 7.03103 2.74634L8.68312 1.79613C8.73103 1.76821 8.78166 1.74717 8.8352 1.73259C8.88874 1.71821 8.94312 1.71092 8.99853 1.71092C9.05395 1.71092 9.10832 1.71821 9.16187 1.73259C9.2152 1.74717 9.26603 1.76821 9.31374 1.79613L11.1762 2.86821C11.2123 2.88884 11.2458 2.9128 11.2771 2.94009C11.3083 2.96738 11.3367 2.99759 11.3619 3.0303C11.3873 3.06321 11.4092 3.09821 11.4275 3.1355C11.4458 3.17259 11.4604 3.21113 11.4712 3.25134C11.4821 3.29134 11.4887 3.33196 11.4917 3.37342C11.4944 3.41488 11.4931 3.45613 11.4877 3.49717C11.4823 3.53842 11.4729 3.57863 11.4596 3.6178C11.4462 3.65717 11.4294 3.69467 11.4085 3.73071C11.3879 3.76655 11.3637 3.80009 11.3364 3.83134C11.3092 3.86259 11.2789 3.89071 11.246 3.91592C11.2131 3.94113 11.1781 3.963 11.1408 3.98134C11.1035 3.99967 11.065 4.01425 11.0248 4.02488C10.9848 4.0355 10.9442 4.04217 10.9027 4.04488C10.8612 4.04759 10.82 4.04613 10.7789 4.04071C10.7377 4.0353 10.6975 4.02592 10.6583 4.01238C10.6192 3.99905 10.5814 3.98196 10.5456 3.96113L8.99853 3.07009L7.97686 3.65842V9.37155H10.8608C10.9023 9.37155 10.9433 9.37571 10.9839 9.38363C11.0246 9.39176 11.0639 9.40384 11.1023 9.41967C11.1404 9.4355 11.1769 9.45488 11.2112 9.4778C11.2456 9.50092 11.2775 9.52696 11.3069 9.55634C11.336 9.5855 11.3623 9.61738 11.3852 9.65175C11.4083 9.68634 11.4277 9.72259 11.4435 9.76092C11.4594 9.79905 11.4712 9.83863 11.4794 9.87925C11.4875 9.91988 11.4914 9.96071 11.4914 10.0022C11.4914 10.0436 11.4875 10.0847 11.4794 10.1253C11.4712 10.1659 11.4594 10.2053 11.4435 10.2434C11.4277 10.2818 11.4083 10.318 11.3852 10.3526C11.3623 10.387 11.336 10.4188 11.3069 10.448C11.2775 10.4774 11.2456 10.5034 11.2112 10.5265C11.1769 10.5495 11.1404 10.5688 11.1023 10.5849C11.0639 10.6007 11.0246 10.6126 10.9839 10.6207C10.9433 10.6288 10.9023 10.6328 10.8608 10.6328H10.861ZM16.1829 6.4878C16.1623 6.52363 16.1381 6.55717 16.1108 6.58821C16.0835 6.61925 16.0535 6.64738 16.0206 6.67259C15.9877 6.6978 15.9527 6.71967 15.9156 6.738C15.8785 6.75634 15.84 6.77071 15.8 6.78155C15.76 6.79217 15.7192 6.79905 15.6779 6.80175C15.6367 6.80446 15.5954 6.803 15.5544 6.7978C15.5133 6.79238 15.4731 6.783 15.4339 6.76967C15.3948 6.75655 15.3571 6.73946 15.3212 6.71884L14.615 6.31113V14.7861C14.615 14.8276 14.6108 14.8686 14.6027 14.9093C14.5948 14.9499 14.5827 14.9893 14.5669 15.0276C14.551 15.0657 14.5317 15.1022 14.5087 15.1365C14.4856 15.1709 14.4596 15.2028 14.4302 15.2322C14.401 15.2613 14.3692 15.2876 14.3346 15.3105C14.3002 15.3336 14.2639 15.353 14.2256 15.3688C14.1873 15.3847 14.1479 15.3965 14.1073 15.4047C14.0667 15.4128 14.0258 15.4168 13.9844 15.4168C13.9429 15.4168 13.9019 15.4128 13.8612 15.4047C13.8206 15.3965 13.7812 15.3847 13.7429 15.3688C13.7048 15.353 13.6683 15.3336 13.6339 15.3105C13.5996 15.2876 13.5677 15.2613 13.5383 15.2322C13.5092 15.2028 13.4829 15.1709 13.46 15.1365C13.4371 15.1022 13.4175 15.0657 13.4017 15.0276C13.3858 14.9893 13.3739 14.9499 13.3658 14.9093C13.3577 14.8686 13.3537 14.8276 13.3537 14.7861V5.58405L12.0171 4.8103C11.981 4.78967 11.9475 4.7655 11.9164 4.73821C11.8852 4.71092 11.8571 4.68092 11.8317 4.648C11.8064 4.6153 11.7846 4.5803 11.7662 4.543C11.7479 4.50592 11.7333 4.46738 11.7227 4.42738C11.7119 4.38717 11.7052 4.34655 11.7025 4.3053C11.6998 4.26384 11.701 4.22259 11.7064 4.18155C11.7119 4.1405 11.7212 4.1003 11.7346 4.06113C11.7477 4.02175 11.7648 3.98425 11.7854 3.94842C11.8062 3.91238 11.8302 3.87884 11.8575 3.8478C11.8848 3.81655 11.915 3.78842 11.9479 3.76321C11.9806 3.738 12.0158 3.71613 12.0529 3.6978C12.09 3.67946 12.1287 3.66488 12.1687 3.65425C12.2087 3.64363 12.2494 3.63675 12.2908 3.63405C12.3321 3.63134 12.3733 3.6328 12.4144 3.63821C12.4556 3.64363 12.4956 3.653 12.535 3.66634C12.5742 3.67967 12.6117 3.69675 12.6477 3.71738L15.9519 5.62592C15.9875 5.64675 16.0208 5.67092 16.0519 5.69821C16.0829 5.72571 16.1108 5.75592 16.136 5.78863C16.161 5.82155 16.1827 5.85655 16.201 5.89363C16.2192 5.93092 16.2337 5.96946 16.2444 6.00925C16.255 6.04925 16.2619 6.08988 16.2646 6.13113C16.2675 6.17238 16.2662 6.21363 16.2608 6.25467C16.2556 6.29571 16.2464 6.33571 16.2333 6.37509C16.2202 6.41425 16.2035 6.45175 16.1829 6.4878Z" fill="#85FF9E"/>
</g>
</svg>
