<svg width="17" height="11" viewBox="0 0 17 11" fill="none" xmlns="http://www.w3.org/2000/svg">
<path d="M15.3596 3.88618L15.3584 3.88516L11.1252 0.835806C10.7097 0.53627 10.1675 0.457209 9.69312 0.647323C9.03944 0.90855 9.02069 1.44425 9.04107 1.66106C9.05227 1.77068 9.0696 1.94959 9.07714 2.05921L9.17678 3.49963H7.87838C7.87838 3.49963 7.90446 2.9619 7.90446 1.79901C7.90446 1.77476 7.90446 1.75112 7.90446 1.72769C7.88409 1.04283 7.69968 0.5 6.62624 0.5H6.62074C6.32606 0.499765 6.03929 0.595307 5.80364 0.772231L1.7377 3.82118L1.73546 3.82321C1.21825 4.16281 0.796227 4.62875 0.509327 5.17695C0.222426 5.72515 0.080133 6.33748 0.0959091 6.95602C0.111685 7.57456 0.285009 8.17884 0.599483 8.7117C0.913956 9.24456 1.35918 9.68838 1.89303 10.0012C2.42689 10.314 3.03171 10.4854 3.6503 10.4992C4.26888 10.513 4.88076 10.3688 5.42805 10.0802C5.97534 9.79152 6.43995 9.36803 6.7779 8.84975C7.11586 8.33146 7.316 7.73552 7.35939 7.11831C7.5224 7.29354 7.87736 7.55885 8.5343 7.55885C9.0967 7.55885 9.4488 7.36446 9.64645 7.19798C9.70293 7.80578 9.91148 8.38959 10.2529 8.89561C10.5943 9.40163 11.0575 9.81358 11.6 10.0935C12.1424 10.3734 12.7466 10.5123 13.3569 10.4974C13.9671 10.4825 14.5638 10.3142 15.0919 10.008C15.62 9.70191 16.0625 9.26778 16.3788 8.74566C16.695 8.22355 16.8747 7.63023 16.9014 7.0204C16.9281 6.41057 16.8008 5.80383 16.5314 5.25609C16.262 4.70836 15.859 4.23725 15.3596 3.88618ZM3.73277 9.41699C3.22749 9.41691 2.73359 9.267 2.3135 8.98623C1.89342 8.70545 1.56603 8.30641 1.37272 7.83958C1.17942 7.37274 1.12888 6.85906 1.22751 6.3635C1.32613 5.86795 1.56948 5.41276 1.9268 5.0555C2.28411 4.69825 2.73934 4.45497 3.23491 4.35642C3.73048 4.25788 4.24415 4.30849 4.71096 4.50187C5.17776 4.69525 5.57675 5.02271 5.85746 5.44284C6.13816 5.86297 6.28799 6.3569 6.28799 6.86217C6.28802 7.19772 6.22194 7.52998 6.09353 7.83998C5.96513 8.14999 5.7769 8.43166 5.53962 8.6689C5.30234 8.90615 5.02064 9.09433 4.71061 9.22268C4.40059 9.35104 4.06832 9.41707 3.73277 9.41699ZM9.54009 6.06443C9.53242 6.11051 9.51558 6.15457 9.49057 6.19403C9.43994 6.27434 9.36985 6.34057 9.28681 6.38659C9.20672 6.43212 9.12074 6.4664 9.03129 6.48847C8.89354 6.52535 8.72054 6.54715 8.5015 6.54756C8.25392 6.54756 8.06646 6.51822 7.92138 6.47217C7.77629 6.42611 7.6738 6.36152 7.60493 6.29265C7.56499 6.25447 7.53227 6.20939 7.50834 6.15959C7.49074 6.12458 7.47956 6.08669 7.47533 6.04772C7.4719 6.00564 7.48493 5.96387 7.51168 5.9312C7.53843 5.89853 7.57681 5.87751 7.61874 5.87258C7.66068 5.86764 7.70289 5.87916 7.73649 5.90473C7.7701 5.93029 7.79248 5.96789 7.79891 6.00962V6.01064L7.80441 6.02307C7.82538 6.05636 7.85439 6.08383 7.88877 6.10294C7.94124 6.13365 7.99776 6.15683 8.05668 6.17182C8.15978 6.19993 8.30384 6.22092 8.50109 6.22092C8.72727 6.22092 8.88478 6.19382 8.99155 6.15979C9.09832 6.12577 9.15456 6.08664 9.18268 6.05791C9.1956 6.04615 9.20654 6.03239 9.21509 6.01716L9.21733 6.01206V6.01023C9.22587 5.96898 9.25006 5.93263 9.28482 5.90882C9.31958 5.88501 9.3622 5.87558 9.40376 5.88251C9.44532 5.88944 9.48258 5.91219 9.50773 5.94599C9.53288 5.9798 9.54397 6.02202 9.53866 6.06382L9.54009 6.06443ZM13.269 9.41699C12.7637 9.41695 12.2698 9.26707 11.8497 8.98632C11.4296 8.70557 11.1021 8.30655 10.9088 7.83972C10.7155 7.37288 10.6649 6.8592 10.7635 6.36363C10.8621 5.86806 11.1054 5.41285 11.4627 5.05558C11.8201 4.6983 12.2753 4.455 12.7709 4.35644C13.2664 4.25787 13.7801 4.30848 14.2469 4.50185C14.7138 4.69523 15.1127 5.02268 15.3935 5.44282C15.6742 5.86295 15.824 6.35689 15.824 6.86217C15.824 7.19769 15.7579 7.52993 15.6295 7.8399C15.5011 8.14988 15.3129 8.43153 15.0757 8.66877C14.8384 8.90601 14.5567 9.09419 14.2467 9.22257C13.9368 9.35095 13.6045 9.41701 13.269 9.41699Z" fill="#85FF9E"/>
</svg>
